<svg version="1.1" xmlns="http://www.w3.org/2000/svg" xmlns:xlink="http://www.w3.org/1999/xlink" width="199.32862" height="199.32862" viewBox="0,0,199.32862,199.32862"><g transform="translate(-140.33569,-80.3357)"><g data-paper-data="{&quot;isPaintingLayer&quot;:true}" fill-rule="nonzero" stroke-linecap="butt" stroke-linejoin="miter" stroke-miterlimit="10" stroke-dasharray="" stroke-dashoffset="0" style="mix-blend-mode: normal"><path d="M190.54763,179.39286c-16.01626,0 -28,1.82235 -28,-15.66667c0,-17.48902 24.31707,-42 40.33333,-42c16.01626,0 16.66667,8.51098 16.66667,26c0,17.48902 -12.98374,31.66667 -29,31.66667z" fill="#199d0d" stroke="#000000" stroke-width="0"/><path d="M258.69861,148.43577c0,-17.48902 6.98374,-25.33333 23,-25.33333c16.01626,0 32.66667,23.17765 32.66667,40.66667c0,17.48902 -10.65041,16.33333 -26.66667,16.33333c-16.01626,0 -29,-14.17765 -29,-31.66667z" data-paper-data="{&quot;index&quot;:null}" fill="#199d0d" stroke="#000000" stroke-width="0"/><path d="M304.86744,180.00002c0,35.8253 -29.04212,64.86742 -64.86742,64.86742c-35.8253,0 -64.86742,-29.04212 -64.86742,-64.86742c0,-35.8253 29.04212,-64.86742 64.86742,-64.86742c35.8253,0 64.86742,29.04212 64.86742,64.86742zM192.53324,142.34738c-8.79156,11.26101 -13.05156,24.04526 -12.78002,38.35275c-0.05939,3.25863 0.25457,6.83553 0.94194,10.73063c0.22911,1.31533 0.87408,2.03666 1.93483,2.16394c0.43279,0.05093 0.82315,0.21215 1.17108,0.48372c5.32925,4.09028 11.30767,6.33061 17.93529,6.72094c2.6137,0.15275 4.88373,0.53038 6.81007,1.13288c9.02917,2.80888 18.24079,4.32365 27.63486,4.5443c2.39305,-0.9165 5.01952,-1.19654 7.87929,-0.84011c4.54853,0.57704 6.85673,0.86558 6.92462,0.86558c11.65137,0.24611 22.82748,-2.287 33.52842,-7.59925c0.29765,-0.14944 0.65294,-0.12568 0.928,0.06211c0.27506,0.18779 0.42661,0.51001 0.39583,0.84166c-0.19095,2.46945 -1.51478,4.49337 -2.43125,6.46637c-1.91784,4.10724 -4.17514,8.00661 -6.77187,11.69803c-0.21215,0.3055 -0.47098,0.56008 -0.77649,0.76375l-3.11861,2.08758c-0.10884,0.07543 -0.23464,0.1275 -0.36913,0.15275c-5.21893,1.09469 -9.55955,3.37322 -14.81664,3.5514c-16.87876,0.59827 -32.63737,1.94757 -46.37206,-5.53716c-8.22299,-4.48064 -15.14761,-7.94295 -22.19952,-12.76729c-1.41292,-0.9674 -2.72402,-2.94043 -4.46791,-3.93329c-0.69586,-0.39036 -0.89527,-0.21215 -0.59827,0.53461c3.87813,9.76746 10.03053,17.60009 18.45717,23.49788c1.90087,1.3323 4.70128,2.65189 8.4012,3.95876c6.22453,2.20214 12.24537,6.10997 18.06257,7.23012c5.80447,1.12015 11.6556,1.14562 17.55343,0.07636c1.96027,-0.35643 4.41698,-1.55294 6.8228,-1.73116c0.20476,-0.00643 0.38891,0.12386 0.45102,0.31907c0.06211,0.19521 -0.01289,0.40794 -0.18372,0.52105l-0.67463,0.42006c-0.07874,0.04249 -0.12052,0.13143 -0.10297,0.21916c0.01755,0.08773 0.09033,0.15377 0.17936,0.1627l4.06058,0.52188c0.34326,0.04719 0.68953,-0.07611 0.92924,-0.33097c0.77222,-0.82315 1.73116,-1.14562 2.87677,-0.9674c0.34793,0.05093 0.6789,0.01273 0.99286,-0.11456c2.0027,-0.81465 4.00542,-1.62083 6.00812,-2.41852c2.07059,-0.82315 3.9248,-1.87967 5.56263,-3.16954c5.21043,-4.09878 8.56242,-6.90766 10.05597,-8.42667c8.32481,-8.45213 13.70499,-19.00451 16.14047,-31.65724l0.6492,-5.49897c1.02683,-7.97688 0.18668,-15.8562 -2.52037,-23.6379c-1.30686,-3.75085 -3.45808,-8.53699 -6.45364,-14.35842c-2.14698,-4.1921 -5.23166,-7.03494 -9.25405,-8.52849c-1.96027,-1.80752 -3.57263,-2.83434 -4.83707,-3.08045c-3.70842,-0.70433 -6.53003,0.76799 -8.46483,4.41698c-11.75319,-2.40155 -23.99433,-3.03376 -36.72342,-1.89664c-4.35335,0.39036 -8.44786,1.58264 -12.28357,3.57687c-4.84977,2.52037 -9.97961,2.68582 -14.89303,5.00252c-0.58554,-1.12015 -0.89951,-2.29546 -0.94194,-3.52597c-0.01697,-0.40733 0.10609,-0.76375 0.36913,-1.06926c2.65613,-3.04649 3.75508,-6.43244 3.29683,-10.15782c17.37944,-7.62898 35.23411,-9.38133 53.56399,-5.25712c5.40988,1.22201 8.31208,4.88796 14.07838,4.91343c0.25695,0.00519 0.48594,-0.1614 0.56005,-0.40748c0.07413,-0.24611 -0.02475,-0.51144 -0.24184,-0.64901c-28.39858,-19.13183 -60.90867,-13.6583 -82.87907,11.57074z" fill="#106f0d" stroke="none" stroke-width="1"/><path d="M207.45174,132.17683c-4.8795,1.90087 -9.24555,5.21043 -13.09822,9.92868c-0.80618,0.9844 -1.41292,1.06499 -1.82025,0.24184c21.97041,-25.22904 54.48049,-30.70257 82.87907,-11.57074c0.21709,0.13758 0.31595,0.40294 0.24184,0.64901c-0.07413,0.24611 -0.30309,0.4127 -0.56005,0.40748c-5.76627,-0.02546 -8.66851,-3.69142 -14.07838,-4.91343c-18.32988,-4.12421 -36.18454,-2.37186 -53.56399,5.25712z" fill="#4eb90f" stroke="none" stroke-width="1"/><path d="M207.45174,132.17683c0.45825,3.72538 -0.6407,7.1113 -3.29683,10.15782c-0.26307,0.3055 -0.38613,0.6619 -0.36913,1.06926c0.04243,1.23047 0.35643,2.40579 0.94194,3.52597c-8.69821,5.94872 -16.18717,13.20854 -22.46685,21.77946c-0.1738,0.24122 -0.1755,0.56805 -0.0042,0.809c0.17126,0.24095 0.47639,0.34095 0.75522,0.2475l11.92714,-3.78054l-4.96435,11.53255l-10.22145,3.18227c-0.27154,-14.30749 3.98846,-27.09174 12.78002,-38.35275c0.40733,0.82315 1.01409,0.74252 1.82025,-0.24184c3.85267,-4.71825 8.21875,-8.02781 13.09822,-9.92868z" fill="#199d0d" stroke="none" stroke-width="1"/><path d="M281.92963,138.91055c3.46231,4.17514 5.58806,13.87471 -2.16394,15.09671c-5.77901,-1.81601 -9.49166,-6.40274 -11.13795,-13.76015c1.93483,-3.64899 4.75644,-5.12134 8.46483,-4.41698c1.26444,0.24611 2.87677,1.2729 4.83707,3.08045z" fill="#ffffff" stroke="none" stroke-width="1"/><path d="M268.62773,140.24705c1.6463,7.35741 5.35895,11.94414 11.13795,13.76015c-0.60251,0.72132 -0.44129,2.18091 0.48372,4.37882c0.3055,0.73829 0.37763,1.34503 0.21641,1.82025c-0.25457,0.75526 -0.78072,1.19654 -1.5784,1.32383c-10.24268,-5.45654 -21.15999,-7.39561 -32.75193,-5.8172c-2.73252,0.37339 -5.2274,0.44975 -7.4847,0.22911c-9.47043,-0.92924 -18.68631,1.40019 -33.00654,5.10437c-2.17244,0.56008 -5.74081,2.20637 -10.70516,4.93889l-11.92714,3.78054c-0.27883,0.09342 -0.58396,-0.00658 -0.75522,-0.2475c-0.17126,-0.24095 -0.16956,-0.56777 0.0042,-0.809c6.27969,-8.57092 13.76862,-15.83074 22.46685,-21.77946c4.91343,-2.31669 10.04323,-2.48218 14.89303,-5.00252c3.8357,-1.99423 7.93022,-3.18651 12.28357,-3.57687c12.72909,-1.13712 24.97023,-0.50492 36.72342,1.89664z" fill="#4eb90f" stroke="none" stroke-width="1"/><path d="M281.92963,138.91055c4.02239,1.49355 7.10707,4.33639 9.25405,8.52849c2.99559,5.82143 5.1468,10.60757 6.45364,14.35842c2.70705,7.7817 3.54717,15.66102 2.52037,23.6379l-8.71944,-5.2062c-0.14506,-0.08566 -0.32256,-0.09604 -0.47664,-0.02787c-0.15405,0.0682 -0.26573,0.20655 -0.29985,0.37154l-3.43685,16.02592c-0.09713,0.43813 0.07979,0.8916 0.44796,1.14818c0.36817,0.25661 0.85482,0.26564 1.23227,0.0229l10.60334,-6.83553c-2.43548,12.6527 -7.81566,23.20511 -16.14047,31.65724c-1.49355,1.51901 -4.84553,4.32789 -10.05597,8.42667c-1.6378,1.28987 -3.49201,2.34639 -5.56263,3.16954c-2.0027,0.79768 -4.00542,1.60387 -6.00812,2.41852c-0.31397,0.12729 -0.64493,0.16548 -0.99286,0.11456c-1.14562,-0.17821 -2.10455,0.14425 -2.87677,0.9674c-0.23971,0.25482 -0.58597,0.37815 -0.92924,0.33097l-4.06058,-0.52188c-0.08903,-0.00893 -0.16181,-0.07497 -0.17936,-0.1627c-0.01755,-0.08773 0.02423,-0.17667 0.10297,-0.21916l0.67463,-0.42006c0.17083,-0.1131 0.24583,-0.32584 0.18372,-0.52105c-0.06211,-0.19521 -0.24626,-0.3255 -0.45102,-0.31907c-2.40579,0.17821 -4.8625,1.37473 -6.8228,1.73116c-5.89783,1.06926 -11.74896,1.04379 -17.55343,-0.07636c-5.8172,-1.12015 -11.83805,-5.02798 -18.06257,-7.23012c-3.69992,-1.30686 -6.50033,-2.62643 -8.4012,-3.95876c-8.42667,-5.89783 -14.57903,-13.73045 -18.45717,-23.49788c-0.297,-0.74676 -0.09759,-0.92497 0.59827,-0.53461c1.74389,0.99286 3.05499,2.96586 4.46791,3.93329c7.05191,4.82434 13.97653,8.28665 22.19952,12.76729c13.73469,7.4847 29.4933,6.13543 46.37206,5.53716c5.25712,-0.17821 9.59774,-2.45671 14.81664,-3.5514c0.13449,-0.02525 0.26029,-0.07732 0.36913,-0.15275l3.11861,-2.08758c0.3055,-0.20368 0.56431,-0.45825 0.77649,-0.76375c2.59673,-3.69142 4.85403,-7.59079 6.77187,-11.69803c0.9165,-1.973 2.2403,-3.99692 2.43125,-6.46637c0.03078,-0.33165 -0.12077,-0.65386 -0.39583,-0.84166c-0.27506,-0.18779 -0.63035,-0.21156 -0.928,-0.06211c-10.70093,5.31229 -21.87705,7.84536 -33.52842,7.59925c-0.06789,0 -2.37609,-0.28854 -6.92462,-0.86558c-2.85981,-0.35643 -5.48624,-0.07636 -7.87929,0.84011c4.2006,-3.87813 7.13253,-6.33908 8.7958,-7.38287c4.27696,-2.69009 7.76473,-6.1227 10.46332,-10.29784c1.6548,-2.5543 2.87254,-4.30669 3.65326,-5.25712c1.35776,-1.67176 2.71129,-3.33079 4.06058,-4.97709c5.19347,2.99559 8.98674,1.6675 11.3798,-3.98419l14.39659,3.84417c0.29608,0.07812 0.61165,0.00949 0.84852,-0.18455c0.23687,-0.19404 0.36632,-0.48993 0.34799,-0.79558l-0.58554,-10.19599c-0.00797,-0.20581 -0.08903,-0.40396 -0.22911,-0.56008l-1.34929,-1.56567c3.25863,-0.9759 4.33639,-2.86827 3.2332,-5.67718c-0.63492,-1.62269 -2.3942,-2.50233 -4.07331,-2.03666c-2.76645,0.76375 -3.61506,2.65189 -2.54581,5.66445c-1.96876,0.10182 -3.8654,-0.41156 -5.68991,-1.54021c0.79768,-0.12729 1.32383,-0.56857 1.5784,-1.32383c0.16125,-0.47522 0.08909,-1.08199 -0.21641,-1.82025c-0.92497,-2.19787 -1.08622,-3.65749 -0.48372,-4.37882c7.752,-1.22201 5.62625,-10.92154 2.16394,-15.09671z" fill="#199d0d" stroke="none" stroke-width="1"/><path d="M278.88737,161.5301c1.82451,1.12865 3.72115,1.64206 5.68991,1.54021c0.9674,0.9674 2.09605,1.65053 3.38595,2.04939l1.34929,1.56567c0.14011,0.15612 0.22114,0.35427 0.22911,0.56008l0.58554,10.19599c0.01829,0.30566 -0.11113,0.60155 -0.34799,0.79558c-0.23687,0.19404 -0.55244,0.26267 -0.84852,0.18455l-14.39659,-3.84417c0.0085,-5.72808 -2.53307,-8.36724 -7.62472,-7.91749c-2.94466,0.26307 -4.98132,1.9221 -6.10997,4.97709c-10.48029,3.34352 -20.52352,3.5599 -30.12973,0.6492c-1.5784,-0.48372 -4.63339,-0.30127 -9.16496,0.54734c-3.38595,-2.97859 -10.22145,-8.82126 -13.79835,-8.7067c-0.73362,0.02806 -1.36975,0.51579 -1.58724,1.217c-0.21752,0.70118 0.0309,1.46332 0.61984,1.90164l6.45364,4.76068c0.18767,0.13937 0.29512,0.3619 0.28749,0.59552c-0.00763,0.23365 -0.1293,0.4487 -0.32568,0.57553l-1.89664,1.2729c-0.01697,-0.11882 -0.0297,-0.23338 -0.0382,-0.3437c-0.01697,-0.11032 -0.08062,-0.15698 -0.19095,-0.14002l-21.0539,3.5514l4.96435,-11.53255c4.96435,-2.73252 8.53272,-4.37882 10.70516,-4.93889c14.32023,-3.70415 23.53608,-6.03358 33.00654,-5.10437c2.2573,0.22064 4.75218,0.14425 7.4847,-0.22911c11.59194,-1.5784 22.50928,0.36066 32.75193,5.8172z" fill="#106f0d" stroke="none" stroke-width="1"/><path d="M287.96322,165.11971c-1.28987,-0.39886 -2.41852,-1.08199 -3.38595,-2.04939c-1.06926,-3.01256 -0.22064,-4.9007 2.54581,-5.66445c1.67912,-0.46567 3.43839,0.41397 4.07331,2.03666c1.10319,2.80888 0.02546,4.70128 -3.2332,5.67718z" fill="#ffffff" stroke="none" stroke-width="1"/><path d="M274.534,174.57743c-2.39305,5.65172 -6.18633,6.97978 -11.3798,3.98419c-1.82451,-1.66326 -2.60946,-3.97149 -2.35489,-6.92462c1.12865,-3.05499 3.16531,-4.71401 6.10997,-4.97709c5.09164,-0.44975 7.63321,2.18941 7.62472,7.91749z" fill="#062f05" stroke="none" stroke-width="1"/><path d="M260.79934,171.63701c-0.25457,2.95316 0.53038,5.26136 2.35489,6.92462c-1.34929,1.6463 -2.70282,3.30533 -4.06058,4.97709c-0.78072,0.95044 -1.99846,2.70282 -3.65326,5.25712c-2.69856,4.17514 -6.18633,7.60775 -10.46332,10.29784c-1.66326,1.04379 -4.59519,3.50474 -8.7958,7.38287c-9.39407,-0.22064 -18.60569,-1.73539 -27.63486,-4.5443c-1.92634,-0.60251 -4.19637,-0.98013 -6.81007,-1.13288c-6.62762,-0.39036 -12.60604,-2.63066 -17.93529,-6.72094c-0.34793,-0.27154 -0.73829,-0.43279 -1.17108,-0.48372c-1.06076,-0.12729 -1.70569,-0.84861 -1.93483,-2.16394c-0.68736,-3.8951 -1.00136,-7.47197 -0.94194,-10.73063l10.22145,-3.18227l21.0539,-3.5514c0.11032,-0.01697 0.17395,0.0297 0.19095,0.14002c0.0085,0.11032 0.02123,0.22488 0.0382,0.3437c-1.40019,1.19654 -5.01525,4.02239 -3.93329,6.1227c0.31675,0.60859 0.87015,1.05989 1.53001,1.24775c0.65986,0.18786 1.36799,0.09567 1.95776,-0.25485c4.34485,-2.57127 7.90902,-5.482 10.69243,-8.73217c4.53157,-0.84861 7.58652,-1.03106 9.16496,-0.54734c9.60621,2.91073 19.64948,2.69432 30.12973,-0.6492zM240.02548,184.21335l-4.03512,-4.8625c-0.26307,-0.31397 -0.58977,-0.52615 -0.98013,-0.63647c-1.21351,-0.32247 -1.97726,0.17821 -2.29123,1.50204c-0.09067,0.38875 -0.05498,0.79475 0.10182,1.15835c1.28563,3.04225 4.9007,8.87219 8.47756,9.7632c0.50813,0.12911 1.0458,-0.08597 1.33656,-0.53461l5.63899,-8.89762c0.38257,-0.60788 0.38752,-1.37813 0.01273,-1.98573c-1.00136,-1.6378 -2.11302,-2.09605 -3.33502,-1.37473c-1.38746,0.81465 -2.96586,4.35335 -3.86964,5.80447c-0.31397,0.50915 -0.66616,0.53038 -1.05652,0.06366z" fill="#4eb90f" stroke="none" stroke-width="1"/><path d="M220.44046,175.07743c-2.70785,5.65172 -7.00013,6.97978 -12.87678,3.98419c-2.06452,-1.66326 -2.95273,-3.97149 -2.66467,-6.92462c1.27712,-3.05499 3.5817,-4.71401 6.91372,-4.97709c5.76143,-0.44975 8.63734,2.18941 8.62773,7.91749z" fill="#062f05" stroke="none" stroke-width="1"/><path d="M300.15769,185.43536l-0.6492,5.49897l-10.60334,6.83553c-0.37744,0.24277 -0.86409,0.23372 -1.23227,-0.0229c-0.36817,-0.25661 -0.54509,-0.71005 -0.44796,-1.14818l3.43685,-16.02592c0.03412,-0.16499 0.1458,-0.30337 0.29985,-0.37154c0.15405,-0.0682 0.33155,-0.05782 0.47664,0.02787z" fill="#4eb90f" stroke="none" stroke-width="1"/><path d="M140.33569,180.00002c0,-55.04308 44.62123,-99.66431 99.66431,-99.66431c55.04308,0 99.66431,44.62123 99.66431,99.66431c0,55.04308 -44.62123,99.66431 -99.66431,99.66431c-55.04308,0 -99.66431,-44.62123 -99.66431,-99.66431z" fill="none" stroke="none" stroke-width="0"/><path d="M271.4761,216.07167c2.32119,0.92848 1.39272,3.24967 1.39272,3.24967l-1.53476,2.77252c-1.83501,1.31041 -3.70207,2.57599 -5.58104,3.82255c-1.2288,0.52955 -2.38064,1.2965 -3.68641,1.58866c-5.06414,1.13306 -14.48367,-0.95584 -18.45418,-4.19283c-0.99833,-0.81389 -2.71925,-3.41471 -3.77145,-5.43388c-0.15643,0.26313 -0.31746,0.5226 -0.47075,0.78019c-0.92038,1.54653 -3.62968,4.86486 -5.1358,5.83624c-2.73228,1.76222 -10.50515,2.53656 -13.40688,0.64486c-1.06517,-0.69441 -1.41146,-2.11541 -2.11719,-3.17311c0,0 -1.24035,-2.17061 0.93026,-3.41096c2.17061,-1.24035 3.41096,0.93026 3.41096,0.93026c0.85423,2.32193 2.0526,1.38879 4.49606,1.40701c3.71075,0.02767 5.59796,-1.46775 7.51074,-4.76569c0.22301,-0.38451 0.37146,-0.80964 0.51664,-1.23566c-3.75283,-1.62169 -6.51757,-4.94262 -7.56448,-8.82849c-0.04551,-0.16891 -0.09483,-0.35896 -0.14515,-0.56502c-1.81798,1.61721 -5.10409,1.8243 -7.31775,1.81153c-5.18179,-0.02988 -7.88004,-3.47185 -10.69542,-7.53995c-1.07929,-1.55952 -2.83935,-3.349 -2.88792,-5.37672c-0.00469,-0.19574 0.65372,-2.75936 0.7273,-3.05125c1.12704,-2.83013 2.20644,-6.16217 4.28158,-8.47473c1.56186,-1.74055 4.13369,-2.51317 6.15109,-3.51528c2.05843,-1.02249 4.23821,-2.35624 6.52031,-2.85284c2.88905,-0.62868 6.39996,-0.29317 9.59532,-0.11292l0.17683,-0.15356c0.58211,-0.23181 1.16421,-0.46363 1.74632,-0.69544c4.33647,-1.06556 11.572,-1.19806 15.79026,0.34036c3.09933,1.13034 5.90782,3.17783 9.02801,4.34332c2.46329,0.92011 5.36012,1.71713 7.60044,3.13727c0.94878,0.60143 1.69202,1.51866 2.69677,2.02103c1.49737,1.47113 3.21695,2.51949 4.34277,4.37393c1.2628,2.08008 0.69293,3.78064 0.13902,5.94329c-1.67664,6.54614 -10.34306,8.14076 -16.05565,5.50489c-0.46125,-0.21283 -1.19274,-0.74852 -1.94353,-1.41905c-0.67685,3.57272 -2.28883,6.54383 -4.6946,9.87106c-1.84004,2.17096 -4.72546,5.95677 -7.49,6.9363c-0.15823,0.05606 -0.33701,0.09883 -0.53303,0.12972c0.55355,1.19965 1.11891,2.22624 1.77267,2.75454c3.82776,3.09315 12.21774,4.06995 16.52608,2.0625c1.71099,-1.14707 3.40954,-2.31329 5.08563,-3.51079l-0.20143,-0.56081c0,0 0.92848,-2.32119 3.24967,-1.39272z" fill="#000000" stroke="none" stroke-width="0.5"/><path d="M233.84827,179.44689c3.85118,-1.38856 7.78937,-1.89399 12.04884,-0.58751c1.43414,0.43988 4.47803,1.19905 4.56063,3.32799c0.03564,0.91864 -1.38903,1.21076 -2.14627,1.73208c-2.04162,1.40553 -4.41191,2.52945 -6.82294,3.0263c-4.55929,1.13982 -13.06012,3.71714 -17.07517,0.07348c-3.16236,-2.86985 -0.68513,-5.6471 2.29524,-7.10283c1.8699,-0.91334 4.85886,-0.57906 7.13967,-0.46949z" fill="#ffffff" stroke="none" stroke-width="0.5"/><path d="M180.04763,180.05951c0,2.5 -2.5,2.5 -2.5,2.5h-1c-2.48711,-0.01263 -4.34835,0.19911 -6.76915,-0.92289c-3.1541,-1.46188 -5.65924,-5.11281 -7.37657,-7.96086c-3.84649,-6.37908 -3.99895,-13.10774 -0.75702,-19.73429c1.91935,-3.8292 4.28336,-7.378 6.39136,-11.10922c1.82282,-3.22644 3.0926,-6.53096 5.74362,-9.2072c3.09121,-3.12061 7.09931,-5.65125 10.62174,-8.24755c2.65081,-1.95385 6.28208,-4.92182 9.57162,-5.75113c0.33802,-0.08522 5.27956,-0.06688 5.90772,-0.06688c4.66667,0 9.33333,0 14,0c0,0 2.5,0 2.5,2.5c0,2.5 -2.5,2.5 -2.5,2.5c-4.66667,0 -9.33333,0 -14,0c-1.58647,0 -3.21864,-0.44679 -4.75895,-0.06688c-2.53626,0.62556 -5.7779,3.4512 -7.76171,4.91554c-3.32449,2.45397 -7.09564,4.8393 -10.04492,7.75245c-2.2899,2.26185 -3.36147,5.36189 -4.92304,8.12613c-2.06617,3.65745 -4.40218,7.13441 -6.27531,10.89078c-2.59574,5.05353 -2.33191,10.05637 0.57632,14.93238c1.22241,2.04953 3.02639,4.96987 5.29009,6.03914c1.24797,0.58949 3.27913,0.41846 4.56419,0.41044h1c0,0 2.5,0 2.5,2.5z" fill="#106f0d" stroke="none" stroke-width="0.5"/><path d="M300.71428,179.72619c0,-2.5 2.5,-2.5 2.5,-2.5l1.45767,0.05953c3.52984,-0.6303 3.86328,-2.20527 6.23267,-5.09059c0.82987,-1.01058 2.0747,-1.77111 2.53252,-2.996c0.24386,-0.65244 -0.5124,-1.30042 -0.67339,-1.97808c-0.59361,-2.49875 -1.01127,-5.038 -1.6349,-7.52943c-0.9217,-3.37976 -1.66211,-6.87536 -2.63539,-10.2239c-1.75748,-6.04655 -6.28997,-11.38382 -10.20691,-16.14974c-2.34657,-2.85517 -4.45979,-5.79112 -7.99035,-7.26648c-5.31858,-2.22254 -13.39415,0.38701 -18.72835,1.14956c0,0 -2.47487,0.35355 -2.82843,-2.12132c-0.35355,-2.47487 2.12132,-2.82843 2.12132,-2.82843c6.49055,-0.92658 14.86232,-3.46351 21.27165,-0.85044c4.3933,1.79114 7.08891,5.19367 10.00965,8.73352c4.36047,5.28478 9.13918,11.16208 11.12642,17.85026c1.0123,3.40696 1.75864,6.99884 2.69794,10.44276c0.64495,2.58289 1.24539,5.18054 1.69843,7.80391c0.23119,1.33875 1.06346,2.72466 0.65994,4.02192c-0.60274,1.93775 -2.26319,3.37064 -3.46748,5.004c-2.86323,3.88335 -4.45458,5.74732 -9.10067,6.90941l-2.54233,0.05953c0,0 -2.5,0 -2.5,-2.5z" fill="#106f0d" stroke="none" stroke-width="0.5"/></g></g></svg>