<svg version="1.1" xmlns="http://www.w3.org/2000/svg" xmlns:xlink="http://www.w3.org/1999/xlink" width="220.32862" height="220.32862" viewBox="0,0,220.32862,220.32862"><defs><linearGradient x1="240.00007" y1="102.75712" x2="240.00007" y2="257.24291" gradientUnits="userSpaceOnUse" id="color-1"><stop offset="0" stop-color="#0064d6"/><stop offset="1" stop-color="#001ad6"/></linearGradient></defs><g transform="translate(-129.83569,-69.83569)"><g data-paper-data="{&quot;isPaintingLayer&quot;:true}" fill-rule="nonzero" stroke-linejoin="miter" stroke-miterlimit="10" stroke-dasharray="" stroke-dashoffset="0" style="mix-blend-mode: normal"><path d="M162.75717,180.00001c0,-42.66006 34.58282,-73.24289 77.24289,-73.24289c42.66007,0 77.24289,30.58282 77.24289,73.24289c0,42.66006 -34.58282,77.2429 -77.24289,77.2429c-42.66006,0 -77.24289,-34.58282 -77.24289,-77.2429z" fill="url(#color-1)" stroke="#002ea9" stroke-width="5" stroke-linecap="butt"/><path d="M279.57056,121.78718c5.74702,3.45228 12.19645,13.89477 3.65549,18.49297c-7.48336,0.24741 -13.69083,-3.58244 -18.62238,-11.4895c0.76301,-5.04775 3.45119,-7.91987 8.06458,-8.61627c1.57545,-0.23052 3.87618,0.30709 6.90233,1.61285z" fill="#2e00ad" stroke="none" stroke-width="1" stroke-linecap="butt"/><path d="M297.33528,149.88525c-1.66763,0.06277 -3.26359,-0.272 -4.78787,-1.0043c-2.48016,-3.07587 -2.26326,-5.62537 0.65063,-7.64847c1.76775,-1.23039 4.17963,-0.92456 5.58432,0.70808c2.43636,2.82443 1.95399,5.47266 -1.44713,7.94468z" fill="#2e00ad" stroke="none" stroke-width="1" stroke-linecap="butt"/><path d="M206.55764,168.49918c-5.00719,5.84687 -11.41893,11.08307 -19.23508,15.70869c-1.06096,0.63057 -2.33487,0.7964 -3.52189,0.45845c-1.18705,-0.33795 -2.18259,-1.14982 -2.75239,-2.24464c-1.94645,-3.77828 4.55685,-8.86189 7.07575,-11.01439l3.41195,-2.28988c0.35322,-0.22819 0.57215,-0.61506 0.58588,-1.03535c0.01373,-0.42031 -0.17956,-0.82062 -0.51718,-1.07132l-11.60974,-8.56421c-1.05948,-0.78852 -1.50636,-2.15952 -1.11508,-3.42093c0.39131,-1.26138 1.53566,-2.13879 2.85535,-2.18932c6.43459,-0.20609 18.7313,10.3045 24.82247,15.66286z" fill="#e4e9ff" stroke="none" stroke-width="1" stroke-linecap="butt"/><path d="M301.9545,171.63633c-4.30495,10.16712 -11.12886,12.55623 -20.47163,7.16734c-3.2822,-2.99213 -4.69427,-7.1445 -4.23631,-12.457c2.03036,-5.49575 5.69422,-8.48022 10.99149,-8.9535c9.15957,-0.80908 13.73173,3.93862 13.71644,14.24312z" fill="#e4e9ff" stroke="none" stroke-width="1" stroke-linecap="butt"/><path d="M241.77615,188.85632c1.62583,-2.61049 4.46531,-8.97636 6.96126,-10.44191c2.19834,-1.2976 4.19813,-0.47325 5.99952,2.47306c0.67421,1.09305 0.66532,2.47867 -0.0229,3.57221l-10.14423,16.00633c-0.52299,0.80713 -1.49025,1.194 -2.40439,0.96173c-6.43459,-1.60292 -12.93789,-12.09061 -15.25066,-17.56345c-0.28207,-0.65411 -0.34627,-1.38445 -0.18317,-2.08381c0.56482,-2.38151 1.93876,-3.2822 4.1218,-2.70208c0.70222,0.19846 1.28996,0.58011 1.7632,1.14497l7.25897,8.74737c0.70222,0.83962 1.33575,0.80148 1.90063,-0.11451z" fill="#e4e9ff" stroke="none" stroke-width="1" stroke-linecap="butt"/><path d="M129.83569,180c0,-60.84207 49.32224,-110.16431 110.16431,-110.16431c60.84207,0 110.16431,49.32224 110.16431,110.16431c0,60.84207 -49.32224,110.16431 -110.16431,110.16431c-60.84207,0 -110.16431,-49.32224 -110.16431,-110.16431z" fill="none" stroke="none" stroke-width="0" stroke-linecap="butt"/><path d="M240.83334,75.37224z" fill="#0064d6" stroke="#002ea9" stroke-width="5" stroke-linecap="butt"/><path d="M213.0523,101.95659l24.5,4.5l24.5,-6.5" fill="none" stroke="#002ea9" stroke-width="7" stroke-linecap="round"/><path d="M226.5523,97.95659l10,6l10.5,-6" fill="none" stroke="#002ea9" stroke-width="7" stroke-linecap="round"/></g></g></svg>