<svg version="1.1" xmlns="http://www.w3.org/2000/svg" xmlns:xlink="http://www.w3.org/1999/xlink" width="87.83399" height="90.73225" viewBox="0,0,87.83399,90.73225"><g transform="translate(-195.00529,-131.5062)"><g data-paper-data="{&quot;isPaintingLayer&quot;:true}" fill-rule="nonzero" stroke="none" stroke-width="0.5" stroke-linecap="butt" stroke-linejoin="miter" stroke-miterlimit="10" stroke-dasharray="" stroke-dashoffset="0" style="mix-blend-mode: normal"><path d="M234.9987,200.65909c0.16831,0.32355 0.31782,0.64917 0.43768,0.98059c-0.29331,-1.10288 -0.49812,-2.24947 -0.63927,-3.41859c0.02981,0.54855 0.04217,1.0714 0.04217,1.54676l0.17082,0.16459c0,0 0.19605,0.39211 -0.0114,0.72665zM235.73185,203.00462l0.00882,0.01323h0.1186c-0.07499,-0.2136 -0.14598,-0.42934 -0.21317,-0.64703c0.04327,0.20783 0.07267,0.41882 0.08574,0.6338zM236.08928,203.76785c0,0.41421 -0.33579,0.75 -0.75,0.75c-0.26446,0 -0.49695,-0.13688 -0.63049,-0.34365l-0.46305,-0.69458c-0.46355,-0.47636 -0.99752,-1.67353 -1.39986,-2.00236c-0.51128,-0.41787 -1.01108,0.85228 -1.47627,1.32093c0,0 -0.52689,0.52689 -1.05549,0.00514c-0.70496,1.47706 -1.44786,2.81646 -3.18783,3.40744c-2.31241,1.15948 -5.00058,2.39538 -7.65715,2.04741c-1.59368,-0.20875 -2.70066,-1.19654 -3.85536,-2.16031c-4.08534,-3.40982 -6.98049,-6.61462 -7.90421,-12.05546c-0.39598,-2.63968 -0.54642,-5.21097 -0.59725,-7.8316l-0.27304,-0.69295c0.0149,-0.44775 0.10665,-0.91703 0.25092,-1.39541c-0.00064,-0.20105 -0.00092,-0.40257 -0.00092,-0.60459c0,-0.88769 0.3496,-2.65999 0.13797,-3.72198c-0.71935,0.26667 -1.44956,0.51004 -2.20606,0.69959c0,0 -0.32795,0.08199 -0.59855,-0.0843c-0.12792,0.40406 -0.23394,0.90818 -0.44536,1.50099c-2.66266,2.74598 -3.74328,6.04327 -4.92648,9.59287l0.03849,0.26282c0,0 0,0.50192 -0.41059,0.68456c0.17425,1.93831 0.97575,3.67921 1.83462,5.66135c2.67459,6.17257 5.59901,9.24659 11.89579,11.87081c8.32433,3.81646 17.13906,6.56072 26.1025,8.55335c7.71042,1.92748 17.54456,3.78508 25.04068,0.03702c4.55597,-1.50146 10.42656,-6.38272 11.0467,-11.42723c0.13999,-1.13873 0.09987,-2.352 0.05094,-3.54988l-0.27213,-0.34281c-0.79179,-2.37537 -1.81778,-4.70509 -3.61849,-6.51168c-1.72026,-2.58039 -3.30218,-5.1188 -4.82745,-7.86458c-0.32841,-0.59121 -0.7047,-1.15643 -1.00631,-1.76175c-0.21495,-0.43141 -0.38573,-0.88471 -0.54047,-1.34119c-0.05897,-0.17396 -0.03126,-0.73103 -0.05236,-0.54856c-0.3546,3.06704 -1.21824,6.00584 -2.11613,8.93786c-2.16452,4.21037 -4.41594,8.30235 -6.99319,12.27387c-0.93168,1.43571 -1.96602,3.85709 -3.51456,4.73152c-2.46051,1.3894 -7.045,-0.10484 -9.54413,-0.78068c-3.10134,-1.56469 -4.96488,-3.95436 -6.0754,-6.75585zM233.20946,200.5106c-0.34475,-0.65117 -0.63443,-1.24873 -0.86343,-1.82825c-0.37462,0.80811 -0.74627,1.55975 -1.09578,2.22684c0.81712,-0.60496 1.39818,-0.67281 1.95922,-0.39859zM232.11919,192.80816l0.01824,-0.02426l-0.00966,-0.00322l0.24453,-0.73359c0.09425,-0.30647 0.3796,-0.52924 0.71698,-0.52924c0.1425,0 0.27572,0.03974 0.38917,0.10875c0.52603,-1.76807 0.86833,-3.46896 0.86082,-4.85875c0,0 0.00001,-0.07805 0.02518,-0.18379c-1.23467,-0.02904 -2.4253,-0.06621 -3.52518,-0.06621c-2.30098,0 -5.38617,0.00323 -7.0428,-1.98243c-0.8013,-0.96045 -1.62927,-2.90616 -0.48753,-4.0479c0.46192,-0.46192 1.26747,-0.54324 2.04845,-0.5317c0.01096,-0.07064 0.00663,-0.1335 -0.01812,-0.18797l0.17341,-0.03176c0.13375,-0.45494 0.4496,-0.84871 0.99708,-1.14198c1.68617,-0.9032 4.00577,-0.57627 5.82951,-0.57627c3.16666,0 6.33334,0 9.5,0c2.8882,0.01486 9.13567,4.55775 4.57951,6.92374c-2.89787,1.50485 -6.70813,1.70749 -10.3327,1.67293c-0.07606,7.45646 -1.41568,18.40669 6.61108,22.373c1.96793,0.52335 6.34364,2.00281 8.27259,0.87768c1.26757,-0.73936 2.22288,-3.05246 2.99533,-4.24277c2.52627,-3.89285 4.72429,-7.90366 6.86186,-12.02212c0.28006,-0.92641 0.52585,-1.83405 0.75071,-2.74075c-0.11003,0.09255 -0.26634,0.15829 -0.48839,0.15829c-0.75,0 -0.75,-0.75 -0.75,-0.75c0,-2.09673 -0.3682,-4.55729 0.00968,-6.62014c0.16084,-0.87801 0.74515,-2.18711 2.09421,-1.79112c0.8059,0.23656 0.57085,1.50265 0.84168,2.36396c0.15163,-0.19656 0.33576,-0.34517 0.56102,-0.41212c1.81679,-0.53992 1.91937,1.63845 2.40717,2.61025c1.6487,3.28455 3.65825,6.36168 5.66624,9.37367c1.09669,1.09297 1.9292,2.38592 2.5986,3.76407c-0.54494,-7.5691 -4.07436,-14.31579 -5.8987,-21.57888c-0.5969,-1.78637 -1.0765,-3.53889 -1.52429,-5.36805l0.02878,-0.09164h-0.0344v-1c0,-0.41422 0.33578,-0.75 0.75,-0.75c0.2994,0 0.55783,0.17544 0.67809,0.42912l0.31571,0.63142c2.33008,1.87053 5.39594,3.26382 8.18811,3.96186c0.54989,0.13747 3.04404,1.0476 3.53776,0.44727c0.70645,-0.85899 0.78033,-2.64669 0.78033,-3.71967c0,-2.76511 0.00533,-6.12059 -1.40382,-8.63255c-3.23196,-5.76133 -8.16807,-10.53397 -11.80385,-16.06763c-2.39568,-3.65047 -5.4631,-8.23346 -9.80253,-9.8464c-2.36698,-0.8798 -4.75453,-0.70342 -7.23979,-0.70342c-6.16946,-0.02462 -12.88173,2.81978 -19.12014,0.74032l-0.55223,0.00849c-0.2867,0.36433 -0.78367,0.22234 -0.78367,0.22234c-3.8731,-1.10873 -7.32627,-3.22078 -11.15687,-4.40057c-0.95002,-0.2926 -2.12172,-1.55416 -2.85008,-0.87767c-0.56043,0.52052 -0.65677,1.405 -1.16413,1.97738c-1.56002,1.75994 -3.26594,3.35444 -4.75571,5.18643c-3.04452,3.74244 -6.57148,7.62239 -8.70065,11.98716c-1.95261,4.00281 -3.55656,8.27771 -5.21229,12.4141c-0.22038,0.63066 -0.50424,4.79112 0.42377,4.75304c2.31302,-0.09492 6.03913,-1.85245 7.95597,-3.13504l0.74147,-0.49432c0.12071,-0.08304 0.26696,-0.13165 0.42455,-0.13165c0.41422,0 0.75,0.33578 0.75,0.75c0,0.20711 -0.08394,0.3946 -0.21967,0.53033l-0.88631,0.88632c-1.54994,3.24409 -2.82368,6.465 -4.19849,9.86398c-0.83611,2.06715 -1.96739,4.34412 -2.20521,6.58951c-0.07339,0.69295 -0.14115,1.37769 -0.21538,2.05984c0.80256,-1.86562 1.81834,-3.61308 3.33707,-5.07427c0.53404,-1.7941 2.9318,-5.24243 5.14921,-3.16887c0.99235,-0.39513 1.97826,-0.80723 3.00161,-1.14834l0.73339,-0.24446c0.07926,-0.0285 0.16471,-0.04402 0.25378,-0.04402c0.41421,0 0.75,0.33579 0.75,0.75c0,0.20711 -0.08395,0.39461 -0.21967,0.53033l-0.75,0.75l-0.06869,-0.06869c-1.03646,1.67076 -2.39956,3.70416 -2.95965,5.44338c0.01301,3.32923 0.10171,6.56333 0.59959,9.88329c0.85136,5.06211 3.57238,7.96853 7.37391,11.13169c0.95358,0.79344 1.80545,1.68268 3.14464,1.83969c2.36639,0.27744 4.7878,-0.92786 6.84285,-1.9526c1.92676,-0.62862 2.32849,-2.66564 3.22087,-4.33125c0.60357,-1.12656 1.31204,-2.58541 1.98844,-4.17537c-0.09038,-1.02112 0.01944,-2.13172 0.35761,-3.51015zM262.41846,185.85326l-0.20322,-0.41939c-0.0314,-0.04822 -0.194,-0.28564 -0.37563,-0.5901c0.00705,1.64061 0.00103,3.2814 -0.00015,4.92206c0.24984,-1.08019 0.47769,-2.16916 0.70595,-3.29684c0.02051,-0.10134 0.04302,-0.22664 0.06972,-0.36729c-0.13112,-0.11732 -0.19669,-0.24844 -0.19669,-0.24844zM234.51084,193.27703c-0.09585,0.28757 -0.19521,0.57521 -0.29749,0.86207c0.17666,0.67788 0.30778,1.39634 0.40305,2.11391c-0.06494,-0.98861 -0.09535,-1.98468 -0.10556,-2.97598zM209.43183,179.40694c0.10877,-0.19614 0.19629,-0.39489 0.27748,-0.58489c-0.37622,0.14717 -0.75049,0.29769 -1.12505,0.4471c0.09136,0.44565 0.11087,0.94878 0.10123,1.44937c0.26336,-0.46342 0.52094,-0.90511 0.74635,-1.31158zM224.70556,181.45488c-0.16646,0.01677 -0.28875,0.04611 -0.33595,0.0933c-0.7351,0.7351 0.5941,2.01145 1.12073,2.33592c0.63368,0.39042 1.23136,0.64652 1.83058,0.81445c-0.92174,-0.39788 -1.69674,-0.83514 -2.01197,-1.15037c-0.75996,-0.75996 -0.78577,-1.47891 -0.6034,-2.0933zM230.79929,136.72503c0.22187,-0.20719 0.53999,-0.20719 0.53999,-0.20719l0.87014,0.00969c6.14162,2.0472 12.79325,-0.7382 18.87986,-0.75969c2.65582,0 5.23081,-0.15882 7.76021,0.79659c4.66526,1.76217 7.93869,6.48046 10.53578,10.42961c3.64845,5.55398 8.65685,10.34727 11.85784,16.15636c1.52436,2.76637 1.59617,6.32013 1.59617,9.36744c0,1.3091 -0.1699,3.78876 -1.21967,4.78033c-2.09357,1.97749 -8.35322,-0.99877 -10.39777,-2.1265c-0.59213,-0.32661 -1.53058,-0.74445 -2.24704,-1.25412c0.32932,1.22088 0.67957,2.42285 1.08457,3.6406c1.99935,8.03694 6.0299,15.41694 6.0299,23.95969c0,1.90529 0.2297,3.98041 -0.00968,5.87014c-0.7059,5.57262 -6.90088,10.87085 -11.9533,12.57277c-7.77747,3.88873 -17.94982,2.03954 -25.95933,0.03703c-9.04607,-2.00947 -17.95829,-4.78589 -26.35904,-8.63896c-6.6198,-2.75764 -9.85849,-6.15507 -12.67102,-12.64881c-1.34516,-3.10578 -2.45411,-5.68614 -1.78314,-9.08888c1.23261,-6.1934 2.59243,-11.63657 4.78447,-17.61983c0.30714,-0.83835 0.66106,-2.03827 1.17309,-3.08046c-2.17856,1.09268 -4.87812,2.14382 -6.35005,1.83599c-2.39869,-0.50165 -2.13604,-5.00961 -1.57623,-6.74696c1.67574,-4.19223 3.29575,-8.53615 5.28771,-12.5859c2.19318,-4.45885 5.75429,-8.41593 8.87011,-12.24602c1.50497,-1.84927 3.21391,-3.46913 4.79945,-5.23779c0.6494,-0.7244 0.84926,-1.91172 1.70995,-2.36523c0.63616,-0.3352 3.29643,0.65524 3.8649,0.82971c3.74244,1.14864 7.11837,3.20086 10.88212,4.32038z" fill="#000000"/><path d="M236.09803,203.58474c1.11052,2.80149 2.94151,5.19641 6.04286,6.76111c2.49912,0.67584 7.06695,2.18468 9.52746,0.79528c1.54854,-0.87443 2.57591,-3.28223 3.50759,-4.71794c2.57725,-3.97152 4.82748,-8.03608 6.992,-12.24645c0.89788,-2.93202 1.76624,-5.85855 2.12083,-8.92559c0.0211,-0.18247 0.08161,0.32753 0.14058,0.50149c0.15474,0.45648 0.32654,0.91185 0.54149,1.34327c0.30161,0.60532 0.67917,1.1735 1.00758,1.76471c1.52526,2.74579 3.11033,5.29719 4.83059,7.87758c1.80072,1.80659 2.82681,4.14541 3.6186,6.52078l0.2721,0.34323c0.04893,1.19788 0.08844,2.4157 -0.05155,3.55444c-0.62014,5.0445 -6.4986,9.94499 -11.05457,11.44645c-7.49611,3.74805 -17.3666,1.91205 -25.07703,-0.01543c-8.96344,-1.99263 -17.82955,-4.76806 -26.15388,-8.58452c-6.29678,-2.62422 -9.2247,-5.7198 -11.89928,-11.89237c-0.85887,-1.98214 -1.65943,-3.73014 -1.83368,-5.66845c0.4106,-0.18264 0.4108,-0.68551 0.4108,-0.68551l-0.03841,-0.26314c1.1832,-3.54961 2.26891,-6.86003 4.93157,-9.60601c0.21142,-0.59281 0.31847,-1.09867 0.44639,-1.50273c0.2706,0.16628 0.59872,0.08402 0.59872,0.08402c0.7565,-0.18955 1.57018,-0.3779 2.28953,-0.64457c0.21163,1.06199 -0.13551,2.83039 -0.13551,3.71807c0,0.20203 0.00067,0.40286 0.0013,0.60391c-0.14427,0.47837 -0.23509,0.94587 -0.24999,1.39361l0.27338,0.69226c0.05084,2.62063 0.205,5.18096 0.60098,7.82064c0.92372,5.44084 3.81817,8.62181 7.90352,12.03163c1.1547,0.96376 2.25883,1.94384 3.85252,2.15259c2.65657,0.34797 5.34185,-0.89328 7.65426,-2.05276c1.73997,-0.59098 2.39394,-1.88551 3.0989,-3.36257c0.5286,0.52175 1.0568,-0.00214 1.0568,-0.00214c0.46519,-0.46864 1.05783,-1.77528 1.56911,-1.35741c0.40234,0.32884 0.91888,1.50121 1.38243,1.97757l0.45538,0.68978c0.13354,0.20678 0.35855,0.3406 0.62301,0.3406c0.41421,0 0.7433,-0.33741 0.7433,-0.75163z" data-paper-data="{&quot;noHover&quot;:false,&quot;origItem&quot;:[&quot;Path&quot;,{&quot;applyMatrix&quot;:true,&quot;segments&quot;:[[[236.08928,203.76785],[0,0],[0,0.41421]],[[235.33928,204.51785],[0.41421,0],[-0.26446,0]],[[234.70879,204.17419],[0.13354,0.20678],[0,0]],[[234.24574,203.47961],[0,0],[-0.46355,-0.47636]],[[232.84588,201.47725],[0.40234,0.32884],[-0.51128,-0.41787]],[[231.36961,202.79818],[0.46519,-0.46864],[0,0]],[[230.31412,202.80331],[0.5286,0.52175],[-0.70496,1.47706]],[[227.1263,206.21076],[1.73997,-0.59098],[-2.31241,1.15948]],[[219.46915,208.25817],[2.65657,0.34797],[-1.59368,-0.20875]],[[215.61379,206.09786],[1.1547,0.96376],[-4.08534,-3.40982]],[[207.70958,194.0424],[0.92372,5.44084],[-0.39598,-2.63968]],[[207.11233,186.21079],[0.05084,2.62063],[0,0]],[[206.83928,185.51785],[0,0],[0.0149,-0.44775]],[[207.0902,184.12244],[-0.14427,0.47837],[-0.00064,-0.20105]],[[207.08928,183.51785],[0,0.20203],[0,-0.88769]],[[207.22725,179.79586],[0.21163,1.06199],[-0.71935,0.26667]],[[205.02118,180.49545],[0.7565,-0.18955],[0,0]],[[204.42263,180.41116],[0.2706,0.16628],[-0.12792,0.40406]],[[203.97727,181.91215],[0.21142,-0.59281],[-2.66266,2.74598]],[[199.0508,191.50502],[1.1832,-3.54961],[0,0]],[199.08928,191.76785],[[198.67869,192.4524],[0.4106,-0.18264],[0.17425,1.93831]],[[200.51331,198.11375],[-0.85887,-1.98214],[2.67459,6.17257]],[[212.4091,209.98457],[-6.29678,-2.62422],[8.32433,3.81646]],[[238.5116,218.53791],[-8.96344,-1.99263],[7.71042,1.92748]],[[263.55227,218.57494],[-7.49611,3.74805],[4.55597,-1.50146]],[[274.59897,207.14771],[-0.62014,5.0445],[0.13999,-1.13873]],[[274.64991,203.59783],[0.04893,1.19788],[0,0]],[[274.37777,203.25502],[0,0],[-0.79179,-2.37537]],[[270.75928,196.74334],[1.80072,1.80659],[-1.72026,-2.58039]],[[265.93183,188.87876],[1.52526,2.74579],[-0.32841,-0.59121]],[[264.92552,187.11701],[0.30161,0.60532],[-0.21495,-0.43141]],[[264.38505,185.77582],[0.15474,0.45648],[-0.05897,-0.17396]],[[264.33269,185.22725],[0.0211,-0.18247],[-0.3546,3.06704]],[[262.21656,194.16511],[0.89788,-2.93202],[-2.16452,4.21037]],[[255.22337,206.43898],[2.57725,-3.97152],[-0.93168,1.43571]],[[251.70881,211.1705],[1.54854,-0.87443],[-2.46051,1.3894]],[[242.16468,210.38982],[2.49912,0.67584],[-3.10134,-1.56469]],[[236.08928,203.63397],[1.11052,2.80149],[0,0]]],&quot;closed&quot;:true}]}" fill="#786400"/><path d="M231.77551,196.27029c-0.6764,1.58996 -1.41391,3.14449 -2.01748,4.27106c-0.89237,1.66562 -1.29644,3.70183 -3.22321,4.33045c-2.05505,1.02473 -4.48297,2.22707 -6.84936,1.94963c-1.33919,-0.15701 -2.19494,-1.04859 -3.14852,-1.84204c-3.80153,-3.16316 -6.53474,-6.08115 -7.3861,-11.14326c-0.49789,-3.31996 -0.59284,-6.56513 -0.60585,-9.89435c0.56009,-1.73922 1.92101,-3.77922 2.95747,-5.44998l0.06873,0.06883l0.74976,-0.75096c0.13572,-0.13572 0.21948,-0.32406 0.21948,-0.53117c0,-0.41421 -0.33611,-0.75159 -0.75032,-0.75159c-0.08907,0 -0.07617,-0.00259 -0.15543,0.02591l-0.73343,0.24428c-1.02335,0.34112 -2.00944,0.75232 -3.00179,1.14746c-2.21741,-2.07355 -4.6158,1.3721 -5.14984,3.1662c-1.51873,1.4612 -2.53597,3.20407 -3.33853,5.0697c0.07423,-0.68215 0.04749,-1.33426 0.12088,-2.0272c0.23782,-2.2454 1.36736,-4.52962 2.20347,-6.59677c1.37481,-3.39898 2.64825,-6.63366 4.19818,-9.87776l0.88651,-0.88782c0.13573,-0.13573 0.2198,-0.32408 0.2198,-0.53118c0,-0.41422 -0.33562,-0.75092 -0.74984,-0.75092c-0.15759,0 -0.20544,0.06641 -0.32615,0.14945l-0.74132,0.49343c-1.91684,1.28259 -5.74226,3.02957 -8.05528,3.1245c-0.92801,0.03808 -0.64355,-4.12787 -0.42316,-4.75854c1.65573,-4.13639 3.26475,-8.42635 5.21735,-12.42917c2.12917,-4.36477 5.66695,-8.25864 8.71147,-12.00107c1.48977,-1.83199 3.2021,-3.43139 4.76213,-5.19133c0.50736,-0.57237 0.60566,-1.45806 1.16609,-1.97858c0.72835,-0.67649 1.90216,0.58392 2.85218,0.87652c3.83059,1.17979 7.2946,3.28774 11.1677,4.39648c0,0 0.49813,0.14172 0.78483,-0.22261l0.553,-0.00866c6.2384,2.07946 12.97757,-0.76312 19.14703,-0.7385c2.48527,0 4.88112,-0.17255 7.2481,0.70725c4.33943,1.61293 7.42065,6.2077 9.81633,9.85817c3.63578,5.53366 8.58225,10.32867 11.8142,16.09c1.40915,2.51197 1.40465,5.87778 1.40465,8.64289c0,1.07298 -0.07418,2.86514 -0.78063,3.72413c-0.49372,0.60032 -3.08725,-0.32101 -3.63714,-0.45848c-2.79217,-0.69804 -5.85833,-2.08626 -8.18841,-3.9568l-0.31571,-0.63035c-0.12026,-0.25368 -0.27871,-0.43098 -0.57811,-0.43098c-0.41422,0 -0.74998,0.33708 -0.74998,0.7513l-0.00003,1.00178l0.0344,0l-0.02879,0.0918c0.44779,1.82916 0.92628,3.59038 1.52318,5.37676c1.82434,7.26309 5.34417,14.03011 5.88911,21.59921c-0.6694,-1.37815 -1.58144,-2.7317 -2.67813,-3.82467c-2.00799,-3.01199 -4.02117,-6.08343 -5.66987,-9.36798c-0.4878,-0.9718 -0.50166,-3.10407 -2.31845,-2.56416c-0.22526,0.06694 -0.49855,0.17029 -0.65018,0.36684c-0.27083,-0.86132 0.0543,-2.08413 -0.75159,-2.32069c-1.34905,-0.39599 -1.93564,0.91763 -2.09648,1.79564c-0.37788,2.06285 -0.01559,4.53172 -0.01559,6.62844c0,0 -0.07512,0.68399 0.67488,0.68399c0.22205,0 0.45388,-0.0002 0.56391,-0.09275c-0.22487,0.9067 -0.47348,1.81738 -0.75353,2.74378c-2.13757,4.11846 -4.35064,8.13951 -6.87691,12.03236c-0.77246,1.19031 -1.73295,3.50536 -3.00053,4.24472c-1.92895,1.12513 -6.31465,-0.3523 -8.28257,-0.87564c-8.02676,-3.96631 -6.68276,-15.01541 -6.6067,-22.47187c3.62457,0.03456 7.40119,-0.16265 10.29906,-1.66751c4.55615,-2.36599 -1.64674,-6.81947 -4.53494,-6.83434c-3.16666,0 -6.38929,-0.01067 -9.55596,-0.01067c-1.82374,0 -4.15113,-0.33726 -5.8373,0.56594c-0.54748,0.29326 -0.7772,0.63626 -0.91095,1.0912l-0.1733,0.03193c0.02476,0.05447 -0.05617,0.16959 -0.06713,0.24023c-0.78098,-0.01154 -1.50066,0.01856 -1.96258,0.48048c-1.14174,1.14174 -0.31921,3.07973 0.48209,4.04019c1.65662,1.98567 4.72768,1.97103 7.02866,1.97103c1.09988,0 2.28129,0.03332 3.51596,0.06236c-0.02517,0.10574 -0.02527,0.18376 -0.02527,0.18376c0.0075,1.38979 -0.36243,3.18677 -0.88846,4.95484c-0.11346,-0.069 -0.24761,-0.10901 -0.39011,-0.10901c-0.33738,0 -0.62392,0.2224 -0.71818,0.52887l-0.21397,0.63838l0.00964,0.00321l-0.01822,0.02427c-0.33817,1.37843 -0.44935,2.48861 -0.35897,3.50974z" data-paper-data="{&quot;noHover&quot;:false,&quot;origItem&quot;:[&quot;Path&quot;,{&quot;applyMatrix&quot;:true,&quot;segments&quot;:[[[232.11919,192.80816],[-0.33817,1.37843],[0,0]],[232.13743,192.7839],[232.12777,192.78068],[[232.3723,192.04708],[0,0],[0.09425,-0.30647]],[[233.08928,191.51785],[-0.33738,0],[0.1425,0]],[[233.47846,191.62659],[-0.11346,-0.069],[0.52603,-1.76807]],[[234.33928,186.76785],[0.0075,1.38979],[0,0]],[[234.36446,186.58406],[-0.02517,0.10574],[-1.23467,-0.02904]],[[230.83928,186.51785],[1.09988,0],[-2.30098,0]],[[223.79649,184.53541],[1.65662,1.98567],[-0.8013,-0.96045]],[[223.30895,180.48752],[-1.14174,1.14174],[0.46192,-0.46192]],[[225.35741,179.95582],[-0.78098,-0.01154],[0.01096,-0.07064]],[[225.33928,179.76785],[0.02476,0.05447],[0,0]],[[225.51269,179.73609],[0,0],[0.13375,-0.45494]],[[226.50977,178.59411],[-0.54748,0.29326],[1.68617,-0.9032]],[[232.33928,178.01785],[-1.82374,0],[3.16666,0]],[[241.83928,178.01785],[-3.16666,0],[2.8882,0.01486]],[[246.4188,184.94159],[4.55615,-2.36599],[-2.89787,1.50485]],[[236.0861,186.61452],[3.62457,0.03456],[-0.07606,7.45646]],[[242.69717,208.98752],[-8.02676,-3.96631],[1.96793,0.52335]],[[250.96976,209.8652],[-1.92895,1.12513],[1.26757,-0.73936]],[[253.9651,205.62243],[-0.77246,1.19031],[2.52627,-3.89285]],[[260.82696,193.60031],[-2.13757,4.11846],[0.28006,-0.92641]],[[261.57767,190.85955],[-0.22487,0.9067],[-0.11003,0.09255]],[[261.08928,191.01785],[0.22205,0],[-0.75,0]],[[260.33928,190.26785],[0,0],[0,-2.09673]],[[260.34897,183.64771],[-0.37788,2.06285],[0.16084,-0.87801]],[[262.44318,181.85659],[-1.34905,-0.39599],[0.8059,0.23656]],[[263.28486,184.22056],[-0.27083,-0.86132],[0.15163,-0.19656]],[[263.84588,183.80844],[-0.22526,0.06694],[1.81679,-0.53992]],[[266.25305,186.41869],[-0.4878,-0.9718],[1.6487,3.28455]],[[271.91929,195.79236],[-2.00799,-3.01199],[1.09669,1.09297]],[[274.51789,199.55643],[-0.6694,-1.37815],[-0.54494,-7.5691]],[[268.61919,177.97754],[1.82434,7.26309],[-0.5969,-1.78637]],[[267.0949,172.60949],[0.44779,1.82916],[0,0]],[267.12368,172.51785],[267.08928,172.51785],[[267.08928,171.51785],[0,0],[0,-0.41422]],[[267.83928,170.76785],[-0.41422,0],[0.2994,0]],[[268.51737,171.19697],[-0.12026,-0.25368],[0,0]],[[268.83308,171.82839],[0,0],[2.33008,1.87053]],[[277.02119,175.79024],[-2.79217,-0.69804],[0.54989,0.13747]],[[280.55895,176.23752],[-0.49372,0.60032],[0.70645,-0.85899]],[[281.33928,172.51785],[0,1.07298],[0,-2.76511]],[[279.93546,163.88529],[1.40915,2.51197],[-3.23196,-5.76133]],[[268.1316,147.81766],[3.63578,5.53366],[-2.39568,-3.65047]],[[258.32908,137.97126],[4.33943,1.61293],[-2.36698,-0.8798]],[[251.08928,137.26785],[2.48527,0],[-6.16946,-0.02462]],[[231.96915,138.00817],[6.2384,2.07946],[0,0]],[[231.41692,138.01665],[0,0],[-0.2867,0.36433]],[[230.63324,138.23899],[0,0],[-3.8731,-1.10873]],[[219.47638,133.83842],[3.83059,1.17979],[-0.95002,-0.2926]],[[216.6263,132.96076],[0.72835,-0.67649],[-0.56043,0.52052]],[[215.46217,134.93813],[0.50736,-0.57237],[-1.56002,1.75994]],[[210.70646,140.12456],[1.48977,-1.83199],[-3.04452,3.74244]],[[202.00581,152.11172],[2.12917,-4.36477],[-1.95261,4.00281]],[[196.79352,164.52582],[1.65573,-4.13639],[-0.22038,0.63066]],[[197.21729,169.27885],[-0.92801,0.03808],[2.31302,-0.09492]],[[205.17326,166.14381],[-1.91684,1.28259],[0,0]],[[205.91473,165.6495],[0,0],[0.12071,-0.08304]],[[206.33928,165.51785],[-0.15759,0],[0.41422,0]],[[207.08928,166.26785],[0,-0.41422],[0,0.20711]],[[206.86961,166.79817],[0.13573,-0.13573],[0,0]],[[205.9833,167.6845],[0,0],[-1.54994,3.24409]],[[201.78481,177.54847],[1.37481,-3.39898],[-0.83611,2.06715]],[[199.5796,184.13799],[0.23782,-2.2454],[-0.07339,0.69295]],[[199.36422,186.19783],[0.07423,-0.68215],[0.80256,-1.86562]],[[202.7013,181.12355],[-1.51873,1.4612],[0.53404,-1.7941]],[[207.8505,177.95468],[-2.21741,-2.07355],[0.99235,-0.39513]],[[210.85211,176.80633],[-1.02335,0.34112],[0,0]],[[211.5855,176.56187],[0,0],[0.07926,-0.0285]],[[211.83928,176.51785],[-0.08907,0],[0.41421,0]],[[212.58928,177.26785],[0,-0.41421],[0,0.20711]],[[212.36961,177.79818],[0.13572,-0.13572],[0,0]],[211.61961,178.54818],[[211.55092,178.47949],[0,0],[-1.03646,1.67076]],[[208.59127,183.92286],[0.56009,-1.73922],[0.01301,3.32923]],[[209.19087,193.80616],[-0.49789,-3.31996],[0.85136,5.06211]],[[216.56478,204.93784],[-3.80153,-3.16316],[0.95358,0.79344]],[[219.70942,206.77753],[-1.33919,-0.15701],[2.36639,0.27744]],[[226.55227,204.82494],[-2.05505,1.02473],[1.92676,-0.62862]],[[229.77314,200.49368],[-0.89237,1.66562],[0.60357,-1.12656]],[[231.76158,196.31831],[-0.6764,1.58996],[-0.09038,-1.02112]]],&quot;closed&quot;:true}]}" fill="#a38700"/><path d="M231.58928,170.76785c0,0.75 -0.75,0.75 -0.75,0.75l-0.73717,-0.03848c-0.04972,-0.01737 -0.0996,-0.03452 -0.14962,-0.05144c-0.03829,0.0189 -0.08019,0.03616 -0.12604,0.05144c-0.52899,0.17633 -0.79579,-0.17173 -0.89786,-0.36191c-4.10564,-1.11173 -9.00634,-0.95483 -13.16058,-1.353c-1.83883,-0.17624 -3.5376,0.03039 -5.09161,-0.49661h-0.25378l-0.0705,0.21152l-0.73359,-0.24453c-0.30647,-0.09425 -0.52924,-0.3796 -0.52924,-0.71698c0,-0.41422 0.33578,-0.75 0.75,-0.75h1.5c4.97072,0 11.00705,-0.94442 15.882,0.01171c1.34815,0.26442 2.2443,0.99842 2.80582,2.10894c0.18443,0.05349 0.36757,0.1094 0.54935,0.16784l0.26282,-0.03849c0,0 0.75,0 0.75,0.75z" fill="#000000"/><path d="M246.02726,168.97028c-0.11545,0.01357 -0.2309,0.02755 -0.34634,0.04195c-0.29004,0.03618 -2.58423,0.03401 -2.7332,0.19415c-0.17875,0.19215 0.18386,0.31892 0.76269,0.40265c0.13379,-0.20539 0.36548,-0.34118 0.62888,-0.34118h0.68024c0.34038,-0.08772 0.67582,-0.18828 1.00774,-0.29756zM259.50971,169.62312c0.12952,0.12195 0.24699,0.25267 0.34223,0.39569c0.2779,0.02507 0.99799,0.3308 0.76597,0.20425c-0.39692,-0.2165 -0.75871,-0.4166 -1.1082,-0.59994zM242.37854,171.03855c-0.11948,-0.06806 -0.22685,-0.14764 -0.31958,-0.24038c-1.19165,-1.19165 -0.44279,-2.64517 0.91019,-3.02064c2.76088,-0.76619 5.88012,-0.85887 8.94154,-0.82782c0.54497,-0.10689 1.10256,-0.17313 1.6786,-0.18187c0.85404,0 1.51066,0.07253 2.0901,0.24539c0.33106,0.00436 0.65919,0.00736 0.9838,0.00826c1.21951,0.24088 7.74788,2.1415 4.86463,4.35479c-0.30291,0.23253 -0.98594,0.29871 -1.7512,0.29565c-0.60139,0.42845 -2.15519,-0.03816 -2.72093,-0.14862c-0.08087,-0.00349 -0.15346,-0.00547 -0.2164,-0.00547c-1.67849,0 -3.35698,0 -5.03547,0c-1.10163,0.06352 -2.20082,0.10335 -3.2829,0c-1.81054,0 -3.62109,0 -5.43163,0c0,0 -0.55644,0 -0.71075,-0.4793zM255.86703,168.51658c-1.56428,0.00683 -3.11953,0.0229 -4.66953,0.07847c-0.26639,0.07283 -0.53143,0.15525 -0.79545,0.24459c2.02468,0.09477 4.10305,0.32127 5.88423,-0.05732c-0.13554,-0.10951 -0.27551,-0.1966 -0.41926,-0.26574zM257.45158,170.01785c0.01912,0 0.03824,0 0.05736,0c-0.00473,-0.0043 -0.00946,-0.0086 -0.01419,-0.01292c-0.01438,0.00438 -0.02877,0.00868 -0.04316,0.01292z" fill="#000000"/><path d="M205.07781,185.03953l-0.16226,-0.1012c0.11302,-0.16953 0.21202,-0.32771 0.30077,-0.47575c-0.32715,0.14361 -0.65399,0.29144 -0.9807,0.43912c-0.06261,0.03997 -0.14429,0.08217 -0.23877,0.10785c-0.54304,0.24495 -1.0858,0.48653 -1.62903,0.70466c0,0 -0.69636,0.27854 -0.9749,-0.41781c-0.27854,-0.69636 0.41781,-0.9749 0.41781,-0.9749c0.54429,-0.21694 1.08824,-0.45881 1.63244,-0.70408c1.04206,-2.46099 4.67566,-5.11417 7.57188,-6.33591l-0.0918,-0.13769l0.74147,-0.49431c0.12072,-0.08304 0.26696,-0.13165 0.42456,-0.13165c0.41421,0 0.75,0.33579 0.75,0.75c0,0.1576 -0.04861,0.30384 -0.13165,0.42456l-0.49431,0.74147l-0.02458,-0.01638l-0.01945,0.07585c-1.33611,1.33939 -2.61096,2.7741 -3.85278,4.20865c-0.04703,0.18631 -0.16378,0.34489 -0.32088,0.44634l-0.15163,0.10109c-0.14194,0.16485 -0.2835,0.32953 -0.42471,0.49391c-0.10564,0.12297 -0.20722,0.25545 -0.30735,0.38945c-0.17613,0.5045 -0.54852,1.01561 -0.83495,1.44367l-0.22072,0.66216c-0.09425,0.30647 -0.3796,0.52924 -0.71698,0.52924c-0.41421,0 -0.75,-0.33579 -0.75,-0.75v-0.75l0.20943,0l0.07906,-0.23717l0.19102,0.06367c0.00287,-0.01827 0.00588,-0.03654 0.00902,-0.05482zM206.30844,182.41287c0.08245,-0.11444 0.16772,-0.2284 0.25543,-0.3418c-0.1773,0.14206 -0.34831,0.28662 -0.50977,0.43312c0.08475,-0.03121 0.16953,-0.06168 0.25434,-0.09132z" fill="#ffffff"/><path d="M261.58928,190.22439c0,0.68115 0,1.36231 0,2.04346c0,0 0,0.75 -0.75,0.75c-0.75,0 -0.75,-0.75 -0.75,-0.75c0,-1.83333 0,-3.66667 0,-5.5v-0.75c0,-0.41421 0.33579,-0.75 0.75,-0.75c0.26446,0 0.49695,0.13688 0.63049,0.34365l0.49355,0.74032l-0.0325,0.02166c1.39154,1.19321 2.86151,2.62957 3.76707,3.95585l0.73684,0.98245c0.09693,0.12637 0.15455,0.28449 0.15455,0.45606c0,0.41421 -0.33579,0.75 -0.75,0.75c-0.12597,0 -0.24468,-0.03106 -0.34891,-0.08593l-0.9865,-0.49325l0.01619,-0.03239c-0.0599,-0.02285 -0.11899,-0.04811 -0.17714,-0.07617c-1.02476,-0.4946 -0.60232,-2.184 -2.01648,-1.60075l-0.48717,0.03849c0,0 -0.11231,0 -0.25,-0.04346zM261.88559,188.79678c-0.10405,-0.10279 -0.20343,-0.20561 -0.29631,-0.30798c0,0.1075 0,0.21501 0,0.32251c0.13769,-0.04346 0.25,-0.04346 0.25,-0.04346l0.01283,0.03849c0.01114,-0.00326 0.0223,-0.00644 0.03348,-0.00956z" fill="#ffffff"/></g></g></svg>