<svg version="1.1" xmlns="http://www.w3.org/2000/svg" xmlns:xlink="http://www.w3.org/1999/xlink" width="199.32862" height="199.32862" viewBox="0,0,199.32862,199.32862"><g transform="translate(-140.33569,-80.33572)"><g data-paper-data="{&quot;isPaintingLayer&quot;:true}" fill-rule="nonzero" stroke-linejoin="miter" stroke-miterlimit="10" stroke-dasharray="" stroke-dashoffset="0" style="mix-blend-mode: normal"><path d="M140.33569,180.00003c0,-55.04307 44.62123,-99.6643 99.66431,-99.6643c55.04307,0 99.66431,44.62123 99.66431,99.66431c0,55.04307 -44.62123,99.66431 -99.66431,99.66431c-55.04307,0 -99.66431,-44.62123 -99.66431,-99.66431z" fill="none" stroke="none" stroke-width="0" stroke-linecap="butt"/><path d="M232.64287,189.67858c0,0 0.5,0 0.5,0.5c0,0.5 -0.5,0.5 -0.5,0.5c-0.35646,0 -0.70182,-0.02093 -1.03856,-0.0601c-0.31475,0.19962 -0.60071,-0.08635 -0.60071,-0.08635l-0.00379,-0.00457c-0.29475,-0.05433 -0.58373,-0.12213 -0.86875,-0.2014c-0.0229,0.06686 -0.06508,0.13642 -0.13464,0.20597c-0.35356,0.35356 -0.7071,0 -0.7071,0l-0.06666,-0.08039c-0.34946,-0.23592 -0.6965,-0.58373 -1.05984,-0.84952c-0.11761,-0.05205 -0.23527,-0.10535 -0.35312,-0.15972c-0.53295,0.35031 -1.17352,0.86297 -1.73926,1.16776c3.66732,0.69022 7.69824,0.35403 11.28672,0.35403c2.12489,0 4.24243,-0.24701 6.34628,-0.28187c0.07377,-0.08245 0.18875,-0.1467 0.368,-0.1467c0.5,0 0.5,0.5 0.5,0.5l-0.5,0.64285c-2.21741,-0.01076 -4.47042,0.28571 -6.71428,0.28571c-3.64078,0 -7.66474,0.3037 -11.36704,-0.36496c-0.09418,1.49738 -0.80853,4.75723 0.14916,5.65427c1.14808,1.07538 2.85487,1.45952 4.2241,2.16201c5.88607,0.79875 11.29281,1.40583 17.27948,1.40583c3.44199,0.04523 9.95473,-3.80422 10.52451,-7.36891c1.05625,-2.1218 1.84795,-6.08088 1.41052,-8.47957c-0.3671,-2.01306 -1.99633,-3.59534 -2.4143,-5.6519c-0.29552,-0.73375 -0.57137,-1.61877 -1.07209,-2.2485c-0.12751,-0.14163 -0.25214,-0.27607 -0.37362,-0.39756c0,0 -0.35356,-0.35355 0,-0.70711c0.35355,-0.35356 0.70711,0 0.70711,0l0.14286,0.14285c0.07052,0.07259 0.13776,0.1479 0.20206,0.22562c0.52882,0.59166 1.11124,1.32622 1.71963,1.71052c4.1087,2.59531 4.8995,-4.43138 4.95718,-6.73484c-2.5922,-4.08767 -6.52947,-6.02803 -9.87169,-9.35133c-0.83139,-0.83139 -1.86215,-1.33402 -2.93387,-1.867c-0.00644,-0.00009 -0.01288,-0.0002 -0.01932,-0.0003l0.02103,0.01375c0,0 -0.04875,-0.00001 -0.11582,-0.01523c-4.77754,-0.07629 -9.53641,-0.41334 -14.31275,-0.41334c-5.25543,0 -10.05961,2.50372 -12.99612,6.89382c-2.05826,4.09994 -3.23085,7.83603 -4.36477,12.2387l0.00194,0.26367c0.00937,0.03662 0.01345,0.07186 0.01338,0.10549c1.3248,-0.61818 2.28484,-1.87 3.49592,-2.55998c2.57428,-1.46662 7.98785,-0.51668 10.25988,0.99294c3.49148,2.11434 1.98818,7.41418 -0.66467,9.66632c-0.7183,0.6098 -1.61771,0.96075 -2.56081,1.15864c0.76853,0.34585 1.63883,0.88307 2.04827,1.15224c0.3853,0.05708 0.78227,0.08816 1.19554,0.08816zM225.56211,189.44566c0.19821,-0.09111 0.46215,-0.3981 0.7079,-0.67723c-0.04779,-0.02147 -0.09657,-0.05165 -0.13928,-0.09404c-3.09488,-0.05186 -5.29929,-0.59053 -7.42615,-1.95862c0.67065,0.73989 1.45095,1.39415 2.21563,1.90393c1.25211,0.83474 2.62974,1.39006 4.07968,1.75588c-0.04608,-0.29197 0.1642,-0.44152 0.27601,-0.49933c-0.00085,-0.28707 0.28621,-0.4306 0.28621,-0.4306zM226.52829,176.89176c-1.40391,-0.08784 -2.73315,0.05735 -3.6072,0.55941c-1.44909,0.83236 -2.58999,2.45604 -4.36166,2.89896c-2.71284,1.68866 0.83181,1.84199 2.6902,2.18009c2.02151,0.36777 4.71361,-0.47527 6.4016,-1.6248c1.2971,-0.6883 0.13564,-3.14513 -0.54042,-3.86316l-0.44635,-0.09289c0,0 -0.06203,-0.0155 -0.13617,-0.0576zM215.71789,184.24642c0,0 -0.35356,-0.35355 0,-0.7071c0.07471,-0.07471 0.14944,-0.11786 0.22082,-0.13943c-0.22432,-1.5539 0.27131,-3.12526 1.92075,-4.46595l0.00145,-0.24502c1.10753,-4.54116 2.39221,-8.40035 4.49237,-12.61844c3.11848,-4.69075 8.25016,-7.3919 13.86102,-7.3919c5.38606,0 10.74957,0.42857 16.14286,0.42857c0,0 0.5,0 0.5,0.5c0,0.22412 -0.10047,0.34778 -0.21133,0.41601c0.58816,0.34598 1.14158,0.7357 1.63631,1.23043c3.45626,3.4785 7.59362,5.38153 10.12831,9.79153c0.05827,3.21906 -1.32469,10.84877 -6.31126,7.93309c0.00765,0.01933 0.0153,0.03863 0.02296,0.0579c0.4144,2.10808 2.06413,3.68877 2.44284,5.77667c0.4592,2.5317 -0.31648,6.69884 -1.44662,8.949c-0.69762,4.03148 -7.60977,8.02136 -11.4755,8.05966c-6.08567,0 -11.5947,-0.56008 -17.57765,-1.45131c-1.47624,-0.72226 -4.276,-1.34695 -5.02246,-2.98926c-0.7362,-1.61976 -0.06136,-4.18676 -0.04312,-5.98643c-1.64513,-0.38604 -3.21155,-0.99429 -4.63412,-1.94268c-1.67686,-1.11791 -3.25887,-2.78974 -4.01435,-4.59701c-0.20882,-0.19391 -0.41968,-0.39657 -0.63329,-0.60832z" fill="#000000" stroke="none" stroke-width="0.5" stroke-linecap="butt"/><path d="M226.70458,176.91955l0.44828,0.09569c0.67606,0.71803 1.84402,3.21379 0.54692,3.90208c-1.688,1.14953 -4.45418,2.02366 -6.4757,1.65589c-1.85839,-0.3381 -5.42703,-0.52749 -2.71419,-2.21616c1.77167,-0.44291 2.96243,-2.12351 4.41152,-2.95587c0.87405,-0.50206 2.24224,-0.62817 3.64615,-0.54033c0.07414,0.0421 0.13701,0.05871 0.13701,0.05871z" data-paper-data="{&quot;noHover&quot;:false,&quot;origItem&quot;:[&quot;Path&quot;,{&quot;applyMatrix&quot;:true,&quot;segments&quot;:[[[453.05655,353.7835],[0.14829,0.0842],[-2.80781,-0.17569]],[[445.84215,354.90232],[1.74811,-1.00412],[-2.89818,1.66472]],[[437.11884,360.70023],[3.54333,-0.88583],[-5.42568,3.37733]],[[442.49924,365.0604],[-3.71678,-0.67619],[4.04303,0.73554]],[[455.30244,361.81081],[-3.37599,2.29906],[2.59421,-1.37659]],[[454.22159,354.08449],[1.35213,1.43605],[0,0]],[453.32889,353.89871]],&quot;closed&quot;:true}]}" fill="#ffffff" stroke="none" stroke-width="0.5" stroke-linecap="butt"/><path d="M218.91866,179.18267c0.00007,-0.03363 -0.10389,-0.07391 -0.11326,-0.11053l-0.0019,-0.26426c1.13392,-4.40267 2.31672,-8.16593 4.37497,-12.26587c2.93651,-4.3901 7.76889,-6.91208 13.02431,-6.91208c4.77634,0 9.56794,0.34044 14.34547,0.41674c0.06707,0.01522 0.11605,0.01533 0.11605,0.01533l-0.06388,0.07661c0.00644,0.0001 0.05572,-0.09016 0.06216,-0.09007c1.07172,0.53298 2.10926,1.03951 2.94064,1.87089c3.34222,3.32331 7.29771,5.28639 9.88991,9.37406c-0.05768,2.30346 -0.8453,9.34243 -4.954,6.74712c-0.60839,-0.3843 -1.28893,-1.10049 -1.81775,-1.69215c-0.0643,-0.07772 -0.13133,-0.15222 -0.20185,-0.22481l-0.14272,-0.14232c0,0 -0.2574,-0.38102 -0.61096,-0.02747c-0.35356,0.35356 0.00059,0.70928 0.00059,0.70928c0.12149,0.12149 0.24645,0.25744 0.37396,0.39907c0.50072,0.62974 0.77758,1.52222 1.07309,2.25597c0.41797,2.05657 2.04573,3.6541 2.41283,5.66716c0.43743,2.39869 -0.36315,6.37597 -1.4194,8.49777c-0.56978,3.56469 -7.10688,7.43121 -10.54887,7.38598c-5.98667,0 -11.43302,-0.61106 -17.31909,-1.40981c-1.36922,-0.70249 -3.08463,-1.09271 -4.23271,-2.16809c-0.95769,-0.89704 -0.17038,-4.22452 -0.0762,-5.72189c3.70229,0.66866 7.70143,0.34737 11.34221,0.34737c2.24386,0 4.46907,-0.29719 6.68648,-0.28643l0.49726,-0.64205c0,0 0.02939,-0.40443 -0.47061,-0.40443c-0.17925,0 -0.296,0.06473 -0.36977,0.14718c-2.10386,0.03486 -4.25001,0.28062 -6.37489,0.28062c-5.39147,0 -11.81147,0.73085 -16.46672,-2.37265c-0.76468,-0.50978 -1.45077,-1.1971 -2.12142,-1.93699c2.24234,1.44237 4.56602,1.95148 7.93343,1.95148c1.77292,0 3.81546,-0.13884 5.23422,-1.3433c2.65285,-2.25214 4.14801,-7.59741 0.65653,-9.71174c-2.27203,-1.50962 -7.58879,-2.43514 -10.16306,-0.96852c-1.21107,0.68998 -2.17027,1.93468 -3.49507,2.55286z" data-paper-data="{&quot;noHover&quot;:false,&quot;origItem&quot;:[&quot;Path&quot;,{&quot;applyMatrix&quot;:true,&quot;segments&quot;:[[[444.72927,353.24054],[-2.42215,1.37995],[5.14855,-2.93324]],[[465.24904,355.22642],[-4.54406,-3.01925],[6.98295,4.22867]],[[463.9197,374.55906],[5.30569,-4.50427],[-2.83751,2.40891]],[[453.28571,377.35714],[3.54585,0],[-6.7348,0]],[[437.40916,373.43151],[4.48468,2.88474],[1.34129,1.47979]],[[441.84041,377.23938],[-1.52936,-1.01957],[9.3105,6.207]],[[474.71429,381.92857],[-10.78294,0],[4.24977,0]],[[487.40686,381.36483],[-4.20771,0.06973],[0.14753,-0.16489]],[[488.14286,381.07143],[-0.35849,0],[1,0]],[489.14286,382.07143],[[488.14286,383.35714],[0,0],[-4.43482,-0.02153]],[[474.71429,383.92857],[4.48773,0],[-7.28157,0]],[[451.98022,383.19864],[7.40459,1.33732],[-0.18836,2.99475]],[[452.27854,394.50718],[-1.91538,-1.79408],[2.29616,2.15075]],[[460.72674,398.8312],[-2.73845,-1.40499],[11.77213,1.59751]],[[495.28571,401.64286],[-11.97335,0],[6.88399,0.09046]],[[516.33473,386.90504],[-1.13956,7.12938],[2.1125,-4.2436]],[[519.15577,369.9459],[0.87486,4.79737],[-0.73421,-4.02611]],[[514.32717,358.64209],[0.83594,4.11313],[-0.59103,-1.4675]],[[512.18299,354.14508],[1.00143,1.25947],[-0.25501,-0.28326]],[[511.43575,353.34996],[0.24297,0.24297],[0,0]],[[511.43575,351.93575],[-0.70711,0.70711],[0.70711,-0.70711]],[512.84996,351.93575],[[513.13568,352.22146],[0,0],[0.14103,0.14517]],[[513.5398,352.67269],[-0.1286,-0.15544],[1.05764,1.18332]],[[516.97906,356.09373],[-1.21679,-0.7686],[8.21741,5.19062]],[[526.89342,342.62405],[-0.11537,4.60691],[-5.18439,-8.17535]],[[507.15004,323.92139],[6.68445,6.64661],[-1.66277,-1.66277]],[[501.2823,320.18738],[2.14344,1.06596],[-0.01288,-0.00019]],[[501.24366,320.18679],[0.01288,0.0002],[0,0]],[501.28571,320.21429],[[501.05407,320.18383],[0.13413,0.03045],[-9.55507,-0.15259]],[[472.42857,319.35714],[9.55269,0],[-10.51085,0]],[[446.43634,333.14478],[5.87301,-8.7802],[-4.11651,8.19989]],[[437.70679,357.62218],[2.26784,-8.80533],[0,0]],[[437.71066,358.14952],[0,0],[0.01874,0.07325]],[[437.73743,358.3605],[0.00013,-0.06726],[2.6496,-1.23636]]],&quot;closed&quot;:true}]}" fill="#ce4600" stroke="none" stroke-width="0.5" stroke-linecap="butt"/><path d="M226.03784,174.1393c0.0962,-0.03215 0.17645,-0.03215 0.17645,-0.03215h0.42857c1.19315,0 1.92512,-0.19138 2.6122,0.31638l0.16993,-0.16994l0.42857,0.42857l-0.16515,0.16515c0.09013,0.11062 0.18099,0.23654 0.27354,0.37974l-0.46194,0.13798v0.17068h-0.57143c-1.798,0 -3.775,0.23538 -5.57143,-0.08847v0.08847h-0.57143c-0.27614,0 -0.5,-0.22386 -0.5,-0.5c0,-0.17631 0.09125,-0.33131 0.2291,-0.42033l0.42212,-0.28141l0.0065,0.00974l0.01989,-0.02617c0.90721,-0.43581 1.68719,-0.35326 2.67953,-0.35326c0,0 0.24833,0 0.39498,0.17501z" fill="#000000" stroke="none" stroke-width="0.5" stroke-linecap="butt"/><path d="M241.88936,174.073c0.14416,-0.1087 0.32493,-0.10871 0.32493,-0.10871l0.63252,0.00375c1.46827,0.36706 2.91441,-0.01507 4.09388,0.69237l0.12238,-0.18357l0.42212,0.28141c0.13785,0.08902 0.2291,0.24402 0.2291,0.42033c0,0.27614 -0.22386,0.5 -0.5,0.5c-2,0 -4.71428,0 -6.71428,0c-0.3421,0 -1.83664,0.06367 -2.01227,-0.26407c-0.68658,-1.28126 1.86081,-1.37358 3.40162,-1.34151z" fill="#000000" stroke="none" stroke-width="0.5" stroke-linecap="butt"/><path d="M226.07143,189.89287l1.85714,-2.14286l5.14286,2.28571" fill="none" stroke="#000000" stroke-width="1" stroke-linecap="round"/></g></g></svg>