<svg version="1.1" xmlns="http://www.w3.org/2000/svg" xmlns:xlink="http://www.w3.org/1999/xlink" width="70.94888" height="72.23889" viewBox="0,0,70.94888,72.23889"><g transform="translate(-203.11725,-144.27669)"><g data-paper-data="{&quot;isPaintingLayer&quot;:true}" fill-rule="nonzero" stroke="none" stroke-width="0.5" stroke-linecap="butt" stroke-linejoin="miter" stroke-miterlimit="10" stroke-dasharray="" stroke-dashoffset="0" style="mix-blend-mode: normal"><path d="M255.40812,177.56033c-1.24715,-0.32118 -2.49109,-0.62831 -3.79349,-0.62831c-6.48198,-1.08845 -12.74737,-0.8075 -19.31758,-0.8075c0,0 -0.4876,-0.00048 -0.67673,0.39198c-0.16339,-0.00216 -0.32777,-0.00539 -0.49157,-0.0083c-1.49598,-0.38128 -2.91425,-0.8571 -4.3819,-1.34631c-2.99498,-1.19689 -5.64728,-2.78888 -8.20426,-4.70181c-1.35037,-1.01024 -2.82876,-2.307 -2.62022,-4.17272c0.29197,-1.03869 0.78622,-2.19563 1.08899,-2.83257c0.12165,-0.22887 0.24534,-0.45839 0.36698,-0.68612c1.61269,-2.44974 5.98463,-2.2163 8.16142,-0.92225l0.96561,0.77029c0.12907,0.10508 0.1938,0.17046 0.37321,0.17046c0.41422,0 0.74999,-0.33808 0.74999,-0.7523c0,-0.08908 -0.01551,-0.17532 -0.044,-0.25458l-0.39422,-1.18696l-0.06325,0.02116c-0.29775,-2.66786 -0.73476,-5.68679 0.02694,-8.04426c0.31046,-0.96087 0.79564,-1.80267 1.40074,-2.51267c1.64114,-1.14798 3.4332,-2.13104 5.39871,-2.87913c2.40992,-0.38106 4.97886,0.08475 6.86557,1.42013c1.0606,1.39047 1.93474,2.78623 2.75979,4.3232l0.00003,0.86393c0,0.41422 0.34065,0.75027 0.75486,0.75027c0.36866,0 0.67912,-0.26543 0.74208,-0.61597l0.17871,-0.8932c1.47657,-2.22073 3.28168,-4.69125 5.49897,-5.98841c2.74671,0.8425 5.33324,2.0549 8.01505,3.44241c0.44072,0.97975 0.05277,2.81691 0.058,3.85792c-0.22647,1.21591 -1.01875,2.08029 -1.6996,3.10372l-0.00642,0.04901l-0.01568,-0.00788l-0.39255,0.78861c-0.05487,0.10423 -0.08561,0.22403 -0.08561,0.35c0,0.41422 0.33657,0.75318 0.75078,0.75318c0.17158,0 0.23189,-0.03675 0.35826,-0.13368l0.73315,-0.49883c5.24552,-1.39632 14.27872,-2.54012 12.43236,5.37383c-2.1763,2.79906 -4.69496,5.08449 -7.86225,6.66814l-0.78614,0.39422c-0.25369,0.12026 -0.42999,0.38042 -0.42999,0.67982c0,0.41422 0.24749,0.70306 0.66171,0.70306c0.06862,0 0.13495,-0.00898 0.19809,-0.02624l0.78313,-0.19484l-0.02002,-0.07968c1.3748,0.11101 2.84623,0.26473 3.99781,1.12591c0.3709,0.27737 0.38111,1.64572 0.37914,2.3619c-0.29217,0.41785 -0.59361,0.80424 -0.89821,1.11055c-0.41233,0.41464 -1.16976,0.05534 -1.75452,0.05417c-2.3329,-0.00467 -4.67323,-0.01016 -7.00606,0.00736c-0.48035,0.0036 -1.08775,-0.04951 -1.6036,0.10827c-0.16744,-0.11716 -0.41317,-0.18704 -0.7351,-0.02607c-0.2973,0.14865 -0.39832,0.36428 -0.41713,0.55709z" data-paper-data="{&quot;noHover&quot;:false,&quot;origItem&quot;:[&quot;Path&quot;,{&quot;applyMatrix&quot;:true,&quot;segments&quot;:[[[255.79316,176.9649],[-0.2973,0.14865],[0.32193,-0.16097]],[[256.52721,176.99188],[-0.16744,-0.11716],[0.51585,-0.15778]],[[258.12857,176.88572],[-0.48035,0.0036],[2.33283,-0.01752]],[[265.12857,176.88572],[-2.3329,-0.00467],[0.58476,0.00117]],[[266.88208,176.83311],[-0.41233,0.41464],[0.3046,-0.30631]],[[267.779,175.72476],[-0.29217,0.41785],[0.00198,-0.71618]],[[267.39824,173.36605],[0.3709,0.27737],[-1.15157,-0.86119]],[[263.49052,172.28352],[1.3748,0.11101],[0,0]],[263.51048,172.36332],[[262.72679,172.55924],[0,0],[-0.06314,0.01726]],[[262.52857,172.58572],[0.06862,0],[-0.41422,0]],[[261.77857,171.83572],[0,0.41422],[0,-0.2994]],[[262.2077,171.15763],[-0.25369,0.12026],[0,0]],[[262.99316,170.7649],[0,0],[3.16729,-1.58364]],[[270.85137,164.11339],[-2.1763,2.79906],[1.84636,-7.91395]],[[258.42026,158.75445],[5.24552,-1.39632],[0,0]],[[257.78463,159.23117],[0,0],[-0.12637,0.09694]],[[257.32857,159.38572],[0.17158,0],[-0.41422,0]],[[256.57857,158.63572],[0,0.41422],[0,-0.12597]],[[256.6645,158.28681],[-0.05487,0.10423],[0,0]],[257.05775,157.50031],[257.07342,157.50814],[[257.07989,157.45927],[0,0],[0.68085,-1.02343]],[[258.78222,154.36181],[-0.22647,1.21591],[-0.00524,-1.04101]],[[258.72906,150.51145],[0.44072,0.97975],[-2.68181,-1.38751]],[[250.73212,147.08359],[2.74671,0.8425],[-2.2173,1.29716]],[[245.24538,153.07597],[1.47657,-2.22073],[0,0]],[[245.06673,153.96918],[0,0],[-0.06296,0.35054]],[[244.32857,154.58572],[0.36866,0],[-0.41422,0]],[[243.57857,153.83572],[0,0.41422],[0,0]],[[243.57857,152.97179],[0,0],[-0.82504,-1.53697]],[[240.82876,148.64764],[1.0606,1.39047],[-1.88671,-1.33538]],[[233.98024,147.2207],[2.40992,-0.38106],[-1.96551,0.7481]],[[228.5935,150.08924],[1.64114,-1.14798],[-0.6051,0.70999]],[[227.19703,152.5958],[0.31046,-0.96087],[-0.76171,2.35746]],[[227.17685,160.61963],[-0.29775,-2.66786],[0,0]],[227.24009,160.59855],[[227.63455,161.78194],[0,0],[0.02849,0.07926]],[[227.67857,162.03572],[0,-0.08908],[0,0.41422]],[[226.92857,162.78572],[0.41422,0],[-0.17942,0]],[[226.45539,162.61764],[0.12907,0.10508],[0,0]],[[225.48979,161.84516],[0,0],[-2.17679,-1.29405]],[[217.42834,162.76778],[1.61269,-2.44974],[-0.12165,0.22773]],[[217.06132,163.45262],[0.12165,-0.22887],[-0.30277,0.63694]],[[215.97187,166.28022],[0.29197,-1.03869],[-0.20854,1.86572]],[[218.59013,170.44456],[-1.35037,-1.01024],[2.55697,1.91294]],[[226.78654,175.13148],[-2.99498,-1.19689],[1.46765,0.48922]],[[231.16163,176.47053],[-1.49598,-0.38128],[0.1638,0.00291]],[[231.65242,176.47818],[-0.16339,-0.00216],[0.18913,-0.39246]],[[232.32857,176.08572],[0,0],[6.57021,0]],[[251.59043,176.88827],[-6.48198,-1.08845],[1.3024,0]],[[255.3774,177.52089],[-1.24715,-0.32118],[0.01881,-0.19281]]],&quot;closed&quot;:true}]}" fill="#777777"/><path d="M255.88033,179.16475c0.13586,0.2875 0.28537,0.57604 0.3701,0.85571c0.62836,2.07421 1.16799,3.44267 1.17954,5.68678c1.04476,4.19941 3.15721,8.19688 4.4296,12.3453c0.66251,2.15999 0.18267,5.03391 0.16706,7.28773c-0.87548,0.90556 -1.1249,2.01739 -2.14379,2.74921c-4.68586,4.66629 -11.76355,7.98509 -18.46039,6.64572c-6.72346,0 -12.65342,-2.6992 -19.04606,-4.08354c0.18664,-0.49065 0.35755,-0.98042 0.605,-1.46976c0.47137,-1.18389 3.55103,-5.70929 2.74157,-6.91642c-0.728,-1.08567 -5.44598,-1.20699 -6.59192,-1.42376c-4.28701,-0.81094 -7.96903,-2.66378 -11.35225,-5.3664c-1.91891,-1.90948 -3.10846,-4.67894 -3.23297,-7.32412c1.53338,1.73401 4.49851,2.95298 7.18343,3.26548c-0.59071,0.8138 -1.20007,1.81749 -1.48137,2.09464c0,0 -0.53011,0.52807 0.00022,1.0584c0.53033,0.53033 0.96094,-0.00752 0.96094,-0.00752c0.2649,-0.26809 1.47314,-1.51261 1.79235,-2.27614c0.07635,0.22563 0.27865,0.47821 0.36804,0.59654c0.75733,1.00246 1.78371,1.54581 2.33827,2.69051l0.54053,0.59325c0,0 0.43033,0.52969 0.96066,-0.00064c0.53033,-0.53033 0.00013,-1.06394 0.00013,-1.06394l-0.25947,-0.20564c-0.28687,-0.5603 -1.50916,-2.33966 -2.61819,-3.51537c0.60204,-0.08908 1.15835,-0.24522 1.64271,-0.4695c2.23268,-1.0338 2.77125,-2.66123 4.15238,-4.51112c1.45459,-2.91929 0.43484,-6.37946 -2.4086,-7.89288c1.1876,-0.25616 2.39809,-0.46135 3.63645,-0.56525c3.13673,-0.26317 6.41382,-0.0891 9.59695,-0.02548l0.79092,0.19699c0,0 0.43684,0.10858 0.71824,-0.17826c0.08864,0.00034 0.1779,0.00048 0.26637,0.00048c0,0 0.49692,-0.00004 0.68261,-0.40224c6.13771,-0.0236 12.00154,-0.1943 18.09285,0.8145c1.47647,0 2.86197,0.42941 4.28412,0.78494z" data-paper-data="{&quot;noHover&quot;:false,&quot;origItem&quot;:[&quot;Path&quot;,{&quot;applyMatrix&quot;:true,&quot;segments&quot;:[[[255.74667,179.16332],[0,0],[-1.42215,-0.35554]],[[251.46671,178.38316],[1.47647,0],[-6.09131,-1.00879]],[[233.40933,177.58351],[6.13771,-0.0236],[-0.1857,0.40221]],[[232.72857,177.98572],[0,0],[-0.08847,0]],[[232.46293,177.9852],[0.08864,0.00034],[-0.2814,0.28683]],[231.74667,178.16332],[[230.95782,177.96611],[0,0],[-3.18313,-0.06362]],[[221.38174,177.98383],[3.13673,-0.26317],[-1.23836,0.1039]],[[217.75093,178.54478],[1.1876,-0.25616],[2.84344,1.51342]],[[220.16656,186.43002],[1.45459,-2.91929],[-1.38112,1.84989]],[[216.02187,190.92599],[2.23268,-1.0338],[-0.48436,0.22428]],[[214.3798,191.3932],[0.60204,-0.08908],[1.10904,1.17571]],[[216.99939,194.90031],[-0.28687,-0.5603],[0,0]],[217.2589,195.10539],[[217.2589,196.16605],[0.53033,-0.53033],[-0.53033,0.53033]],[216.19824,196.16605],[[215.65775,195.57113],[0,0],[-0.55456,-1.1447]],[[213.32014,192.87425],[0.75733,1.00246],[-0.08939,-0.11832]],[[213.05047,192.29566],[0.07635,0.22563],[-0.31921,0.76353]],[[211.2589,194.56605],[0.2649,-0.26809],[0,0]],[[210.19824,194.56605],[0.53033,0.53033],[-0.53033,-0.53033]],[[210.19824,193.50539],[0,0],[0.2813,-0.27715]],[[211.68047,191.40573],[-0.59071,0.8138],[-2.68492,-0.3125]],[[204.59395,188.16476],[1.53338,1.73401],[0.12451,2.64517]],[[207.82877,195.47687],[-1.91891,-1.90948],[3.38322,2.70262]],[[219.17866,200.82644],[-4.28701,-0.81094],[1.14594,0.21677]],[[225.76233,202.23465],[-0.728,-1.08567],[0.80946,1.20713]],[[223.01275,209.14296],[0.47137,-1.18389],[-0.24745,0.48934]],[[222.40677,210.61195],[0.18664,-0.49065],[6.39264,1.38434]],[[241.40248,214.68937],[-6.72346,0],[6.69684,1.33937]],[[259.83717,208.06913],[-4.68586,4.66629],[1.01889,-0.73182]],[[261.97896,205.32519],[-0.87548,0.90556],[0.0156,-2.25383]],[[261.80967,198.04943],[0.66251,2.15999],[-1.27239,-4.14842]],[[257.38419,185.72735],[1.04476,4.19941],[-0.01155,-2.24411]],[[256.20966,180.04943],[0.62836,2.07421],[-0.08472,-0.27967]],[[255.84053,179.19501],[0.13586,0.2875],[0,0]]],&quot;closed&quot;:true}]}" fill="#ffffff"/><path d="M215.25,198.26558c0.69036,0 1.25,0.55964 1.25,1.25c0,0.21785 -0.05573,0.42268 -0.1537,0.60102c0.91518,0.28832 1.85807,0.52555 2.83234,0.70985c1.14594,0.21677 5.85567,0.32254 6.58368,1.40821c0.80946,1.20713 -2.27821,5.72442 -2.74958,6.90831c-0.24745,0.48934 -0.41934,0.97835 -0.60598,1.469c0.54995,0.11909 1.0961,0.24787 1.63931,0.38379c-0.03023,-0.15539 -0.04607,-0.31593 -0.04607,-0.48017c0,-1.38071 1.11929,-2.5 2.5,-2.5c1.38071,0 2.5,1.11929 2.5,2.5c0,0.64412 -0.2436,1.23134 -0.64369,1.67458c4.2434,1.23929 8.44738,2.49922 13.04615,2.49922c1.41841,0.28368 2.85276,0.35954 4.27718,0.25855c-0.11587,-0.28811 -0.17964,-0.60278 -0.17964,-0.93235c0,-1.38071 1.11929,-2.5 2.5,-2.5c1.35892,0 2.4646,1.08423 2.49917,2.43482c3.52222,-1.19928 6.78209,-3.33603 9.338,-5.88126c1.01889,-0.73182 1.26631,-1.83838 2.14179,-2.74394c0.01104,-1.59511 0.25349,-3.49481 0.15942,-5.2347c-0.18685,0.11121 -0.40516,0.17508 -0.63838,0.17508c-0.69036,0 -1.25,-0.55964 -1.25,-1.25c0,-0.69036 0.55964,-1.25 1.25,-1.25c0.07779,0 0.15392,0.00711 0.22777,0.0207c-0.72015,-2.28193 -1.68192,-4.51355 -2.56748,-6.76166c-0.43353,0.74226 -1.23867,1.24096 -2.16029,1.24096c-1.38071,0 -2.5,-1.11929 -2.5,-2.5c0,-1.38071 1.11929,-2.5 2.5,-2.5c0.30261,0 0.59266,0.05376 0.86112,0.15226c-0.17526,-0.56004 -0.3358,-1.12321 -0.47693,-1.69048c-0.01155,-2.24411 -0.54616,-3.60372 -1.17453,-5.67792c-0.08472,-0.27967 -0.23328,-0.56692 -0.36914,-0.85442l-0.09385,-0.0317c-1.42215,-0.35554 -2.80348,-0.78016 -4.27996,-0.78016c-6.09131,-1.00879 -11.91968,-0.82325 -18.05739,-0.79966c-0.1857,0.40221 -0.68076,0.40221 -0.68076,0.40221c-0.08847,0 -0.17701,-0.00018 -0.26564,-0.00052c-0.2814,0.28683 -0.71626,0.17812 -0.71626,0.17812l-0.78885,-0.19721c-3.18313,-0.06362 -6.43935,-0.24545 -9.57608,0.01772c-1.23836,0.1039 -2.44322,0.30479 -3.63082,0.56095c2.84344,1.51342 3.87022,4.96595 2.41564,7.88524c-1.38112,1.84989 -1.91201,3.46217 -4.14469,4.49597c-0.48436,0.22428 -1.04004,0.37814 -1.64207,0.46722c1.10904,1.17571 2.33272,2.9468 2.61959,3.5071l0.25951,0.20508c0,0 0.53033,0.53033 0,1.06066c-0.53033,0.53033 -1.06066,0 -1.06066,0l-0.54049,-0.59492c-0.55456,-1.1447 -1.58028,-1.69442 -2.33761,-2.69688c-0.08939,-0.11832 -0.19333,-0.35296 -0.26968,-0.57859c-0.31921,0.76353 -1.52666,2.0023 -1.79156,2.27039c0,0 -0.53033,0.53033 -1.06066,0c-0.53033,-0.53033 0,-1.06066 0,-1.06066c0.2813,-0.27715 0.89151,-1.28585 1.48222,-2.09965c-2.68492,-0.3125 -5.55313,-1.50696 -7.08651,-3.24097c0.12451,2.64517 1.3159,5.40263 3.23481,7.31211c1.94819,1.55627 3.99466,2.82518 6.19881,3.77648c0.1205,-0.56446 0.62204,-0.98777 1.22245,-0.98777zM253.25,151.76558c0,-1.38071 1.11929,-2.5 2.5,-2.5c0.23008,0 0.45291,0.03108 0.66451,0.08928c-1.87384,-0.89656 -3.73324,-1.67338 -5.68242,-2.27126c-2.2173,1.29716 -4.01017,3.77165 -5.48674,5.99238l-0.17864,0.89321c-0.06296,0.35054 -0.3695,0.61654 -0.73816,0.61654c-0.41422,0 -0.75,-0.33578 -0.75,-0.75v-0.86393c-0.82504,-1.53697 -1.68922,-2.93368 -2.74982,-4.32415c-1.88671,-1.33538 -4.43859,-1.80799 -6.84851,-1.42694c-1.96551,0.7481 -3.74561,1.72056 -5.38675,2.86854c-0.6051,0.70999 -1.086,1.54569 -1.39646,2.50656c-0.76171,2.35746 -0.31794,5.35597 -0.02019,8.02383l0.06324,-0.02108l0.39446,1.18339c0.02849,0.07926 0.04402,0.1647 0.04402,0.25378c0,0.41422 -0.33578,0.75 -0.75,0.75c-0.17942,0 -0.34411,-0.063 -0.47319,-0.16808l-0.9656,-0.77248c-2.17679,-1.29405 -6.44876,-1.52712 -8.06145,0.92262c-0.12165,0.22773 -0.24537,0.45597 -0.36702,0.68484c-0.30277,0.63694 -0.79748,1.7889 -1.08945,2.8276c-0.20854,1.86572 1.26789,3.1541 2.61826,4.16434c2.55697,1.91294 5.20144,3.49003 8.19641,4.68691c1.46765,0.48922 2.8791,0.95777 4.37508,1.33906c0.1638,0.00291 0.32741,0.00548 0.4908,0.00764c0.18913,-0.39246 0.67615,-0.39246 0.67615,-0.39246c6.57021,0 12.77988,-0.28589 19.26186,0.80256c1.3024,0 2.53982,0.31144 3.78697,0.63261c0.01881,-0.19281 0.11846,-0.40734 0.41576,-0.55599h0.00004c0.32193,-0.16097 0.56662,-0.09019 0.73405,0.02698c0.51585,-0.15778 1.12101,-0.10255 1.60136,-0.10616c2.33283,-0.01752 4.6671,-0.00467 7,0c0.58476,0.00117 1.34117,0.36203 1.7535,-0.05261c0.3046,-0.30631 0.60475,-0.69049 0.89692,-1.10834c0.00198,-0.71618 -0.00986,-2.08135 -0.38076,-2.35871c-1.15157,-0.86119 -2.53292,-0.97153 -3.90772,-1.08253l0.01995,0.0798l-0.78368,0.19592c-0.06314,0.01726 -0.1296,0.02648 -0.19822,0.02648c-0.41422,0 -0.75,-0.33578 -0.75,-0.75c0,-0.2994 0.17544,-0.55782 0.42912,-0.67808l0.78546,-0.39274c3.16729,-1.58364 5.68191,-3.85245 7.85821,-6.65151c1.84636,-7.91395 -7.18559,-6.75526 -12.43111,-5.35894l-0.63563,0.47672c-0.12637,0.09694 -0.28448,0.15455 -0.45606,0.15455c-0.41422,0 -0.75,-0.33578 -0.75,-0.75c0,-0.12597 0.03106,-0.24468 0.08593,-0.34891l0.39325,-0.78651l0.01567,0.00784l0.00647,-0.04887c0.68085,-1.02343 1.47586,-1.88155 1.70233,-3.09746c-0.00524,-1.04101 0.38756,-2.87061 -0.05316,-3.85036c-0.50125,-0.25934 -0.99854,-0.51205 -1.49377,-0.75705c0.6156,0.45538 1.01473,1.18666 1.01473,2.01117c0,1.38071 -1.11929,2.5 -2.5,2.5c-1.38071,0 -2.5,-1.11929 -2.5,-2.5zM248,216.51558c-0.3415,0 -0.667,-0.06847 -0.96353,-0.19243c-1.9263,0.2649 -3.87533,0.24024 -5.78181,-0.14106c-6.77419,0 -12.67791,-2.74901 -19.11724,-4.09827c-0.33823,0.22576 -0.74427,0.02274 -0.74427,0.02274l-0.20713,-0.33974c-0.08274,-0.07566 -0.15548,-0.17722 -0.19039,-0.31229l-0.33788,-0.5542c0.39929,-0.78771 0.59323,-1.57699 0.98664,-2.37184c0.47042,-1.1709 1.1047,-2.21098 1.59127,-3.37977c0.14448,-0.34706 0.25291,-0.71001 0.42103,-1.04626c0.2021,-0.40421 1.28771,-1.11154 0.83813,-1.06566c-6.00769,0.61301 -13.10673,-2.78961 -17.66643,-6.44222c-5.21973,-5.24072 -5.52315,-15.33173 2.91829,-17.48646c1.12729,-0.27916 2.23775,-0.59064 3.34516,-0.9c0.20958,-0.32238 0.63674,-0.32238 0.63674,-0.32238l0.4603,0.01771c2.31378,-0.63588 4.63406,-1.21273 7.08653,-1.41583c0.54033,-0.04475 1.08401,-0.07667 1.63012,-0.09853c-3.65484,-1.37547 -7.12117,-4.37074 -8.48473,-7.70527l-0.00002,-0.00002c-0.25801,-0.63096 -0.17782,-1.54984 0.05335,-2.50971c0.02384,-0.23336 0.06497,-0.47025 0.12449,-0.71068c0.2139,-0.86393 0.62325,-1.71088 1.06082,-2.54778c0.07057,-0.15203 0.13734,-0.29135 0.19829,-0.41531c0.07948,-0.15523 0.16537,-0.304 0.25722,-0.44645c0.27806,-0.52843 0.54422,-1.05378 0.75547,-1.57782c3.50779,-4.95132 7.28697,-9.48558 12.23224,-12.52443c1.35107,-1.07799 2.86601,-1.81769 4.44691,-2.17686c0.88075,-0.32896 1.79571,-0.61452 2.74822,-0.85265c1.9116,-0.76176 3.74171,-0.64005 5.7676,-0.63591c3.10296,0.00635 6.29707,0.29792 9.35128,1.07043c2.74999,-0.44691 6.33251,1.31847 8.05728,3.54426c1.35577,0.84762 2.68966,1.73328 4.09211,2.49068c2.80756,2.27209 8.7115,5.00098 10.0659,8.58395c0.86795,2.29611 0.2559,5.88983 -0.28875,8.20183c-0.49301,2.09279 -1.62199,3.74823 -2.56598,5.63482c-0.47096,0.7072 -1.10726,1.85039 -1.77997,2.81515c-0.82345,3.6575 -5.14614,4.77145 -9.14261,4.75476c-0.60264,-0.1221 -1.15152,-0.29022 -1.64899,-0.51817c0.46968,1.48263 0.67726,3.06571 0.66727,4.68018c1.0356,4.11175 3.17294,7.99768 4.37453,12.07793c0.68686,2.33239 0.24633,5.26832 0.23147,7.69114c0.01196,0.11018 -0.00283,0.21369 -0.02278,0.29434c-0.02204,0.09798 -0.06575,0.2225 -0.15248,0.33086l-0.24479,0.42771c-0.93831,0.91368 -1.15924,1.99876 -2.23892,2.83626c-2.93836,2.95233 -6.84355,5.37321 -11.01331,6.54125c-0.45514,0.47572 -1.0963,0.772 -1.80666,0.772zM260.00248,179.88937c1.58625,-0.00797 4.52145,-0.27443 6.29676,-1.41021c-0.93741,0.0592 -1.99977,-0.09344 -2.67066,-0.09344c-1.33333,0 -2.66667,0 -4,0c-0.5,0 -1.00002,0.00431 -1.5,0c-0.20905,-0.0018 -0.598,-0.14112 -0.85646,-0.20098c0.62583,0.95934 1.54129,1.47118 2.73036,1.70463zM225.59898,160.22375c-0.10694,-0.54468 -0.01978,-1.18105 -0.02041,-1.88804c-0.00179,-1.99259 -0.35419,-4.09434 0.1957,-5.99645c-2.41141,2.16954 -4.53232,4.72137 -6.55929,7.44864c2.05747,-0.65115 4.51612,-0.40952 6.38399,0.43584zM241.86959,147.56751c0.99497,1.27652 1.8324,2.53965 2.58349,3.91939c0.8274,-1.60184 3.16073,-3.77823 4.50959,-4.88861c-2.1244,-0.51311 -4.38354,-0.80704 -6.90016,-0.81209c-1.26664,-0.00254 -2.44234,-0.06713 -3.61514,0.11025c1.17057,0.32907 2.32375,0.88072 3.42221,1.67107zM260.27492,154.50962c-0.18419,0.88163 -0.51718,1.57138 -0.93189,2.24697c1.31032,-0.33073 3.09939,-0.33433 3.86223,-0.46067c1.61231,-0.26702 3.17475,-0.19184 4.5443,0.19808c-1.69148,-1.26066 -3.38973,-2.52933 -5.01529,-3.8542c-0.79862,-0.42789 -1.57739,-0.84724 -2.34266,-1.25444c0.05232,1.06119 -0.11294,2.22483 -0.11669,3.12426zM272.20578,164.75805c-1.82688,2.49856 -3.99061,4.59978 -6.55147,6.22393c1.16827,0.32449 2.40264,0.9408 2.8046,1.32341c0.64624,0.61513 0.60952,0.93097 0.59267,1.42336c0.14728,-0.2368 0.29027,-0.46265 0.42831,-0.66948c0.87461,-1.75052 1.94919,-3.28399 2.40304,-5.22474c0.4739,-2.0265 1.08794,-5.32494 0.34223,-7.3386c-0.03394,-0.09166 -0.07309,-0.18103 -0.11691,-0.26827c0.47523,1.25098 0.55386,2.76998 0.09752,4.53039z" fill="#000000"/><path d="M227.7445,179.51096c1.05268,-1.14368 3.8173,-1.81021 3.52439,0.44489c-0.1772,1.36426 -2.53464,1.02987 -3.34032,1.02987c0,0 -0.75,0 -0.75,-0.75c0,-0.50784 0.34387,-0.67181 0.56592,-0.72475z" fill="#000000"/><path d="M245.32857,181.58572l-1.35,-0.75c0.07323,-0.44344 -0.09814,-1.01252 0.21967,-1.33033c0.67983,-0.67983 4.50558,-0.32011 4.83138,0.6638c0.63921,1.9304 -2.18751,2.32728 -3.07057,1.51918c-0.04959,-0.04538 -0.0958,-0.0935 -0.1392,-0.14392l-0.0216,0.0216l-0.08105,-0.08105c-0.19192,0.10073 -0.38861,0.10072 -0.38861,0.10072z" fill="#000000"/><path d="M220,194.26558c0,-1.38071 1.11929,-2.5 2.5,-2.5c1.38071,0 2.5,1.11929 2.5,2.5c0,1.38071 -1.11929,2.5 -2.5,2.5c-1.38071,0 -2.5,-1.11929 -2.5,-2.5z" fill="#000000"/><path d="M227,188.51558c0,-1.38071 1.11929,-2.5 2.5,-2.5c1.38071,0 2.5,1.11929 2.5,2.5c0,1.38071 -1.11929,2.5 -2.5,2.5c-1.38071,0 -2.5,-1.11929 -2.5,-2.5z" fill="#000000"/><path d="M233.75,181.76558c0,-1.38071 1.11929,-2.5 2.5,-2.5c1.38071,0 2.5,1.11929 2.5,2.5c0,1.38071 -1.11929,2.5 -2.5,2.5c-1.38071,0 -2.5,-1.11929 -2.5,-2.5z" fill="#000000"/><path d="M243.5,188.01558c0,-1.38071 1.11929,-2.5 2.5,-2.5c1.38071,0 2.5,1.11929 2.5,2.5c0,1.38071 -1.11929,2.5 -2.5,2.5c-1.38071,0 -2.5,-1.11929 -2.5,-2.5z" fill="#000000"/><path d="M236.75,202.01558c0,-1.38071 1.11929,-2.5 2.5,-2.5c1.38071,0 2.5,1.11929 2.5,2.5c0,1.38071 -1.11929,2.5 -2.5,2.5c-1.38071,0 -2.5,-1.11929 -2.5,-2.5z" fill="#000000"/><path d="M253,202.01558c0,-1.38071 1.11929,-2.5 2.5,-2.5c1.38071,0 2.5,1.11929 2.5,2.5c0,1.38071 -1.11929,2.5 -2.5,2.5c-1.38071,0 -2.5,-1.11929 -2.5,-2.5z" fill="#000000"/><path d="M227,167.01558c0,-1.38071 1.11929,-2.5 2.5,-2.5c1.38071,0 2.5,1.11929 2.5,2.5c0,1.38071 -1.11929,2.5 -2.5,2.5c-1.38071,0 -2.5,-1.11929 -2.5,-2.5z" fill="#000000"/><path d="M240.5,163.26558c0,-1.38071 1.11929,-2.5 2.5,-2.5c1.38071,0 2.5,1.11929 2.5,2.5c0,1.38071 -1.11929,2.5 -2.5,2.5c-1.38071,0 -2.5,-1.11929 -2.5,-2.5z" fill="#000000"/><path d="M231,151.76558c0,-1.38071 1.11929,-2.5 2.5,-2.5c1.38071,0 2.5,1.11929 2.5,2.5c0,1.38071 -1.11929,2.5 -2.5,2.5c-1.38071,0 -2.5,-1.11929 -2.5,-2.5z" fill="#000000"/><path d="M258.5,163.01558c0,-1.38071 1.11929,-2.5 2.5,-2.5c1.38071,0 2.5,1.11929 2.5,2.5c0,1.38071 -1.11929,2.5 -2.5,2.5c-1.38071,0 -2.5,-1.11929 -2.5,-2.5z" fill="#000000"/><path d="M245.5,173.76558c0,-1.38071 1.11929,-2.5 2.5,-2.5c1.38071,0 2.5,1.11929 2.5,2.5c0,1.38071 -1.11929,2.5 -2.5,2.5c-1.38071,0 -2.5,-1.11929 -2.5,-2.5z" fill="#000000"/><path d="M237.5,157.76558c0,-0.69036 0.55964,-1.25 1.25,-1.25c0.69036,0 1.25,0.55964 1.25,1.25c0,0.69036 -0.55964,1.25 -1.25,1.25c-0.69036,0 -1.25,-0.55964 -1.25,-1.25z" fill="#000000"/><path d="M247.5,157.26558c0,-0.69036 0.55964,-1.25 1.25,-1.25c0.69036,0 1.25,0.55964 1.25,1.25c0,0.69036 -0.55964,1.25 -1.25,1.25c-0.69036,0 -1.25,-0.55964 -1.25,-1.25z" fill="#000000"/><path d="M251.25,166.01558c0,-0.69036 0.55964,-1.25 1.25,-1.25c0.69036,0 1.25,0.55964 1.25,1.25c0,0.69036 -0.55964,1.25 -1.25,1.25c-0.69036,0 -1.25,-0.55964 -1.25,-1.25z" fill="#000000"/><path d="M237.25,172.26558c0,-0.69036 0.55964,-1.25 1.25,-1.25c0.69036,0 1.25,0.55964 1.25,1.25c0,0.69036 -0.55964,1.25 -1.25,1.25c-0.69036,0 -1.25,-0.55964 -1.25,-1.25z" fill="#000000"/><path d="M218.5,166.76558c0,-0.69036 0.55964,-1.25 1.25,-1.25c0.69036,0 1.25,0.55964 1.25,1.25c0,0.69036 -0.55964,1.25 -1.25,1.25c-0.69036,0 -1.25,-0.55964 -1.25,-1.25z" fill="#000000"/><path d="M258.5,173.51558c0,-0.69036 0.55964,-1.25 1.25,-1.25c0.69036,0 1.25,0.55964 1.25,1.25c0,0.69036 -0.55964,1.25 -1.25,1.25c-0.69036,0 -1.25,-0.55964 -1.25,-1.25z" fill="#000000"/><path d="M266.25,162.26558c0,-0.69036 0.55964,-1.25 1.25,-1.25c0.69036,0 1.25,0.55964 1.25,1.25c0,0.69036 -0.55964,1.25 -1.25,1.25c-0.69036,0 -1.25,-0.55964 -1.25,-1.25z" fill="#000000"/><path d="M252,184.51558c0,-0.69036 0.55964,-1.25 1.25,-1.25c0.69036,0 1.25,0.55964 1.25,1.25c0,0.69036 -0.55964,1.25 -1.25,1.25c-0.69036,0 -1.25,-0.55964 -1.25,-1.25z" fill="#000000"/><path d="M240.25,191.01558c0,-0.69036 0.55964,-1.25 1.25,-1.25c0.69036,0 1.25,0.55964 1.25,1.25c0,0.69036 -0.55964,1.25 -1.25,1.25c-0.69036,0 -1.25,-0.55964 -1.25,-1.25z" fill="#000000"/><path d="M223.75,184.01558c0,-0.69036 0.55964,-1.25 1.25,-1.25c0.69036,0 1.25,0.55964 1.25,1.25c0,0.69036 -0.55964,1.25 -1.25,1.25c-0.69036,0 -1.25,-0.55964 -1.25,-1.25z" fill="#000000"/><path d="M230.75,195.76558c0,-0.69036 0.55964,-1.25 1.25,-1.25c0.69036,0 1.25,0.55964 1.25,1.25c0,0.69036 -0.55964,1.25 -1.25,1.25c-0.69036,0 -1.25,-0.55964 -1.25,-1.25z" fill="#000000"/><path d="M229,201.01558c0,-0.69036 0.55964,-1.25 1.25,-1.25c0.69036,0 1.25,0.55964 1.25,1.25c0,0.69036 -0.55964,1.25 -1.25,1.25c-0.69036,0 -1.25,-0.55964 -1.25,-1.25z" fill="#000000"/><path d="M233.75,210.76558c0,-0.69036 0.55964,-1.25 1.25,-1.25c0.69036,0 1.25,0.55964 1.25,1.25c0,0.69036 -0.55964,1.25 -1.25,1.25c-0.69036,0 -1.25,-0.55964 -1.25,-1.25z" fill="#000000"/><path d="M243.75,207.26558c0,-0.69036 0.55964,-1.25 1.25,-1.25c0.69036,0 1.25,0.55964 1.25,1.25c0,0.69036 -0.55964,1.25 -1.25,1.25c-0.69036,0 -1.25,-0.55964 -1.25,-1.25z" fill="#000000"/><path d="M243.5,197.51558c0,-0.69036 0.55964,-1.25 1.25,-1.25c0.69036,0 1.25,0.55964 1.25,1.25c0,0.69036 -0.55964,1.25 -1.25,1.25c-0.69036,0 -1.25,-0.55964 -1.25,-1.25z" fill="#000000"/><path d="M250.75,195.51558c0,-0.69036 0.55964,-1.25 1.25,-1.25c0.69036,0 1.25,0.55964 1.25,1.25c0,0.69036 -0.55964,1.25 -1.25,1.25c-0.69036,0 -1.25,-0.55964 -1.25,-1.25z" fill="#000000"/><path d="M252.5,208.26558c0,-0.69036 0.55964,-1.25 1.25,-1.25c0.69036,0 1.25,0.55964 1.25,1.25c0,0.69036 -0.55964,1.25 -1.25,1.25c-0.69036,0 -1.25,-0.55964 -1.25,-1.25z" fill="#000000"/><path d="M215.18856,181.07702c0.81144,0.25141 0.81144,1.18856 0.81144,1.18856l-0.78576,1.6606c-1.29015,0.49485 -8.13265,1.8227 -7.70919,-1.52285c0.3132,-2.47443 4.91922,-2.13774 6.49495,-2.13774c0,0 0.93715,0 1.18856,0.81144z" fill="#ffffff"/></g></g></svg>