<svg version="1.1" xmlns="http://www.w3.org/2000/svg" xmlns:xlink="http://www.w3.org/1999/xlink" width="199.32862" height="199.32862" viewBox="0,0,199.32862,199.32862"><g transform="translate(-140.33569,-80.33572)"><g data-paper-data="{&quot;isPaintingLayer&quot;:true}" fill-rule="nonzero" stroke="none" stroke-linecap="butt" stroke-linejoin="miter" stroke-miterlimit="10" stroke-dasharray="" stroke-dashoffset="0" style="mix-blend-mode: normal"><path d="M223.31221,166.28103c-0.71688,-3.34311 8.31988,-7.32038 9.85702,-3.58437c0.55834,1.35793 -0.33776,2.33673 -1.61985,2.82614c-1.79218,0.68011 -3.49936,1.52795 -5.12152,2.54352c-0.2022,0.12407 -0.42048,0.17462 -0.65484,0.15165c-1.39239,-0.12867 -2.21266,-0.77431 -2.46082,-1.93693z" fill="#ffb6af" stroke-width="1"/><path d="M237.0707,163.06891c0,-1.06594 0.8641,-1.93004 1.93004,-1.93004c1.06594,0 1.93004,0.8641 1.93004,1.93004c0,1.06594 -0.8641,1.93004 -1.93004,1.93004c-1.06594,0 -1.93004,-0.8641 -1.93004,-1.93004z" fill="#ffb6af" stroke-width="1"/><path d="M225.46285,176.8687c0,-1.59509 1.29309,-2.88817 2.88817,-2.88817c1.59509,0 2.88817,1.29309 2.88817,2.88817c0,1.59509 -1.29309,2.88817 -2.88817,2.88817c-1.59509,0 -2.88817,-1.29309 -2.88817,-2.88817z" fill="#a50605" stroke-width="1"/><path d="M248.85776,176.89628c0,-1.61032 1.30542,-2.91575 2.91575,-2.91575c1.61032,0 2.91575,1.30542 2.91575,2.91575c0,1.61032 -1.30542,2.91575 -2.91575,2.91575c-1.61032,0 -2.91575,-1.30542 -2.91575,-2.91575z" fill="#a50605" stroke-width="1"/><path d="M241.41329,184.76812c-1.40618,0.04595 -2.81464,0.00229 -4.22542,-0.13096c-0.35455,-0.03315 -0.67129,-0.23543 -0.85047,-0.54318c-0.17917,-0.30774 -0.19874,-0.68306 -0.05253,-1.00775c0.4963,-1.11667 1.62675,-3.40514 2.97089,-3.63263c2.31605,-0.3929 6.70001,5.16977 2.15751,5.31452zM238.7595,182.32111c0.25274,0.80878 0.85013,0.93285 1.79218,0.37222c0.22057,-0.13327 0.24815,-0.2964 0.08272,-0.48941l-0.53076,-0.62727c-0.24352,-0.27906 -0.6488,-0.3502 -0.97279,-0.17076c-0.32399,0.17944 -0.4787,0.56075 -0.37135,0.91519z" fill="#a50605" stroke-width="1"/><path d="M238.7595,182.32111c-0.10737,-0.35446 0.04736,-0.73577 0.37135,-0.91519c0.32399,-0.17944 0.72929,-0.1083 0.97279,0.17076l0.53076,0.62727c0.16543,0.19301 0.13786,0.35614 -0.08272,0.48941c-0.94205,0.56063 -1.53945,0.43656 -1.79218,-0.37222z" fill="#ffb6af" stroke-width="1"/><path d="M140.33569,180.00002c0,-55.04307 44.62123,-99.6643 99.66431,-99.6643c55.04307,0 99.66431,44.62123 99.66431,99.66431c0,55.04307 -44.62123,99.66431 -99.66431,99.66431c-55.04307,0 -99.66431,-44.62123 -99.66431,-99.66431z" fill="none" stroke-width="0"/><path d="M214.07143,174.67857l0.58571,0.9c-0.27318,0.20477 -0.48737,0.43031 -0.65694,0.67277c-0.00013,0.07098 -0.0002,0.14196 -0.0002,0.21294c0,0 0,0.40291 -0.36168,0.48536c-0.56517,1.5187 -0.1304,3.46235 -1.25249,5.14548c-0.47218,1.53477 3.91965,2.96307 5.05141,3.16132c0.34242,0.05998 1.4894,-0.14468 1.74258,0.18584c0.59328,0.77449 -1.26039,2.99104 -1,3.28571c0.04981,0.05637 1.73664,0.35001 1.80067,0.38915c0.97693,0.59711 1.60013,1.59871 1.9934,2.61624c0.27426,0.91646 0.65475,1.86452 0.73796,2.82448c0.04055,0.46776 -0.55297,1.00683 -0.27097,1.38222c1.03045,1.37171 5.34579,1.7076 6.88828,2.03757c2.70987,0.5797 3.24886,4.55107 3.23852,6.69057c-0.35331,1.02534 2.61562,0.93588 3.42759,1.03265c2.99753,0.35725 10.16781,0.92848 12.15118,-1.73301c1.11939,-0.83418 1.91514,-1.80256 3.23791,-2.41366c1.15907,-0.53547 2.94183,-0.80104 3.97047,-1.49864c2.22174,-1.50673 4.26253,-3.92016 6.1066,-5.91726c2.42732,-2.62824 1.74959,-4.9078 2.11374,-8.30655c0.1306,-1.21895 2.02955,-2.03867 1.99625,-3.08177c-0.02914,-0.913 -1.35653,-2.02194 -2.00608,-2.51354c-1.04485,-1.83704 1.08399,-2.77802 1.76381,-4.26175c0.90471,-1.97453 -0.56126,-4.76933 -0.74016,-6.95708l-0.16043,-0.12478c0.00072,-2.05761 -0.72065,-4.41534 -1.4451,-6.3331c-0.93629,-2.49585 -1.45124,-5.10326 -2.4883,-7.57049c-0.5686,-1.35273 -1.84483,-3.12257 -1.881,-4.60842c-0.00964,-0.396 -0.06124,0.80989 -0.23839,1.16419c-0.47811,0.95622 -0.94602,1.89099 -1.4244,2.84859c-1.02539,2.2631 -2.30632,4.40167 -3.36476,6.64136c-0.32672,0.69135 -0.14144,1.69522 -0.73968,2.17147c-0.07786,0.06198 -2.36826,-0.79431 -2.5047,-0.83913c-2.45033,-0.80503 -4.91853,-1.51132 -7.38569,-2.27355c-5.18038,-0.855 -10.51222,-0.80925 -14.45953,3.08106c-0.04303,0.06084 -0.10756,0.11803 -0.20199,0.16524c-0.00713,0.00357 -0.01421,0.00696 -0.02122,0.01019c-0.07595,0.03726 -0.17503,0.06603 -0.28432,0.04752c-0.10954,-0.017 -0.19444,-0.07563 -0.2547,-0.13499c-0.00564,-0.00528 -0.01127,-0.01074 -0.01691,-0.01638c-0.10221,-0.10221 -0.14532,-0.20442 -0.15497,-0.29809c-0.86041,-0.88156 -1.54378,-2.09285 -2.24798,-3.11684c-1.25505,-1.29807 -2.33916,-2.76674 -3.623,-4.03635c-0.7888,-0.78005 -2.17888,-1.4444 -2.44448,-2.55731c-0.05085,-0.21305 -0.06403,0.44591 -0.17927,0.63219c-0.28591,0.46216 -0.6869,1.05936 -1.03865,1.4827c-1.07101,1.28898 -1.72355,2.85212 -2.15929,4.47811c-1.30207,4.84667 -1.77075,9.84849 -1.85553,14.85236c0.03474,-0.00461 0.05671,-0.00461 0.05671,-0.00461zM265.57143,168.60714c0,2.48414 1.74718,5.39264 0.67084,7.77528c-0.2038,0.45114 -2.50532,2.73736 -1.95047,3.16682c0.85813,0.63743 2.29627,2.00589 2.27963,3.20075c-0.01732,1.24387 -1.39189,1.79216 -1.90567,2.78631c-0.81459,1.57621 -0.01953,4.5334 -0.39113,6.31839c-0.26524,1.27409 -1.2439,2.05798 -2.0785,2.96201c-1.881,2.0371 -3.9686,4.54123 -6.26525,6.05628c-2.26669,1.49528 -4.85634,2.12597 -7.07733,3.80199c-2.22205,2.94455 -9.64176,2.41369 -12.97623,2.01892c-1.51274,-0.17909 -4.71744,-0.00718 -4.30214,-2.14785c-0.00862,-1.50346 -0.34094,-5.29686 -2.47577,-5.59514c-1.81937,-0.2542 -6.65771,-0.92074 -7.63296,-2.78612c-0.23614,-0.45166 0.30847,-1.00205 0.25027,-1.50838c-0.10221,-0.88925 -0.4361,-1.7514 -0.69061,-2.60409c-0.2856,-0.79251 -0.80074,-1.604 -1.55024,-2.07182c-0.44853,-0.27996 -1.78115,-0.15716 -2.08426,-0.63708c-0.53203,-0.84237 0.05604,-1.31743 0.37475,-1.95846c0.00832,-0.01674 0.33735,-1.13232 0.54308,-1.31458c-0.46684,-0.02447 -2.69742,-0.40879 -3.01406,-0.53149c-1.77559,-0.68808 -4.35073,-1.52371 -3.82406,-3.84831c1.3021,-1.95315 0.63171,-4.02423 1.52971,-5.70622c0.02375,-5.5245 0.46593,-11.06128 1.90346,-16.41298c0.58368,-2.16782 1.62256,-3.89354 2.90163,-5.68159c0.31849,-0.44523 0.87849,-1.83934 1.66072,-1.6276c0.65592,0.17754 0.8925,1.03117 1.40641,1.47575c1.92392,1.6644 3.45992,3.63387 5.21574,5.46043c0.64531,0.93198 1.27915,2.10297 2.06449,2.92512c4.16729,-3.80136 9.66201,-3.90605 15.03282,-3.00296c2.22903,0.68323 4.53216,1.17869 6.71115,2.00801c0.56542,0.2152 1.15132,0.37227 1.72461,0.56552c0.32001,0.10787 0.9367,0.91516 0.8167,0.59949c-0.36472,-0.95945 0.30196,-1.7895 0.75594,-2.58682c1.04901,-1.84237 1.97792,-3.81153 2.8539,-5.74321c0.36779,-0.73493 1.74162,-4.65039 2.70603,-4.71255c0.80944,-0.05217 1.2069,2.09869 1.43646,2.59399c1.57181,3.39142 2.42171,6.89492 3.7284,10.36291c0.68492,1.82985 1.35665,4.008 1.48655,6.01264c0.16537,0.14751 0.16537,0.38664 0.16537,0.38664z" fill="#000000" stroke-width="0.5"/><path d="M213.96519,174.67629c0.08478,-5.00388 0.5638,-10.02987 1.86587,-14.87654c0.43574,-1.62599 1.09362,-3.19488 2.16463,-4.48386c0.35175,-0.42334 0.75487,-1.02238 1.04078,-1.48455c0.11524,-0.18628 0.12908,-0.84578 0.17993,-0.63272c0.2656,1.11291 1.65614,1.77689 2.44494,2.55695c1.28384,1.26961 2.36864,2.73776 3.62369,4.03583c0.7042,1.024 1.44749,2.31534 2.3079,3.1969c0.00964,0.09367 0.05287,0.19579 0.15508,0.298c0.00564,0.00564 -0.04901,-0.06869 -0.04337,-0.06341c0.06027,0.05936 0.14543,0.11779 0.25497,0.13479c0.10929,0.01851 0.20894,-0.01067 0.28489,-0.04793c0.00702,-0.00323 0.01414,-0.00666 0.02127,-0.01023c0.09443,-0.04722 0.15954,-0.10481 0.20257,-0.16566c3.94731,-3.89031 9.31856,-3.94394 14.49894,-3.08893c2.46717,0.76223 4.95383,1.47677 7.40415,2.28179c0.13643,0.04482 2.43163,0.90504 2.50949,0.84306c0.59824,-0.47625 0.34652,-1.40541 0.67325,-2.09676c1.05844,-2.23969 2.34166,-4.37642 3.36705,-6.63952c0.47838,-0.95761 0.947,-1.89184 1.42511,-2.84807c0.17715,-0.3543 0.28705,-1.64143 0.29669,-1.24543c0.03617,1.48585 1.31756,3.25988 1.88616,4.61261c1.03706,2.46723 1.55991,5.08403 2.4962,7.57989c0.72445,1.91776 1.45089,4.28563 1.45016,6.34324l0.16054,0.12508c0.1789,2.18775 1.6476,4.99523 0.7429,6.96976c-0.67983,1.48373 -2.80867,2.43305 -1.76382,4.27009c0.64956,0.49159 1.97639,1.60483 2.00553,2.51783c0.03329,1.04309 -1.86719,1.8692 -1.99779,3.08815c-0.36415,3.39875 0.3066,5.69239 -2.12072,8.32063c-1.84407,1.9971 -3.89568,4.4216 -6.11741,5.92833c-1.02864,0.6976 -2.81792,0.9673 -3.977,1.50277c-1.32278,0.6111 -2.12521,1.58242 -3.2446,2.4166c-1.98337,2.66149 -9.17577,2.09284 -12.1733,1.7356c-0.81197,-0.09677 -3.78727,-0.00842 -3.43395,-1.03376c0.01034,-2.1395 -0.53878,-6.11452 -3.24865,-6.69422c-1.54249,-0.32997 -5.87,-0.6742 -6.90044,-2.04591c-0.282,-0.37539 0.31036,-0.91558 0.26981,-1.38333c-0.08321,-0.95996 -0.46756,-1.91233 -0.74183,-2.82879c-0.39327,-1.01752 -1.0207,-2.02533 -1.99763,-2.62245c-0.06403,-0.03913 -1.75212,-0.33511 -1.80193,-0.39148c-0.26039,-0.29468 1.59093,-2.51661 0.99765,-3.2911c-0.25318,-0.33052 -1.40072,-0.12747 -1.74315,-0.18745c-1.13176,-0.19825 -5.52555,-1.63488 -5.05338,-3.16965c1.12209,-1.68314 0.68684,-3.63649 1.25201,-5.15518c0.36168,-0.08246 0.36174,-0.48637 0.36174,-0.48637c0,-0.07098 0.0001,-0.14238 0.00023,-0.21336c0.16957,-0.24246 0.3839,-0.46947 0.65708,-0.67424l-0.58551,-0.90164c0,0 -0.02198,0.00002 -0.05672,0.00463z" data-paper-data="{&quot;noHover&quot;:false,&quot;origItem&quot;:[&quot;Path&quot;,{&quot;applyMatrix&quot;:true,&quot;segments&quot;:[[214.07143,174.67857],[[214.65714,175.57857],[0,0],[-0.27318,0.20477]],[[214.0002,176.25134],[0.16957,-0.24246],[-0.00013,0.07098]],[[214,176.46429],[0,-0.07098],[0,0]],[[213.63832,176.94965],[0.36168,-0.08246],[-0.56517,1.5187]],[[212.38583,182.09513],[1.12209,-1.68314],[-0.47218,1.53477]],[[217.43723,185.25646],[-1.13176,-0.19825],[0.34242,0.05998]],[[219.17982,185.44229],[-0.25318,-0.33052],[0.59328,0.77449]],[[218.17982,188.72801],[-0.26039,-0.29468],[0.04981,0.05637]],[[219.98049,189.11716],[-0.06403,-0.03913],[0.97693,0.59711]],[[221.97389,191.73339],[-0.39327,-1.01752],[0.27426,0.91646]],[[222.71185,194.55787],[-0.08321,-0.95996],[0.04055,0.46776]],[[222.44088,195.94009],[-0.282,-0.37539],[1.03045,1.37171]],[[229.32916,197.97766],[-1.54249,-0.32997],[2.70987,0.5797]],[[232.56768,204.66823],[0.01034,-2.1395],[-0.35331,1.02534]],[[235.99527,205.70088],[-0.81197,-0.09677],[2.99753,0.35725]],[[248.14645,203.96788],[-1.98337,2.66149],[1.11939,-0.83418]],[[251.38436,201.55422],[-1.32278,0.6111],[1.15907,-0.53547]],[[255.35483,200.05558],[-1.02864,0.6976],[2.22174,-1.50673]],[[261.46143,194.13832],[-1.84407,1.9971],[2.42732,-2.62824]],[[263.57517,185.83177],[-0.36415,3.39875],[0.1306,-1.21895]],[[265.57143,182.75],[0.03329,1.04309],[-0.02914,-0.913]],[[263.56534,180.23646],[0.64956,0.49159],[-1.04485,-1.83704]],[[265.32916,175.97472],[-0.67983,1.48373],[0.90471,-1.97453]],[[264.589,169.01764],[0.1789,2.18775],[0,0]],[[264.42857,168.89286],[0,0],[0.00072,-2.05761]],[[262.98347,162.55976],[0.72445,1.91776],[-0.93629,-2.49585]],[[260.49517,154.98927],[1.03706,2.46723],[-0.5686,-1.35273]],[[258.61417,150.38085],[0.03617,1.48585],[-0.00964,-0.396]],[[258.37579,151.54504],[0.17715,-0.3543],[-0.47811,0.95622]],[[256.95139,154.39363],[0.47838,-0.95761],[-1.02539,2.2631]],[[253.58662,161.03498],[1.05844,-2.23969],[-0.32672,0.69135]],[[252.84694,163.20645],[0.59824,-0.47625],[-0.07786,0.06198]],[[250.34225,162.36732],[0.13643,0.04482],[-2.45033,-0.80503]],[[242.95655,160.09377],[2.46717,0.76223],[-5.18038,-0.855]],[[228.49702,163.17483],[3.94731,-3.89031],[-0.04303,0.06084]],[[228.29504,163.34007],[0.09443,-0.04722],[-0.00713,0.00357]],[[228.27381,163.35026],[0.00702,-0.00323],[-0.07595,0.03726]],[[227.98949,163.39778],[0.10929,0.01851],[-0.10954,-0.017]],[[227.73479,163.26279],[0.06027,0.05936],[-0.00564,-0.00528]],[[227.71788,163.24641],[0.00564,0.00564],[-0.10221,-0.10221]],[[227.56291,162.94832],[0.00964,0.09367],[-0.86041,-0.88156]],[[225.31493,159.83148],[0.7042,1.024],[-1.25505,-1.29807]],[[221.69193,155.79513],[1.28384,1.26961],[-0.7888,-0.78005]],[[219.24745,153.23782],[0.2656,1.11291],[-0.05085,-0.21305]],[[219.06818,153.87001],[0.11524,-0.18628],[-0.28591,0.46216]],[[218.02953,155.35271],[0.35175,-0.42334],[-1.07101,1.28898]],[[215.87024,159.83081],[0.43574,-1.62599],[-1.30207,4.84667]],[[214.01471,174.68318],[0.08478,-5.00388],[0.03474,-0.00461]]],&quot;closed&quot;:true}]}" fill="#a32f00" stroke-width="0.5"/><path d="M263.35714,179.53571c0.5,0 0.5,0.5 0.5,0.5l-0.00241,0.02658c0.01836,0.07107 0.01578,0.13852 0.00239,0.19898c0.04638,0.19016 0.09276,0.38032 0.13913,0.57049c0.01496,3.6668 -1.96332,6.26087 -2.5767,9.72707c-0.31349,1.77153 0.64579,3.59125 -1.14792,4.79212c-3.7197,1.87102 -7.8259,3.17813 -11.3614,5.39297c-1.35559,0.84922 -2.22578,2.23846 -3.54368,3.12396c-2.41688,1.93215 -5.67666,0.74543 -8.52812,0.23106c-0.8398,-0.15149 -2.5832,-0.15024 -3.06498,-0.97016c-0.48196,-0.82024 -0.38465,-2.46011 -0.75797,-3.39957c-0.54639,-2.20441 -4.93409,-3.27454 -6.98529,-3.48092c-0.51827,-0.05214 -2.40229,0.44406 -2.69504,0.18152c-0.36352,-0.32601 -0.24943,-1.85123 -0.20581,-2.62814c-0.07352,-0.08877 -0.10369,-0.17928 -0.10369,-0.17928l-0.11573,-0.36308c-0.33112,-0.67535 -0.29597,-1.46161 -0.68449,-2.09122c-0.62519,-1.01313 -2.73556,-1.49295 -3.17969,-2.49489c-0.39969,-0.90166 0.91906,-1.78295 0.69,-2.63546c-0.13691,-0.50954 -1.29378,-0.80181 -1.67529,-0.95486c-1.76249,-0.45049 -5.83914,-1.78896 -5.91716,-4.21081c-0.04481,-1.39101 0.98582,-3.34733 1.62012,-4.61998c-0.03148,-0.06548 -0.04912,-0.13887 -0.04912,-0.21638c0,-0.27614 0.22386,-0.5 0.5,-0.5c0.17377,0 0.32684,0.08865 0.41645,0.22319c0.04558,0.02768 0.08272,0.05799 0.11279,0.08988c0.16198,-0.05395 0.32241,-0.00812 0.32241,-0.00812c1.01809,0.29301 4.6375,1.52614 5.14853,2.50923c0.21757,0.41854 -0.30531,0.90031 -0.35828,1.36904c-0.05068,0.44841 1.68484,1.74857 1.9917,1.98023c0.90804,0.6855 3.45018,1.83727 2.71404,3.14787c0.39097,1.59964 3.60023,2.32352 4.93911,2.9931c1.65126,0.82581 1.51689,1.81595 2.71316,3.04509c1.62619,1.67088 3.84658,2.6464 5.8961,3.68467c0.68692,0.19505 1.99257,1.04407 2.70341,0.83633c1.20885,-0.35328 1.96861,-1.48695 3.05546,-1.97063c3.21717,-1.43175 6.20491,-3.5664 9.47701,-4.87563c1.84492,-0.43873 3.73956,-1.60567 5.55152,-2.27881c0.37629,-0.13979 2.45946,-0.77992 2.60214,-0.93126c0.51681,-0.54819 -0.43718,-1.48371 -0.35322,-2.23242c0.15965,-1.42359 0.56862,-2.37036 1.719,-3.16371c0.0245,-0.14183 0.11991,-0.41805 0.49154,-0.41805zM262.54483,183.95495c0.2548,-0.89105 0.43257,-1.81674 0.45631,-2.81786c-0.8409,0.85588 -0.6023,1.84244 -0.45631,2.81786z" fill="#ffffff" stroke-width="0.5"/><path d="M246.08234,200.25034c0.07312,0.00352 0.48909,0.0436 0.48909,0.49966c0,0.5 -0.5,0.5 -0.5,0.5l-0.42021,-0.08397c-1.51478,-1.01423 -3.25001,-3.16315 -5.12253,-3.45474c-0.99883,1.66465 -2.77299,3.17912 -3.99523,4.42358l-0.4704,0.31687c0,0 -0.41603,0.27735 -0.69338,-0.13868c-0.27735,-0.41603 0.13868,-0.69338 0.13868,-0.69338l0.38674,-0.25456c1.0677,-1.0982 2.75882,-2.51545 3.70022,-4.01335c-0.01516,-0.04977 -0.0239,-0.10713 -0.0239,-0.17322c0,-0.34273 0.23493,-0.45053 0.38272,-0.48444c0.13663,-0.29835 0.23651,-0.59849 0.28917,-0.89858c-1.49597,-0.11818 -3.07977,-0.86762 -4.7656,-2.4375c-2.16125,-1.62501 -3.84578,-4.84345 -0.65126,-6.61536c1.01656,-0.56385 2.21999,-0.66179 3.40809,-0.66221c2.45546,-1.52516 5.99673,-2.10544 8.72391,-1.0854c2.53191,0.947 2.8152,4.03706 1.06211,5.79681c-2.05691,2.74255 -4.28872,4.71513 -6.76508,4.98802c-0.04495,0.34423 -0.13859,0.68445 -0.271,1.01974c1.9274,0.48701 3.46775,2.32741 5.09784,3.4507z" fill="#000000" stroke-width="0.5"/><path d="M227.02252,181.09507c-0.22915,-0.07621 -0.44904,-0.16111 -0.65252,-0.25539c0.36175,0.52983 0.71965,1.05805 1.43513,1.29453c0.68769,0.2273 1.26397,0.18564 1.8151,0.04953c-0.67073,0.06536 -1.40319,-0.03582 -1.938,-0.42721c-0.34562,-0.25294 -0.55576,-0.47222 -0.6597,-0.66146zM231.35877,181.23198c0.02859,0.17309 -0.09982,0.35048 -0.32919,0.50544c0.22974,-0.06851 0.46731,-0.1282 0.71834,-0.16772c-0.09768,-0.11493 -0.23065,-0.228 -0.38915,-0.33772zM230.4227,179.68365c1.10345,0.4663 2.03397,1.15881 2.25795,2.24665c-1.50406,1.25626 -4.07261,2.0064 -5.87869,0.8123c-0.8444,-0.55828 -3.13103,-2.73415 -1.68074,-3.71915c0.06433,-0.04369 0.14027,-0.08122 0.22618,-0.11321c0.35799,-0.34635 1.10937,-0.24884 1.61562,-0.15089c1.14293,0.0444 2.44531,0.26911 3.03627,0.35282c0,0 0.49497,0.07071 0.42426,0.56569c-0.00028,0.00194 -0.00056,0.00387 -0.00085,0.00579zM228.05876,179.97074c-0.2128,-0.00408 -0.4265,-0.00558 -0.64237,-0.00613c0.11006,0.08924 0.2109,0.17196 0.29469,0.23512c0.23025,-0.0634 0.49391,-0.10681 0.76439,-0.1335c-0.1548,-0.03928 -0.29563,-0.0714 -0.41671,-0.09549z" fill="#000000" stroke-width="0.5"/><path d="M249.19245,179.80594c0.97384,0.4072 1.29957,0.20547 2.43938,0.03892c0.00998,-0.00987 0.01981,-0.01977 0.02949,-0.02969c-0.25296,0.00862 -0.72593,0.02883 -0.93669,0.00252c-0.6383,-0.0797 -1.08155,-0.0767 -1.53217,-0.01174zM247.41328,179.15997c0.11783,-0.05283 0.22958,-0.05283 0.22958,-0.05283l0.02159,0.01493c0.33012,-0.08057 0.85697,-0.22034 1.44808,-0.33578c-0.16793,0.00416 -0.3356,0.01004 -0.50291,0.018c-0.6455,0.1526 -1.28969,0.2963 -1.92796,0.26626c-0.16443,-0.00774 0.32899,0.02144 0.4916,0.04707c0.0801,0.01263 0.16016,0.02672 0.24004,0.04235zM249.03084,180.69009c-0.33827,-0.06078 -0.60804,-0.13407 -0.75445,-0.20716c-0.51269,-0.26269 -1.73471,-0.22803 -2.08926,-0.62862c-0.21741,-0.24565 -0.3172,-0.47009 -0.32321,-0.67425c-0.60105,0.1303 -1.14968,0.26289 -1.14425,0.26364c1.53569,0.21397 2.05343,1.23487 3.78032,1.23487c0.17679,0 0.35382,0.00584 0.53084,0.01152zM252.75244,178.82101c0.27998,0.58804 0.33931,1.26591 0.01341,1.78844c-0.77302,1.2394 -3.06595,1.06912 -4.26585,1.06912c-1.16588,0 -6.21368,-1.27243 -4.24942,-2.79049c1.08284,-0.83686 2.56327,-1.11012 4.09659,-1.17097c1.20698,-0.23384 2.4995,-0.27814 2.982,-0.16803c0.19426,0.04433 0.38284,0.1302 0.55892,0.24746c0.3634,0.01456 0.71222,0.02488 1.04049,0.02488c0,0 0.5,0 0.5,0.5c0,0.5 -0.5,0.5 -0.5,0.5c-0.05864,0 -0.11735,-0.00015 -0.17613,-0.00042z" fill="#000000" stroke-width="0.5"/></g></g></svg>