<svg version="1.1" xmlns="http://www.w3.org/2000/svg" xmlns:xlink="http://www.w3.org/1999/xlink" width="97.28526" height="115.49556" viewBox="0,0,97.28526,115.49556"><defs><linearGradient x1="200.87943" y1="179.89001" x2="278.69513" y2="179.89001" gradientUnits="userSpaceOnUse" id="color-1"><stop offset="0" stop-color="#fad6af" stop-opacity="0.74902"/><stop offset="1" stop-color="#ba772b" stop-opacity="0.50196"/></linearGradient></defs><g transform="translate(-191.35737,-113.39897)"><g data-paper-data="{&quot;isPaintingLayer&quot;:true}" fill-rule="nonzero" stroke-linecap="butt" stroke-linejoin="miter" stroke-miterlimit="10" stroke-dasharray="" stroke-dashoffset="0" style="mix-blend-mode: normal"><path d="M281.01108,204.10186c-2.75347,4.54953 -5.7803,8.30989 -9.0805,11.28105c-9.38109,8.45336 -20.44073,12.62315 -33.17892,12.50935c-12.97321,-0.11504 -25.29331,-6.13779 -34.16601,-15.50774c-1.00441,-1.06131 -2.5407,-3.07136 -4.6089,-6.03017" fill="none" stroke="#d2924a" stroke-width="2"/><path d="M263.84997,138.95043c4.54953,2.75347 8.30989,5.7803 11.28105,9.0805c8.45336,9.38109 12.62315,20.44073 12.50935,33.17892c-0.11504,12.97321 -6.13779,25.29331 -15.50774,34.16601c-1.06131,1.00441 -3.07136,2.5407 -6.03017,4.6089" fill="none" stroke="#d2924a" stroke-width="2"/><path d="M213.7161,219.97364c-2.70894,-2.01377 -4.53097,-3.44617 -5.46612,-4.29719c-10.35705,-9.42562 -16.16828,-22.31347 -15.88254,-36.33315c0.19297,-9.51715 3.00951,-18.26121 8.44966,-26.23216c2.6174,-3.82962 5.74196,-7.1892 9.37367,-10.07873c1.21964,-0.96978 2.43804,-1.921 3.65521,-2.85367" fill="none" stroke="#d2924a" stroke-width="2"/><path d="M263.84997,138.95043c-0.99204,-0.60611 -1.73792,-0.79784 -2.23766,-0.57519c-1.00441,0.45025 -1.34952,1.15161 -1.03533,2.10407c0.03825,0.11979 0.11704,0.22223 0.22266,0.28945c1.5932,1.02667 3.1864,2.05211 4.7796,3.07631c0.63827,0.41067 1.2716,0.90916 1.89997,1.49548c0.70506,0.65807 1.3186,1.18995 1.84059,1.59568c1.15284,0.89803 2.10901,1.80843 2.86851,2.73121c0.03866,0.04843 0.06077,0.10695 0.06309,0.16699c0,0.07174 0.02103,0.13359 0.06309,0.18554c1.3656,1.76638 2.81284,3.45853 4.34172,5.07647c0.81639,0.86464 1.20604,1.96305 1.83688,2.97241c0.5121,0.82133 0.92401,1.59073 1.23572,2.30817c0.4453,1.0242 0.9438,2.02366 1.49548,2.99839c0.32161,0.56653 0.55416,1.1714 0.69765,1.81462c0.14101,0.64075 0.30677,1.27655 0.49725,1.90739c0.30924,1.0341 0.55292,1.98161 0.73104,2.84253c0.29687,1.44353 0.77187,2.86851 0.89803,4.28234c0.31666,3.61934 0.36738,7.24486 0.15214,10.87657c-0.03958,0.66549 -0.30924,2.11891 -0.80897,4.36028c-0.7768,3.4808 -1.80225,6.52248 -3.07631,9.12504c-0.32161,0.65559 -0.63455,1.36931 -0.93885,2.14117c-0.35872,0.90546 -0.70878,1.60187 -1.05018,2.08922c-1.11326,1.57588 -2.23642,3.14558 -3.36948,4.70909c-0.34635,0.47746 -0.76196,0.95741 -1.24686,1.43982c-0.44283,0.44036 -0.877,0.88814 -1.30251,1.34333c-0.09648,0.1039 -0.21276,0.17194 -0.34882,0.2041l-0.79042,0.18554c-0.08411,0.01732 -0.12617,-0.01608 -0.12617,-0.1002v-0.1707c0,-0.14843 -0.07545,-0.22636 -0.22636,-0.23378c-0.4651,-0.02227 -1.45466,-0.14596 -2.9687,-0.37109c-1.34581,-0.20039 -2.73121,0.01979 -4.15618,0.66054" fill="none" stroke="#d2924a" stroke-width="2"/><path d="M259.66784,213.96573c0.30058,-0.57148 0.65682,-1.16893 1.22459,-1.54001c0.95988,-0.63085 1.92595,-1.27902 2.8982,-1.9445" fill="none" stroke="#d8bf69" stroke-width="2"/><path d="M259.30415,216.55221l0.49354,2.57534c0.02474,0.13606 0.00124,0.26224 -0.07051,0.37851l-0.91659,1.48064c-0.06432,0.1039 -0.15338,0.17565 -0.26718,0.21523c-0.48736,0.16823 -0.95122,0.37604 -1.39158,0.62343c-0.55663,0.3043 -1.14666,0.32656 -1.71071,0.616c-0.50468,0.25977 -0.91906,0.41809 -1.24314,0.47499c-1.13182,0.2041 -2.20797,0.46386 -3.28041,0.88689c-0.36862,0.14349 -0.89556,0.27336 -1.58083,0.38965c-5.52425,0.93515 -10.73308,1.091 -15.62648,0.46757c-1.98903,-0.25481 -4.91814,-0.93515 -8.78735,-2.04099c-0.78671,-0.22513 -1.43116,-0.46386 -1.93337,-0.7162c-0.8436,-0.42056 -1.399,-0.83 -1.66618,-1.2283c-0.89309,-1.3186 -2.062,-2.31682 -3.50678,-2.99467c-0.76691,-0.36119 -1.48064,-0.80526 -2.14117,-1.3322c-1.86533,-1.48435 -3.70345,-3.00334 -5.51436,-4.55695c-0.80154,-0.68775 -1.63031,-1.55486 -2.48628,-2.60133c-0.65312,-0.7966 -1.43611,-1.71442 -2.34898,-2.75347c-1.68968,-1.92471 -3.15672,-4.21432 -4.4011,-6.86882c-0.53807,-1.15037 -1.12069,-2.14118 -1.48807,-3.19878c-0.43046,-1.24686 -1.01678,-2.50855 -1.36189,-3.65521c-1.0242,-3.39174 -1.57094,-7.10385 -1.64021,-11.13633c-0.09896,-5.86813 0.7298,-11.37382 2.48628,-16.5171c0.29192,-0.85103 0.69641,-1.78122 1.21346,-2.79058c0.4651,-0.90051 0.92895,-1.80225 1.39158,-2.70523c0.45272,-0.87947 0.58632,-2.13746 1.69216,-2.99467c0.09648,-0.07421 0.16575,-0.16946 0.20781,-0.28573c0.16823,-0.48736 0.42181,-0.92401 0.76073,-1.30994c0.79907,-0.90298 1.54496,-1.85172 2.23766,-2.84624c0.34882,-0.49725 0.93143,-0.62714 1.30623,-1.14667c1.06378,-1.4794 2.4232,-2.97365 4.07825,-4.48274c0.67786,-0.616 1.31613,-1.45837 1.91481,-2.5271c0.05937,-0.10885 0.08164,-0.22266 0.06679,-0.3414c-0.13111,-1.00441 0.23873,-1.76638 1.10956,-2.2859c1.28396,-0.76691 2.58276,-1.79236 3.89641,-3.07631c0.11713,-0.11607 0.13577,-0.29878 0.04452,-0.43613c-0.09126,-0.13734 -0.26693,-0.19093 -0.41931,-0.12792c-0.55663,0.23997 -1.13305,0.5257 -1.72927,0.85721c-0.70136,0.38965 -1.71443,1.33592 -2.84625,1.61795" fill="none" stroke="#d2924a" stroke-width="2"/><path d="M230.74158,143.02869c-0.23997,0.72485 -0.70259,1.27654 -1.38786,1.65505" fill="none" stroke="#c8a245" stroke-width="2"/><path d="M230.74158,143.02868l-1.38786,1.65505" fill="none" stroke="#ab8a20" stroke-width="2"/><path d="M207.70448,161.84652l-2.05953,2.47887c-0.07063,0.08481 -0.17536,0.13377 -0.28574,0.13359h-1.07615c-0.13026,0.00034 -0.24662,-0.0832 -0.28945,-0.20781c-0.61106,-1.80843 -0.16328,-3.35711 1.34333,-4.64601c1.06873,-0.90916 2.0113,0.2375 2.39722,1.30993" fill="none" stroke="#dbb960" stroke-width="2"/><path d="M207.73416,160.91509l-0.02968,0.93143" fill="none" stroke="#d7b255" stroke-width="2"/><path d="M264.51052,210.55174c1.44476,0.09895 2.82645,0.45396 4.14504,1.06502c0.11627,0.05443 0.19049,0.14348 0.22266,0.26718c0.15833,0.62838 0.00371,1.24067 -0.46386,1.83689" fill="none" stroke="#dcbe82" stroke-width="2"/><path d="M263.79062,210.48123l2.32672,0.08163c0.01237,0 0.01732,0.00866 0.01484,0.02598c0,0.00248 0,0.00494 0,0.00742c0,0.00495 -0.00247,0.00743 -0.00742,0.00743l-1.61423,-0.05195" fill="none" stroke="#dfc97b" stroke-width="2"/><path d="M264.80368,211.14918l-0.61971,0.16328c-0.13606,0.03711 -0.24863,0.00124 -0.33769,-0.10762c-0.08906,-0.1039 -0.21399,-0.07916 -0.3748,0.07422c-0.19792,0.19049 -0.23626,0.16328 -0.11504,-0.08164c0.2276,-0.46756 0.61229,-0.6828 1.15409,-0.64569" fill="none" stroke="#dcce8a" stroke-width="2"/><path d="M264.80368,211.14918c0.81887,0.38098 1.64763,0.71497 2.48629,1.00194c0.50962,0.1707 0.82876,0.40696 0.95741,0.70878c0.16823,0.38593 0.16328,0.83371 -0.01484,1.34334" fill="none" stroke="#dcd289" stroke-width="2"/><path d="M264.80368,211.14918c0.94998,-0.15833 1.76885,0.04453 2.4566,0.60858c0.10143,0.08164 0.21647,0.13359 0.34511,0.15586c0.81639,0.13606 1.08604,0.73847 0.80896,1.8072" fill="none" stroke="#d8c790" stroke-width="2"/><path d="M263.84997,138.95043c-0.99204,-0.60611 -1.73793,-0.79784 -2.23766,-0.57518c-1.00441,0.45025 -1.34952,1.15161 -1.03533,2.10407c0.03825,0.11979 0.11704,0.22222 0.22266,0.28945c1.5932,1.02667 3.1864,2.05211 4.7796,3.07631c0.63827,0.41067 1.2716,0.90916 1.89997,1.49548c0.70506,0.65807 1.3186,1.18995 1.84059,1.59568c1.15284,0.89803 2.10901,1.80843 2.8685,2.7312c0.03866,0.04843 0.06077,0.10695 0.06309,0.16699c0,0.07174 0.02103,0.13359 0.06309,0.18554c1.3656,1.76638 2.81284,3.45853 4.34172,5.07647c0.81639,0.86463 1.20604,1.96305 1.83689,2.97241c0.5121,0.82133 0.924,1.59073 1.23572,2.30817c0.4453,1.0242 0.9438,2.02366 1.49549,2.99839c0.32161,0.56653 0.55416,1.1714 0.69764,1.81462c0.14101,0.64075 0.30676,1.27655 0.49725,1.90739c0.30924,1.03409 0.55292,1.98161 0.73105,2.84253c0.29687,1.44353 0.77186,2.86851 0.89803,4.28234c0.31666,3.61934 0.36738,7.24486 0.15214,10.87657c-0.03958,0.66549 -0.30925,2.11891 -0.80897,4.36027c-0.7768,3.4808 -1.80225,6.52248 -3.07631,9.12504c-0.32161,0.65559 -0.63456,1.36931 -0.93885,2.14117c-0.35872,0.90546 -0.70878,1.60187 -1.05018,2.08922c-1.11326,1.57588 -2.23642,3.14558 -3.36948,4.70909c-0.34635,0.47746 -0.76196,0.95741 -1.24686,1.43982c-0.44283,0.44036 -0.87701,0.88814 -1.30252,1.34333c-0.09648,0.1039 -0.21276,0.17194 -0.34882,0.2041l-0.79042,0.18554c-0.08411,0.01732 -0.12616,-0.01608 -0.12616,-0.1002v-0.1707c0,-0.14843 -0.07546,-0.22636 -0.22636,-0.23378c-0.4651,-0.02227 -1.45466,-0.14596 -2.9687,-0.37109c-1.34581,-0.20039 -2.73121,0.01979 -4.15618,0.66054c-0.97225,0.66548 -1.93832,1.31365 -2.8982,1.9445c-0.56776,0.37109 -0.924,0.96853 -1.22459,1.54001c-0.27214,0.25481 -0.3748,0.56405 -0.308,0.92772l-0.05567,1.65876l0.49354,2.57534c0.02474,0.13606 0.00124,0.26224 -0.07051,0.37851l-0.91659,1.48064c-0.06432,0.1039 -0.15338,0.17565 -0.26718,0.21523c-0.48736,0.16823 -0.95122,0.37604 -1.39158,0.62343c-0.55663,0.3043 -1.14667,0.32656 -1.71071,0.616c-0.50468,0.25977 -0.91905,0.41809 -1.24314,0.47499c-1.13182,0.2041 -2.20797,0.46386 -3.28041,0.88689c-0.36861,0.14349 -0.89556,0.27336 -1.58083,0.38965c-5.52425,0.93515 -10.73308,1.091 -15.62648,0.46757c-1.98903,-0.25481 -4.91814,-0.93515 -8.78735,-2.04099c-0.78671,-0.22513 -1.43116,-0.46386 -1.93337,-0.7162c-0.8436,-0.42056 -1.399,-0.83 -1.66618,-1.2283c-0.89309,-1.3186 -2.062,-2.31682 -3.50678,-2.99467c-0.76691,-0.36119 -1.48064,-0.80526 -2.14117,-1.3322c-1.86533,-1.48435 -3.70345,-3.00334 -5.51436,-4.55695c-0.80154,-0.68775 -1.63031,-1.55486 -2.48628,-2.60133c-0.65312,-0.7966 -1.43611,-1.71442 -2.34898,-2.75347c-1.68968,-1.92471 -3.15672,-4.21432 -4.4011,-6.86882c-0.53807,-1.15037 -1.12069,-2.14118 -1.48807,-3.19878c-0.43046,-1.24686 -1.01678,-2.50855 -1.36189,-3.65521c-1.0242,-3.39174 -1.57094,-7.10385 -1.64021,-11.13633c-0.09896,-5.86813 0.7298,-11.37382 2.48628,-16.5171c0.29192,-0.85103 0.69641,-1.78122 1.21346,-2.79058c0.4651,-0.90051 0.92895,-1.80225 1.39158,-2.70523c0.45272,-0.87947 0.58632,-2.13746 1.69216,-2.99467c0.09648,-0.07421 0.16575,-0.16946 0.20781,-0.28573c0.16823,-0.48736 0.42181,-0.92401 0.76073,-1.30994c0.79907,-0.90298 1.54496,-1.85172 2.23766,-2.84624c0.34882,-0.49725 0.93143,-0.62714 1.30623,-1.14667c1.06378,-1.4794 2.4232,-2.97365 4.07825,-4.48274c0.67786,-0.616 1.31613,-1.45837 1.91481,-2.5271c0.05937,-0.10885 0.08164,-0.22266 0.06679,-0.3414c-0.13111,-1.00441 0.23873,-1.76638 1.10956,-2.2859c1.28396,-0.76691 2.58276,-1.79236 3.89641,-3.07631c0.11713,-0.11607 0.13577,-0.29878 0.04452,-0.43613c-0.09126,-0.13734 -0.26693,-0.19093 -0.41931,-0.12792c-0.55663,0.23997 -1.13305,0.5257 -1.72927,0.85721c-0.70136,0.38965 -1.71443,1.33592 -2.84625,1.61795c1.09842,-1.02173 2.32301,-1.82575 3.67376,-2.41207c1.63278,-0.70878 46.49106,-1.47197 45.09083,-0.18553c-0.12019,0.10943 -0.16779,0.27733 -0.12308,0.43418c0.0447,0.15685 0.17409,0.27596 0.33459,0.30799c0.40572,0.07669 0.74836,0.28574 1.02791,0.62713zM207.73417,160.9151c-0.38593,-1.07244 -1.32849,-2.2191 -2.39723,-1.30993c-1.50661,1.28892 -1.95439,2.83758 -1.34333,4.64601c0.04283,0.12461 0.15919,0.20815 0.28945,0.20781h1.07615c0.11038,0.00018 0.2151,-0.04878 0.28574,-0.13359l2.05953,-2.47886c-0.43541,0.88319 -0.96483,1.7404 -1.58826,2.57164c-0.26719,0.35377 -0.70878,0.73475 -1.32477,1.14294c-0.68032,0.45025 -1.16521,0.95369 -1.45466,1.51033c-0.36861,0.70754 -0.81392,2.02367 -1.33592,3.94837c-1.10213,4.07082 -1.28396,8.37173 -1.00564,12.56872c0.01732,0.29687 0.094,0.67661 0.23008,1.13924c0.28203,0.96112 0.26718,2.15973 0.43046,2.89448c0.43046,1.9346 0.90051,3.85931 1.41013,5.77412c0.23008,0.87577 0.5888,1.72679 1.07616,2.55308c0.80896,1.38044 1.60433,2.76831 2.38608,4.1636c0.01979,0.03958 0.05072,0.05938 0.09278,0.05938c0.03711,0 0.07669,0 0.11874,0c0.08164,-0.00248 0.13854,0.03463 0.1707,0.11132c0.64322,1.48682 1.52764,2.798 2.65328,3.93352c0.54426,0.55169 1.02544,1.12563 1.44353,1.72185c0.76938,1.10337 1.59691,1.94573 2.48257,2.5271c1.20727,0.79165 2.16097,1.48683 2.86109,2.08552c0.45272,0.38593 0.93762,0.68898 1.45466,0.90916c1.08358,0.46386 2.015,0.96483 2.88335,1.77009c0.1806,0.16823 0.44035,0.34387 0.77928,0.52694c1.92471,1.04399 3.87415,2.03479 5.84834,2.97241c0.71991,0.3414 1.4596,0.58014 2.2191,0.7162c0.7768,0.13854 1.55239,0.26347 2.32672,0.3748c1.04894,0.14843 2.22034,0.18307 3.5142,0.1039c1.53135,-0.094 3.06642,-0.15833 4.6052,-0.19297c0.12178,-0.00242 0.24316,0.02697 0.35253,0.08536c0.63085,0.33027 1.40271,0.01113 2.0818,0.08164c0.71743,0.07422 1.10708,0.1101 1.16893,0.10762c1.09595,-0.01979 2.25992,-0.06803 3.49193,-0.14473c0.13606,-0.00742 0.26842,-0.02845 0.39707,-0.06309c0.81392,-0.22266 1.59691,-0.40943 2.34898,-0.56034c0.90051,-0.17812 1.69711,-0.42056 2.3898,-0.72733c1.22706,-0.54426 2.44423,-1.11573 3.6515,-1.71442c0.1138,-0.0569 0.19915,-0.14349 0.25605,-0.25976c0.21276,-0.42551 0.53313,-0.75207 0.96111,-0.97967c0.11133,-0.0569 0.22884,-0.09896 0.35253,-0.12617c0.43046,-0.08906 0.79536,-0.308 1.09471,-0.65682c0.07669,-0.094 0.17565,-0.13235 0.29687,-0.11503l0.25605,0.0371c0.1039,0.01485 0.20163,-0.00494 0.29315,-0.05937l1.9111,-1.1949c0.08658,-0.05443 0.15091,-0.12741 0.19297,-0.21894c0.15338,-0.32656 0.42428,-0.51581 0.81268,-0.56776c0.12065,-0.01647 0.22965,-0.08376 0.30058,-0.18554c0.90051,-1.28891 2.25126,-2.14983 4.05228,-2.58276c1.06378,-0.25729 1.93213,-0.86587 2.60503,-1.82575c0.64817,-0.92278 0.98091,-1.39529 0.99822,-1.41755c1.56846,-1.96182 2.92046,-4.05598 4.05598,-6.28251c1.05142,-2.06572 1.86038,-3.79252 2.42691,-5.18038c0.75949,-1.8678 1.24191,-3.72819 1.44724,-5.58115c0.09153,-0.82628 0.1806,-1.50661 0.26719,-2.04098c0.14101,-0.86587 0.21276,-1.54743 0.21524,-2.04469c0.01484,-2.11025 -0.00371,-4.22174 -0.05567,-6.33446c-0.01113,-0.41561 0.13359,-0.81639 0.07793,-1.35076c-0.31666,-3.01818 -1.02049,-5.80257 -2.11149,-8.35317c-0.39335,-0.92525 -0.67043,-1.77627 -0.83124,-2.55308c-0.16575,-0.81391 -0.35748,-1.43734 -0.57518,-1.87028c-1.35076,-2.69905 -2.97241,-5.22862 -4.86495,-7.58873c-0.50715,-0.62837 -1.75524,-1.76143 -3.74427,-3.39916c-0.522,-0.42799 -1.27902,-1.15532 -2.27105,-2.18199c-1.41508,-1.46455 -3.06889,-2.63472 -4.96144,-3.51049c-0.03463,-0.01731 -0.05196,-0.00742 -0.05196,0.02969c0,0.03464 -0.00124,0.07051 -0.00371,0.10762c-0.00248,0.05937 -0.02721,0.07051 -0.07422,0.0334c-0.72239,-0.57395 -1.70329,-1.09471 -2.94272,-1.56228c-0.67909,-0.25605 -0.90546,-0.32284 -1.49177,0.21894c-1.00936,0.94256 -3.00581,1.74411 -4.21184,0.61229c-0.60611,-0.57148 -1.17635,-1.138 -1.71071,-1.69958c-0.13078,-0.1363 -0.33982,-0.15689 -0.48983,-0.04825c-0.84237,0.60858 -1.66247,1.20604 -2.64585,1.45466c-1.33591,0.33893 -2.54318,0.1274 -3.62181,-0.63456c-0.86464,-0.61229 -1.35818,-0.58632 -2.33785,-0.56776c-1.79112,0.03216 -3.58347,0.02721 -5.37706,-0.01484c-0.8535,-0.01856 -1.4695,-0.31914 -1.92223,-0.9908c-0.06788,-0.10123 -0.18282,-0.16072 -0.30466,-0.1577c-0.12184,0.003 -0.23369,0.0681 -0.2965,0.17255c-0.60116,0.98462 -1.34457,1.84059 -2.23023,2.56792c-0.09896,0.08164 -0.21276,0.12493 -0.34141,0.12988c-1.29386,0.05937 -2.33414,-0.40696 -3.12084,-1.399c-0.67909,-0.85721 -1.42497,-1.01679 -1.99645,0.04452c-0.02227,0.03711 -0.05195,0.04453 -0.08906,0.02227c-0.04453,-0.02968 -0.08535,-0.06308 -0.12246,-0.10019c-0.08411,-0.08906 -0.16946,-0.08783 -0.25604,0.00371l-0.97968,1.03533c-0.094,0.09896 -0.12246,0.21524 -0.08535,0.34883c0.50962,1.80843 0.40448,3.59089 -0.31543,5.34737c-0.04701,0.11627 -0.06061,0.2375 -0.04082,0.36366c0.02227,0.14349 -0.00743,0.27089 -0.08906,0.38222c-0.76073,1.03905 -1.091,1.79606 -2.17457,2.5939c-0.2944,0.21524 -0.77433,0.39954 -1.43982,0.55292c-1.0143,0.23255 -1.8777,0.7496 -2.59019,1.55114c-0.08411,0.094 -0.18802,0.14472 -0.31171,0.15215c-1.3322,0.09277 -2.20797,0.69764 -3.32494,1.22088c-0.4082,0.19297 -0.80031,0.42181 -1.17635,0.68651c-0.09153,0.06432 -0.19173,0.09895 -0.30058,0.1039c-0.99947,0.05937 -1.95068,0.29069 -2.85367,0.69393c-0.10885,0.04947 -0.16823,0.13236 -0.17812,0.24863z" fill-opacity="0.50196" fill="#e3ad6b" stroke="none" stroke-width="1"/><path d="M259.30415,216.55221l0.24863,0.81268c0.00742,0.02227 0.02226,0.0334 0.04453,0.0334c0.03711,0 0.07051,-0.01113 0.10019,-0.0334c0.05443,-0.03711 0.1002,-0.02968 0.13731,0.02227c0.77928,1.10584 2.69038,0.70506 3.93724,0.2746c1.63774,-0.56158 3.12456,-1.71442 4.46047,-3.45853c0.36367,-0.30677 0.42428,-0.46757 0.18183,-0.48241c0.46757,-0.59621 0.62219,-1.20851 0.46386,-1.83689c-0.03216,-0.12369 -0.10638,-0.21276 -0.22266,-0.26718c-1.3186,-0.61106 -2.70027,-0.96606 -4.14504,-1.06502l1.61423,0.05195c0.00495,0 0.00742,-0.00248 0.00742,-0.00743c0,-0.00248 0,-0.00494 0,-0.00742c0.00248,-0.01732 -0.00248,-0.02598 -0.01485,-0.02598l-2.32672,-0.08163c1.42498,-0.64075 2.81037,-0.86092 4.15618,-0.66054c1.51403,0.22513 2.5036,0.34882 2.9687,0.37109c0.15091,0.00742 0.22636,0.08535 0.22636,0.23378v0.1707c0,0.08411 0.04206,0.11752 0.12617,0.1002l0.79042,-0.18554c0.13606,-0.03216 0.25234,-0.1002 0.34882,-0.2041c0.42551,-0.4552 0.85968,-0.90298 1.30252,-1.34333c0.48488,-0.48241 0.90051,-0.96236 1.24686,-1.43982c1.13305,-1.56351 2.25621,-3.13321 3.36947,-4.70909c0.3414,-0.48736 0.69146,-1.18378 1.05018,-2.08922c0.3043,-0.77186 0.61724,-1.48559 0.93885,-2.14117c1.27407,-2.60256 2.29951,-5.64424 3.07631,-9.12504c0.49973,-2.24136 0.76939,-3.69479 0.80897,-4.36027c0.21524,-3.6317 0.16452,-7.25723 -0.15214,-10.87657c-0.12616,-1.41384 -0.60117,-2.83882 -0.89803,-4.28234c-0.17812,-0.86092 -0.4218,-1.80843 -0.73105,-2.84253c-0.19049,-0.63085 -0.35624,-1.26665 -0.49725,-1.90739c-0.14349,-0.64322 -0.37603,-1.24809 -0.69764,-1.81462c-0.55168,-0.97473 -1.05018,-1.97419 -1.49548,-2.99839c-0.31172,-0.71743 -0.72362,-1.48683 -1.23572,-2.30817c-0.63085,-1.00936 -1.02049,-2.10777 -1.83689,-2.97241c-1.52887,-1.61795 -2.97612,-3.3101 -4.34172,-5.07647c-0.04206,-0.05195 -0.06309,-0.1138 -0.06309,-0.18554c-0.00232,-0.06004 -0.02443,-0.11856 -0.06309,-0.16699c-0.75949,-0.92278 -1.71566,-1.83317 -2.86851,-2.7312c-0.522,-0.40572 -1.13553,-0.93762 -1.84059,-1.59568c-0.62837,-0.58632 -1.2617,-1.08481 -1.89996,-1.49548c-1.5932,-1.0242 -3.1864,-2.04964 -4.7796,-3.07631c-0.10562,-0.06722 -0.18441,-0.16965 -0.22266,-0.28945c-0.31419,-0.95246 0.03093,-1.65381 1.03533,-2.10407c0.49973,-0.22265 1.24562,-0.03092 2.23766,0.57519c4.54953,2.75347 8.30988,5.7803 11.28105,9.0805c8.45336,9.38109 12.62315,20.44073 12.50935,33.17892c-0.11504,12.97321 -6.13779,25.2933 -15.50774,34.16601c-1.06131,1.00441 -3.07136,2.54071 -6.03017,4.6089c-15.17747,9.88206 -34.51855,10.71329 -50.20069,1.25057l-2.1857,-1.2617c-2.70894,-2.01377 -4.53097,-3.44617 -5.46612,-4.29719c-10.35705,-9.42562 -16.16828,-22.31347 -15.88253,-36.33315c0.19297,-9.51715 3.00951,-18.26121 8.44966,-26.23216c2.6174,-3.82962 5.74195,-7.1892 9.37367,-10.07873c1.21964,-0.96978 2.43804,-1.92099 3.65521,-2.85367c1.13182,-0.28203 2.14488,-1.2283 2.84625,-1.61794c0.59621,-0.33151 1.17263,-0.61724 1.72926,-0.85721c0.15239,-0.06301 0.32806,-0.00942 0.41932,0.12792c0.09125,0.13734 0.07261,0.32006 -0.04452,0.43613c-1.31365,1.28397 -2.61245,2.3094 -3.89641,3.07631c-0.87082,0.51952 -1.24067,1.28149 -1.10956,2.2859c0.01485,0.11875 -0.00742,0.23255 -0.06679,0.3414c-0.59869,1.06873 -1.23696,1.9111 -1.91481,2.5271c-1.65505,1.50909 -3.01447,3.00334 -4.07825,4.48274c-0.3748,0.51952 -0.95741,0.6494 -1.30623,1.14667c-0.6927,0.99452 -1.43859,1.94325 -2.23766,2.84624c-0.33892,0.38593 -0.5925,0.82259 -0.76073,1.30994c-0.04205,0.11627 -0.11132,0.21152 -0.20781,0.28573c-1.10584,0.85721 -1.23943,2.1152 -1.69216,2.99467c-0.46262,0.90298 -0.92648,1.80473 -1.39158,2.70523c-0.51705,1.00936 -0.92153,1.93955 -1.21345,2.79058c-1.75648,5.14327 -2.58524,10.64897 -2.48629,16.5171c0.06927,4.03248 0.61601,7.7446 1.64021,11.13633c0.34511,1.14666 0.93143,2.40835 1.36189,3.65521c0.36738,1.0576 0.94999,2.04841 1.48806,3.19878c1.24438,2.65451 2.71141,4.94413 4.4011,6.86882c0.91288,1.03904 1.69586,1.95686 2.34898,2.75347c0.85597,1.04647 1.68474,1.91357 2.48629,2.60133c1.81091,1.55362 3.64902,3.0726 5.51436,4.55695c0.66054,0.52694 1.37426,0.97101 2.14117,1.3322c1.44477,0.67786 2.61369,1.67608 3.50678,2.99467c0.26718,0.3983 0.82258,0.80774 1.66618,1.2283c0.5022,0.25234 1.14666,0.49107 1.93336,0.7162c3.86921,1.10584 6.79832,1.78617 8.78735,2.04099c4.89341,0.62343 10.10223,0.46756 15.62648,-0.46757c0.68528,-0.11627 1.21222,-0.24615 1.58083,-0.38965c1.07244,-0.42303 2.1486,-0.6828 3.28041,-0.88689c0.32409,-0.0569 0.73847,-0.21524 1.24314,-0.47499c0.56405,-0.28945 1.15409,-0.31171 1.71071,-0.616c0.44036,-0.24739 0.90422,-0.4552 1.39158,-0.62343c0.1138,-0.03958 0.20286,-0.11132 0.26719,-0.21523l0.91658,-1.48064c0.07174,-0.11627 0.09525,-0.24245 0.07051,-0.37851z" fill="#fbc488" stroke="none" stroke-width="1"/><path d="M207.73417,160.9151l-0.02968,0.93143l-2.05953,2.47887c-0.07063,0.08481 -0.17536,0.13377 -0.28574,0.13359h-1.07615c-0.13026,0.00034 -0.24662,-0.0832 -0.28945,-0.20781c-0.61106,-1.80843 -0.16328,-3.35711 1.34333,-4.64601c1.06873,-0.90916 2.0113,0.2375 2.39722,1.30993z" fill="#fbe685" stroke="none" stroke-width="1"/><path d="M264.51052,210.55174c-0.54179,-0.03711 -0.92648,0.17812 -1.15409,0.64569c-0.12122,0.24492 -0.08288,0.27213 0.11504,0.08164c0.1608,-0.15338 0.28574,-0.17812 0.3748,-0.07421c0.08906,0.10885 0.20163,0.14472 0.33769,0.10761l0.61971,-0.16328c0.81886,0.38098 1.64763,0.71496 2.48628,1.00194c0.50962,0.1707 0.82876,0.40696 0.95741,0.70878c0.16823,0.38593 0.16328,0.83371 -0.01484,1.34334c-1.33591,1.74411 -2.82274,2.89695 -4.46047,3.45853c-1.24686,0.43046 -3.15795,0.83124 -3.93724,-0.27461c-0.03711,-0.05195 -0.08288,-0.05937 -0.1373,-0.02226c-0.02968,0.02226 -0.06309,0.0334 -0.1002,0.0334c-0.02226,0 -0.03711,-0.01113 -0.04453,-0.0334l-0.24863,-0.81268l0.05567,-1.65876l0.308,-0.92772c0.30058,-0.57148 0.65682,-1.16893 1.22459,-1.54001c0.95988,-0.63085 1.92595,-1.27901 2.8982,-1.9445l2.32671,0.08164c0.01237,0 0.01732,0.00866 0.01485,0.02598c0,0.00248 0,0.00494 0,0.00742c0,0.00495 -0.00247,0.00742 -0.00742,0.00742z" fill="#f2dea1" stroke="none" stroke-width="1"/><path d="M264.51052,210.55174c1.44477,0.09896 2.82645,0.45397 4.14504,1.06502c0.11627,0.05443 0.19049,0.14348 0.22266,0.26718c0.15833,0.62838 0.00371,1.24067 -0.46386,1.83689c0.27708,-1.06873 0.00743,-1.67113 -0.80896,-1.8072c-0.12864,-0.02226 -0.24368,-0.07422 -0.34511,-0.15586c-0.68775,-0.56405 -1.50661,-0.76691 -2.4566,-0.60858l-0.61971,0.16328c-0.13606,0.03711 -0.24863,0.00124 -0.33769,-0.10761c-0.08906,-0.1039 -0.21399,-0.07917 -0.3748,0.07421c-0.19792,0.19049 -0.23626,0.16328 -0.11504,-0.08164c0.22761,-0.46756 0.6123,-0.6828 1.15409,-0.64569z" fill="#fbedb4" stroke="none" stroke-width="1"/><path d="M268.41436,213.72082c0.24244,0.01484 0.18184,0.17565 -0.18183,0.48241c0.17812,-0.50962 0.18307,-0.95741 0.01484,-1.34334c-0.12864,-0.30182 -0.44778,-0.53807 -0.95741,-0.70878c-0.83866,-0.28697 -1.66742,-0.62096 -2.48628,-1.00194c0.94998,-0.15833 1.76885,0.04453 2.4566,0.60858c0.10143,0.08164 0.21647,0.13359 0.34511,0.15586c0.81639,0.13606 1.08605,0.73847 0.80897,1.8072z" fill="#fbedb4" stroke="none" stroke-width="1"/><path d="M207.70448,161.84652l0.02968,-0.93143l0.08906,-1.03905c0.0099,-0.11627 0.06927,-0.19915 0.17812,-0.24863c0.90298,-0.40324 1.8542,-0.63456 2.85367,-0.69393c0.10885,-0.00495 0.20905,-0.03958 0.30058,-0.1039c0.37604,-0.26471 0.76815,-0.49355 1.17635,-0.68651c1.11698,-0.52324 1.99274,-1.1281 3.32494,-1.22088c0.12369,-0.00742 0.2276,-0.05814 0.31171,-0.15215c0.71249,-0.80154 1.57588,-1.3186 2.59019,-1.55114c0.66549,-0.15338 1.14541,-0.33769 1.43982,-0.55292c1.08357,-0.79784 1.41384,-1.55486 2.17457,-2.5939c0.08163,-0.11132 0.11133,-0.23873 0.08906,-0.38222c-0.01979,-0.12616 -0.00619,-0.24739 0.04082,-0.36366c0.71991,-1.75648 0.82505,-3.53894 0.31543,-5.34737c-0.03711,-0.13359 -0.00866,-0.24987 0.08535,-0.34883c0,0 0.90161,-3.5031 0.98572,-3.41404c0.03711,0.03711 3.52887,-0.94881 4.20797,-0.0916c0.7867,0.99204 3.34132,2.18581 3.94248,1.2012c0.06281,-0.10445 0.17466,-0.16954 0.2965,-0.17255c0.12184,-0.00301 0.23677,0.05648 0.30466,0.1577c0.45272,0.67166 1.06873,0.97225 1.92223,0.9908c1.79358,0.04206 3.58594,0.04701 5.37706,0.01484c0.97967,-0.01856 8.96456,-0.34041 9.09534,-0.20409c0.53437,0.56158 6.73523,0.6123 7.41432,0.86835c1.23943,0.46756 2.22033,0.98833 2.94272,1.56228c0.04701,0.03711 0.07174,0.02598 0.07422,-0.0334c0.00248,-0.03711 0.00371,-0.07298 0.00371,-0.10762c0,-0.03711 0.01732,-0.047 0.05196,-0.02969c1.89254,0.87577 3.54636,2.04593 4.96144,3.51049c0.99204,1.02667 1.74906,1.75401 2.27105,2.18199c1.98903,1.63773 3.23711,2.77079 3.74427,3.39916c1.89254,2.36012 3.5142,4.88969 4.86495,7.58873c0.21771,0.43293 0.40944,1.05636 0.57519,1.87028c0.1608,0.7768 0.43788,1.62784 0.83123,2.55308c1.09099,2.5506 1.79483,5.335 2.11149,8.35317c0.05567,0.53437 -0.08905,0.93515 -0.07793,1.35076c0.05195,2.11273 0.07051,4.22421 0.05567,6.33446c-0.00248,0.49725 -0.07422,1.17882 -0.21524,2.04469c-0.08659,0.53437 -0.17565,1.21469 -0.26719,2.04098c-0.20534,1.85296 -0.68775,3.71335 -1.44724,5.58115c-0.56653,1.38787 -1.37549,3.11466 -2.42691,5.18038c-1.13553,2.22652 -2.48753,4.32069 -4.05598,6.28251c-0.01732,0.02227 -0.35006,0.49478 -0.99822,1.41755c-0.67291,0.95988 -1.54125,1.56846 -2.60503,1.82575c-1.80101,0.43294 -3.15177,1.29386 -4.05228,2.58276c-0.07093,0.10178 -0.17993,0.16907 -0.30058,0.18554c-0.3884,0.05195 -0.65929,0.2412 -0.81268,0.56776c-0.04206,0.09153 -0.10638,0.16451 -0.19297,0.21894l-1.9111,1.1949c-0.09153,0.05443 -0.18925,0.07422 -0.29315,0.05937l-0.25605,-0.0371c-0.12122,-0.01732 -0.22018,0.02103 -0.29687,0.11503c-0.29934,0.34882 -0.66424,0.56776 -1.09471,0.65682c-0.12369,0.02721 -0.24121,0.06927 -0.35253,0.12617c-0.42799,0.2276 -0.74836,0.55416 -0.96111,0.97967c-0.0569,0.11627 -0.14225,0.20286 -0.25604,0.25976c-1.20727,0.59869 -2.42444,1.17016 -3.6515,1.71442c-0.6927,0.30677 -1.4893,0.54921 -2.38981,0.72733c-0.75207,0.15091 -1.53506,0.33769 -2.34898,0.56034c-0.12864,0.03463 -0.261,0.05567 -0.39707,0.06309c-1.23201,0.07669 -2.39598,0.12494 -3.49193,0.14473c-0.06185,0.00248 -0.45149,-0.0334 -1.16893,-0.10762c-0.67909,-0.07051 -1.45095,0.24863 -2.0818,-0.08164c-0.10937,-0.05838 -0.23075,-0.08778 -0.35253,-0.08536c-1.53877,0.03463 -3.07384,0.09896 -4.6052,0.19297c-1.29386,0.07916 -2.46526,0.04453 -3.5142,-0.1039c-0.77433,-0.11132 -1.54991,-0.23625 -2.32672,-0.3748c-0.75949,-0.13606 -1.49919,-0.3748 -2.2191,-0.7162c-1.97419,-0.93762 -3.92363,-1.92842 -5.84834,-2.97241c-0.33893,-0.18307 -0.59869,-0.35872 -0.77928,-0.52694c-0.86834,-0.80526 -1.79978,-1.30623 -2.88335,-1.77009c-0.51705,-0.22018 -1.00194,-0.52323 -1.45466,-0.90916c-0.70012,-0.59869 -1.65381,-1.29387 -2.86109,-2.08552c-0.88566,-0.58137 -1.71318,-1.42374 -2.48257,-2.5271c-0.41809,-0.59621 -0.89927,-1.17016 -1.44353,-1.72185c-1.12563,-1.13553 -2.01006,-2.4467 -2.65328,-3.93352c-0.03216,-0.07669 -0.08906,-0.11379 -0.1707,-0.11132c-0.04205,0 -0.08163,0 -0.11874,0c-0.04206,0 -0.07299,-0.01979 -0.09278,-0.05938c-0.78176,-1.39529 -1.57712,-2.78316 -2.38608,-4.1636c-0.48736,-0.82629 -0.84608,-1.67731 -1.07616,-2.55308c-0.50962,-1.91481 -0.97967,-3.83952 -1.41013,-5.77412c-0.16328,-0.73475 -0.14843,-1.93337 -0.43046,-2.89448c-0.13606,-0.46262 -0.21276,-0.84237 -0.23008,-1.13924c-0.27832,-4.197 -0.09648,-8.4979 1.00564,-12.56872c0.522,-1.92471 0.96731,-3.24083 1.33592,-3.94837c0.28945,-0.55663 0.77434,-1.06007 1.45466,-1.51033c0.616,-0.4082 1.0576,-0.78917 1.32477,-1.14294c0.62343,-0.83123 1.15284,-1.68845 1.58826,-2.57164z" fill="url(#color-1)" stroke="none" stroke-width="1"/><g stroke="none" stroke-width="1"><path d="M219.81246,146.10213c1.60314,1.01102 2.08346,2.56378 1.44094,4.65826c-1.09606,2.60787 -2.50393,2.98582 -4.55432,4.24251l-4.37952,1.93228c-0.15748,0.07244 -0.32283,0.10866 -0.49606,0.10866h-0.59055c-0.32756,-0.00315 -0.34488,0.0189 -0.05197,0.06614c0.37323,0.05669 0.62362,-0.08031 0.9496,0.07559h-1.25669c-0.16063,0 -0.30709,-0.04567 -0.43937,-0.13701l-0.54331,-0.37323c-0.05018,-0.03505 -0.11818,-0.02951 -0.16203,0.01319c-0.04385,0.0427 -0.05119,0.11052 -0.0175,0.16162c0.48504,0.74646 1.26457,0.89606 2.33858,0.44882c-0.18582,0.32126 -0.27874,0.3748 -0.27874,0.16063c-0.93543,0.30866 -1.66771,0.27874 -2.19685,-0.08976c-0.85039,-0.60472 -0.83149,-2.77795 -0.37795,-3.65669c1.34488,-2.61732 3.1496,-4.80629 5.41416,-6.56692c1.59685,-1.24094 3.3307,-1.58897 5.20156,-1.04409zM210.57626,156.70368l-0.81732,-1.12913c-0.08819,-0.12599 -0.16063,-0.11654 -0.21732,0.02835c-0.11968,0.31811 -0.04567,0.57323 0.22205,0.76535c0.07874,0.05669 0.14646,0.12756 0.20315,0.2126c0.16378,0.24567 0.33543,0.35748 0.51496,0.33543c0.15433,-0.01575 0.18582,-0.08661 0.09449,-0.2126z" fill="#fefbe0"/><path d="M210.48177,156.91628c-0.17953,0.02205 -0.35118,-0.08976 -0.51496,-0.33543c-0.05669,-0.08504 -0.12441,-0.15591 -0.20315,-0.2126c-0.26772,-0.19213 -0.34173,-0.44724 -0.22205,-0.76535c0.05669,-0.14488 0.12913,-0.15433 0.21732,-0.02835l0.81732,1.12913c0.09134,0.12599 0.05984,0.19685 -0.09449,0.2126z" fill="#f2dea1"/><path d="M212.13059,157.18557c-0.0252,0.0378 -0.05197,0.07559 -0.08031,0.11339c-1.07401,0.44724 -1.85354,0.29764 -2.33858,-0.44882c-0.03369,-0.05109 -0.02635,-0.11892 0.0175,-0.16162c0.04385,-0.0427 0.11185,-0.04823 0.16203,-0.01319l0.54331,0.37323c0.13228,0.09134 0.27874,0.13701 0.43937,0.13701z" fill="#e8c78f"/></g><path d="M205.40948,165.94217c0.03289,0.06093 0.01827,0.10542 -0.04388,0.13345c-0.15843,0.07191 -0.30955,0.06094 -0.45336,-0.0329c-0.04997,-0.03169 -0.07313,-0.07617 -0.06947,-0.13345c0.00487,-0.12919 0.05241,-0.23949 0.14259,-0.33089c0.14747,-0.04753 0.23825,-0.0195 0.27238,0.08409z" fill="#d6a36d" stroke="none" stroke-width="1"/><text transform="translate(206.53449,143.87111) scale(0.67944,0.64834)" font-size="40" xml:space="preserve" fill="#faeeb9" fill-rule="nonzero" stroke="#954f00" stroke-width="8" stroke-linecap="butt" stroke-linejoin="miter" stroke-miterlimit="10" stroke-dasharray="" stroke-dashoffset="0" font-family="Sans Serif" font-weight="normal" text-anchor="start" style="mix-blend-mode: normal"><tspan x="0" dy="0">Next:</tspan></text><text transform="translate(206.53449,143.87111) scale(0.67944,0.64834)" font-size="40" xml:space="preserve" fill="#faeeb9" fill-rule="nonzero" stroke="#faeeb9" stroke-width="2" stroke-linecap="butt" stroke-linejoin="miter" stroke-miterlimit="10" stroke-dasharray="" stroke-dashoffset="0" font-family="Sans Serif" font-weight="normal" text-anchor="start" style="mix-blend-mode: normal"><tspan x="0" dy="0">Next:</tspan></text></g></g></svg>