<svg version="1.1" xmlns="http://www.w3.org/2000/svg" xmlns:xlink="http://www.w3.org/1999/xlink" width="199.32862" height="199.32862" viewBox="0,0,199.32862,199.32862"><g transform="translate(-140.33569,-80.33576)"><g data-paper-data="{&quot;isPaintingLayer&quot;:true}" fill-rule="nonzero" stroke="none" stroke-linecap="butt" stroke-linejoin="miter" stroke-miterlimit="10" stroke-dasharray="" stroke-dashoffset="0" style="mix-blend-mode: normal"><path d="M140.33569,180.00006c0,-55.04307 44.62123,-99.6643 99.66431,-99.6643c55.04307,0 99.66431,44.62123 99.66431,99.66431c0,55.04307 -44.62123,99.66431 -99.66431,99.66431c-55.04307,0 -99.66431,-44.62123 -99.66431,-99.66431z" fill="none" stroke-width="0"/><path d="M237.86824,172.06937c-0.1945,0.01406 -0.35574,-0.10686 -0.35574,-0.10686c-3.72029,-2.81052 -5.72568,-0.42818 -7.11888,3.05483c-0.53176,1.05071 -1.07734,3.43467 -0.3005,4.50282c0.34501,0.47439 1.70332,1.18925 1.76791,0.32747l0.08132,-0.06273l-0.02985,-0.02239l0.37151,-0.49534c0.09098,-0.12409 0.23783,-0.20466 0.40349,-0.20466c0.27614,0 0.5,0.22386 0.5,0.5v0.5h-0.05192c0.94865,3.78044 0.20586,7.9128 5.11826,9.53806c1.10282,0.5597 3.64795,1.40573 4.90054,0.9876c1.9003,-0.63434 3.15812,-4.88895 3.15812,-6.65066c0,-1.02913 0.07963,-2.06476 -0.12257,-3.07573l0.01507,-0.04927h-0.0175v-0.625v0c0,-0.27614 0.22386,-0.5 0.5,-0.5c0.17631,0 0.3313,0.09125 0.42032,0.2291l0.4957,0.74355l-0.08817,0.05878c0.8675,0.88542 2.0393,1.97266 2.42579,1.65847c1.81234,-1.4733 0.74605,-5.8465 -0.07586,-7.4663c-2.17084,-4.34168 -4.55202,-4.60781 -8.93151,-3.48853c-0.9103,0.2213 -1.82477,0.2687 -2.75,0.5l0.10728,-0.00652c0,0 -0.18586,0.18586 -0.42282,0.15331zM237.88173,170.99515l0.0595,-0.04272c0.91814,-0.22953 1.85548,-0.26852 2.75,-0.5c4.82448,-1.17297 7.67068,-0.78415 10.06849,4.01147c1.01579,2.05654 2.11975,7.11471 -0.32586,8.7837c-0.91813,0.62657 -2.3726,-0.37608 -3.12164,-1.40661c0.03542,0.69585 0.00029,1.39822 0.00029,2.09651c0,2.27387 -1.48723,6.67189 -3.84188,7.59934c-1.43199,0.56403 -4.32243,-0.38243 -5.59946,-1.0124c-2.85331,-0.95788 -4.78939,-3.77389 -5.54191,-6.58361c-0.12643,-0.47207 -0.29024,-1.88526 -0.21869,-2.87504c-0.86842,0.4452 -2.22687,-0.10905 -2.82868,-0.96094c-0.98891,-1.39988 -0.50104,-4.08089 0.1995,-5.49718c1.60216,-4.00539 4.32886,-6.48255 8.40035,-3.61252z" fill="#000000" stroke-width="0.5"/><path d="M238.27982,171.86734l-0.10786,0.00665c0.92523,-0.2313 1.8548,-0.28 2.7651,-0.50131c4.37949,-1.11928 6.80011,-0.82922 8.97095,3.51246c0.82191,1.6198 1.89475,6.02749 0.0824,7.50079c-0.38649,0.31419 -1.65756,-0.78163 -2.52506,-1.66705l0.08817,-0.05838l-0.49536,-0.73809c-0.08902,-0.13785 -0.14499,-0.24286 -0.3213,-0.24286c-0.27614,0 -0.49956,0.22736 -0.49956,0.5035v0l0.00019,0.6303h0.0175l-0.01508,0.04969c0.20219,1.01097 0.11661,2.06902 0.11661,3.09815c0,1.76171 -1.28805,6.04068 -3.18834,6.67502c-1.25259,0.41814 -3.82283,-0.42726 -4.92566,-0.98696c-4.9124,-1.62526 -4.20808,-5.81082 -5.15673,-9.59126l0.05192,-0.00003l0.00043,-0.50342c0,-0.27614 -0.12563,-0.48148 -0.40177,-0.48148c-0.16566,0 -0.31216,0.07886 -0.40315,0.20294l-0.37104,0.49211l0.02987,0.02228l-0.08128,0.06231c-0.06459,0.86178 -1.52231,0.13605 -1.86732,-0.33834c-0.77684,-1.06815 -0.22496,-3.47119 0.30679,-4.52191c1.3932,-3.483 3.42668,-5.88807 7.14697,-3.07755c0,0 0.16286,0.12043 0.35737,0.10637c0.23696,0.03255 0.42523,-0.15393 0.42523,-0.15393z" data-paper-data="{&quot;noHover&quot;:false,&quot;origItem&quot;:[&quot;Path&quot;,{&quot;applyMatrix&quot;:true,&quot;segments&quot;:[[[475.73647,344.13873],[0.47392,0.0651],[-0.38901,0.02812]],[[475.025,343.925],[0,0],[-7.44058,-5.62103]],[[460.78724,350.03466],[2.7864,-6.96601],[-1.06352,2.10143]],[[460.18624,359.04029],[-1.55367,-2.1363],[0.69002,0.94878]],[[463.72206,359.69523],[-0.12919,1.72356],[0,0]],[463.8847,359.56978],[463.825,359.525],[[464.56802,358.53431],[0,0],[0.18197,-0.24818]],[[465.375,358.125],[-0.33133,0],[0.55228,0]],[[466.375,359.125],[0,-0.55228],[0,0]],[466.375,360.125],[[466.27117,360.125],[0,0],[1.8973,7.56087]],[[476.50768,379.20112],[-9.8248,-3.25051],[2.20565,1.1194]],[[486.30877,381.17632],[-2.50518,0.83627],[3.8006,-1.26869]],[[492.625,367.875],[0,3.52341],[0,-2.05827]],[[492.37987,361.72354],[0.40439,2.02194],[0,0]],[492.41001,361.625],[492.375,361.625],[492.375,360.375],[[492.375,360.375],[0,0],[0,-0.55228]],[[493.375,359.375],[-0.55228,0],[0.35261,0]],[[494.21565,359.8332],[-0.17805,-0.2757],[0,0]],[495.20705,361.3203],[[495.03072,361.43786],[0,0],[1.73501,1.77084]],[[499.8823,364.7548],[-0.77298,0.62838],[3.62468,-2.94659]],[[499.73057,349.82221],[1.64383,3.23959],[-4.34168,-8.68335]],[[481.86754,342.84514],[8.75899,-2.23856],[-1.82061,0.4426]],[[476.36754,343.84514],[1.85045,-0.46261],[0,0]],[476.58211,343.83211]],&quot;closed&quot;:true}]}" fill="#767676" stroke-width="0.5"/><path d="M242.79106,186.04106c-0.35356,0.35356 -0.70711,0 -0.70711,0l-0.375,-0.375c-0.52559,-0.54089 -1.02543,-0.74427 -1.77144,-0.72855c0,0 -0.01816,0 -0.04754,-0.00346c-0.65194,0.4407 -1.04561,0.90245 -1.58685,1.46564c-0.02594,0.14327 -0.1235,0.41281 -0.49061,0.41281c-0.5,0 -0.5,-0.5 -0.5,-0.5l0.14644,-0.47856c0.58131,-0.56488 1.01292,-1.06629 1.60985,-1.52978c-0.33874,-0.34152 -0.52408,-0.97953 -0.58109,-1.65914c-0.40591,0.05678 -0.74021,0.10582 -0.93532,0.1541c-0.25127,0.06217 -1.40835,-0.00623 -1.50898,-0.17892c-0.82761,-1.42027 1.81858,-2.02066 2.69995,-2.05606c0.08459,-0.19296 0.18733,-0.34182 0.30629,-0.42697c0.66723,-0.47757 2.01553,0.19303 2.67514,0.32739c1.6215,0.97765 0.47119,1.50405 -1.05345,1.82774c0.11509,0.56136 0.13054,1.23026 -0.09253,1.69608c0.70551,0.10957 1.25765,0.40308 1.83727,0.97056l0.375,0.375c0,0 0.35356,0.35356 0,0.70711zM240.06337,180.98503c0.02625,0.02927 0.04016,0.05012 0.04016,0.05012l0.20968,0.31576c0.72845,0.03313 1.23844,0.08505 1.08703,0.05953c-0.29005,-0.05687 -0.87497,-0.32957 -1.33686,-0.42541zM239.58055,182.48782c0.01095,0.07276 0.02198,0.14458 0.03272,0.21449c0.01022,-0.0755 0.01839,-0.15066 0.0226,-0.22311c-0.01846,0.00289 -0.0369,0.00576 -0.05532,0.00861z" fill="#000000" stroke-width="0.5"/><path d="M232.5625,174.5625c0.27614,0 0.5,0.22386 0.5,0.5c0,0.27614 -0.22386,0.5 -0.5,0.5c-0.16618,0 -0.31343,-0.08107 -0.40435,-0.20583c-0.06934,0.19288 -0.25389,0.33083 -0.47065,0.33083c-0.27614,0 -0.5,-0.22386 -0.5,-0.5c0,-0.27614 0.22386,-0.5 0.5,-0.5c0.16618,0 0.31343,0.08107 0.40435,0.20583c0.06934,-0.19288 0.25389,-0.33083 0.47065,-0.33083z" fill="#000000" stroke-width="0.5"/><path d="M231.1875,177.3125c0,-0.27614 0.22386,-0.5 0.5,-0.5c0.27614,0 0.5,0.22386 0.5,0.5c0,0.27614 -0.22386,0.5 -0.5,0.5c-0.27614,0 -0.5,-0.22386 -0.5,-0.5z" fill="#000000" stroke-width="0.5"/><path d="M231.8125,173.8125c0,-0.27614 0.22386,-0.5 0.5,-0.5c0.27614,0 0.5,0.22386 0.5,0.5c0,0.27614 -0.22386,0.5 -0.5,0.5c-0.27614,0 -0.5,-0.22386 -0.5,-0.5z" fill="#000000" stroke-width="0.5"/><path d="M246.6875,176.8125c0,-0.27614 0.22386,-0.5 0.5,-0.5c0.27614,0 0.5,0.22386 0.5,0.5c0,0.27614 -0.22386,0.5 -0.5,0.5c-0.27614,0 -0.5,-0.22386 -0.5,-0.5z" fill="#000000" stroke-width="0.5"/><path d="M248.3125,177.6875c0,-0.27614 0.22386,-0.5 0.5,-0.5c0.27614,0 0.5,0.22386 0.5,0.5c0,0.27614 -0.22386,0.5 -0.5,0.5c-0.27614,0 -0.5,-0.22386 -0.5,-0.5z" fill="#000000" stroke-width="0.5"/><path d="M248.6875,178.6875c0,-0.27614 0.22386,-0.5 0.5,-0.5c0.27614,0 0.5,0.22386 0.5,0.5c0,0.27614 -0.22386,0.5 -0.5,0.5c-0.27614,0 -0.5,-0.22386 -0.5,-0.5z" fill="#000000" stroke-width="0.5"/><path d="M235.9375,177.70488c0.07174,-0.01738 0.125,-0.01738 0.125,-0.01738h0.25c3.04843,0.16782 -0.80309,2.36421 -2.48988,1.73663c-2.8795,-1.07135 1.07855,-1.73663 1.98988,-1.73663c0,0 0.05326,0 0.125,0.01738z" fill="#000000" stroke-width="0.5"/><path d="M244.57114,177.92331c0.00308,0.04207 -0.00001,0.08125 -0.00764,0.11757c0.22696,-0.06681 0.32991,-0.12909 0.14544,-0.12482c-0.04168,0.00097 -0.08799,0.00352 -0.1378,0.00725zM242.33351,178.6532c-0.36435,-0.17409 -0.54745,-0.5407 -0.21822,-1.1893c0.50931,-1.00339 3.90118,-0.88457 3.55407,0.73207c-0.2999,1.39678 -2.5133,1.14066 -3.33585,0.45723z" fill="#000000" stroke-width="0.5"/></g></g></svg>