<svg version="1.1" xmlns="http://www.w3.org/2000/svg" xmlns:xlink="http://www.w3.org/1999/xlink" width="199.32862" height="199.32862" viewBox="0,0,199.32862,199.32862"><g transform="translate(-140.33569,-80.33576)"><g data-paper-data="{&quot;isPaintingLayer&quot;:true}" fill-rule="nonzero" stroke="none" stroke-linecap="butt" stroke-linejoin="miter" stroke-miterlimit="10" stroke-dasharray="" stroke-dashoffset="0" style="mix-blend-mode: normal"><path d="M140.33569,180.00006c0,-55.04307 44.62123,-99.6643 99.66431,-99.6643c55.04307,0 99.66431,44.62123 99.66431,99.66431c0,55.04307 -44.62123,99.66431 -99.66431,99.66431c-55.04307,0 -99.66431,-44.62123 -99.66431,-99.66431z" fill="none" stroke-width="0"/><path d="M243.96528,180.7537c-0.3583,0.35028 -0.81647,0.49295 -1.34442,-0.0829c-1.0304,-1.12391 1.28428,-2.62666 2.0065,-1.55502c0.04458,-0.00147 0.09044,-0.00237 0.1376,-0.00268c0,0 0.5,0 0.5,0.5c0,0.12838 -0.03296,0.22379 -0.08196,0.29471c0.06307,-0.02871 0.13314,-0.04471 0.20696,-0.04471c0.23795,0 0.43708,0.16622 0.48761,0.38888l0.12246,0.48985l-0.03388,0.00847l0.04507,0.05171c0.00029,0.06215 -0.0002,0.12441 -0.00145,0.18677c0.4269,0.2915 0.95709,0.83865 1.25884,0.56423c2.17096,-1.97432 -1.61581,-5.9564 -3.01652,-7.01457c-0.72933,-0.36109 -1.55972,-0.72579 -2.39164,-0.86578c0.0186,0.05365 0.02951,0.1166 0.02951,0.19046c0,0.5 -0.5,0.5 -0.5,0.5c-1.66208,0 -4.33934,0.02951 -6.32887,0.85526c0.59175,1.25643 0.70387,2.21505 0.70387,3.64474c0,0 0,0.29487 -0.22644,0.43172l-0.03121,0.15603c-0.01035,0.07337 -0.01884,0.15511 -0.02597,0.24388c0.11088,0.41624 0.04464,1.06382 -0.07082,1.77393c-0.03748,0.73458 -0.11679,1.47005 -0.33694,1.93804c-0.10253,0.69702 -0.13768,1.30258 0.02832,1.64007c0.85355,1.73533 4.90661,1.31223 6.35197,1.32009c2.31735,-0.58402 3.54726,-3.22813 3.56474,-5.42761l-0.111,-0.44399c-0.0011,-0.00402 -0.00215,-0.00807 -0.00315,-0.01213c-0.18807,0.41377 -0.58294,0.43594 -0.93918,0.2706zM240.57356,173.36975c-0.03582,-0.06602 -0.05859,-0.14995 -0.05859,-0.25665c0,-0.5 0.5,-0.5 0.5,-0.5h0.125c1.26673,0.01075 2.5209,0.51151 3.63787,1.07467c1.82809,1.36247 6.29418,6.53329 2.98348,8.73543c-0.78223,0.52031 -1.42008,0.26886 -1.86362,-0.26625c-0.40536,2.35874 -1.88769,4.59704 -4.32164,5.20241c-2.0496,0.00947 -6.23411,0.38202 -7.39803,-1.92991c-0.15721,-0.31227 -0.20454,-0.75053 -0.19494,-1.2312c-1.23646,0.25451 -2.87743,-0.60722 -2.9328,-1.64186c0.23917,-1.88492 0.0279,-4.21196 0.90116,-5.93349c1.413,-2.78557 5.68659,-3.20127 8.62211,-3.25313z" fill="#000000" stroke-width="0.5"/><path d="M244.85488,180.47673c0.001,0.00406 0.10121,0.02103 0.10231,0.02505l0.10991,0.44969c-0.01748,2.19948 -1.29589,4.88135 -3.61324,5.46537c-1.44535,-0.00786 -5.53767,0.39618 -6.39122,-1.33914c-0.166,-0.33749 -0.13579,-0.95067 -0.03327,-1.64769c0.22016,-0.46799 0.29502,-1.21529 0.3325,-1.94987c0.11546,-0.71011 0.18044,-1.37207 0.06956,-1.78831c0.00713,-0.08877 0.01578,-0.17255 0.02613,-0.24592l0.03135,-0.15734c0.22644,-0.13685 0.22709,-0.4356 0.22709,-0.4356c0,-1.42969 -0.10308,-2.40829 -0.69483,-3.66472c1.98953,-0.82574 4.70613,-0.87516 6.36821,-0.87516c0,0 0.50409,0.00012 0.50409,-0.49988c0,-0.07386 -0.01124,-0.13683 -0.02984,-0.19048c0.83192,0.13999 1.6818,0.51002 2.41113,0.87111c1.40071,1.05817 5.21321,5.09743 3.04225,7.07175c-0.30176,0.27442 -0.92928,-0.29553 -1.35618,-0.58703c0.00125,-0.06235 0.00137,-0.12267 0.00108,-0.18482l-0.04514,-0.05123l0.03386,-0.00832l-0.12299,-0.48462c-0.05053,-0.22266 -0.24966,-0.38424 -0.48762,-0.38424c-0.07381,0 -0.14391,0.01552 -0.20698,0.04423c0.049,-0.07092 0.08224,-0.16253 0.08224,-0.29091c0,-0.5 -0.49846,-0.49208 -0.49846,-0.49208c-0.04716,0.00031 -0.09287,0.00172 -0.13746,0.00319c-0.72222,-1.07163 -2.94494,0.44095 -1.91454,1.56486c0.52794,0.57585 0.89406,0.39568 1.25236,0.0454c0.35624,0.16534 0.74961,0.15048 0.93768,-0.26329z" data-paper-data="{&quot;noHover&quot;:false,&quot;origItem&quot;:[&quot;Path&quot;,{&quot;applyMatrix&quot;:true,&quot;selected&quot;:true,&quot;segments&quot;:[[[243.96528,180.7537],[0.35624,0.16534],[-0.3583,0.35028],7],[[242.62087,180.6708],[0.52794,0.57585],[-1.0304,-1.12391],7],[[244.62737,179.11578],[-0.72222,-1.07163],[0.04458,-0.00147],7],[[244.76497,179.11309],[-0.04716,0.00031],[0,0],7],[[245.26497,179.61309],[0,-0.5],[0,0.12838],7],[[245.18301,179.9078],[0.049,-0.07092],[0.06307,-0.02871],7],[[245.38997,179.86309],[-0.07381,0],[0.23795,0],7],[[245.87758,180.25197],[-0.05053,-0.22266],[0,0],7],[[246.00004,180.74182],[0,0],[0,0],7],[[245.96616,180.7503],[0,0],[0,0],7],[[246.01122,180.802],[0,0],[0.00029,0.06215],7],[[246.00978,180.98877],[0.00125,-0.06235],[0.4269,0.2915],7],[[247.26862,181.55299],[-0.30176,0.27442],[2.17096,-1.97432],7],[[244.25211,174.53842],[1.40071,1.05817],[-0.72933,-0.36109],7],[[241.86046,173.67264],[0.83192,0.13999],[0.0186,0.05365],7],[[241.88997,173.86309],[0,-0.07386],[0,0.5],7],[[241.38997,174.36309],[0,0],[-1.66208,0],7],[[235.0611,175.21835],[1.98953,-0.82574],[0.59175,1.25643],7],[[235.76497,178.86309],[0,-1.42969],[0,0],7],[[235.53853,179.29481],[0.22644,-0.13685],[0,0],7],[[235.50732,179.45084],[0,0],[-0.01035,0.07337],7],[[235.48135,179.69472],[0.00713,-0.08877],[0.11088,0.41624],7],[[235.41053,181.46864],[0.11546,-0.71011],[-0.03748,0.73458],7],[[235.07359,183.40668],[0.22016,-0.46799],[-0.10253,0.69702],7],[[235.10191,185.04675],[-0.166,-0.33749],[0.85355,1.73533],7],[[241.45388,186.36684],[-1.44535,-0.00786],[2.31735,-0.58402],7],[[245.01862,180.93923],[-0.01748,2.19948],[0,0],7],[[244.90762,180.49524],[0,0],[-0.0011,-0.00402],7],[[244.90447,180.48311],[0.001,0.00406],[-0.18807,0.41377],7]],&quot;closed&quot;:true}]}" fill="#ffffff" stroke-width="0.5"/><path d="M238.90451,181.08945c0.50407,-0.70639 2.13997,-0.97033 2.64358,-0.9507c0.54593,0.3892 1.88621,1.29342 1.07044,2.2029c-0.31785,0.35436 -1.7614,-0.4329 -1.42481,-0.09631c0.59207,0.59207 -0.34573,1.75506 -1.09604,1.58894c-0.38391,-0.085 -0.19847,-1.18822 -0.22656,-1.47904c-0.03734,0.00654 -0.0743,0.01223 -0.11077,0.0169c-0.2596,0.39372 -0.74756,1.08023 -1.32463,-0.05011c-0.26029,-0.50984 0.02049,-0.92619 0.46879,-1.23257z" fill="#000000" stroke-width="0.5"/><path d="M236.63997,180.23809c0,-0.27614 0.22386,-0.5 0.5,-0.5c0.27614,0 0.5,0.22386 0.5,0.5c0,0.27614 -0.22386,0.5 -0.5,0.5c-0.27614,0 -0.5,-0.22386 -0.5,-0.5z" fill="#000000" stroke-width="0.5"/></g></g></svg>