<svg version="1.1" xmlns="http://www.w3.org/2000/svg" xmlns:xlink="http://www.w3.org/1999/xlink" width="70.76895" height="62.64631" viewBox="0,0,70.76895,62.64631"><g transform="translate(-204.30045,-148.41173)"><g data-paper-data="{&quot;isPaintingLayer&quot;:true}" fill-rule="nonzero" stroke="none" stroke-linecap="butt" stroke-linejoin="miter" stroke-miterlimit="10" stroke-dasharray="" stroke-dashoffset="0" style="mix-blend-mode: normal"><path d="M257.51252,175.04762l0.08194,0.04285c0.03902,0.02064 0.05811,0.0512 0.05723,0.09168c-0.03773,1.64661 0.05203,3.16938 -1.54286,4.26593c-1.62092,1.1144 -3.23143,0.59172 -4.47509,-0.65721c-1.05504,-1.06082 -0.67125,-2.30145 -0.73109,-3.69801c0.62617,-0.52069 1.35727,-0.87788 2.19331,-1.07154c1.58449,-0.3679 3.14426,0.26194 4.41654,1.02631zM252.5587,176.33585c-0.1366,0.34528 -0.35514,0.737 -0.13789,1.09178c0.56588,0.92508 1.58059,1.3954 2.70716,0.93462c0.26018,-0.10635 0.45618,-0.27663 0.58802,-0.51077c0.47743,-0.84652 0.1626,-1.724 -0.41629,-2.46335c-0.02351,-0.03002 -0.05757,-0.05152 -0.09625,-0.06072c-1.08626,-0.25003 -2.22584,-0.05596 -2.64472,1.00844z" fill="#b36e06" stroke-width="1"/><path d="M223.9832,174.95951c1.24236,-1.5704 4.0367,-1.10487 5.15936,0.22027c0.81436,0.95844 1.0329,2.14785 0.33304,3.20391c-0.71549,1.08107 -2.23884,1.9395 -3.65684,1.56445c-0.40458,-0.10597 -0.81307,-0.37744 -1.20855,-0.6084c-1.72109,-1.00012 -1.7393,-2.97293 -0.62704,-4.38022zM227.09235,175.39528c-1.8824,-0.75484 -3.68935,1.83829 -1.54416,2.87293c0.60708,0.29288 1.22068,0.30598 1.84078,0.03929c1.4557,-0.62625 0.95096,-2.41215 -0.29661,-2.91221z" fill="#b36e06" stroke-width="1"/><path d="M252.42078,177.42763c-0.21725,-0.3548 0.00129,-0.74651 0.13789,-1.09178c0.41888,-1.06441 1.55848,-1.25847 2.64472,-1.00844c0.03868,0.00919 0.07275,0.0307 0.09625,0.06072c0.5789,0.73936 0.89373,1.61684 0.41629,2.46335c-0.13184,0.23416 -0.3278,0.40441 -0.58802,0.51077c-1.12657,0.46077 -2.14126,-0.00953 -2.70716,-0.93462z" fill="#fff6dc" stroke-width="1"/><path d="M225.54817,178.26821c-2.14518,-1.03463 -0.33823,-3.62777 1.54416,-2.87293c1.24757,0.50006 1.75232,2.28596 0.29661,2.91221c-0.62008,0.2667 -1.23368,0.25361 -1.84078,-0.03929z" fill="#fff6dc" stroke-width="1"/><path d="M243.60723,183.15444c-0.02861,0.35121 -0.18082,1.25133 -0.56198,1.46088c-0.36339,0.19842 -0.68818,0.32781 -0.97438,0.38814c-1.83773,0.38814 -3.6451,0.35638 -5.42216,-0.09525c-0.07979,-0.02064 -0.12967,-0.06748 -0.14961,-0.1405c-0.53858,-1.97046 -0.44751,-3.79683 -0.01169,-5.83276c0.06764,-0.31751 0.17908,-0.55958 0.33433,-0.72625c1.14219,-1.22631 4.2084,-0.82271 5.66802,-0.60721c0.04076,0.00648 0.0743,0.03306 0.08717,0.06906c0.5854,1.74661 1.1838,3.64563 1.03032,5.48391zM237.77269,183.03417c0.64787,0.92153 2.66424,0.70007 3.54494,0.18454c0.47482,-0.27861 0.4644,-1.28227 0.41369,-1.73234c-0.07546,-0.66753 -0.15438,-1.34539 -0.23675,-2.03353c-0.00403,-0.03788 -0.03354,-0.06961 -0.07415,-0.07978c-1.19421,-0.29208 -2.37152,-0.24129 -3.53193,0.15238c-0.03815,0.0135 -0.05768,0.03889 -0.05853,0.07621l-0.07286,3.38013c-0.00088,0.01851 0.0046,0.03683 0.01559,0.05238z" fill="#b36e06" stroke-width="1"/><path d="M241.31766,183.21872c-0.88071,0.51555 -2.8971,0.737 -3.54494,-0.18454c-0.011,-0.01556 -0.01647,-0.03386 -0.01559,-0.05238l0.07286,-3.38013c0.00088,-0.0373 0.02038,-0.06271 0.05853,-0.07621c1.1604,-0.3937 2.3377,-0.4445 3.53193,-0.15238c0.04061,0.01013 0.07012,0.0419 0.07415,0.07978c0.0824,0.68816 0.16131,1.36601 0.23675,2.03353c0.05073,0.45004 0.06114,1.45373 -0.41369,1.73234z" fill="#fff6dc" stroke-width="1"/><path d="M264.37607,199.92646c0.00954,0.0373 0.00476,0.06349 -0.0143,0.07856c-0.0052,0.00398 -0.00912,0.00714 -0.01169,0.00953c-0.52296,0.59768 -1.13698,1.07393 -1.70028,1.61446c-0.27319,0.26074 -0.48394,0.49053 -0.82477,0.71316c-0.20295,0.13336 -0.39286,0.28099 -0.56979,0.44291c-0.22201,0.20241 -0.40717,0.35322 -0.55548,0.45244c-0.50908,0.33971 -1.01773,0.67863 -1.52596,1.01678c-1.69896,1.13028 -3.40097,2.06211 -5.10601,2.79553c-0.51515,0.22145 -1.17212,0.46117 -1.97086,0.71913c-0.00954,0.00318 -0.25063,0.08968 -0.72329,0.25956c-0.30616,0.11033 -0.62095,0.19049 -0.94444,0.2405c5.42821,-1.7216 10.07719,-4.50246 13.94691,-8.34256z" fill="#fff6dc" stroke-width="1"/><path d="M270.55925,168.89334c0.85299,0 0.92689,0.71302 0.93331,0.83661c1.65884,2.21652 5.33009,6.27124 2.59397,8.24972c-0.82885,0.75858 -3.30322,2.92405 -5.20221,4.08225c0.32226,0.78833 1.22189,1.81803 0.96777,2.83078c-0.5201,2.07289 -4.24844,3.09157 -4.49793,5.07185c-0.08272,0.65651 0.79916,1.77519 0.52167,2.88583c-0.1726,1.53146 -0.48219,3.49159 -2.00454,4.47309c-0.69495,0.44806 -3.44231,0.00665 -3.74622,0.50037c-0.42248,0.68627 -0.08082,3.44015 -0.4234,4.43817c-2.27678,6.6332 -8.84084,9.63299 -15.97229,8.59505c-5.05077,-0.57781 -14.50571,0.23095 -18.61653,-2.85954c-1.61234,-1.21216 -4.39915,-8.12265 -2.68098,-10.28698c-3.57179,-0.00253 -5.4194,-0.09408 -8.42464,-2.09655c-0.68137,-0.45402 -1.92554,-0.39284 -2.21409,-1.11761c-0.58476,-1.46882 1.70421,-3.75617 1.32593,-4.90312c-0.29608,-0.89775 -3.06056,-1.60835 -3.62243,-2.02324c-1.51761,-1.12061 -0.97955,-3.44524 -0.9696,-4.98313c0.39605,-1.25595 1.06238,-2.10568 2.16928,-2.97242c0.47523,-0.37212 1.84159,-0.65416 1.44425,-1.09623c-1.32358,-1.47265 -6.97034,0.6564 -7.7807,-2.08865c-0.41857,-1.41783 1.48931,-4.13489 2.12514,-5.38218c1.96493,-3.85446 4.66366,-7.28513 6.17702,-11.27298c1.27473,-1.20865 5.7375,-4.78478 5.48486,-6.45341c-0.11873,-0.7842 -1.46086,-1.24902 -1.34157,-2.03318c0.18652,-1.22605 2.41574,-1.33147 3.20291,-1.43609c3.48125,-0.46264 7.71804,-0.61324 11.17567,-0.0023l0.24939,-0.15062c4.80649,-1.77633 12.23972,-1.72231 17.07587,0.21359c2.1681,0.86789 1.69554,2.15688 3.92573,2.66014c5.75247,2.09718 4.5981,5.80807 8.08544,9.22199c2.04273,1.9997 6.91679,-0.76356 8.98371,2.40392c1.13025,1.73207 0.47893,3.27317 0.69674,4.74613c0.10078,-0.03231 0.21923,-0.05129 0.3584,-0.05129zM267.09041,182.81344c-4.38119,0.16835 -8.10619,-6.74585 -9.15791,-9.6203c0,0 -0.29532,-0.81088 0.59067,-1.08118c0.886,-0.27031 1.18132,0.54059 1.18132,0.54059c1.12696,3.1096 3.4963,7.39133 7.26715,8.42021c0.00123,-0.00528 0.00251,-0.01058 0.0038,-0.01588c1.02168,-4.20044 6.27132,-3.79745 2.84766,-9.07327c-2.60324,-2.37468 -0.43685,-4.29886 -1.94443,-6.94284c-1.31719,-2.31008 -6.66757,-0.25817 -8.62741,-1.9919c-3.4382,-3.04155 -2.10691,-6.90651 -7.39101,-8.84972c-2.2572,-0.52307 -2.29641,-2.11027 -4.07932,-2.71252c-4.55605,-1.53898 -10.9759,-1.90514 -15.47802,-0.27485l-0.71724,0.44313c0,0 -0.75965,0.46349 -1.2775,-0.21342c-2.31611,-0.34348 -4.87834,-0.22881 -7.2033,-0.13229c-0.95574,0.03968 -1.90907,0.1292 -2.85837,0.23812c-0.52935,0.06072 -2.08463,-0.1752 -1.60013,0.0292c4.07334,1.71842 -2.6743,7.59235 -4.39543,9.09669c-1.64387,4.7814 -7.89866,10.1639 -8.12132,15.20965c-0.00867,0.19635 2.90914,0.41279 5.13194,0.81737c-0.11305,-0.19774 -0.15636,-0.46825 0.05992,-0.79814c0.48051,-0.73293 1.28134,-0.29316 1.28134,-0.29316c1.51898,0.83498 3.21606,2.14079 4.77424,2.82564c0.39417,0.17325 3.17257,-3.10453 3.47827,-3.44608c3.03035,-3.38606 5.92376,-6.90498 9.1769,-10.13423l0.63818,-0.59136c0,0 0.65667,-0.60775 1.32074,-0.00675c0.66405,0.601 0.00738,1.20877 0.00738,1.20877l-0.59327,0.54833c-3.67799,3.64842 -6.68291,7.74675 -10.33506,11.40597c-1.0019,1.00384 -2.2637,2.97451 -4.06287,2.69102c-0.72786,-0.11467 -1.90776,-0.8166 -3.02331,-1.5363c0.12171,2.07015 -3.27596,2.357 -3.60311,4.22187c0.00334,0.4152 -0.28554,3.17892 0.09773,3.32009c0.91521,0.33707 3.93069,1.6469 4.38262,2.86099c0.56786,1.52554 -1.34351,3.38997 -1.34242,4.86536c0.00034,0.47845 1.09397,0.07249 1.52163,0.34766c3.01753,1.94166 4.29966,1.81103 8.28896,1.81103c0.35577,0 0.71157,0 1.06735,0h1.06735c0.51578,0 0.93392,0.38269 0.93392,0.85474c0,0.28319 -0.15049,0.53423 -0.38228,0.68976l-1.05864,0.72667l-0.07651,-0.09335c-0.55352,0.62022 -1.05853,1.27601 -1.17592,1.80383c-2.15897,9.70601 14.1712,8.48233 20.28853,9.1822c6.29595,0.93312 11.89783,-1.59773 13.94213,-7.45859c0.39082,-1.12046 -0.03134,-4.00888 0.64393,-4.8419c1.36805,-1.68759 2.9209,-0.06362 4.25882,-0.9649c1.01446,-0.68338 1.09228,-2.33563 1.19748,-3.3417c0.4424,-1.45197 -0.47541,-3.24542 0.42933,-4.505c0.8682,-1.20869 3.12403,-2.17643 3.59949,-3.65531c0.21573,-0.67104 -0.17391,-1.15464 -0.55382,-1.66354c-0.15497,0.04729 -0.29598,0.07486 -0.42016,0.07963zM272.90234,176.65765c0.42344,-0.17165 0.35537,-0.73463 0.03762,-1.46029c0.0367,0.51856 0.0011,1.0352 -0.12675,1.5386c0.03617,-0.03098 0.06609,-0.05722 0.08913,-0.07831z" fill="#6b0000" stroke-width="0.5"/><path d="M267.60337,182.74336c0.37992,0.50889 0.76881,0.99741 0.55307,1.66845c-0.47546,1.47887 -2.73518,2.46036 -3.60338,3.66905c-0.90472,1.25958 0.0068,3.06594 -0.4356,4.51791c-0.10519,1.00607 -0.18933,2.66741 -1.20379,3.3508c-1.33792,0.90127 -2.89808,-0.71459 -4.26612,0.97299c-0.67529,0.83302 -0.26267,3.72958 -0.6535,4.85005c-2.0443,5.86087 -7.68929,8.4095 -13.98522,7.47638c-6.11733,-0.69984 -22.51515,0.51052 -20.3562,-9.19549c0.11742,-0.52782 0.72693,-1.32531 1.28045,-1.94551l0.07612,0.09311l1.05718,-0.72756c0.23178,-0.15553 0.28076,-0.26305 0.28076,-0.54627c0,-0.47205 -0.42264,-0.8576 -0.93842,-0.8576l-1.07014,-0.00196c-0.35577,0 -0.71413,-0.00195 -1.06992,-0.00195c-3.98931,0 -5.28819,0.11338 -8.30573,-1.8283c-0.42766,-0.27518 -1.52327,0.12794 -1.52362,-0.35051c-0.00106,-1.47539 1.90392,-3.35112 1.33606,-4.87668c-0.45192,-1.21409 -3.47214,-2.53683 -4.38735,-2.8739c-0.38328,-0.14117 -0.09649,-2.91541 -0.09983,-3.3306c0.32715,-1.86487 3.7243,-2.1662 3.60261,-4.23636c1.11555,0.7197 2.29534,1.42764 3.02319,1.54232c1.79915,0.28348 3.0619,-1.70108 4.06382,-2.70492c3.65217,-3.6592 6.70935,-7.82241 10.38734,-11.47081l0.59726,-0.54997c0,0 0.72655,-0.44924 0.06249,-1.05024c-0.66405,-0.601 -1.31506,0.00453 -1.31506,0.00453l-0.6343,0.58961c-3.25314,3.22925 -6.10024,6.69657 -9.13059,10.08263c-0.3057,0.34156 -3.08053,3.60101 -3.47469,3.42777c-1.55818,-0.68486 -3.44043,-2.01116 -4.95941,-2.84613c0,0 -0.61651,-0.41204 -1.09702,0.3209c-0.21627,0.3299 -0.17256,0.59774 -0.05951,0.79547c-2.22282,-0.40459 -5.32594,-0.64243 -5.31728,-0.83877c0.22266,-5.04575 6.49919,-10.47287 8.14307,-15.25427c1.72113,-1.50435 8.48895,-7.39439 4.41561,-9.11282c-0.4845,-0.20439 1.07381,0.02982 1.60313,-0.03091c0.94932,-0.1089 1.90875,-0.20148 2.86451,-0.24116c2.32494,-0.09652 4.9047,-0.21722 7.22082,0.12626c0.51785,0.67692 1.28088,0.21268 1.28088,0.21268l0.71957,-0.4436c4.50215,-1.6303 10.96705,-1.26223 15.52313,0.27676c1.78289,0.60224 1.83555,2.19418 4.09277,2.71726c5.2841,1.94321 3.98266,5.82879 7.42086,8.87034c1.95983,1.73373 7.32209,-0.30273 8.63926,2.00733c1.50757,2.64398 -0.65057,4.58683 1.95267,6.96152c3.42365,5.27583 -1.82286,4.8995 -2.84453,9.09994c-0.00129,0.00532 -0.1891,0.00198 -0.19033,0.00727c-3.77085,-1.02887 -6.13461,-5.27686 -7.26157,-8.38644c0,0 -0.29381,-0.80734 -1.17981,-0.53705c-0.886,0.27031 -0.4169,1.01858 -0.4169,1.01858c1.05169,2.87445 4.78187,9.82822 9.16306,9.65989c0.12419,-0.00477 0.26525,-0.03275 0.42021,-0.08002z" data-paper-data="{&quot;noHover&quot;:false,&quot;origItem&quot;:[&quot;Path&quot;,{&quot;applyMatrix&quot;:true,&quot;segments&quot;:[[[254.35715,181.53572],[0.06649,-0.00279],[-2.34558,0.09848]],[[249.45423,175.90812],[0.56305,1.68147],[0,0]],[[249.77046,175.27566],[-0.47434,0.15812],[0.47434,-0.15812]],[[250.40292,175.59189],[0,0],[0.60335,1.81903]],[[254.29358,180.51747],[-2.01882,-0.60186],[0.00066,-0.00309]],[[254.29561,180.50817],[-0.00069,0.00311],[0.54698,-2.45714]],[[255.82019,175.20057],[1.83294,3.08621],[-1.39371,-1.38912]],[[254.77919,171.13921],[0.80712,1.54665],[-0.70519,-1.35133]],[[250.16028,169.97401],[1.04925,1.01418],[-1.84073,-1.77922]],[[246.20331,164.79718],[2.82898,1.13672],[-1.20845,-0.30598]],[[244.01934,163.21043],[0.95452,0.35229],[-2.4392,-0.90026]],[[235.73278,163.04966],[2.41034,-0.95368],[0,0]],[235.34878,163.30888],[[234.66484,163.18403],[0.27724,0.39598],[-1.23999,-0.20093]],[[230.80837,163.10663],[1.24472,-0.05646],[-0.51168,0.02321]],[[229.27807,163.24592],[0.50824,-0.0637],[-0.2834,0.03552]],[[228.4214,163.26299],[-0.25939,-0.11956],[2.18077,1.00523]],[[226.06819,168.5843],[0.92145,-0.88],[-0.88009,2.79698]],[[221.72022,177.48151],[0.11921,-2.95162],[-0.00464,0.11486]],[[224.46775,177.95965],[-1.19004,-0.23667],[-0.06052,-0.11567]],[[224.49983,177.49275],[-0.11579,0.19298],[0.25725,-0.42874]],[[225.18582,177.32126],[0,0],[0.81323,0.48844]],[[227.74183,178.97418],[-0.83421,-0.40062],[0.21103,0.10135]],[[229.60401,176.95832],[-0.16366,0.1998],[1.62238,-1.98075]],[[234.5171,171.03008],[-1.74165,1.88902],[0,0]],[234.85877,170.68414],[[235.56586,170.6802],[-0.35552,-0.35157],[0.35552,0.35157]],[235.56981,171.38729],[[235.25218,171.70805],[0,0],[-1.96911,2.13422]],[[229.71904,178.38022],[1.95528,-2.14053],[-0.53639,0.58722]],[[227.54389,179.95439],[0.96322,0.16583],[-0.38968,-0.06708]],[[225.92528,179.05571],[0.59724,0.421],[0.06516,1.21098]],[[223.99626,181.52538],[0.17515,-1.09089],[0.00179,0.24288]],[[224.04858,183.46753],[-0.2052,-0.08258],[0.48998,0.19718]],[[226.39493,185.14113],[-0.24195,-0.71021],[0.30402,0.8924]],[[225.67623,187.98723],[-0.00057,-0.86306],[0.00018,0.27988]],[[226.49086,188.1906],[-0.22896,-0.16097],[1.61551,1.13582]],[[230.92857,189.25],[-2.13578,0],[0.19047,0]],[[231.5,189.25],[-0.19047,0],[0,0]],[[232.07143,189.25],[0,0],[0.27614,0]],[[232.57143,189.75],[0,-0.27614],[0,0.16566]],[[232.36678,190.15349],[0.12409,-0.09098],[0,0]],[231.8,190.57857],[[231.75905,190.52397],[0,0],[-0.29634,0.36281]],[[231.12948,191.57916],[0.06286,-0.30876],[-1.15586,5.67774]],[[241.99147,196.95048],[-3.27507,-0.40939],[3.3707,0.54585]],[[249.45575,192.58742],[-1.09447,3.42844],[0.20924,-0.65544]],[[249.8005,189.75504],[-0.36153,0.48729],[0.73242,-0.98719]],[[252.08057,189.1906],[-0.71629,0.52722],[0.54312,-0.39976]],[[252.72167,187.2358],[-0.05632,0.58852],[0.23685,-0.84936]],[[252.95152,184.6005],[-0.48437,0.73682],[0.46481,-0.70705]],[[254.8786,182.46225],[-0.25455,0.8651],[0.1155,-0.39254]],[[254.58209,181.48914],[0.2034,0.29768],[-0.08297,0.02766]]],&quot;closed&quot;:true}]}" fill="#948469" stroke-width="0.5"/><path d="M234.52057,176.56705c1.12829,-0.06194 1.84635,0.15445 1.84635,0.15445l1.06423,0.32197c1.73413,0.69683 3.06897,1.0257 2.1001,1.83717c-2.85721,0.87531 -13.02906,1.73161 -17.09933,0.57711c-2.11035,-0.59858 -4.39577,-2.6074 0.06541,-3.0541c2.34979,-0.2353 7.72941,-0.04187 10.39149,-0.04187c0,0 1.22513,0 1.63173,0.2053z" fill="#000000" stroke-width="0.5"/><path d="M248.55884,179.40792l-1.06466,0.09476c-10.89358,0.41887 -4.53851,-3.11226 3.9301,-3.87439c2.97296,-0.26755 3.65738,0.12244 5.20186,0.31494c9.78196,1.21917 -2.36147,3.78303 -8.0673,3.4647z" fill="#000000" stroke-width="0.5"/><path d="M251.01355,198.28016c0,0.85474 -0.93392,0.85474 -0.93392,0.85474h-0.93392c-4.04886,-0.0806 -7.65576,-2.36769 -9.51086,-5.61144c-1.87051,2.61794 -3.25398,4.42191 -7.00441,5.56759l-0.60664,0.04386c0,0 -0.93392,0 -0.93392,-0.85474c0,-0.85474 0.93392,-0.85474 0.93392,-0.85474l0.01597,0.04386c3.53323,-1.07637 4.56483,-2.77675 6.3667,-5.3431c-0.8081,-0.32684 -1.36226,-0.81834 -1.68177,-1.88913c-0.2487,-0.83348 0.57768,-3.15275 -0.13765,-2.58893c-1.02963,0.81155 -5.84186,0.94892 -5.1609,-1.5307c0.70928,-2.5827 4.22547,-3.27577 7.03309,-3.45136l0.7406,-0.58212c2.93682,-0.8643 9.74898,0.71706 8.03796,4.76245c-0.84158,1.98974 -5.52571,1.49637 -5.52571,1.49637c0,0 0.31955,1.83954 0.26148,2.09675c-0.13261,0.58749 -0.56734,1.08508 -1.09048,1.49946c1.30891,3.01269 4.65603,5.60113 8.26263,5.48649h0.93392c0,0 0.93392,0 0.93392,0.85474z" fill="#000000" stroke-width="0.5"/></g></g></svg>