<svg version="1.1" xmlns="http://www.w3.org/2000/svg" xmlns:xlink="http://www.w3.org/1999/xlink" width="131.32862" height="131.32862" viewBox="0,0,131.32862,131.32862"><g transform="translate(-174.33569,-114.33569)"><g data-paper-data="{&quot;isPaintingLayer&quot;:true}" fill-rule="nonzero" stroke="none" stroke-linecap="butt" stroke-linejoin="miter" stroke-miterlimit="10" stroke-dasharray="" stroke-dashoffset="0" style="mix-blend-mode: normal"><g><path d="M174.33569,179.99999c0,-36.26539 29.39891,-65.6643 65.66431,-65.6643c36.26539,0 65.66431,29.39891 65.66431,65.66431c0,36.26539 -29.39891,65.66431 -65.66431,65.66431c-36.26539,0 -65.66431,-29.39891 -65.66431,-65.66431z" fill="none" stroke-width="0"/><path d="M233.64397,164.50731c-0.02582,-0.00517 -0.04998,-0.01143 -0.07261,-0.01866c-2.01103,0.15673 -3.93199,0.61577 -5.65278,1.90662c-0.53054,0.39799 -1.33991,0.70164 -1.54918,1.3336c-1.59909,2.56735 -2.58194,5.55844 -2.58194,8.62388l-0.08222,0.22999c0.36428,2.61337 -1.15291,5.89419 0.03075,8.30379c0.41321,0.8412 1.67141,1.73057 2.35391,2.41147c0.33504,0.33584 1.87817,1.39305 1.83741,1.91083c-0.0007,0.00888 -1.04751,1.75023 -1.14595,1.92782c-0.95023,1.71406 -2.03917,3.53585 -2.87032,5.35654c3.15248,0.18141 6.30076,1.45011 9.30287,2.25504c1.62811,0.43652 3.40474,0.43084 5.07551,0.64188c2.22516,0 4.80733,0.4845 6.99497,-0.07831c2.5518,-0.6565 4.82441,-1.71561 7.24003,-2.79514c0.32536,-0.14476 1.80756,-0.56465 2.02711,-0.82348c0.32779,-0.38642 -0.32236,-1.35566 -0.42302,-1.55544c-0.5458,-1.08316 -1.00228,-2.20598 -1.45317,-3.33178c-0.03529,-0.0208 -0.06511,-0.04545 -0.09031,-0.07227c-0.0778,-0.07311 -0.1374,-0.18513 -0.1374,-0.35674c0,-0.97034 -0.18829,-2.12216 -0.09061,-3.07072c0.12792,-1.24231 1.29477,-2.46483 1.61114,-3.73106c0.51265,-2.05188 0.36192,-4.18777 0.36192,-6.28119c0,-5.22388 -0.27702,-11.23438 -3.8084,-15.36898c-0.27043,-0.23111 -1.82442,-1.8876 -2.29766,-1.67623c-0.97493,0.43546 -1.28934,2.94815 -2.31337,3.37119c-0.55974,0.23124 -1.21072,-0.04467 -1.81635,-0.04428c-1.5435,0.001 -2.98093,0.0178 -4.49287,0.26779c-0.17586,0.05915 -0.35172,0.1183 -0.52758,0.17746l-0.4241,0.01716c-0.06697,0.38469 -0.48514,0.38469 -0.48514,0.38469c-1.40516,0 -2.8066,-0.04167 -4.17059,0.03727c-0.08464,0.05094 -0.19834,0.0776 -0.35006,0.04725zM233.38082,163.3575c0.37818,-0.88229 0.91079,-2.71936 1.61073,-3.35492c1.60805,-1.46012 3.30104,1.58217 3.82154,3.06367c0.18338,-0.06064 0.36675,-0.12128 0.55013,-0.18192c1.90895,-0.32059 4.34253,0.26665 6.1149,-0.15297c0.26981,-0.06388 0.2144,-0.51354 0.35728,-0.75116c0.3626,-0.60299 1.40726,-2.41107 2.03545,-2.65445c1.12675,-0.43654 2.65516,1.30356 3.34966,1.90042c3.73706,4.34575 4.09786,10.55282 4.09786,16.0678c0,2.17694 0.1426,4.38595 -0.39106,6.51941c-0.28758,1.14969 -1.53235,2.53193 -1.58902,3.61047c-0.0457,0.86983 0.07664,1.8357 0.09529,2.73524l0.06112,0.03433c0.56918,1.42324 2.84472,4.76489 1.79044,6.16195c-0.34521,0.45745 -1.85601,0.84041 -2.35823,1.06387c-2.45223,1.09588 -4.78315,2.21215 -7.3873,2.84729c-2.3218,0.56627 -4.95556,0.10992 -7.31159,0.10992c-1.74114,-0.21552 -3.58026,-0.22536 -5.27791,-0.67583c-3.03899,-0.80638 -6.26234,-2.16714 -9.45527,-2.23817c-0.00841,0.02101 -0.01677,0.04202 -0.0251,0.06303l-0.05952,-0.06461c-0.07037,-0.00106 -0.14071,-0.00149 -0.21103,-0.00126c0,0 -0.32908,0 -0.45014,-0.26856l-0.1969,-0.03261c1.12077,-2.77861 3.11569,-5.23658 4.38991,-7.87233c0.10535,-0.21792 -0.40887,-0.26276 -0.5899,-0.42343c-0.32251,-0.28623 -0.65584,-0.56131 -0.96108,-0.86589c-0.77581,-0.77751 -2.05419,-1.70965 -2.54045,-2.67113c-1.31006,-2.59045 0.29492,-5.83956 -0.12274,-8.60297c-0.03284,-0.0908 -0.02974,-0.1823 -0.0166,-0.25508c0.00872,-0.07235 0.03211,-0.15921 0.08836,-0.23553c0.02492,-3.15937 1.02667,-6.30116 2.68842,-8.95042c0.37045,-0.83179 1.12435,-1.14226 1.83922,-1.6783c1.84565,-1.38397 3.88133,-1.89294 6.01628,-2.07589zM236.39023,160.97011c-0.08979,-0.10366 -0.49535,-0.55231 -0.69986,-0.2687c-0.52206,0.72401 -0.91563,1.85716 -1.28227,2.75969c1.14575,-0.04779 2.3151,-0.02964 3.49461,-0.02691c-0.2843,-0.93507 -0.86871,-1.72082 -1.51248,-2.46407z" fill="#594000" stroke-width="0.5"/><path d="M237.92842,163.45477c-1.17951,-0.00272 -2.4001,-0.02063 -3.54584,0.02716c0.36665,-0.90253 0.77489,-2.08761 1.29695,-2.81162c0.2045,-0.28361 0.62801,0.16397 0.7178,0.26764c0.64377,0.74325 1.2468,1.58176 1.5311,2.51683z" data-paper-data="{&quot;noHover&quot;:false,&quot;origItem&quot;:[&quot;Path&quot;,{&quot;applyMatrix&quot;:true,&quot;segments&quot;:[[[469.04227,302.23346],[1.95422,2.25619],[-0.27256,-0.31468]],[[466.9178,301.4178],[0.62078,-0.86092],[-1.58474,2.19778]],[[463.02537,309.79503],[1.11297,-2.73969],[3.478,-0.14505]],[[473.63351,309.71332],[-3.58049,-0.00827],[-0.86299,-2.83847]]],&quot;closed&quot;:true}]}" fill="#ffc45c" stroke-width="0.5"/><path d="M233.98394,164.42868c1.36399,-0.07894 2.77382,-0.03881 4.17898,-0.03881c0,0 0.41922,-0.00004 0.48619,-0.38473l0.42497,-0.01716c0.17586,-0.05915 0.3528,-0.11828 0.52867,-0.17744c1.51194,-0.24999 2.95794,-0.26531 4.50143,-0.2663c0.60563,-0.0004 1.25965,0.27665 1.81939,0.04541c1.02403,-0.42304 1.33956,-2.93523 2.31448,-3.37069c0.47325,-0.21138 2.03101,1.44721 2.30143,1.67831c3.53138,4.1346 3.82306,10.16729 3.82306,15.39117c0,2.09343 0.15027,4.24265 -0.36239,6.29453c-0.31636,1.26623 -1.48638,2.49686 -1.6143,3.73917c-0.09768,0.94857 0.08779,2.10467 0.08779,3.075c0,0.17161 0.05937,0.28392 0.13717,0.35703c0.0252,0.02682 0.05502,0.05147 0.09031,0.07227c0.45089,1.1258 0.90562,2.25066 1.4514,3.33382c0.10067,0.19978 0.74993,1.16992 0.42214,1.55634c-0.21956,0.25883 -1.70407,0.68079 -2.02942,0.82556c-2.41561,1.07953 -4.69885,2.14444 -7.25066,2.80094c-2.18764,0.56281 -4.78116,0.07992 -7.00631,0.07992c-1.67078,-0.21103 -3.45588,-0.20677 -5.08399,-0.64329c-3.00211,-0.80492 -6.16291,-2.08074 -9.3154,-2.26215c0.83116,-1.82069 1.91802,-3.64454 2.86824,-5.3586c0.09845,-0.17757 1.14428,-1.92003 1.14498,-1.92891c0.04076,-0.51779 -1.50575,-1.57982 -1.8408,-1.91566c-0.68251,-0.68089 -1.94344,-1.57644 -2.35665,-2.41763c-1.18366,-2.4096 0.33266,-5.70767 -0.03163,-8.32105l0.08232,-0.23049c0,-3.06544 0.99124,-6.07193 2.59033,-8.63927c0.20927,-0.63196 1.02147,-0.93822 1.55202,-1.33621c1.7208,-1.29085 3.65173,-1.75548 5.66276,-1.91221c0.02262,0.00723 0.0469,0.01345 0.07272,0.01862c0.15171,0.03034 0.26609,0.00346 0.35072,-0.04748z" fill="#ffc45c" stroke-width="0.5"/><path d="M225.95688,172.50927c0.32387,-0.19314 0.66223,-0.36463 1.01194,-0.50568l0.27764,-0.03534c0,0 0.02817,0 0.07106,0.00673l0.11718,-0.10085c0.61353,0 1.38495,-0.14351 1.9052,0.2937c1.82934,1.53733 1.04987,4.39357 -1.46962,4.26999c-0.75501,-0.03703 -1.92967,-0.14666 -2.36089,-0.89038c-0.67209,-1.15916 -0.54587,-2.3754 0.2819,-2.87965c0.0727,-0.10277 0.16559,-0.1585 0.16559,-0.1585z" fill="#000000" stroke-width="0.5"/><path d="M243.4145,172.2129c0.03746,-0.15209 0.14216,-0.2568 0.14216,-0.2568l0.53766,-0.33297c0.21939,0.00297 0.43879,0.00594 0.65818,0.00891c0.70826,0.27134 1.59763,0.46957 1.96316,1.23735c0.93284,1.95939 -0.42802,3.98357 -2.47385,3.78758c-2.52827,-0.2422 -3.12063,-3.43863 -0.8273,-4.44407z" fill="#000000" stroke-width="0.5"/><path d="M233.10085,186.24969c-0.29648,0.39531 -0.6918,0.09883 -0.6918,0.09883l-0.53419,-0.48303c-0.18269,-0.42823 -0.39098,-0.81681 -0.57099,-1.22925c-0.42408,0.36556 -0.95071,0.70693 -1.46893,1.12043l-0.35663,0.3577c0,0 -0.34941,0.34941 -0.69882,0c-0.34941,-0.34941 0,-0.69882 0,-0.69882l0.39634,-0.39528c1.02723,-0.82378 2.3804,-1.2346 1.93796,-2.56275c-0.61532,-0.14302 -1.19835,-0.40067 -1.71458,-0.81356c-0.80013,-0.63996 -1.96036,-2.72355 -0.92491,-3.53485c0.62562,-0.49019 2.35207,-0.17981 3.10176,-0.17981c0,0 0.14839,0 0.28254,0.08132c0.42662,-0.00252 0.87385,0.0128 1.31753,0.0128c0.73714,0 1.64105,-0.1397 2.31415,0.25238c1.28744,0.74994 1.03017,2.89467 0.19538,3.77368c-1.06806,0.32798 -2.3187,0.60029 -3.52284,0.54721c0.07821,0.46442 0.01703,0.84214 -0.14088,1.17019c0.01578,0.03212 0.02291,0.05351 0.02291,0.05351c0.19183,0.58611 0.49339,1.08654 0.73838,1.65581l0.21879,0.0817c0,0 0.39531,0.29648 0.09883,0.6918zM229.1991,179.57283c0.04064,-0.2904 0.12344,-0.52749 0.24139,-0.72093c-0.14479,0.01449 -0.28263,0.03811 -0.40998,0.07411c-0.25446,0.07193 -0.06182,0.35227 0.16859,0.64681z" fill="#000000" stroke-width="0.5"/></g></g></g></svg>