<svg version="1.1" xmlns="http://www.w3.org/2000/svg" xmlns:xlink="http://www.w3.org/1999/xlink" width="199.32863" height="199.32862" viewBox="0,0,199.32863,199.32862"><g transform="translate(-140.3357,-80.33575)"><g data-paper-data="{&quot;isPaintingLayer&quot;:true}" fill-rule="nonzero" stroke="none" stroke-linecap="butt" stroke-linejoin="miter" stroke-miterlimit="10" stroke-dasharray="" stroke-dashoffset="0" style="mix-blend-mode: normal"><path d="M169.5267,250.47337c-38.92133,-38.92133 -38.92133,-102.02528 0.00001,-140.94661c38.92133,-38.92133 102.02528,-38.92134 140.94662,0c38.92133,38.92133 38.92134,102.02528 0,140.94662c-38.92133,38.92133 -102.02528,38.92134 -140.94662,0z" fill="none" stroke-width="0"/><path d="M238.53429,165.92579l0.41184,-0.13573c3.73258,-0.90741 8.84875,0.73031 11.76575,3.0639c2.53923,1.2553 4.67791,3.10739 4.35178,6.23226c-0.10528,1.00876 0.24934,3.01695 -0.80491,3.52585c-0.13726,0.06626 -0.3361,0.09768 -0.55795,0.09818c2.777,2.4711 4.50579,5.61307 2.55492,9.55548c-3.43696,5.6781 -8.05112,6.88957 -14.16512,5.87392c-3.15463,-0.78701 -5.62099,-1.59986 -6.64722,-4.20215c-1.24627,3.10488 -4.08798,3.35931 -6.82118,1.09663c-2.29733,-1.90185 -3.45992,-4.32624 -4.752,-6.9104c-2.26351,-4.58264 -0.1572,-9.73743 2.54376,-13.51893c2.65181,-3.53614 6.92167,-5.52839 11.39973,-4.43974c0,0 0.1461,0.03653 0.2579,0.14968c0.0421,-0.04652 0.09284,-0.08509 0.14968,-0.11316c0.08868,-0.201 0.31303,-0.27578 0.31303,-0.27578z" fill="#000000" stroke-width="0.5"/><path d="M238.82529,183.76117c-0.00388,0.17529 -0.10789,0.31397 -0.10789,0.31397c-0.41524,0.4946 -0.275,0.80532 -0.275,1.45c0,4.24132 4.31717,0.10169 1.75503,-1.81412c-0.54654,-0.22445 -0.69536,-0.2216 -1.25876,-0.07581l0.10728,-0.00652c0,0 -0.08826,0.08825 -0.22066,0.13248zM238.18172,183.28588c0.00116,-0.20834 0.15713,-0.36431 0.15713,-0.36431l0.35728,-0.25652c0.82314,-0.20011 1.19117,-0.1406 1.99124,0.17419c4.38789,3.2973 -3.24497,8.8601 -3.24497,2.68588c0,-0.89426 -0.05253,-1.29642 0.475,-2.05c0,0 0.10116,-0.13488 0.26432,-0.18925z" fill="#ffffff" stroke-width="0.5"/><path d="M243.53778,173.44921c-0.04656,0.10921 -0.11682,0.17947 -0.11682,0.17947c-0.29799,0.29688 -1.10627,0.98665 -1.24273,1.38965c-0.82029,2.42239 4.47091,2.63266 3.91368,-0.83858c-0.35673,-0.75282 -1.12414,-0.90881 -1.89951,-0.90462l-0.09765,0.16602c0,0 -0.29743,0.19829 -0.55698,0.00806zM243.34045,172.85272c0.06505,-0.15391 0.1996,-0.24361 0.1996,-0.24361l0.65235,-0.33398c1.29974,0.00576 2.24578,0.4169 2.85049,1.59538c0.28178,1.64594 -0.38008,3.52179 -2.23561,4.01624c-1.80133,0.48001 -4.19806,-0.97643 -3.6007,-3.10483c0.16239,-0.57861 1.08038,-1.43201 1.50727,-1.86035c0,0 0.30183,-0.30182 0.6266,-0.06886z" fill="#ffffff" stroke-width="0.5"/><path d="M246.90221,184.61805c-0.12615,0.73718 -0.28186,1.42599 -0.49787,1.84842c-0.286,0.55928 -1.04154,1.06121 -1.69049,0.53722c-1.252,-1.01092 0.84665,-5.99259 1.43753,-6.88091c0,0 0.27735,-0.41602 0.69338,-0.13867c0.07702,0.05134 0.13027,0.10744 0.16592,0.16477c0.29734,-0.382 0.70027,-0.58203 1.23943,-0.26785c0.49883,0.29067 0.28937,2.24328 -0.30897,2.35866c-0.49042,0.09457 1.01291,-0.07044 1.49753,0.05038c0.77504,0.19322 1.95869,0.43049 2.11535,1.37019c0.27135,1.6276 -2.59287,1.36834 -3.67272,1.36113c-0.30639,-0.07449 -0.6724,-0.2159 -0.9791,-0.40334zM249.7939,183.96524c-0.02019,-0.02832 -0.03636,-0.05786 -0.04932,-0.08698c-1.06466,-0.06825 -3.2884,-0.24979 -1.74109,0.15062c0.38254,-0.00326 0.76642,0.02954 1.14767,-0.00204c0.25236,-0.02091 0.46531,-0.04135 0.64274,-0.06159zM247.19788,182.63954c-0.0113,0.07431 -0.02263,0.15063 -0.03401,0.22864c0.08739,-0.02946 0.18491,-0.05181 0.29015,-0.06827c-0.09638,-0.05085 -0.18271,-0.10424 -0.25615,-0.16037zM246.04497,182.93065c0.0728,-0.2277 0.13279,-0.45158 0.188,-0.6895c-0.0737,0.22821 -0.13525,0.45801 -0.188,0.6895z" fill="#ffffff" stroke-width="0.5"/><path d="M230.5674,184.02513c0.5,0 0.5,0.5 0.5,0.5l-0.1,-0.05c1.27587,1.71188 2.69932,3.90116 4.7857,4.71076c0,0 0.46424,0.1857 0.27854,0.64993c-0.1857,0.46424 -0.64993,0.27854 -0.64993,0.27854c-2.28272,-0.93487 -3.79012,-3.15404 -5.2143,-5.03924l-0.1,-0.55c0,0 0,-0.5 0.5,-0.5z" fill="#ffffff" stroke-width="0.5"/><path d="M249.96385,176.29658c0.35355,-0.35355 0.70711,0 0.70711,0l-0.1305,-0.01174c1.88147,0.37672 4.01351,0.03022 4.02694,2.49029c0,0 0,0.5 -0.5,0.5c-0.5,0 -0.5,-0.5 -0.5,-0.5c0.01108,-1.66721 -1.87278,-1.23997 -3.22306,-1.50971l-0.3805,-0.26174c0,0 -0.35355,-0.35355 0,-0.70711z" fill="#ffffff" stroke-width="0.5"/></g></g></svg>