<svg version="1.1" xmlns="http://www.w3.org/2000/svg" xmlns:xlink="http://www.w3.org/1999/xlink" width="26.2305" height="26.2305" viewBox="0,0,26.2305,26.2305"><g transform="translate(-226.88476,-166.88475)"><g data-paper-data="{&quot;isPaintingLayer&quot;:true}" fill-rule="nonzero" stroke-linecap="butt" stroke-linejoin="miter" stroke-miterlimit="10" stroke-dasharray="" stroke-dashoffset="0" style="mix-blend-mode: normal"><g stroke="none" stroke-width="0.5"><path d="M242.89388,180.55005c-0.26149,0.25564 -0.59586,0.35976 -0.98116,-0.0605c-0.75199,-0.82023 0.93727,-1.91694 1.46435,-1.13486c0.03253,-0.00107 0.066,-0.00173 0.10042,-0.00196c0,0 0.3649,0 0.3649,0.3649c0,0.09369 -0.02405,0.16332 -0.05981,0.21508c0.04603,-0.02095 0.09717,-0.03263 0.15104,-0.03263c0.17366,0 0.31898,0.12131 0.35586,0.28381l0.08937,0.35749l-0.02473,0.00618l0.03289,0.03774c0.00021,0.04536 -0.00015,0.09079 -0.00106,0.13631c0.31155,0.21274 0.69849,0.61205 0.91871,0.41178c1.58437,-1.44086 -1.17922,-4.347 -2.20147,-5.11925c-0.53227,-0.26352 -1.13829,-0.52968 -1.74543,-0.63185c0.01357,0.03915 0.02154,0.0851 0.02154,0.139c0,0.3649 -0.3649,0.3649 -0.3649,0.3649c-1.21299,0 -3.16686,0.02154 -4.61883,0.62417c0.43186,0.91695 0.51369,1.61655 0.51369,2.65994c0,0 0,0.2152 -0.16526,0.31507l-0.02278,0.11387c-0.00755,0.05355 -0.01375,0.1132 -0.01895,0.17798c0.08092,0.30377 0.03258,0.77638 -0.05168,1.29462c-0.02735,0.5361 -0.08523,1.07285 -0.2459,1.41439c-0.07483,0.50869 -0.10048,0.95063 0.02067,1.19693c0.62292,1.26645 3.58086,0.95767 4.63569,0.96341c1.69121,-0.42622 2.5888,-2.3559 2.60156,-3.96109l-0.08101,-0.32403c-0.0008,-0.00293 -0.00157,-0.00589 -0.0023,-0.00885c-0.13725,0.30197 -0.42543,0.31815 -0.68542,0.19748zM240.41859,175.16122c-0.02614,-0.04818 -0.04276,-0.10943 -0.04276,-0.1873c0,-0.3649 0.3649,-0.3649 0.3649,-0.3649h0.09123c0.92446,0.00785 1.83976,0.3733 2.65493,0.7843c1.33415,0.99433 4.59351,4.76801 2.17735,6.37514c-0.57087,0.37972 -1.03638,0.19621 -1.36008,-0.19431c-0.29583,1.72142 -1.37764,3.35493 -3.15395,3.79673c-1.4958,0.00691 -4.54967,0.2788 -5.3991,-1.40845c-0.11473,-0.2279 -0.14927,-0.54774 -0.14227,-0.89853c-0.90237,0.18574 -2.09996,-0.44315 -2.14037,-1.19823c0.17455,-1.37562 0.02036,-3.0739 0.65767,-4.33028c1.03121,-2.03292 4.15009,-2.3363 6.29244,-2.37414z" fill="#000000"/><path d="M243.54311,180.34792c0.00073,0.00296 0.07386,0.01535 0.07467,0.01828l0.08021,0.32819c-0.01276,1.60519 -0.94574,3.56242 -2.63695,3.98864c-1.05482,-0.00574 -4.04141,0.28913 -4.66433,-0.97731c-0.12115,-0.2463 -0.0991,-0.6938 -0.02428,-1.20249c0.16067,-0.34154 0.21531,-0.88692 0.24266,-1.42302c0.08426,-0.51824 0.13169,-1.00134 0.05077,-1.30511c0.0052,-0.06478 0.01152,-0.12593 0.01907,-0.17947l0.02288,-0.11483c0.16526,-0.09987 0.16573,-0.3179 0.16573,-0.3179c0,-1.04339 -0.07523,-1.75758 -0.50709,-2.67452c1.45196,-0.60263 3.43455,-0.63869 4.64754,-0.63869c0,0 0.36789,0.00009 0.36789,-0.36481c0,-0.0539 -0.0082,-0.09986 -0.02178,-0.13901c0.60714,0.10217 1.22738,0.37221 1.75965,0.63574c1.02224,0.77226 3.80462,3.72012 2.22024,5.16098c-0.22023,0.20027 -0.67819,-0.21568 -0.98974,-0.42842c0.00091,-0.0455 0.001,-0.08952 0.00079,-0.13488l-0.03294,-0.03739l0.02471,-0.00607l-0.08976,-0.35368c-0.03688,-0.1625 -0.1822,-0.28042 -0.35587,-0.28042c-0.05387,0 -0.10503,0.01133 -0.15105,0.03228c0.03576,-0.05176 0.06002,-0.11861 0.06002,-0.21231c0,-0.3649 -0.36378,-0.35912 -0.36378,-0.35912c-0.03442,0.00023 -0.06778,0.00126 -0.10032,0.00233c-0.52708,-0.78208 -2.14923,0.32181 -1.39724,1.14204c0.38529,0.42026 0.65249,0.28877 0.91398,0.03313c0.25999,0.12067 0.54707,0.10982 0.68432,-0.19215z" data-paper-data="{&quot;noHover&quot;:false,&quot;origItem&quot;:[&quot;Path&quot;,{&quot;applyMatrix&quot;:true,&quot;segments&quot;:[[[243.96528,180.7537],[0.35624,0.16534],[-0.3583,0.35028]],[[242.62087,180.6708],[0.52794,0.57585],[-1.0304,-1.12391]],[[244.62737,179.11578],[-0.72222,-1.07163],[0.04458,-0.00147]],[[244.76497,179.11309],[-0.04716,0.00031],[0,0]],[[245.26497,179.61309],[0,-0.5],[0,0.12838]],[[245.18301,179.9078],[0.049,-0.07092],[0.06307,-0.02871]],[[245.38997,179.86309],[-0.07381,0],[0.23795,0]],[[245.87758,180.25197],[-0.05053,-0.22266],[0,0]],[246.00004,180.74182],[245.96616,180.7503],[[246.01122,180.802],[0,0],[0.00029,0.06215]],[[246.00978,180.98877],[0.00125,-0.06235],[0.4269,0.2915]],[[247.26862,181.55299],[-0.30176,0.27442],[2.17096,-1.97432]],[[244.25211,174.53842],[1.40071,1.05817],[-0.72933,-0.36109]],[[241.86046,173.67264],[0.83192,0.13999],[0.0186,0.05365]],[[241.88997,173.86309],[0,-0.07386],[0,0.5]],[[241.38997,174.36309],[0,0],[-1.66208,0]],[[235.0611,175.21835],[1.98953,-0.82574],[0.59175,1.25643]],[[235.76497,178.86309],[0,-1.42969],[0,0]],[[235.53853,179.29481],[0.22644,-0.13685],[0,0]],[[235.50732,179.45084],[0,0],[-0.01035,0.07337]],[[235.48135,179.69472],[0.00713,-0.08877],[0.11088,0.41624]],[[235.41053,181.46864],[0.11546,-0.71011],[-0.03748,0.73458]],[[235.07359,183.40668],[0.22016,-0.46799],[-0.10253,0.69702]],[[235.10191,185.04675],[-0.166,-0.33749],[0.85355,1.73533]],[[241.45388,186.36684],[-1.44535,-0.00786],[2.31735,-0.58402]],[[245.01862,180.93923],[-0.01748,2.19948],[0,0]],[[244.90762,180.49524],[0,0],[-0.0011,-0.00402]],[[244.90447,180.48311],[0.001,0.00406],[-0.18807,0.41377]]],&quot;closed&quot;:true}]}" fill="#ffffff"/><path d="M239.20051,180.79508c0.36787,-0.51553 1.56176,-0.70815 1.92929,-0.69382c0.39842,0.28404 1.37656,0.94394 0.78121,1.60768c-0.23197,0.25861 -1.28548,-0.31593 -1.03983,-0.07029c0.43209,0.43209 -0.25231,1.28085 -0.79989,1.15961c-0.28018,-0.06203 -0.14484,-0.86717 -0.16534,-1.07941c-0.02725,0.00477 -0.05422,0.00893 -0.08084,0.01233c-0.18946,0.28734 -0.54557,0.78836 -0.96672,-0.03657c-0.18996,-0.37208 0.01495,-0.67594 0.34212,-0.89953z" fill="#000000"/><path d="M237.54784,180.17376c0,-0.20153 0.16337,-0.3649 0.3649,-0.3649c0.20153,0 0.3649,0.16337 0.3649,0.3649c0,0.20153 -0.16337,0.3649 -0.3649,0.3649c-0.20153,0 -0.3649,-0.16337 -0.3649,-0.3649z" fill="#000000"/></g><path d="M226.88477,180c0,-7.24336 5.8719,-13.11525 13.11525,-13.11525c7.24336,0 13.11525,5.8719 13.11525,13.11525c0,7.24336 -5.8719,13.11525 -13.11525,13.11525c-7.24336,0 -13.11525,-5.8719 -13.11525,-13.11525z" fill="none" stroke="none" stroke-width="0"/><path d="M240.05973,172.50365z" fill="#0064d6" stroke="#002ea9" stroke-width="5"/></g></g></svg>