<svg version="1.1" xmlns="http://www.w3.org/2000/svg" xmlns:xlink="http://www.w3.org/1999/xlink" width="105.02375" height="109.09068" viewBox="0,0,105.02375,109.09068"><g transform="translate(-185.20562,-126.88933)"><g data-paper-data="{&quot;isPaintingLayer&quot;:true}" fill-rule="nonzero" stroke="none" stroke-width="0.5" stroke-linecap="butt" stroke-linejoin="miter" stroke-miterlimit="10" stroke-dasharray="" stroke-dashoffset="0" style="mix-blend-mode: normal"><path d="M248.241,213.15724c-0.62453,-1.89048 -1.32974,-3.74524 -1.80242,-5.68559l-0.3603,-1.09208c0,0 -0.39727,-1.18543 -1.58312,-0.79014c-1.18586,0.39529 -0.79209,1.58141 -0.79209,1.58141l0.29034,0.8092c0.50609,1.98265 1.25492,3.96426 1.88216,5.8926c-4.1358,1.21814 -8.1762,2.18081 -12.67417,2.30607l-0.02308,-0.94887c-0.16833,-0.04164 -0.33697,-0.08342 -0.50475,-0.12517c-0.09826,-3.36682 -0.21794,-6.71697 -0.21794,-9.9959l-0.00008,-0.33334c0,0 -0.00225,-1.25046 -1.25225,-1.25046c-1.25,0 -1.25139,1.24966 -1.25139,1.24966l0.02463,0.23642c0,3.06977 0.08756,6.30557 0.18667,9.46295c-3.28331,-0.83008 -6.49761,-1.64981 -9.72288,-2.32274c0.16772,-1.02265 0.37481,-2.04768 0.63205,-3.07664l0.33302,-1.33348c0,0 0.30142,-1.21355 -0.91126,-1.51672c-1.21268,-0.30317 -1.46822,0.82158 -1.46822,0.82158l-0.33372,1.33312c-0.26785,1.07139 -0.53164,2.22609 -0.70705,3.29c-3.73947,-0.68286 -7.5518,-1.13781 -11.57526,-1.15418c0.62668,-1.66315 1.27188,-3.32228 1.6307,-5.04697c0.1682,-0.80849 0.61597,-1.81244 0.12376,-2.47553c-0.43771,-0.58967 -3.74635,-0.53748 -4.64987,-0.77053c-3.70382,-1.15904 -7.71525,-2.11324 -11.599,-2.38469c-0.97566,-0.0682 -1.97309,0.27771 -2.93327,0.09165c-0.63985,-0.12399 -0.29174,-5.37397 -0.31768,-5.77604c-0.06864,-1.06402 -0.11886,-2.13537 -0.16865,-3.20495c2.92245,-0.0941 5.92827,-0.35102 8.84758,-0.50221l-0.00025,0.59336c0,1.13889 -0.00148,2.27475 -0.00148,3.41364c-1.47222,0 -3.03365,0.04516 -4.50586,0.04516c0,0 -1.16011,-0.04382 -1.16011,1.20618c0,1.25 1.24925,1.24855 1.24925,1.24855c3.77778,0 8.21855,-0.00584 11.99633,-0.00584c0,0 1.169,0.05864 1.169,-1.19136c0,-1.25 -1.25124,-1.25181 -1.25124,-1.25181l-0.66691,-0.00038c-1.47222,0 -2.94585,-0.00231 -4.41807,-0.00231c0,-1.26329 -0.00193,-2.92533 -0.00193,-4.12248c0.91545,-0.03013 1.92221,-0.09115 2.84025,-0.09101c1.7881,0.00027 5.67416,0.80354 7.12942,-0.65173c0.83642,-0.83642 0.69074,-2.50193 0.69737,-3.55442c0,-1.95198 0.3367,-3.98663 0.32405,-5.88537c-0.00319,-0.47904 0.07716,-1.04326 0.01209,-1.53097c5.67754,-1.77463 11.36325,-4.88873 16.6351,-7.49449l-0.22578,0.1327c0,0 0.81058,-0.0039 1.12654,-0.65584c0.18517,0.18245 0.46143,0.31931 0.87398,0.31931c1.25,0 1.25249,-1.25859 1.25249,-1.25859c0,-0.03017 0.00017,-0.06084 0.00013,-0.09108l0.26424,-0.00268c2.44039,0.6101 4.92302,0.1178 7.4082,0.30589c0.72159,0.05462 1.50513,0.54469 2.18533,0.29772c0.77796,-0.28246 1.36274,-0.89975 1.72612,-1.64336c0.93159,-1.90637 0.08101,-6.19848 0.44202,-8.36458c-0.0491,-1.93386 1.94651,-3.62798 -0.69027,-5.22428c-0.66971,-0.40544 -1.55114,0.16767 -2.3327,0.21318c-2.37212,0.13815 -4.65599,0.73108 -7.00953,1.00066c-0.77069,0.08828 -1.61006,-0.22917 -2.32002,0.08345c-0.72329,0.31849 -1.33859,0.95635 -1.67099,1.67336c-0.11359,0.24501 -0.09063,2.8809 -0.08985,3.47434c0.00338,2.55845 -0.26646,5.05978 -0.31276,7.62807c-0.34948,-0.23212 -0.75629,-0.23228 -0.75629,-0.23228l-0.8918,0.13034c-5.34645,2.71016 -11.32266,5.91254 -17.11576,7.56104c0,0 -0.73287,0.20811 -0.89067,0.87196c-1.1644,-0.02715 -2.5658,0.09359 -3.19833,0.09359c-4.59641,0 -9.19307,-0.00208 -13.78948,-0.00208c0.8507,-0.73639 1.70887,-1.46593 2.60806,-2.14112c2.42913,-2.41792 4.99373,-4.77487 7.61719,-6.96794c0.45324,-0.37888 1.07249,-0.58028 1.54532,-0.92541c0.33134,0.18861 0.68561,0.18873 0.68561,0.18873c2.88889,0 5.77819,-0.0024 8.66708,-0.0024c0.65627,0 3.17919,0.06039 3.48614,-0.30778c1.6741,-2.00806 0.7503,-7.03066 0.06726,-9.2633c-0.19751,-0.64558 -0.09186,-1.39065 -0.58007,-1.85693c-0.91055,-0.86964 -2.78263,-0.69921 -3.88234,-0.70169c-2.47067,-0.00557 -5.02797,-0.05021 -7.49866,-0.04986c0.00188,-2.36933 0.00531,-4.74517 -0.00562,-7.11436c-0.00706,-1.52895 -0.55567,-3.05249 -0.3936,-4.57284c0.08231,-0.77214 1.23775,-0.94291 1.87465,-1.38716c1.74518,-1.2173 3.38067,-2.40638 5.06274,-3.71476c2.44288,-1.99855 5.02713,-3.91324 7.37222,-6.02505c0.1213,-0.10923 2.88197,-2.9297 3.28702,-3.11777c1.26583,-0.58771 4.50364,0.07278 5.91368,0.07278c5.40015,0 10.81867,-0.00116 16.21882,-0.00116c0.31081,0.66666 1.13428,0.66685 1.13428,0.66685l0.33371,0.00006c2.18889,-0.01737 4.35524,0.75166 6.52132,0.9924c2.95353,0.32826 6.33418,-0.27569 9.2076,0.313c1.99371,0.40846 3.99333,3.4178 5.02792,4.95238c3.99872,4.80271 8.56229,9.04922 12.68085,13.68415c2.11093,2.37559 5.36723,4.46517 6.80671,7.37933c0.78854,1.59637 0.79906,3.25929 1.2227,4.95385c-0.02817,3.55178 1.07765,6.76084 1.32819,10.27964c0.21684,3.04536 0.00173,6.21602 -0.00901,9.26828c-0.00577,1.63958 -0.21403,3.27692 -0.32703,4.91261c-0.06627,0.95929 0.65396,2.17683 0.00594,2.88725c-0.77121,0.84547 -2.22586,0.56981 -3.28339,1.00709c-3.88916,1.60817 -8.27628,2.7107 -11.36501,5.57719c0.72116,2.08479 1.64112,4.33848 2.45207,6.6238l-0.20804,0.12097c-2.30966,0.57742 -4.23904,1.22106 -6.30288,2.45504c-2.16565,1.08728 -4.37246,2.0444 -6.60285,2.90977c-1.19712,-1.99024 -2.39793,-4.08152 -3.40663,-6.11754l0.13178,-0.10752c0,0 0.05678,-1.16768 -1.19322,-1.16768c-1.25,0 -1.2521,1.25135 -1.2521,1.25135l0.13134,1.22607c0.98529,1.95515 2.08065,3.88556 3.22272,5.79963c-2.8048,1.00974 -5.66275,1.91532 -8.54457,2.80135c-0.97868,0.30089 -1.94282,0.60204 -2.89221,0.8947z" data-paper-data="{&quot;noHover&quot;:false,&quot;origItem&quot;:[&quot;Path&quot;,{&quot;applyMatrix&quot;:true,&quot;segments&quot;:[[[502.23519,424.43006],[-1.95735,0.60179],[5.76364,-1.77205]],[[519.30498,418.8361],[-5.6096,2.01948],[-2.28413,-3.82814]],[[512.85916,407.23706],[1.97058,3.9103],[0,0]],[512.59523,404.78569],[[515.09523,402.28569],[-2.5,0],[2.5,0]],[517.59523,404.78569],[[517.3313,405.00099],[0,0],[2.01741,4.07205]],[[524.03232,417.07056],[-2.39424,-3.98047],[4.46076,-1.73074]],[[537.22554,411.26085],[-4.3313,2.17455],[4.12768,-2.46797]],[[549.82223,406.36034],[-4.61932,1.15483],[0,0]],[[550.23802,406.11876],[0,0],[-1.6219,-4.57063]],[[545.32878,392.87798],[1.44231,4.16957],[6.17745,-5.73297]],[[568.04823,381.74344],[-7.77833,3.21633],[2.11506,-0.87457]],[[574.61357,379.73312],[-1.54242,1.69094],[1.29604,-1.42084]],[[574.60006,373.96368],[-0.13254,1.91858],[0.226,-3.27138]],[[575.25191,364.14776],[-0.01154,3.27916],[0.02149,-6.10452]],[[575.26819,345.62958],[0.43367,6.09072],[-0.50109,-7.03761]],[[572.61396,325.09115],[-0.05635,7.10356],[-0.84728,-3.38912]],[[570.17122,315.19346],[1.57709,3.19274],[-2.87895,-5.82832]],[[556.56574,300.453],[4.22186,4.75118],[-8.23712,-9.26985]],[[531.23078,273.11543],[7.99744,9.60541],[-2.06918,-3.06916]],[[521.18752,263.21882],[3.98742,0.81691],[-5.74685,-1.17736]],[[502.78977,262.6003],[5.90705,0.65651],[-4.33217,-0.48148]],[[489.7619,260.61903],[4.37778,-0.03473],[0,0]],[489.09523,260.61903],[[486.82947,259.28569],[0.62162,1.33333],[-10.8003,0]],[[454.42856,259.28569],[10.8003,0],[-2.82009,0]],[[442.61296,259.13637],[2.53166,-1.17542],[-0.81011,0.37613]],[[436.04748,265.3681],[0.24259,-0.21846],[-4.69017,4.22363]],[[421.32099,277.40665],[4.88577,-3.9971],[-3.36415,2.61677]],[[411.20583,284.82654],[3.49036,-2.43459],[-1.27379,0.88849]],[[407.45991,287.59704],[0.16463,-1.54429],[-0.32415,3.0407]],[[408.25187,296.73658],[-0.01411,-3.0579],[0.02186,4.73838]],[[408.27099,310.95232],[0.00375,-4.73866],[4.94138,-0.0007]],[[423.09523,310.95236],[-4.94135,-0.01114],[2.19942,0.00496]],[[430.863,312.35126],[-1.82109,-1.73929],[0.97643,0.93257]],[[432.18725,316.17936],[-0.39501,-1.29115],[1.36607,4.46528]],[[432.06657,334.67433],[3.34821,-4.01612],[-0.61389,0.73635]],[[425.09523,335.28569],[1.31254,0],[-5.77778,0]],[[407.7619,335.28569],[5.77778,0],[0,0]],[[406.39065,334.90847],[0.66268,0.37722],[-0.94567,0.69026]],[[403.30043,336.75621],[0.90648,-0.75777],[-5.24692,4.38613]],[[388.06657,350.67433],[4.85826,-4.83585],[-1.79839,1.35038]],[[382.85011,354.95236],[1.70139,-1.47278],[9.19282,0]],[[410.42856,354.95236],[-9.19282,0],[1.26506,0]],[[416.62744,354.79494],[-2.3288,-0.0543],[0.3156,-1.3277]],[[418.40843,353.04855],[0,0],[11.5862,-3.29698]],[[452.64386,337.88296],[-10.69291,5.42032],[0,0]],[454.42856,337.61903],[[455.94125,338.08327],[-0.69896,-0.46425],[0.09261,-5.13657]],[[456.59523,322.78569],[0.00675,5.11689],[-0.00156,-1.18689]],[[456.78553,315.82899],[-0.22717,0.49002],[0.6648,-1.43401]],[[460.13852,312.476],[-1.44658,0.63698],[1.41991,-0.62524]],[[464.78977,312.30443],[-1.54139,0.17656],[4.70709,-0.53918]],[[478.84889,310.29786],[-4.74424,0.2763],[1.56311,-0.09103]],[[483.52694,309.87324],[-1.33943,-0.81089],[5.27355,3.19261]],[[484.92005,320.32523],[-0.0982,-3.86773],[-0.72203,4.33219]],[[484.0716,337.07574],[1.86319,-3.81274],[-0.72677,1.48722]],[[480.48636,340.51176],[1.55592,-0.56492],[-1.36041,0.49394]],[[476.18222,339.94019],[1.44318,0.10923],[-4.97035,-0.37618]],[[461.45644,339.26696],[4.88079,1.2202],[0,0]],[[460.92844,339.27115],[0,0],[0.00008,0.06047]],[[460.92856,339.45236],[0,-0.06033],[0,0]],[[458.42856,341.95236],[2.5,0],[-0.82511,0]],[[456.68032,341.31515],[0.37034,0.36489],[-0.63192,1.30388]],[454.42856,342.61903],[[454.87993,342.3551],[0,0],[-10.5437,5.21153]],[[421.6085,357.30855],[11.35508,-3.54927],[0.13014,0.97541]],[[421.58306,360.36537],[-0.00638,-0.95808],[0.0253,3.79749]],[[420.92856,372.11903],[0,-3.90396],[-0.01327,2.10498]],[[419.52967,379.22013],[1.67285,-1.67285],[-2.91053,2.91053]],[[405.09523,380.61903],[3.5762,0.00053],[-1.83609,-0.00027]],[[399.59523,380.71497],[1.8309,-0.06026],[0,2.3943]],[[399.59523,388.95236],[0,-2.52659],[2.94444,0]],[[408.42856,388.95236],[-2.94444,0],[0,0]],[409.7619,388.95236],[[412.2619,391.45236],[0,-2.5],[0,2.5]],[[409.7619,393.95236],[0,0],[-7.55556,0]],[[385.7619,393.95236],[7.55556,0],[0,0]],[[383.2619,391.45236],[0,2.5],[0,-2.5]],[[385.7619,388.95236],[0,0],[2.94444,0]],[[394.59523,388.95236],[-2.94444,0],[0,-2.27778]],[[394.59523,382.11903],[0,2.27778],[0,0]],[[394.59523,380.93121],[0,0],[-5.83863,0.30237]],[[377.08566,381.86133],[5.84489,-0.1882],[0.09957,2.13915]],[[377.42085,388.26594],[-0.13727,-2.12803],[0.05187,0.80413]],[[378.05194,399.80933],[-1.2797,-0.24797],[1.92036,0.37211]],[[383.91724,399.62386],[-1.95132,-0.13639],[7.76749,0.5429]],[[407.10509,404.37897],[-7.40765,-2.31808],[1.80703,0.4661]],[[416.39908,405.91383],[-0.87543,-1.17934],[0.98441,1.32616]],[[416.14885,410.8623],[0.3364,-1.61698],[-0.71762,3.44939]],[[412.88409,420.95329],[1.25335,-3.32629],[8.04692,0.03275]],[[436.01627,423.24942],[-7.47895,-1.36573],[0.35083,-2.12783]],[[437.33654,416.84602],[-0.5357,2.14279],[0,0]],[438.00321,414.17936],[[441.0349,412.36034],[-2.42536,-0.60634],[2.42536,0.60634]],[442.85392,415.39203],[[442.18725,418.0587],[0,0],[-0.51448,2.05793]],[[440.92161,424.21128],[0.33545,-2.0453],[6.45053,1.34587]],[[460.34518,428.84977],[-6.56662,-1.66017],[-0.19822,-6.31478]],[[459.92856,410.11903],[0,6.13955],[0,0]],[459.92856,409.45236],[[462.42856,406.95236],[-2.5,0],[2.5,0]],[464.92856,409.45236],[[464.92856,410.11903],[0,0],[0,6.55786]],[[465.35994,430.11013],[-0.19653,-6.73363],[0.33555,0.08351]],[[466.36824,430.36034],[-0.33665,-0.08328],[0,0]],[[466.4141,432.25804],[0,0],[8.99593,-0.25053]],[[491.73265,427.64697],[-8.27159,2.43629],[-1.25448,-3.85668]],[[488.00321,416.0587],[1.01217,3.96531],[0,0]],[487.39019,414.24293],[[488.97133,411.08065],[-2.37171,0.79057],[2.37171,-0.79057]],[492.13361,412.66179],[[492.85392,414.84602],[0,0],[0.94536,3.88071]],[[496.45776,426.21746],[-1.24906,-3.78095],[1.89877,-0.58533]]],&quot;closed&quot;:true}]}" fill="#000000"/><path d="M251.27624,156.54033l0.60471,0.26919c2.39935,0 4.67324,0.31013 7.06884,0.3321c0.20686,-0.04478 0.45131,-0.03063 0.73336,0.09118c0.21714,0.07732 0.46114,0.2211 0.61775,0.48847c0.16911,0.25965 0.18858,0.54219 0.16064,0.77099c-0.0208,0.37132 -0.15807,0.62281 -0.33448,0.79313c-0.05911,1.96711 -0.76431,3.66783 -1.00549,5.59352c-0.30812,2.46017 -0.24522,4.82829 -1.05829,7.25294c-0.62851,1.87427 -1.93674,3.53019 -2.67665,5.36135c-1.39156,3.44387 -0.92236,7.62175 -0.92236,11.23299c0,0 0,0.05382 -0.01117,0.13913c2.53479,1.22455 5.03304,2.57878 7.74867,3.31941c3.66785,1.00034 7.58576,0.62479 11.34583,0.62479c0,0 1.25,0 1.25,1.25c0,1.25 -1.25,1.25 -1.25,1.25c-3.98924,0 -8.09567,0.35285 -11.9875,-0.70855c-3.56802,-0.97308 -6.75784,-2.92912 -10.13609,-4.37732c-1.72383,-0.73898 -7.07841,-1.79016 -8.01204,-3.64181c-0.51758,-1.0265 0.71286,-4.92242 0.90265,-6.06116c0.79066,-4.74276 1.54356,-9.50511 2.54919,-14.20167c0.58954,-2.75327 1.4338,-4.77706 1.4338,-7.59283l0.39748,-1.39529c0,0 0.39529,-1.18586 1.58114,-0.79057c0.02558,0.00852 0.05041,0.01742 0.07454,0.02666c0.4494,-0.18535 0.92546,-0.02666 0.92546,-0.02666zM251.88095,159.30952l-1.08578,-0.30931c-0.05105,2.85523 -0.88986,5.03379 -1.48638,7.84044c-0.99087,4.66205 -1.74394,9.38439 -2.52819,14.09104c-0.07068,0.42411 -1.12167,4.55446 -1.09735,4.60551c0.34337,0.72084 1.54574,0.40948 2.29603,0.68256c1.33324,0.48525 2.6677,0.97097 3.97778,1.51544c-0.04821,-3.6758 -0.28158,-7.66375 1.08486,-11.10936c0.71779,-1.80999 2.046,-3.45983 2.65669,-5.30532c0.75311,-2.27589 0.65416,-4.44313 0.9417,-6.74706c0.21512,-1.72362 0.86167,-3.24676 0.974,-4.97053c-1.91914,-0.0885 -3.78819,-0.29341 -5.73336,-0.29341z" fill="#00ff6e"/><path d="M275.51745,205.60553c-2.11676,0.52919 -3.81177,1.07831 -5.70166,2.21642c-2.13303,1.06287 -4.29471,2.00561 -6.48326,2.86742c1.32727,2.14489 2.68065,4.27221 3.95362,6.3937c0,0 0.64311,1.07187 -0.42875,1.71499c-1.07187,0.64312 -1.71498,-0.42874 -1.71498,-0.42874c-1.35111,-2.25198 -2.7791,-4.50774 -4.17516,-6.78202c-2.99165,1.09606 -6.03145,2.06932 -9.11497,3.01735c-0.98385,0.30248 -1.9506,0.60344 -2.9065,0.89676c0.21651,0.83498 0.39409,1.6859 0.5079,2.56237c0.31706,2.44176 0.01059,5.19723 0.01059,7.66242c0,0 0,0.65852 -0.47797,1.01962c0.13134,-0.05454 0.26251,-0.10945 0.39351,-0.16477c3.06557,-1.29462 5.95591,-3.4077 9.37795,-3.4321c4.44952,-0.8899 8.0166,-3.28167 12.2129,-5.23771c1.42808,-0.66567 4.83585,-1.83635 5.93522,-2.9672c0.46569,-0.47904 0.11784,-3.81533 0.06447,-4.428c-0.14411,-1.65434 -0.54359,-3.36929 -1.06642,-5.0898zM251.1176,212.21503c2.88182,-0.88602 5.7301,-1.78724 8.5349,-2.79698c-1.14207,-1.91407 -2.23762,-3.84437 -3.22291,-5.79952l-0.13196,-1.22568c0,0 0,-1.25 1.25,-1.25c1.25,0 1.25,1.25 1.25,1.25l-0.13196,0.10765c1.00871,2.03602 2.15339,4.04455 3.35051,6.03478c2.23038,-0.86537 4.43096,-1.81758 6.59661,-2.90485c2.06384,-1.23398 3.98868,-1.87284 6.29834,-2.45025l0.2079,-0.12079c-0.81095,-2.28531 -1.73346,-4.53561 -2.45462,-6.62039c3.08873,-2.86649 7.47056,-3.9591 11.35972,-5.56727c1.05753,-0.43729 2.51146,-0.15969 3.28267,-1.00516c0.64802,-0.71042 -0.07302,-1.92543 -0.00675,-2.88472c0.113,-1.63569 0.32015,-3.26838 0.32592,-4.90796c0.01074,-3.05226 0.22498,-6.21373 0.00814,-9.25909c-0.25054,-3.5188 -1.35529,-6.71743 -1.32711,-10.26921c-0.42364,-1.69456 -0.43283,-3.35247 -1.22137,-4.94885c-1.43948,-2.91416 -4.69181,-4.99464 -6.80274,-7.37023c-4.11856,-4.63493 -8.66876,-8.86608 -12.66748,-13.66878c-1.03459,-1.53458 -3.02792,-4.53985 -5.02163,-4.94831c-2.87342,-0.58868 -6.24535,0.019 -9.19887,-0.30926c-2.16609,-0.24074 -4.32504,-1.008 -6.51393,-0.99063h-0.33334c0,0 -0.82207,-0.00001 -1.13288,-0.66667c-5.40015,0 -10.80031,0 -16.20046,0c-1.41004,0 -4.64197,-0.66237 -5.9078,-0.07466c-0.40506,0.18806 -3.16144,3.00664 -3.28274,3.11587c-2.34509,2.11182 -4.92036,4.02072 -7.36325,6.01927c-1.68207,1.30838 -3.3124,2.49265 -5.05758,3.70995c-0.6369,0.44424 -1.79065,0.6131 -1.87296,1.38525c-0.16207,1.52035 0.38893,3.04082 0.39598,4.56977c0.01093,2.36919 0.01144,4.73854 0.00956,7.10787c2.47069,-0.00035 4.94145,-0.00555 7.41212,0.00002c1.09971,0.00248 2.97334,-0.17019 3.88388,0.69945c0.48821,0.46628 0.46462,1.26847 0.66213,1.91405c0.68303,2.23264 1.61377,7.23943 -0.06034,9.24749c-0.30695,0.36818 -2.8294,0.30568 -3.48567,0.30568c-2.88889,0 -5.77777,0 -8.66666,0c0,0 -0.35429,0 -0.68563,-0.18861c-0.47284,0.34513 -1.09187,0.54498 -1.54511,0.92387c-2.62346,2.19306 -5.1878,4.54113 -7.61693,6.95906c-0.89919,0.67519 -1.75754,1.40263 -2.60823,2.13902c4.59641,0 9.19282,0 13.78923,0c0.63253,0 1.93504,-0.10586 3.09944,-0.07871c0.1578,-0.66385 0.8905,-0.8732 0.8905,-0.8732c5.7931,-1.64849 11.77126,-4.87263 17.11772,-7.58279l0.89235,-0.13197c0,0 0.40687,0 0.75635,0.23212c0.0463,-2.56829 0.33037,-5.09035 0.32699,-7.64879c-0.00078,-0.59345 -0.01844,-3.23334 0.09515,-3.47835c0.3324,-0.71701 0.95321,-1.358 1.6765,-1.67649c0.70996,-0.31262 1.55493,0.0025 2.32562,-0.08578c2.35354,-0.26959 4.65744,-0.86514 7.02956,-1.00329c0.78155,-0.04551 1.66931,-0.61775 2.33903,-0.21231c2.63678,1.59631 0.64745,3.29213 0.69655,5.22599c-0.36102,2.1661 0.50737,6.46889 -0.42423,8.37526c-0.36338,0.74361 -1.01466,1.43555 -1.79262,1.71801c-0.68021,0.24697 -1.43048,-0.23117 -2.15207,-0.28579c-2.48517,-0.18809 -4.92249,0.27348 -7.36289,-0.33661l-0.264,0.00209c0.00004,0.03024 0.00006,0.06044 0.00006,0.09061c0,0 0,1.25 -1.25,1.25c-0.41255,0 -0.68895,-0.13616 -0.87412,-0.3186c-0.31596,0.65194 -1.12588,0.65194 -1.12588,0.65194l0.22568,-0.13197c-5.27185,2.60576 -10.95818,5.70209 -16.63572,7.47673c0.06507,0.48771 -0.01591,1.04937 -0.01272,1.52841c0.01265,1.89874 -0.32725,3.92485 -0.32725,5.87683c-0.00663,1.05249 0.13698,2.71412 -0.69944,3.55055c-1.45526,1.45526 -5.42912,0.69972 -7.21722,0.69945c-0.91805,-0.00014 -1.83455,0.01784 -2.75,0.04797c0,1.19715 0,2.8554 0,4.1187c1.47222,0 2.94445,0 4.41666,0h0.66667c0,0 1.25,0 1.25,1.25c0,1.25 -1.25,1.25 -1.25,1.25c-3.77778,0 -8.22222,0 -12,0c0,0 -1.25,0 -1.25,-1.25c0,-1.25 1.25,-1.25 1.25,-1.25c1.47222,0 2.94445,0 4.41666,0c0,-1.13889 0,-2.27777 0,-3.41666v-0.59391c-2.91932,0.15118 -5.83234,0.37096 -8.75478,0.46506c0.04979,1.06957 0.09896,2.13829 0.16759,3.2023c0.02594,0.40206 -0.3243,5.64771 0.31555,5.77169c0.96018,0.18606 1.95699,-0.16093 2.93265,-0.09274c3.88375,0.27145 7.8901,1.21851 11.59393,2.37756c0.90351,0.23305 4.20928,0.17776 4.647,0.76743c0.49221,0.66308 0.04308,1.66574 -0.12512,2.47423c-0.35881,1.72469 -1.0057,3.38235 -1.63238,5.04549c4.02346,0.01638 7.82662,0.4652 11.56609,1.14807c0.17541,-1.06392 0.39228,-2.1303 0.66013,-3.2017l0.33334,-1.33333c0,0 0.30316,-1.21268 1.51584,-0.90951c1.21268,0.30317 0.90951,1.51584 0.90951,1.51584l-0.33334,1.33334c-0.25724,1.02896 -0.4651,2.05364 -0.63282,3.07629c3.22527,0.67293 6.42848,1.48916 9.71179,2.31924c-0.09911,-3.15739 -0.20831,-6.29559 -0.20831,-9.36537v-0.33334c0,0 0,-1.25 1.25,-1.25c1.25,0 1.25,1.25 1.25,1.25v0.33334c0,3.27893 0.11742,6.62874 0.21569,9.99555c0.16778,0.04175 0.33582,0.08346 0.50415,0.1251l0.02293,0.94885c4.49796,-0.12527 8.52348,-1.08739 12.65927,-2.30553c-0.62724,-1.92834 -1.35863,-3.81148 -1.86472,-5.79414l-0.30651,-0.90788c0,0 -0.39529,-1.18586 0.79057,-1.58114c1.18586,-0.39529 1.58114,0.79057 1.58114,0.79057l0.36016,1.09212c0.47268,1.94036 1.17739,3.79524 1.80192,5.68572c0.94939,-0.29266 1.91004,-0.5928 2.88871,-0.8937zM206.21428,212.97618c0,0 -0.30182,0 -0.60884,-0.14831c-0.19451,0.60681 -0.36763,1.21875 -0.50494,1.83921c-0.08292,0.37469 -1.3209,4.27031 -1.15623,4.40194c1.51675,1.21246 4.20937,2.00593 5.9349,3.04103c2.51231,1.50707 4.94914,3.14021 7.41601,4.72476c-0.01566,-4.34693 -0.08728,-8.54425 0.37649,-12.74964c-3.70323,-0.67383 -7.47085,-1.10899 -11.45738,-1.10899zM232.20205,233.28771c1.92161,-0.50376 4.24185,-1.73299 5.54952,-2.2642c3.53958,-1.43787 7.18562,-2.62825 10.72266,-4.06725c-0.08001,0.01293 -0.16648,0.01992 -0.25994,0.01992c-1.25,0 -1.25,-1.25 -1.25,-1.25c0,-2.35252 0.31906,-5.0074 0.0106,-7.33758c-0.09804,-0.74058 -0.24111,-1.46143 -0.41439,-2.16909c-4.49764,1.31866 -8.86746,2.34655 -13.78934,2.41923c0.09902,4.94407 0.0528,9.88366 -0.5691,14.64897zM219.79762,228.05952c0,0 0,0.13802 -0.04586,0.32233c0.2288,0.14044 0.45816,0.27999 0.68813,0.41852c2.50509,1.51116 6.16566,3.91809 9.22944,4.56791c0.74561,-5.29506 0.72756,-10.83425 0.5797,-16.3559c-3.42631,-0.87804 -6.76039,-1.7429 -10.11951,-2.44543c-0.47502,4.43902 -0.33191,8.87432 -0.33191,13.49256zM230.43137,167.14842l0.60231,0.0038c2.42803,0.60701 4.84804,0.01021 7.30378,0.33005c0.46016,0.05993 1.35332,0.5616 1.38864,0.09889c0.19621,-2.57047 -0.18987,-5.03089 0.24244,-7.62475c0.00973,-0.50581 -0.09739,-1.02761 0.02918,-1.51743c0.11865,-0.45919 1.12705,-1.37335 0.66738,-1.25658c-2.54188,0.64573 -5.30294,1.23199 -7.96475,1.45107c-0.6684,0.05501 -1.89772,-0.42542 -1.99788,0.23772c-0.39064,2.58623 -0.32505,5.49818 -0.2711,8.27722zM210.88095,165.14285c1,0 2.01341,-0.16323 3,0c0.19676,0.03256 0.44708,0.49344 0.51433,0.30569c0.30622,-0.85484 -0.09875,-1.81431 -0.09767,-2.72235c0.00118,-0.99069 -0.01415,-4.03793 -0.63389,-4.78278c-0.4512,-0.54229 -1.41066,0.03107 -2.11611,0.03278c-2.47151,0.00601 -4.94311,0.00039 -7.41463,0.00002c-0.00081,0.75 -0.00157,1.5 -0.00203,2.24998c-0.00061,0.98039 0.16337,3.20438 -0.00494,4.91666c2.25164,0 4.5033,0 6.75494,0zM202.54762,187.80952c0.52245,-0.00008 5.08071,0.40152 5.44945,0.03278c0.42028,-0.42028 -0.02807,-1.18843 -0.03278,-1.78278c0,-1.45288 -0.1355,-3.01467 0.00608,-4.4565c0.05537,-0.56384 0.14717,-1.13157 0.33334,-1.66667c0.05322,-0.15296 0.52128,-0.34147 0.36003,-0.32628c-6.55013,0.61727 -13.43215,0.36612 -20.11611,0.36612c0,0 -0.21478,0 -0.46628,-0.08903c-0.18201,0.18123 -0.31783,0.39187 -0.37887,0.65072c-0.15587,0.66107 0.36659,3.92156 0.41713,4.35477c0.13704,1.17464 0.22674,2.35708 0.29648,3.54211c4.71319,-0.14551 9.40205,-0.62454 14.13154,-0.62524zM185.88095,190.97618l-0.55055,-2.46722c0,0 0.2393,-0.2393 0.5934,-0.34436c-0.07806,-1.00268 -0.17246,-1.99877 -0.28734,-2.98207c-0.1781,-1.52445 -0.71075,-4.11012 -0.24369,-5.60137c0.66154,-2.11219 5.30469,-4.86078 7.00252,-6.13263c2.4071,-2.41994 5.01999,-4.96203 7.7164,-7.04094c0.39291,-0.30293 1.03185,-0.24841 1.34818,-0.63062c0.43338,-0.52364 0.17158,-4.77913 0.17109,-5.55079c-0.00253,-3.94914 0.00948,-7.8984 -0.005,-11.84752c-0.0066,-1.79925 -0.69393,-3.64516 -0.26068,-5.39148c0.56253,-2.26743 5.94122,-4.8422 7.73613,-6.23813c2.40383,-1.96695 4.94236,-3.84274 7.24884,-5.92225c1.04795,-0.94483 2.82142,-3.05096 4.10517,-3.60928c1.59109,-0.69199 5.03525,-0.07467 6.75887,-0.07467c5.77778,0 11.55555,0 17.33334,0c0,0 0.84931,0.00001 1.14778,0.70008c2.02495,0.14901 3.9906,0.7522 6.00495,0.97596c3.01291,0.33468 6.54156,-0.32539 9.46779,0.35741c2.69281,0.62833 4.9813,3.73646 6.44411,5.87725c3.95606,4.74298 8.45829,8.92277 12.53344,13.50566c2.31374,2.60201 5.59186,4.78257 7.19727,7.96311c0.92503,1.83262 0.9601,3.77704 1.44529,5.71782c0.02259,3.5842 1.08432,6.83457 1.33956,10.39745c0.22255,3.10652 0.01206,6.33276 -0.00187,9.44632c-0.00961,2.14928 0.48527,7.71936 -1.00416,9.50191c-0.94845,1.13511 -2.77465,1.02849 -4.14083,1.59557c-3.24079,1.3452 -6.48325,2.92711 -9.88344,3.832c1.35767,1.3749 2.12959,5.04452 2.70559,6.92126c0.93349,3.04149 3.37985,9.60368 1.0529,12.57371c-1.17919,1.50508 -5.12678,2.87519 -6.82905,3.66877c-4.48273,2.08981 -8.23314,4.50171 -13.02283,5.45965c-3.09744,-0.0248 -5.84088,2.05989 -8.62205,3.23457c-4.59035,1.93882 -9.38707,3.69406 -14.08396,5.36652c-1.86222,0.6631 -4.23893,1.90492 -6.2697,1.72443c-3.49165,-0.31034 -7.95619,-3.26222 -10.87858,-5.02047c-3.56821,-2.14976 -6.9862,-4.54646 -10.55662,-6.68786c-1.67104,-1.00223 -5.64037,-2.33399 -6.77558,-3.87061c-0.64733,-0.87624 -0.04295,-2.70667 0.18397,-3.627c0.65708,-2.66488 1.55684,-5.1299 2.35281,-7.73604c0.04701,-0.15393 0.63948,-2.7811 1.20712,-4.0115c-0.80581,-0.00236 -2.05218,-0.25805 -2.68552,-0.41259c-3.53689,-1.10523 -7.36366,-2.03523 -11.07274,-2.28911c-0.23602,-0.01615 -3.44458,0.05426 -3.73401,-0.09274c-2.39135,-1.21456 -1.74215,-3.33649 -1.78177,-5.47992c-0.035,-1.89336 -0.08706,-3.82742 -0.18496,-5.75861c-0.07386,0.00023 -0.14771,0.00035 -0.22158,0.00035z" fill="#00ff6e"/><path d="M275.94245,205.39431c0.52283,1.72051 0.93023,3.4488 1.07434,5.10314c0.05337,0.61267 0.40463,3.96343 -0.06106,4.44247c-1.09936,1.13085 -4.50825,2.31685 -5.93633,2.98252c-4.1963,1.95604 -7.83805,4.37932 -12.28757,5.26923c-3.42204,0.0244 -6.32609,2.12519 -9.39166,3.41982c-0.131,0.05532 -0.26236,0.10999 -0.3937,0.16453c0.47797,-0.36111 0.47704,-1.02089 0.47704,-1.02089c0,-2.46519 0.29775,-5.2424 -0.01931,-7.68416c-0.11381,-0.87647 -0.29187,-1.73666 -0.50838,-2.57164c0.95591,-0.29332 1.92305,-0.59876 2.90689,-0.90124c3.08352,-0.94804 6.15192,-1.96013 9.14357,-3.05618c1.39606,2.27427 2.87884,4.61225 4.22995,6.86423c0,0 0.56856,1.00606 1.64042,0.36293c1.07187,-0.64312 0.42082,-1.69744 0.42082,-1.69744c-1.27297,-2.12149 -2.57502,-4.28729 -3.90229,-6.43219c2.18855,-0.86181 4.37926,-1.7933 6.51229,-2.85617c1.88988,-1.13811 3.59149,-1.68071 5.70825,-2.2099z" data-paper-data="{&quot;noHover&quot;:false,&quot;origItem&quot;:[&quot;Path&quot;,{&quot;applyMatrix&quot;:true,&quot;segments&quot;:[[[551.0349,411.21105],[0,0],[-4.23352,1.05838]],[[539.63159,415.64388],[3.77977,-2.27622],[-4.26606,2.12575]],[[526.66506,421.37872],[4.3771,-1.72362],[2.65455,4.28979]],[[534.5723,434.16612],[-2.54594,-4.24297],[0,0]],[[533.7148,437.59609],[2.14373,-1.28624],[-2.14373,1.28624]],[[530.28483,436.7386],[0,0],[-2.70221,-4.50396]],[[521.93452,423.17457],[2.79212,4.54854],[-5.98329,2.19211]],[[503.70458,429.20928],[6.16703,-1.89607],[-1.96769,0.60497]],[[497.89158,431.00279],[1.91181,-0.58663],[0.43301,1.66997]],[[498.90737,436.12753],[-0.22762,-1.75294],[0.63412,4.88351]],[[498.92856,451.45236],[0,-4.93038],[0,0]],[[497.97263,453.49161],[0.95594,-0.72221],[0.26268,-0.10908]],[[498.75964,453.16206],[-0.26199,0.11064],[6.13115,-2.58925]],[[517.51555,446.29786],[-6.84409,0.0488],[8.89903,-1.77981]],[[541.94135,435.82244],[-8.39261,3.91208],[2.85616,-1.33135]],[[553.81179,429.88804],[-2.19873,2.2617],[0.93139,-0.95807]],[[553.94073,421.03204],[0.10674,1.22534],[-0.28822,-3.30868]],[[551.8079,410.85244],[1.04565,3.44102],[0,0]]],&quot;closed&quot;:true}]}" fill="#000000"/><path d="M232.73227,218.60731c4.92189,-0.07268 9.36005,-1.10955 13.85768,-2.42821c0.17328,0.70766 0.32298,1.43431 0.42102,2.17489c0.30846,2.33019 0.00278,5.02693 0.00278,7.37945c0,0 -0.00134,1.25632 1.24866,1.25632c0.09346,0 0.18008,-0.0075 0.26009,-0.02043c-3.53704,1.439 -7.25041,2.66254 -10.78999,4.10041c-1.30766,0.53121 -3.64335,1.75039 -5.56495,2.25416c0.6219,-4.76531 0.66373,-9.77251 0.56472,-14.71658z" data-paper-data="{&quot;noHover&quot;:false,&quot;origItem&quot;:[&quot;Path&quot;,{&quot;applyMatrix&quot;:true,&quot;segments&quot;:[[[464.4041,466.57541],[1.24381,-9.53062],[3.84322,-1.00753]],[[475.50314,462.04702],[-2.61533,1.06242],[7.07915,-2.87575]],[[496.94845,453.91252],[-7.07408,2.87799],[-0.16002,0.02586]],[[496.42856,453.95236],[0.18692,0],[-2.5,0]],[[493.92856,451.45236],[0,0],[0,-4.70503]],[[493.94976,436.77719],[0.61691,4.66037],[-0.19607,-1.48115]],[[493.12099,432.439],[0.34656,1.41532],[-8.99527,2.63732]],[[465.54231,437.27747],[9.84377,-0.14536],[0.19803,9.88815]]],&quot;closed&quot;:true}]}" fill="#000000"/><path d="M220.10638,214.52264c3.35912,0.70253 6.74632,1.57168 10.17263,2.44973c0.14786,5.52165 0.15802,11.14571 -0.58759,16.44078c-3.06378,-0.64982 -6.78092,-3.06539 -9.28601,-4.57655c-0.22997,-0.13853 -0.46323,-0.28226 -0.69204,-0.42271c0.04586,-0.18431 0.04483,-0.32361 0.04483,-0.32361c0,-4.61824 -0.12684,-9.12861 0.34818,-13.56764z" data-paper-data="{&quot;noHover&quot;:false,&quot;origItem&quot;:[&quot;Path&quot;,{&quot;applyMatrix&quot;:true,&quot;segments&quot;:[[[439.59523,456.11903],[0,-9.23648],[0,0]],[[439.50351,456.76369],[0.09172,-0.36862],[0.45761,0.28089]],[[440.87977,457.60074],[-0.45995,-0.27706],[5.01018,3.02232]],[[459.33866,466.73656],[-6.12756,-1.29965],[1.49123,-10.59013]],[[460.49807,434.02477],[0.29572,11.0433],[-6.85263,-1.75609]],[[440.25906,429.13391],[6.71824,1.40505],[-0.95003,8.87805]]],&quot;closed&quot;:true}]}" fill="#000000"/><path d="M217.71002,214.0531c-0.46376,4.20539 -0.3965,8.47144 -0.38084,12.81838c-2.46687,-1.58455 -4.95643,-3.208 -7.46874,-4.71508c-1.72554,-1.0351 -4.44911,-1.88045 -5.96586,-3.09291c-0.16467,-0.13163 1.08596,-4.05529 1.16888,-4.42998c0.13731,-0.62046 0.31769,-1.23899 0.5122,-1.8458c0.30703,0.14831 0.61083,0.14691 0.61083,0.14691c3.98653,0 7.82031,0.44464 11.52354,1.11847z" data-paper-data="{&quot;noHover&quot;:false,&quot;origItem&quot;:[&quot;Path&quot;,{&quot;applyMatrix&quot;:true,&quot;segments&quot;:[[[412.42856,425.95236],[7.97306,0],[0,0]],[[411.21088,425.65574],[0.61405,0.29662],[-0.38903,1.21362]],[[410.20099,429.33416],[0.27462,-1.24092],[-0.16584,0.74938]],[[407.88853,438.13803],[-0.32934,-0.26326],[3.0335,2.42491]],[[419.75834,444.22009],[-3.45107,-2.07021],[5.02462,3.01415]],[[434.59035,453.66962],[-4.93373,-3.1691],[-0.03131,-8.69386]],[[435.34333,428.17035],[-0.92753,8.41077],[-7.40646,-1.34767]]],&quot;closed&quot;:true}]}" fill="#000000"/><path d="M230.66223,158.84152c0.10017,-0.66314 1.33968,-0.193 2.00807,-0.24801c2.66181,-0.21908 5.48754,-0.80146 8.02942,-1.44718c0.45967,-0.11677 -0.54646,0.79972 -0.66511,1.25891c-0.12656,0.48981 -0.01299,1.02045 -0.02271,1.52626c-0.43231,2.59386 -0.05811,5.11803 -0.25432,7.6885c-0.03532,0.46271 -0.93589,-0.03398 -1.39606,-0.09391c-2.45574,-0.31984 -4.93468,0.26896 -7.36272,-0.33805l-0.60448,-0.00604c-0.05396,-2.77903 -0.12274,-5.75424 0.2679,-8.34047z" data-paper-data="{&quot;noHover&quot;:false,&quot;origItem&quot;:[&quot;Path&quot;,{&quot;applyMatrix&quot;:true,&quot;segments&quot;:[[[460.86274,334.29683],[-0.10792,-5.55807],[0,0]],[[462.06736,334.30443],[0,0],[4.85607,1.21402]],[[476.67491,334.96453],[-4.91147,-0.63969],[0.92033,0.11987]],[[479.4522,335.16232],[-0.07064,0.92542],[0.39242,-5.14095]],[[479.93708,319.91283],[-0.86462,5.18772],[0.01945,-1.01162]],[[479.99544,316.87798],[-0.25313,0.97963],[0.2373,-0.91838]],[[481.33019,314.36482],[0.91934,-0.23355],[-5.08375,1.29146]],[[465.40069,317.26696],[5.32363,-0.43816],[-1.33679,0.11002]],[[461.40493,317.7424],[0.20033,-1.32627],[-0.78128,5.17247]]],&quot;closed&quot;:true}]}" fill="#000000"/><path d="M204.0847,165.17102c0.16831,-1.71229 -0.00269,-3.97726 -0.00208,-4.95765c0.00046,-0.74998 0.00858,-1.51582 0.00939,-2.26582c2.47153,0.00037 5.0103,-0.00794 7.4818,-0.01395c0.70546,-0.00171 1.67697,-0.56469 2.12817,-0.0224c0.61974,0.74486 0.64559,3.83531 0.64441,4.826c-0.00108,0.90804 0.39496,1.88669 0.08874,2.74153c-0.06725,0.18776 -0.31792,-0.27267 -0.51469,-0.30523c-0.98659,-0.16323 -2.01931,0.01509 -3.01931,0.01509c-2.25164,0 -4.5648,-0.01757 -6.81644,-0.01757z" data-paper-data="{&quot;noHover&quot;:false,&quot;origItem&quot;:[&quot;Path&quot;,{&quot;applyMatrix&quot;:true,&quot;segments&quot;:[[[421.7619,330.28569],[-4.50329,0],[2,0]],[[427.7619,330.28569],[-1.97318,-0.32645],[0.39353,0.06511]],[[428.79056,330.89706],[-0.13451,0.37551],[0.61244,-1.70968]],[[428.59523,325.45236],[-0.00217,1.81607],[0.00237,-1.98138]],[[427.32746,315.88679],[1.23948,1.48971],[-0.90241,-1.08459]],[[423.09523,315.95236],[1.41091,-0.00343],[-4.94301,0.01203]],[[408.26597,315.9524],[4.94305,0.00075],[-0.00162,1.50001]],[[408.2619,320.45236],[0.00093,-1.49996],[-0.00121,1.96079]],[[408.25202,330.28569],[0.33662,-3.42457],[4.50329,0]]],&quot;closed&quot;:true}]}" fill="#000000"/><path d="M188.37051,188.45534c-0.06974,-1.18503 -0.16369,-2.38375 -0.30073,-3.5584c-0.05054,-0.43321 -0.57064,-3.71378 -0.41477,-4.37484c0.06104,-0.25885 0.19803,-0.47266 0.38004,-0.65389c0.25151,0.08903 0.46646,0.08862 0.46646,0.08862c6.68396,0 13.65817,0.2511 20.2083,-0.36616c0.16125,-0.0152 -0.30653,0.17399 -0.35975,0.32696c-0.18616,0.5351 -0.27579,1.10955 -0.33116,1.67339c-0.14158,1.44183 -0.00567,3.02583 -0.00567,4.4787c0.00472,0.59435 0.4507,1.37045 0.03043,1.79073c-0.36874,0.36874 -4.93584,-0.01822 -5.45829,-0.01815c-4.72949,0.0007 -9.50168,0.46753 -14.21486,0.61304z" data-paper-data="{&quot;noHover&quot;:false,&quot;origItem&quot;:[&quot;Path&quot;,{&quot;applyMatrix&quot;:true,&quot;segments&quot;:[[[405.09523,375.61903],[-9.45898,0.00139],[1.0449,-0.00015]],[[415.99413,375.68459],[-0.73748,0.73748],[0.84055,-0.84055]],[[415.92856,372.11903],[0.00943,1.18869],[0,-2.90575]],[[415.94073,363.20602],[-0.28317,2.88366],[0.11074,-1.12769]],[[416.6074,359.87268],[-0.37233,1.0702],[0.10644,-0.30593]],[[417.32746,359.22013],[0.32249,-0.03039],[-13.10025,1.23453]],[[377.09523,359.95236],[13.36792,0],[0,0]],[[376.16266,359.7743],[0.50301,0.17806],[-0.36402,0.36245]],[[375.40493,361.07574],[0.12207,-0.51769],[-0.31174,1.32213]],[[376.23919,369.78528],[-0.10108,-0.86643],[0.27408,2.34929]],[[376.83215,376.86951],[-0.13948,-2.37006],[9.42637,-0.29102]]],&quot;closed&quot;:true}]}" fill="#000000"/></g></g></svg>