<svg version="1.1" xmlns="http://www.w3.org/2000/svg" xmlns:xlink="http://www.w3.org/1999/xlink" width="26.2305" height="26.2305" viewBox="0,0,26.2305,26.2305"><defs><linearGradient x1="240.00002" y1="174.46572" x2="240.00002" y2="185.53429" gradientUnits="userSpaceOnUse" id="color-1"><stop offset="0" stop-color="#0064d6"/><stop offset="1" stop-color="#001ad6"/></linearGradient></defs><g transform="translate(-226.88475,-166.88475)"><g data-paper-data="{&quot;isPaintingLayer&quot;:true}" fill-rule="nonzero" stroke-linejoin="miter" stroke-miterlimit="10" stroke-dasharray="" stroke-dashoffset="0" style="mix-blend-mode: normal"><path d="M234.46573,180c0,-3.0565 2.47778,-5.24769 5.53428,-5.24769c3.0565,0 5.53429,2.19119 5.53429,5.24769c0,3.0565 -2.47779,5.53429 -5.53429,5.53429c-3.0565,0 -5.53428,-2.47779 -5.53428,-5.53429z" fill="url(#color-1)" stroke="#002ea9" stroke-width="0.5" stroke-linecap="butt"/><path d="M242.83516,175.82918c0.41176,0.24735 0.87384,0.99553 0.2619,1.32498c-0.53617,0.01773 -0.98092,-0.25667 -1.33425,-0.8232c0.05467,-0.36166 0.24727,-0.56744 0.57781,-0.61733c0.11288,-0.01651 0.27772,0.022 0.49454,0.11556z" fill="#2e00ad" stroke="none" stroke-width="0.5" stroke-linecap="butt"/><path d="M244.10796,177.84235c-0.11948,0.00449 -0.23383,-0.01949 -0.34304,-0.07196c-0.1777,-0.22038 -0.16216,-0.40305 0.04662,-0.548c0.12665,-0.08816 0.29946,-0.06624 0.40011,0.05074c0.17456,0.20236 0.14,0.39211 -0.10369,0.56922z" fill="#2e00ad" stroke="none" stroke-width="1" stroke-linecap="butt"/><path d="M241.44584,179.53961c0.43642,-0.38391 1.31744,-1.13698 1.77847,-1.12221c0.09456,0.00362 0.17655,0.06649 0.20458,0.15686c0.02804,0.09038 -0.00398,0.1886 -0.07989,0.2451l-0.83181,0.61361c-0.02419,0.01796 -0.03804,0.04665 -0.03706,0.07676c0.00099,0.03012 0.01667,0.05783 0.04198,0.07418l0.24446,0.16407c0.18048,0.15422 0.64642,0.51846 0.50696,0.78916c-0.04083,0.07844 -0.11215,0.13661 -0.1972,0.16082c-0.08504,0.02422 -0.17631,0.01234 -0.25233,-0.03284c-0.56001,-0.33142 -1.01939,-0.70659 -1.37815,-1.1255z" data-paper-data="{&quot;index&quot;:null}" fill="#e4e9ff" stroke="none" stroke-width="1" stroke-linecap="butt"/><path d="M237.59362,179.38027c0.37954,0.03391 0.64205,0.24774 0.78752,0.6415c0.03281,0.38063 -0.06836,0.67814 -0.30352,0.89252c-0.66939,0.3861 -1.15831,0.21492 -1.46675,-0.51353c-0.0011,-0.73829 0.32649,-1.07846 0.98275,-1.02049z" data-paper-data="{&quot;index&quot;:null}" fill="#e4e9ff" stroke="none" stroke-width="1" stroke-linecap="butt"/><path d="M240.12727,180.63454c0.11649,-0.18704 0.31993,-0.64314 0.49876,-0.74814c0.1575,-0.09297 0.30079,-0.03391 0.42986,0.17719c0.0483,0.07832 0.04767,0.17759 -0.00164,0.25594l-0.72681,1.14682c-0.03747,0.05783 -0.10677,0.08554 -0.17227,0.06891c-0.46103,-0.11485 -0.92697,-0.86626 -1.09268,-1.25838c-0.02021,-0.04686 -0.02481,-0.09919 -0.01313,-0.1493c0.04047,-0.17063 0.13891,-0.23516 0.29532,-0.1936c0.05032,0.01422 0.09242,0.04157 0.12633,0.08204l0.52009,0.62673c0.05032,0.06016 0.09571,0.05743 0.13618,-0.0082z" fill="#e4e9ff" stroke="none" stroke-width="1" stroke-linecap="butt"/><path d="M226.88476,180c0,-7.24336 5.8719,-13.11525 13.11525,-13.11525c7.24336,0 13.11525,5.8719 13.11525,13.11525c0,7.24336 -5.8719,13.11525 -13.11525,13.11525c-7.24336,0 -13.11525,-5.8719 -13.11525,-13.11525z" fill="none" stroke="none" stroke-width="0" stroke-linecap="butt"/><path d="M240.05972,172.50365z" fill="#0064d6" stroke="#002ea9" stroke-width="5" stroke-linecap="butt"/><path d="M241.58001,174.26507l-1.75537,0.46571l-1.75538,-0.32242" fill="none" stroke="#002ea9" stroke-width="0.5" stroke-linecap="round"/><path d="M240.50529,174.12177l-0.7523,0.42989l-0.71648,-0.42989" fill="none" stroke="#002ea9" stroke-width="0.5" stroke-linecap="round"/></g></g></svg>