<svg version="1.1" xmlns="http://www.w3.org/2000/svg" xmlns:xlink="http://www.w3.org/1999/xlink" width="663.10604" height="425.0859" viewBox="0,0,663.10604,425.0859"><defs><linearGradient x1="240.74575" y1="344.84823" x2="240.74575" y2="367.2905" gradientUnits="userSpaceOnUse" id="color-1"><stop offset="0" stop-color="#000000" stop-opacity="0"/><stop offset="1" stop-color="#000000" stop-opacity="0.14516"/></linearGradient></defs><g transform="translate(89.05302,26.54726)"><g data-paper-data="{&quot;isPaintingLayer&quot;:true}" fill-rule="nonzero" stroke-linecap="butt" stroke-linejoin="miter" stroke-miterlimit="10" stroke-dasharray="" stroke-dashoffset="0" style="mix-blend-mode: normal"><g stroke="none" stroke-width="0"><path d="M-81.90564,371.86938v-168.71365h650.55982v168.71365z" fill="#fffeb9"/><path d="M-85.95477,268.5248v-26.99418h660.00779v26.99418z" fill="#fcf2a2"/><path d="M-89.05302,339.66055v-26.99418h660.00778v26.99418z" fill="#fcf2a2"/><path d="M223.61628,364.43391v-293.97078h32.76744v293.97078z" fill="#fceb9f"/><path d="M223.61628,364.43391v-293.97078h32.76744v293.97078z" fill="#fcf2a2"/><path d="M53.76649,389.34312l82.49701,-282.15787l31.45072,9.19552l-82.49701,282.15788z" fill="#fcf2a2"/><path d="M-86.70454,378.7918l122.0261,-267.44804l29.81108,13.60164l-122.02609,267.44804z" fill="#fcf2a2"/><g fill="#fcf2a2"><path d="M394.60011,398.00711l-82.49701,-282.15787l31.45072,-9.19553l82.49701,282.15788z" data-paper-data="{&quot;index&quot;:null}"/><path d="M536.71078,391.8619l-122.02609,-267.44804l29.81108,-13.60164l122.02609,267.44804z" data-paper-data="{&quot;index&quot;:null}"/></g><path d="M-9.35482,130.05067v-156.59792h515.95319v156.59792z" fill="#d2924a"/><path d="M-8.96317,166.71356v-37.79186h516.70387v37.79186z" fill="#ba7518"/><path d="M-13.96347,204.10661v-37.79186h531.31176v37.79186z" fill="#dbae57"/><path d="M-13.27975,176.6806v-11.43105h529v11.43105z" fill="#cfa150"/><path d="M-20.1977,177.8219v-3.06369h541.82319v3.06369z" fill="#fbc488"/><path d="M-3.31399,367.2905v-22.44227h488.11947v22.44227z" fill="url(#color-1)"/></g><g><path d="" fill="none" stroke="#c84930" stroke-width="2"/><path d="M8.51255,137.44374c-0.00612,-13.25314 0.01529,-26.50629 0.06419,-39.75943c0.00917,-2.69637 4.47469,-7.1649 7.28971,-9.68023c6.2077,-5.5547 12.00278,-10.78544 18.21966,-16.75937c2.87309,-2.76306 5.25103,-4.80518 7.13381,-6.12636c3.4477,-2.42324 8.59176,-3.66026 15.43215,-3.71107c22.85635,-0.16198 98.89643,-0.22073 121.74053,-0.17627l30.19702,0.00001c67.41368,0.01271 134.74485,-0.00635 201.9935,-0.05717c6.84956,-0.00476 13.26818,3.45382 17.15601,6.14542c9.68904,6.70438 19.46671,13.37382 29.33302,20.00834c0.8008,0.53673 1.91642,1.05758 3.34685,1.56256c3.91229,1.372 6.64784,3.17434 8.20666,5.40701c0.83748,1.19732 1.24706,3.0076 1.22871,5.43084c-0.07946,12.06534 -0.0489,24.13704 0.0917,36.21509" fill="none" stroke="#e7bc68" stroke-width="2"/><path d="" fill="none" stroke="#6b0c18" stroke-width="2"/><path d="M469.94603,172.89186v-36.94873" fill="none" stroke="#dbae4f" stroke-width="2"/><path d="M470.1111,182.93891l-0.16505,-10.04705" fill="none" stroke="#e5c46b" stroke-width="2"/><path d="M469.98273,186.10689l0.12837,-3.16799" fill="none" stroke="#fbd587" stroke-width="2"/><path d="M471.99998,212.11772c-0.758,0.00318 -1.37237,-0.11115 -1.84306,-0.343c-0.21123,-0.10671 -0.33033,-0.25278 -0.3301,-0.40493l0.15587,-25.26291" fill="none" stroke="#ebca6e" stroke-width="2"/><path d="M470.33116,297.88203c0.30564,-0.49863 0.46459,-1.29101 0.47681,-2.37718c0.15283,-13.95185 0.19561,-27.90528 0.12837,-41.8603c0,-0.00953 0.03973,-0.84321 0.11919,-2.50104c0.36677,-7.95093 -0.21089,-16.72602 0.11919,-28.03549c0.01222,-0.55897 -0.13449,-1.9913 -0.44013,-4.29703c-0.29952,-2.25173 0.12227,-4.48282 1.2654,-6.69326" fill="none" stroke="#fcec94" stroke-width="2"/><path d="M458.09912,273.71004l1.05447,-3.57768c0.03668,-0.13657 0.18951,-0.20484 0.45847,-0.20484c1.00864,-0.00318 1.9103,0.11751 2.70497,0.36206c0.27508,0.08258 0.56239,0.09846 0.86192,0.04764l3.09928,-0.50497c0.31176,-0.04764 0.61434,-0.03811 0.90777,0.02859c0.69076,0.15562 1.38763,0.13657 2.09063,-0.05717c0.21395,-0.05717 0.32094,-0.02223 0.32094,0.1048l0.73356,27.97357" fill="none" stroke="#f9db73" stroke-width="2"/><path d="M458.09912,273.71004c-0.10392,-0.72411 -0.16199,-1.43869 -0.17421,-2.14375c-0.19561,-19.57007 -0.07641,-39.13218 0.3576,-58.68637" fill="none" stroke="#fdf3ac" stroke-width="2"/><path d="M458.28253,212.87995c0.60518,-7.76515 0.83748,-15.54457 0.69688,-23.3383c-0.03668,-2.16281 0.58684,-4.50664 0.63268,-6.78855" fill="none" stroke="#fbea9d" stroke-width="2"/><path d="M459.61209,182.75311l-0.88943,-10.85691" fill="none" stroke="#f7e293" stroke-width="2"/><path d="M458.72265,171.8962c-0.72134,-11.16656 -0.94446,-22.32836 -0.66936,-33.48538" fill="none" stroke="#f2d78a" stroke-width="2"/><path d="M410.63811,93.79222c12.78219,-0.33665 25.52771,-0.45098 38.23655,-0.343c3.39268,0.02859 6.68452,0.49068 9.87547,1.38629c0.42521,0.11966 0.67891,0.35728 0.65102,0.60978c-1.31122,10.61395 -0.4493,21.31364 -0.53183,31.95141c-0.03668,5.00526 -0.3087,8.67663 -0.81607,11.01412" fill="none" stroke="#f6de98" stroke-width="2"/><path d="M410.63811,93.79222c-1.7911,0.04446 -5.88067,0.06669 -12.2687,0.06669c-71.11813,0.01271 -142.23627,0.00476 -213.35442,-0.02382c-3.95507,0 -7.85208,-0.22549 -11.69104,-0.67647c-0.71522,-0.08258 -1.6505,0.03493 -2.80585,0.35253" fill="none" stroke="#fae69d" stroke-width="2"/><path d="M166.94204,93.62548c1.09423,-0.47321 2.28624,-0.51132 3.57609,-0.11433" fill="none" stroke="#fdf3bf" stroke-width="2"/><path d="M166.94204,93.62548c-11.85303,0.26995 -23.86192,0.38111 -36.02672,0.33347c-25.56439,-0.09846 -51.07986,-0.1445 -76.54645,-0.13815" fill="none" stroke="#fae69d" stroke-width="2"/><path d="M23.11029,134.58541c-0.11615,-10.34399 -0.03056,-17.40408 0.25674,-21.18025c0.50737,-6.72979 0.70605,-12.02882 0.596,-15.8971c-0.03056,-1.11475 0.32094,-1.95002 1.05447,-2.5058c0.758,-0.57166 1.76053,-1.01153 3.00757,-1.3196c0.8986,-0.22232 2.13953,-0.33506 3.72279,-0.33823c7.54338,-0.01906 15.08372,0.13974 22.62099,0.47639" fill="none" stroke="#f7e293" stroke-width="2"/><path d="M23.16529,175.31667c-0.89248,-0.4478 -1.34485,-1.03694 -1.35707,-1.7674c-0.32398,-13.65013 -0.37594,-25.74089 -0.15587,-36.27226c0.01834,-0.92419 0.95362,-1.80551 1.45795,-2.6916" fill="none" stroke="#f2d78a" stroke-width="2"/><path d="M22.82601,182.38628l0.33928,-7.06961" fill="none" stroke="#f7e293" stroke-width="2"/><path d="M22.82601,182.38629c-0.10392,1.62925 -0.0489,3.26803 0.16505,4.91633c0.31176,2.34384 0.47069,3.97626 0.47681,4.89728c0.05502,6.79966 -0.27508,13.39447 -0.9903,19.78444" fill="none" stroke="#fbea9d" stroke-width="2"/><path d="M21.50564,279.52678c0.28118,-5.78336 0.40345,-9.74692 0.36677,-11.89067c-0.29952,-17.88365 -0.3087,-35.76729 -0.02751,-53.65094c0.00612,-0.4351 0.21701,-1.10204 0.63268,-2.00083" fill="none" stroke="#fdf3ac" stroke-width="2"/><path d="M8.69594,247.14185l-0.03668,-2.85833c-0.00258,-0.06348 0.05878,-0.12291 0.16277,-0.15764c0.10399,-0.03473 0.2362,-0.03995 0.35073,-0.01386c0.07946,0.01906 0.15587,0.04605 0.22924,0.08098c0.22007,0.1048 0.29648,0.05558 0.22924,-0.14768c-0.0917,-0.2636 0.14365,-0.43034 0.70605,-0.50021c0.46459,-0.05399 0.758,0.01429 0.88026,0.20484c1.2715,0.12386 1.9592,-0.10162 2.06312,-0.67647c0.01834,-0.13657 0.14061,-0.24454 0.36677,-0.32394c1.03921,-0.36206 2.17622,-0.57802 3.41102,-0.64789c0.23229,-0.01271 0.42791,-0.06352 0.58684,-0.15245l2.36571,-1.33389c0.34233,-0.19373 0.53183,-0.16038 0.56852,0.10004c0.25674,1.95796 0.60518,3.8921 0.61434,5.88817c0.0489,10.976 0.15283,21.95041 0.31176,32.92325" fill="none" stroke="#f9db73" stroke-width="2"/><path d="M6.51362,212.01768c0.85881,0.0026 1.5538,0.36367 1.5588,0.80986l0.62352,34.3143" fill="none" stroke="#fcec94" stroke-width="2"/><path d="M8.64091,171.18162l-0.06419,40.18817c-0.00504,0.327 -0.51261,0.59071 -1.13701,0.59072" fill="none" stroke="#ebca6e" stroke-width="2"/><path d="M8.51254,137.44375l0.12837,33.73787" fill="none" stroke="#dbae4f" stroke-width="2"/><path d="M167.11625,86.0366c-3.54551,0.27631 -7.16133,0.37476 -10.84743,0.29537c-6.2719,-0.13974 -9.4323,-0.20961 -9.4812,-0.20961c-37.53354,-0.05717 -75.06711,-0.03176 -112.60066,0.07622c-0.28046,0.00099 -0.51744,-0.10777 -0.55017,-0.25249c-0.33928,-1.6102 1.79721,-2.98696 3.27349,-4.29226c0.0917,-0.0794 0.6388,-0.68759 1.64133,-1.82457c0.76107,-0.86227 2.164,-1.57685 2.95255,-2.25808c1.66884,-1.41964 3.09928,-2.67254 4.47469,-4.30179c1.17369,-1.39741 2.50326,-2.75671 3.98871,-4.07789c0.15283,-0.13657 0.36984,-0.23185 0.65102,-0.28584c1.52212,-0.29537 3.05647,-0.56214 4.60305,-0.80033c1.45487,-0.22232 3.03813,-0.33983 4.74978,-0.35253c14.32877,-0.11115 28.65448,-0.20961 42.97715,-0.29537c1.66272,-0.00953 3.04121,0.00476 4.13541,0.04288c6.25356,0.21914 12.51628,0.07145 18.77901,0.19532c3.78698,0.07145 5.40997,-0.00476 7.95908,1.07664c0.49946,0.21864 1.23621,0.20575 1.70623,-0.02985c0.47002,-0.2356 0.52119,-0.61767 0.11849,-0.88482c-0.23841,-0.16198 -0.39123,-0.41287 -0.45847,-0.7527" fill="none" stroke="#f7e293" stroke-width="2"/><path d="M171.16915,86.25574c-1.81554,0.22549 -3.16652,0.15245 -4.0529,-0.21914" fill="none" stroke="#fdf1b3" stroke-width="2"/><path d="M207.12253,67.83853c8.63761,-0.25725 16.94512,-0.4621 25.8578,-0.37635c18.93182,0.17785 37.86366,0.31441 56.79548,0.4097c2.72331,0.01429 6.18019,-0.14768 9.1786,-0.13815c27.81395,0.07305 55.62485,0.07305 83.43269,0c15.66751,-0.04128 25.67749,0.00318 30.02989,0.13339c3.75948,0.11433 4.26379,2.06277 5.87761,3.22515c6.85263,4.92586 13.90698,9.71675 21.16306,14.37266c0.25082,0.16369 0.29835,0.38769 0.12218,0.57583c-0.17618,0.18815 -0.54473,0.30698 -0.94742,0.30549c-13.43017,-0.07305 -26.90617,-0.1588 -40.42805,-0.25725c-27.5083,-0.19373 -55.01661,-0.1715 -82.52492,0.06669c-20.54565,0.17785 -59.70525,0.12068 -117.4788,-0.1715c-4.72532,-0.02541 -9.23362,-0.00635 -13.52492,0.05717c-4.51137,0.06352 -9.01355,0.13497 -13.50658,0.21437" fill="none" stroke="#f7e293" stroke-width="2"/><path d="M167.11625,86.0366l0.18339,-10.09945c0,-0.12068 0.11309,-0.20008 0.33928,-0.23819c1.8461,-0.29537 2.92504,-0.05717 3.23681,0.71458c0.59296,1.43235 0.69076,4.71307 0.29342,9.84219" fill="none" stroke="#f8edc1" stroke-width="2"/><path d="M410.63811,93.79222c0.45235,0.60978 1.03921,1.04805 1.76053,1.31483c0.26108,0.10037 0.39785,0.26435 0.3576,0.42875c-0.27508,1.12428 -0.81607,2.25332 -0.78857,3.34425c0.30564,12.47504 0.38206,24.94215 0.22924,37.4013" fill="none" stroke="#f5ddb0" stroke-width="2"/><path d="M171.34337,147.80521l0.0917,-9.86125c0.00612,-0.15245 0.15283,-0.24137 0.44013,-0.26678c4.03456,-0.31759 6.80678,-0.47004 8.31667,-0.45733c10.92997,0.08098 22.60267,-0.24772 32.70738,-0.16198c31.92797,0.26678 64.22272,0.12863 89.71375,0.20961c29.81899,0.09051 59.57382,-0.03335 89.40199,0.26678c6.61422,0.06669 13.17952,-0.20802 19.69595,-0.82415c0.18339,-0.01588 0.34538,-0.1588 0.48599,-0.42875" fill="none" stroke="#f6e2ab" stroke-width="2"/><path d="M170.51813,93.51115c-0.07336,2.63443 0.73356,5.35462 0.68771,7.79372c-0.31786,15.49853 -0.27202,30.99864 0.13753,46.50033" fill="none" stroke="#fcf2d7" stroke-width="2"/><path d="M171.22417,163.79759l0.11919,-15.99238" fill="none" stroke="#f9efcd" stroke-width="2"/><path d="M171.22417,163.79759c-0.10087,5.30221 -0.32094,10.37575 0.29342,15.85422c0.47069,4.23352 0.59908,7.16172 0.38511,8.78461c-0.31786,2.37559 -0.48903,4.76389 -0.51349,7.1649" fill="none" stroke="#fdf6d7" stroke-width="2"/><path d="M171.38922,195.60132l-0.70605,13.69142c-0.00909,0.15455 -0.18118,0.29395 -0.44775,0.36271c-0.26659,0.06876 -0.58435,0.05568 -0.82679,-0.034l-1.59548,-0.60501c-0.25674,-0.09846 -0.39735,-0.22867 -0.42179,-0.39064l-0.3576,-2.58203" fill="none" stroke="#ffffe6" stroke-width="2"/><path d="M166.98789,170.22883c-0.24758,2.33907 0.3301,5.03543 0.3576,6.97433c0.13449,9.61353 0.03056,19.22706 -0.31176,28.8406" fill="none" stroke="#fdf6d7" stroke-width="2"/><path d="M166.98788,170.22883l0.16505,-32.91848" fill="none" stroke="#f9efcd" stroke-width="2"/><path d="M166.94204,93.62548c0.31176,0.93055 0.46765,1.5689 0.46765,1.91508c-0.0978,13.96773 -0.18339,27.89099 -0.25674,41.76979" fill="none" stroke="#fcf2d7" stroke-width="2"/><path d="M167.15293,137.31035l-112.81156,0.20008c-0.9475,0 -1.42739,-0.24614 -1.43961,-0.7384c-0.26896,-10.09945 -0.31482,-20.05915 -0.13753,-29.87912c0.05502,-3.01078 1.02699,-8.3511 0.34843,-12.55285c-0.03056,-0.16515 0.38818,-0.33823 1.25622,-0.51927" fill="none" stroke="#f6e2ab" stroke-width="2"/><path d="M22.82601,182.38629c0.21395,-0.03811 0.34843,-0.00794 0.40345,0.09051c0.03056,0.05717 0.16505,0.08098 0.40345,0.07145c0.10392,-0.00635 0.17421,-0.05241 0.21089,-0.13815c0.06724,-0.14609 0.24146,-0.21914 0.52266,-0.21914l26.44466,-0.03811c1.00567,-0.00261 1.81969,-0.42553 1.82472,-0.94801c0.03056,-2.42324 0.51654,-4.80994 1.45795,-7.16013c0.13466,-0.33057 0.68363,-0.57054 1.32956,-0.58119c17.69702,-0.30965 35.46737,-0.12386 53.2469,-0.45733c17.42193,-0.33347 34.84386,-0.09528 52.27496,-0.42398c1.52824,-0.02859 2.99229,0.09211 4.39216,0.36206c0.18799,0.03575 0.39672,0.02655 0.56891,-0.0251c0.17221,-0.05165 0.28979,-0.14031 0.32052,-0.24167l0.76107,-2.44864" fill="none" stroke="#f7e6ab" stroke-width="2"/><path d="M23.11029,134.58541c0.22007,-0.01271 0.35455,0.03493 0.40345,0.14292c0.02446,0.04446 0.03973,0.04446 0.04585,0l0.0917,-0.59549c0.00283,-0.00507 0.01129,-0.01025 0.01889,-0.01156c0.0076,-0.00132 0.01146,0.00173 0.00862,0.0068c0.36067,0.80351 0.82219,1.46252 1.38459,1.97702c0.42083,0.3927 1.21015,0.63948 2.07229,0.64789l24.01474,0.23819c0.62987,0.00522 1.15529,0.25375 1.22871,0.58119c0.68771,3.18228 0.21089,7.18394 0.29342,9.53731c0.26286,6.98704 0.39735,13.97407 0.40345,20.96112c0,1.47681 -0.16811,2.9155 -0.50433,4.31608c-0.02259,0.09484 -0.11832,0.18084 -0.26524,0.23832c-0.14694,0.05748 -0.33249,0.0815 -0.51414,0.06658c-7.46393,-0.60978 -15.01036,-0.80192 -22.63933,-0.57643c-2.03561,0.06034 -3.46604,0.30488 -4.29129,0.73364c-1.10033,0.57166 -1.66577,1.39423 -1.69635,2.4677" fill="none" stroke="#edd398" stroke-width="2"/><path d="M412.66457,137.27225c0.78857,-0.21914 1.38459,-0.48115 2.34737,-0.48592c18.16159,-0.03176 32.04718,0.07463 41.65674,0.31918c0.93528,0.02223 1.39681,0.45733 1.38459,1.3053" fill="none" stroke="#edce9d" stroke-width="2"/><path d="M412.66457,137.27225c-0.31176,-0.23185 -0.46765,-0.56214 -0.46765,-0.99089" fill="none" stroke="#f2daa6" stroke-width="2"/><path d="" fill="none" stroke="#9e7016" stroke-width="2"/><path d="M458.72265,171.8962l-0.06419,0.81462c-0.01222,0.13974 -0.15283,0.21597 -0.42179,0.22867c-0.77634,0.03493 -1.54352,0.07781 -2.30153,0.12863c-0.73356,0.05081 -1.45487,0.02223 -2.164,-0.08575c-2.15788,-0.32394 -4.17514,-0.48115 -6.05183,-0.47162c-6.21687,0.03176 -15.12346,0.16038 -26.71974,0.38588c-0.00612,0 -0.98114,-0.03811 -2.92504,-0.11433c-1.21647,-0.04446 -2.53994,0.05717 -3.97037,0.30488c-0.41205,0.07246 -0.8658,0.03936 -1.22353,-0.08923c-0.35773,-0.1286 -0.57727,-0.33754 -0.59203,-0.56341c-0.07336,-1.07187 -0.34843,-2.21045 -0.3026,-3.30138c0.40345,-9.21019 0.45847,-18.42038 0.16505,-27.63057c-0.04585,-1.31007 0.52266,-2.82499 0.51349,-4.23034" fill="none" stroke="#edd398" stroke-width="2"/><path d="M459.61209,182.75311c-0.22007,-0.14927 -0.34233,-0.10798 -0.36677,0.12386c-0.01834,0.14927 -0.14977,0.18579 -0.39428,0.10957c-1.32039,-0.4224 -2.43296,-0.6336 -3.33768,-0.6336c-13.55854,0.01588 -27.11706,-0.02541 -40.67562,-0.12386c-2.08146,-0.01429 -3.23681,-0.38111 -3.02591,-1.53397c0.43401,-2.35654 0.25674,-4.67179 -0.53183,-6.94575c-0.12872,-0.36484 -0.73114,-0.63423 -1.44877,-0.64789c-7.83986,-0.16198 -16.51415,0.18579 -23.44625,0.12863c-10.64571,-0.08098 -20.66791,-0.11433 -31.9188,-0.30488c-12.73939,-0.21597 -23.98725,-0.25249 -33.74352,-0.10957c-20.61289,0.29854 -39.58751,0.31283 -56.92385,0.04288c-26.43548,-0.4097 -52.59588,1.00995 -81.18619,-0.36206c-3.59441,-0.1715 -7.21023,-0.32236 -10.84743,-0.45257c-0.29952,-0.00953 -0.4493,-0.09369 -0.4493,-0.25249l-0.0917,-7.99381" fill="none" stroke="#f7e6ab" stroke-width="2"/><path d="M458.28253,212.87995c-1.51602,-0.6066 -2.59188,-0.91784 -3.22764,-0.93372c-8.67429,-0.20484 -19.40252,-0.04288 -25.97701,-0.07622c-48.8364,-0.22549 -89.76878,-0.25567 -122.79707,-0.09051c-19.51866,0.09528 -36.15203,0.04605 -49.90007,-0.14768c-7.25302,-0.10004 -14.24014,0.09051 -21.40146,0.20484c-17.13767,0.26678 -34.4129,-0.01429 -51.55057,-0.14768c-3.54858,-0.02382 -7.38139,0.24296 -11.0675,0.30013c-0.14511,0.00143 -0.28481,-0.02856 -0.38568,-0.08276c-0.10087,-0.05422 -0.1538,-0.12778 -0.14616,-0.20307c0.47681,-4.39866 0.38511,-8.62105 -0.27508,-12.66719c-0.11615,-0.7114 -0.17117,-1.85633 -0.16505,-3.43476" fill="none" stroke="#fdf6c3" stroke-width="2"/><path d="" fill="none" stroke="#ae8c35" stroke-width="2"/><path d="" fill="none" stroke="#aa7e2f" stroke-width="2"/><path d="M167.03374,206.04377l-0.39428,5.15453c-0.02459,0.31164 -0.51831,0.55764 -1.11867,0.55737c-7.68399,0.00953 -15.94565,-0.21914 -22.90525,-0.20008c-31.36865,0.07145 -62.86565,-0.15721 -94.21596,0.2906c-8.68651,0.12386 -17.32718,0.16991 -25.92199,0.13815" fill="none" stroke="#fdf6c3" stroke-width="2"/><path d="" fill="none" stroke="#d7a051" stroke-width="2"/><path d="M458.09912,273.71004c0.04278,21.97107 0.02139,43.95959 -0.06419,65.96558c-0.00917,2.27714 0.13753,3.7873 -2.29236,5.77383" fill="none" stroke="#fbe79a" stroke-width="2"/><path d="M455.74257,345.44948c-1.45795,0.01906 -2.42991,-0.27154 -3.27349,-0.93372c-1.48546,-1.16239 -3.26127,-2.19616 -5.32744,-3.10129c-1.21954,-0.53356 -2.2465,-1.52921 -3.49356,-2.14851c-4.6642,-2.31207 -9.14194,-4.71625 -13.43322,-7.21253c-2.36571,-1.38153 -5.67589,-2.67254 -7.6198,-3.84922c-4.67642,-2.82023 -7.72984,-5.72619 -14.99202,-5.68809c-41.49475,0.19373 -82.98644,0.16515 -124.47508,-0.08575c-12.27788,-0.07622 -25.8028,0.10957 -38.7317,0.04764c-6.39416,-0.03176 -12.50711,-0.00476 -18.33887,0.08098c-15.49634,0.22232 -26.64025,0.23025 -33.43176,0.02382c-6.29024,-0.19373 -12.47655,-0.18897 -18.55894,0.01429c-1.03291,0.03482 -1.84002,0.47698 -1.85222,1.01471c-0.06112,2.85833 -0.3026,5.74208 -0.72439,8.65122c-0.55934,3.86828 -0.13753,8.05574 -0.79775,12.1098c-0.00612,0.03176 -0.01222,0.16356 -0.01834,0.39541c-0.01834,0.58754 -0.60212,0.86703 -1.75135,0.83844c-0.95433,-0.02771 -1.7019,-0.43489 -1.70553,-0.92896c0,-2.01989 -0.41262,-4.19222 -0.39428,-6.19306c0.03668,-4.9862 0.07946,-10.08515 0.12837,-15.29685c0.00511,-0.23338 -0.32235,-0.4339 -0.77023,-0.47162c-1.97142,-0.16198 -3.98871,-0.31918 -6.061,-0.31441c-34.03694,0.02859 -68.07084,0.01271 -102.10167,-0.04764c-2.86697,-0.00635 -5.03708,0.55737 -6.5103,1.69118c-3.56692,2.75353 -6.84956,6.02156 -11.05834,8.94182c-1.65662,1.15604 -3.22459,2.34384 -4.70392,3.56339c-1.5863,1.31007 -3.6586,2.27714 -5.6117,3.41571c-1.64133,0.96231 -2.23734,3.08223 -4.59389,3.34901c-0.2873,0.03176 -0.43096,-0.03017 -0.43096,-0.18579c0,-2.26761 -0.24453,-4.52729 -0.73356,-6.77902c-0.08253,-0.37635 0.17421,-0.9099 -0.38511,-1.40058c-0.15283,-0.13339 -0.23536,-0.27789 -0.24758,-0.43351c-0.69688,-12.04629 -1.16452,-24.09734 -1.40293,-36.15316c-0.00612,-0.29219 -0.29952,-0.62248 -0.88026,-0.99089" fill="none" stroke="#fef9c2" stroke-width="2"/><path d="M21.50564,279.52678l-0.04585,17.84553" fill="none" stroke="#fbe79a" stroke-width="2"/><path d="M9.81461,345.55905c-0.66632,-0.81622 -1.00252,-1.58161 -1.00864,-2.2962c-0.11615,-11.40158 -0.03668,-26.32685 0.23841,-44.7758c0.0489,-3.00125 0.01222,-6.18035 -0.11005,-9.53731c-0.51349,-13.94232 -0.59296,-27.87829 -0.23841,-41.8079" fill="none" stroke="#f9e182" stroke-width="2"/><path d="M16.37075,351.01847c-3.32545,-1.45457 -5.51083,-3.27438 -6.55615,-5.45942" fill="none" stroke="#f8d770" stroke-width="2"/><path d="M469.79932,329.24271c0.10392,2.85198 0.07641,7.52536 -0.08253,14.02013c-0.06112,2.59473 -1.60465,4.802 -4.63057,6.62181" fill="none" stroke="#f8d770" stroke-width="2"/><path d="M470.33116,297.88203l-0.53183,31.36069" fill="none" stroke="#f9e182" stroke-width="2"/><path d="M21.31308,315.76569l0.14671,-18.39338" fill="none" stroke="#fae18a" stroke-width="2"/><path d="M9.81461,345.55905c0.45235,-0.64789 0.64186,-1.68642 0.56852,-3.11558c-0.0489,-1.07029 -0.12837,-2.13422 -0.23841,-3.1918c-0.12227,-1.17509 -0.17421,-2.23426 -0.15587,-3.17752c0.07336,-3.22039 0.14671,-6.44078 0.22007,-9.66117c0.01222,-0.7781 0.20477,-2.63761 0.57768,-5.57852c0.32094,-2.45817 -0.37594,-5.01637 0.03668,-7.4269c0.4493,-2.70113 -0.18339,-5.29745 0.53183,-8.01762c0.38511,-1.48157 -0.06419,-3.52528 -0.43096,-5.78336c-0.62352,-3.82064 -0.07029,-7.58411 1.65967,-11.29042c0.27514,-0.58874 1.3264,-0.98778 2.48491,-0.94325l3.27349,0.1191c0.47069,0.01906 0.63576,-0.08893 0.49515,-0.32394l-0.11919,-0.19532c-0.04152,-0.05791 -0.00399,-0.12309 0.09194,-0.15964c0.09591,-0.03654 0.22687,-0.03555 0.32071,0.00243c0.23841,0.08893 0.44625,0.18897 0.62352,0.30013c0.14671,0.09528 0.23841,0.2239 0.27508,0.38588c0.28426,1.18621 0.88943,2.37241 0.91694,3.53481c0.20173,8.23835 0.32398,16.48147 0.36677,24.72936" fill="none" stroke="#f5c650" stroke-width="2"/><path d="M454.40384,346.16407c2.22512,0.61613 3.78698,0.38905 4.68558,-0.68123c0.39735,-0.47957 0.55322,-1.18144 0.46765,-2.10564c-0.31176,-3.34425 -0.55934,-6.69009 -0.74273,-10.03752c-0.10087,-1.74359 0.62352,-3.68725 0.61434,-5.55946c0,-0.05717 0.02446,-0.10639 0.07336,-0.14768c0.07946,-0.06669 0.11919,-0.06193 0.11919,0.01429l-0.00917,0.44304c-0.00627,0.05342 0.05961,0.10195 0.15859,0.11681c0.09897,0.01486 0.20452,-0.00794 0.25405,-0.05487l0.26592,-0.23819c0.14671,-0.12704 0.31482,-0.13339 0.50433,-0.01906l0.41262,0.24772c0.16505,0.10162 0.3087,0.09369 0.43096,-0.02382c0.8986,-0.90513 2.13648,-1.66101 3.71362,-2.26761c0.25063,-0.09528 0.52876,-0.15403 0.83441,-0.17627c1.02087,-0.07622 1.76665,-0.33983 2.23734,-0.7908c0.17117,-0.16515 0.27814,-0.15403 0.32094,0.03335l1.05447,4.32561" fill="none" stroke="#f5c650" stroke-width="2"/><path d="M454.40384,346.16407l1.33873,-0.71458" fill="none" stroke="#fae18a" stroke-width="2"/><path d="M454.40384,346.16407c-1.73609,0.47957 -3.97649,0.71935 -6.72119,0.71935c-214.63204,0.06669 -353.61316,0.06828 -416.94338,0.00476c-6.16797,-0.00635 -9.24584,-1.6483 -9.23362,-4.92586c0.02446,-8.74333 -0.03973,-17.47553 -0.19255,-26.19663" fill="none" stroke="#f8d878" stroke-width="2"/><path d="M465.08623,349.88467c-2.70193,1.44822 -5.79203,2.49946 -9.2703,3.1537c-2.32292,0.43827 -5.78591,0.65742 -10.38896,0.65742c-57.08279,0.01271 -114.16253,0.06987 -171.2392,0.1715c-1.21647,0.00318 -2.43906,0.00953 -3.66777,0.01906c-22.96638,0.1842 -45.9297,0.1445 -68.88997,-0.1191c-6.69981,-0.07622 -12.80971,-0.11115 -18.3297,-0.1048c-50.68863,0.06034 -101.38033,0.05241 -152.07509,-0.02382c-2.57966,-0.00635 -4.83534,-0.19055 -6.76705,-0.55261c-2.87921,-0.54308 -5.57502,-1.23226 -8.08744,-2.06753" fill="none" stroke="#f9dd7c" stroke-width="2"/><path d="" fill="#bd0015" stroke="none" stroke-width="1"/><path d="M469.94603,135.94313v36.94873l0.16505,10.04705l-0.12837,3.16799l-0.15587,25.26291c-0.00021,0.15215 0.11885,0.29822 0.3301,0.40493c0.47069,0.23185 1.08505,0.34618 1.84306,0.343c-1.14313,2.21045 -1.56492,4.44153 -1.2654,6.69326c0.30564,2.30572 0.45235,3.73807 0.44013,4.29703c-0.3301,11.30947 0.24758,20.08456 -0.11919,28.03549c-0.07946,1.65783 -0.11919,2.49151 -0.11919,2.50104c0.06724,13.95502 0.02446,27.90846 -0.12837,41.8603c-0.01222,1.08617 -0.17117,1.87856 -0.47681,2.37718l-0.73356,-27.97357c0,-0.12704 -0.10697,-0.16198 -0.32094,-0.1048c-0.703,0.19373 -1.39987,0.21279 -2.09063,0.05717c-0.29342,-0.06669 -0.596,-0.07622 -0.90777,-0.02859l-3.09928,0.50497c-0.29952,0.05081 -0.58684,0.03493 -0.86192,-0.04764c-0.79467,-0.24454 -1.69635,-0.36524 -2.70497,-0.36206c-0.26896,0 -0.42179,0.06828 -0.45847,0.20484l-1.05447,3.57768c-0.10392,-0.72411 -0.16199,-1.43869 -0.17421,-2.14375c-0.19561,-19.57007 -0.07641,-39.13218 0.3576,-58.68637c0.60518,-7.76515 0.83748,-15.54457 0.69688,-23.3383c-0.03668,-2.16281 0.58684,-4.50664 0.63268,-6.78855l-0.88943,-10.85691c-0.72134,-11.16656 -0.94446,-22.32836 -0.66936,-33.48538c0.50737,-2.33748 0.77941,-6.00885 0.81607,-11.01412c0.08253,-10.63777 -0.77941,-21.33747 0.53183,-31.95141c0.02788,-0.2525 -0.22581,-0.49012 -0.65102,-0.60978c-3.19096,-0.89562 -6.48279,-1.35771 -9.87547,-1.38629c-12.70883,-0.10798 -25.45435,0.00635 -38.23655,0.343c-1.7911,0.04446 -5.88067,0.06669 -12.2687,0.06669c-71.11813,0.01271 -142.23627,0.00476 -213.35442,-0.02382c-3.95507,0 -7.85208,-0.22549 -11.69104,-0.67647c-0.71522,-0.08258 -1.6505,0.03493 -2.80585,0.35253c-1.28983,-0.39699 -2.48186,-0.35888 -3.57609,0.11433c-11.85303,0.26995 -23.86192,0.38111 -36.02672,0.33347c-25.56439,-0.09846 -51.07986,-0.1445 -76.54645,-0.13815c-7.53726,-0.33665 -15.0776,-0.49545 -22.62099,-0.47639c-1.58326,0.00318 -2.82419,0.11592 -3.72279,0.33823c-1.24706,0.30806 -2.24958,0.74793 -3.00757,1.3196c-0.73356,0.55579 -1.08505,1.39105 -1.05447,2.5058c0.11005,3.86828 -0.08863,9.16731 -0.596,15.8971c-0.2873,3.77617 -0.37289,10.83627 -0.25674,21.18025c-0.50433,0.88609 -1.43961,1.7674 -1.45795,2.6916c-0.22007,10.53137 -0.16811,22.62213 0.15587,36.27226c0.01222,0.73046 0.46459,1.3196 1.35707,1.7674l-0.33928,7.06961c-0.10392,1.62925 -0.0489,3.26803 0.16505,4.91633c0.31176,2.34384 0.47069,3.97626 0.47681,4.89728c0.05502,6.79966 -0.27508,13.39447 -0.9903,19.78444c-0.41569,0.89879 -0.62658,1.56574 -0.63268,2.00083c-0.28118,17.88365 -0.27202,35.76729 0.02751,53.65094c0.03668,2.14375 -0.08558,6.1073 -0.36677,11.89067c-0.15895,-10.97282 -0.26286,-21.94724 -0.31176,-32.92325c-0.00917,-1.99607 -0.3576,-3.93021 -0.61434,-5.88817c-0.03668,-0.26043 -0.22619,-0.29377 -0.56852,-0.10004l-2.36571,1.33389c-0.15895,0.08893 -0.35455,0.13974 -0.58684,0.15245c-1.23481,0.06987 -2.37181,0.28584 -3.41102,0.64789c-0.22619,0.0794 -0.34843,0.18738 -0.36677,0.32394c-0.10392,0.57484 -0.79163,0.80033 -2.06312,0.67647c-0.12227,-0.19055 -0.41569,-0.25884 -0.88026,-0.20484c-0.56239,0.06987 -0.79775,0.23661 -0.70605,0.50021c0.06724,0.20326 -0.00917,0.25249 -0.22924,0.14768c-0.07336,-0.03493 -0.14977,-0.06193 -0.22924,-0.08098c-0.11453,-0.02609 -0.24675,-0.02087 -0.35073,0.01386c-0.10399,0.03473 -0.16534,0.09416 -0.16277,0.15764l0.03668,2.85833l-0.62352,-34.3143c-0.005,-0.44619 -0.69999,-0.80726 -1.5588,-0.80986l0.92612,-0.05717c0.6244,-0.00001 1.13197,-0.26372 1.13701,-0.59072l0.06419,-40.18817l-0.12837,-33.73787c-0.00612,-13.25314 0.01529,-26.50629 0.06419,-39.75943c0.00917,-2.69637 4.47469,-7.1649 7.28971,-9.68023c6.2077,-5.5547 12.00278,-10.78544 18.21966,-16.75937c2.87309,-2.76306 5.25103,-4.80518 7.13381,-6.12636c3.4477,-2.42324 8.59176,-3.66026 15.43215,-3.71107c22.85635,-0.16198 45.70658,-0.22073 68.55069,-0.17627c2.20678,-0.2509 4.44718,6.53607 0.6602,6.46462c-6.26272,-0.12386 -12.52545,0.02382 -18.77901,-0.19532c-1.09423,-0.03811 -2.47269,-0.05241 -4.13541,-0.04288c-14.32265,0.08575 -28.64838,0.1842 -42.97715,0.29537c-1.71163,0.01271 -3.29489,0.13021 -4.74978,0.35253c-1.54658,0.23819 -3.08094,0.50497 -4.60305,0.80033c-0.28118,0.05399 -0.49821,0.14927 -0.65102,0.28584c-1.48546,1.32118 -2.81502,2.68048 -3.98871,4.07789c-1.37541,1.62925 -2.80585,2.88215 -4.47469,4.30179c-0.78857,0.68123 -2.1915,1.39582 -2.95255,2.25808c-1.00252,1.13698 -1.54963,1.74517 -1.64133,1.82457c-1.47629,1.3053 -3.61275,2.68207 -3.27349,4.29226c0.03271,0.14472 0.26972,0.25348 0.55017,0.25249c37.53354,-0.10798 75.06711,-0.13339 112.60066,-0.07622c0.0489,0 3.2093,0.06987 9.4812,0.20961c3.68611,0.0794 7.30193,-0.01906 10.84743,-0.29537c0.88638,0.37158 2.23734,0.44463 4.0529,0.21914c4.49303,-0.0794 8.99521,-0.15085 13.50658,-0.21437c4.29129,-0.06352 8.7996,-0.08258 13.52492,-0.05717c57.77355,0.29219 96.93315,0.34935 117.4788,0.1715c27.5083,-0.23819 55.01661,-0.26043 82.52492,-0.06669c13.52186,0.09846 26.99787,0.1842 40.42805,0.25725c0.4027,0.00149 0.77124,-0.11735 0.94742,-0.30549c0.17618,-0.18815 0.12866,-0.41214 -0.12218,-0.57583c-7.25608,-4.65591 -14.31043,-9.4468 -21.16306,-14.37266c-1.61382,-1.16239 -2.11814,-3.11082 -5.87761,-3.22515c-4.35243,-0.13021 -14.36239,-0.17467 -30.02989,-0.13339c-27.80785,0.07305 -55.61875,0.07305 -83.43269,0c-2.99841,-0.00953 -6.45528,0.15245 -9.1786,0.13815c-18.93182,-0.09528 -37.86366,-0.23185 -56.79548,-0.4097c-8.9127,-0.08575 -25.8578,-0.00872 -25.8578,-0.00872c0,0 -3.26434,-0.37873 1.46709,-6.22243c67.41368,0.01271 134.74485,-0.00635 201.9935,-0.05717c6.84956,-0.00476 13.26818,3.45382 17.15601,6.14542c9.68904,6.70438 19.46671,13.37382 29.33302,20.00834c0.8008,0.53673 1.91642,1.05758 3.34685,1.56256c3.91229,1.372 6.64784,3.17434 8.20666,5.40701c0.83748,1.19732 1.24706,3.0076 1.22871,5.43084c-0.07946,12.06534 -0.0489,24.13704 0.0917,36.21509z" fill="#fbe685" stroke="none" stroke-width="1"/><path d="M232.98031,67.46219c18.93182,0.17785 62.97568,0.26202 65.97408,0.27154c27.81395,0.07305 55.62485,0.07305 83.43269,0c15.66751,-0.04128 25.67749,0.00318 30.02989,0.13339c3.75948,0.11433 4.26379,2.06277 5.87761,3.22515c6.85263,4.92586 13.90698,9.71675 21.16306,14.37266c0.25082,0.16369 0.29835,0.38769 0.12218,0.57583c-0.17618,0.18815 -0.54473,0.30698 -0.94742,0.30549c-13.43017,-0.07305 -26.90617,-0.1588 -40.42805,-0.25725c-27.5083,-0.19373 -55.01661,-0.1715 -82.52492,0.06669c-20.54565,0.17785 -59.70525,0.12068 -117.4788,-0.1715c-4.72532,-0.02541 -9.23362,-0.00635 -13.52492,0.05717c-4.51137,0.06352 -24.72081,0.37 -28.40692,0.2906c-6.2719,-0.13974 -9.4323,-0.20961 -9.4812,-0.20961c-37.53354,-0.05717 -75.06711,-0.03176 -112.60066,0.07622c-0.28046,0.00099 -0.51744,-0.10777 -0.55017,-0.25249c-0.33928,-1.6102 1.79721,-2.98696 3.27349,-4.29226c0.0917,-0.0794 0.6388,-0.68759 1.64133,-1.82457c0.76107,-0.86227 2.164,-1.57685 2.95255,-2.25808c1.66884,-1.41964 3.09928,-2.67254 4.47469,-4.30179c1.17369,-1.39741 2.50326,-2.75671 3.98871,-4.07789c0.15283,-0.13657 0.36984,-0.23185 0.65102,-0.28584c1.52212,-0.29537 3.05647,-0.56214 4.60305,-0.80033c1.45487,-0.22232 3.03813,-0.33983 4.74978,-0.35253c14.32877,-0.11115 164.09623,-0.37635 173.00891,-0.2906z" fill="#f2dea1" stroke="none" stroke-width="1"/><path d="M410.63811,93.79222c0.45235,0.60978 1.03921,1.04805 1.76053,1.31483c0.26108,0.10037 0.39785,0.26435 0.3576,0.42875c-0.27508,1.12428 -0.81607,2.25332 -0.78857,3.34425c0.30564,12.47504 0.38206,24.94215 0.22924,37.4013c-0.14061,0.26995 -0.3026,0.41287 -0.48599,0.42875c-6.51642,0.61613 -13.08173,0.89085 -19.69595,0.82415c-29.82817,-0.30013 -59.58299,-0.17627 -89.40199,-0.26678c-25.49103,-0.08098 -57.78579,0.05717 -89.71375,-0.20961c-10.10471,-0.08575 -21.7774,0.24296 -32.70738,0.16198c-1.5099,-0.01271 -8.75069,0.57166 -8.75681,0.72411c0,0 -0.9903,-41.79837 -0.91694,-44.4328c1.15535,-0.31759 10.54179,0.32394 14.49688,0.32394c71.11813,0.02859 142.23627,0.03652 213.35442,0.02382c6.38804,0 10.4776,-0.02223 12.2687,-0.06669z" fill="#f9e5b5" stroke="none" stroke-width="1"/><path d="M54.36889,93.82081c-0.86804,0.18102 -1.28678,0.35411 -1.25622,0.51927c0.67854,4.20175 -0.29342,9.54207 -0.34843,12.55285c-0.17729,9.81997 -0.13143,19.77967 0.13753,29.87912c0.01222,0.49227 0.49211,0.7384 1.43961,0.7384l121.47013,-0.20008c0,0 1.2241,35.24326 -0.30414,35.27184c-17.4311,0.32871 -49.41517,0.09051 -66.8371,0.42398c-17.77953,0.33347 -35.54991,0.14768 -53.2469,0.45733c-0.64593,0.01065 -1.1949,0.25063 -1.32956,0.58119c-0.9414,2.35019 -1.42739,4.73689 -1.45795,7.16013c-0.00502,0.52249 -0.81904,0.94541 -1.82472,0.94801l-26.44466,0.03811c-0.28118,0 -0.45543,0.07305 -0.52266,0.21914c-0.03668,0.08575 -0.10697,0.13181 -0.21089,0.13815c-0.23841,0.00953 -0.37289,-0.01429 -0.40345,-0.07145c-0.05502,-0.09846 -0.18951,-0.12863 -0.40345,-0.09051l0.33928,-7.06961c0.03056,-1.07346 0.596,-1.89603 1.69635,-2.4677c0.82524,-0.42875 2.25568,-0.6733 4.29129,-0.73364c7.62897,-0.22549 15.17542,-0.03335 22.63933,0.57643c0.18168,0.01493 0.36722,-0.0091 0.51414,-0.06658c0.14694,-0.05748 0.24266,-0.14348 0.26524,-0.23832c0.3362,-1.40058 0.50433,-2.83927 0.50433,-4.31608c-0.00612,-6.98704 -0.14061,-13.97407 -0.40345,-20.96112c-0.08253,-2.35336 0.39428,-6.35503 -0.29342,-9.53731c-0.0734,-0.32744 -0.59884,-0.57597 -1.22871,-0.58119l-24.01474,-0.23819c-0.86214,-0.00841 -1.65146,-0.25519 -2.07229,-0.64789c-0.56239,-0.5145 -1.02392,-1.17351 -1.38459,-1.97702c0.00283,-0.00507 -0.00102,-0.00812 -0.00862,-0.0068c-0.0076,0.00132 -0.01606,0.00649 -0.01889,0.01156l-0.0917,0.59549c-0.00612,0.04446 -0.02139,0.04446 -0.04585,0c-0.0489,-0.10798 -0.18339,-0.15562 -0.40345,-0.14292c-0.11615,-10.34399 -0.03056,-17.40408 0.25674,-21.18025c0.50737,-6.72979 0.70605,-12.02882 0.596,-15.8971c-0.03056,-1.11475 0.32094,-1.95002 1.05447,-2.5058c0.758,-0.57166 1.76053,-1.01153 3.00757,-1.3196c0.8986,-0.22232 2.13953,-0.33506 3.72279,-0.33823c7.54338,-0.01906 15.08372,0.13974 22.62099,0.47639z" fill="#f2dea1" stroke="none" stroke-width="1"/><path d="M458.05329,138.4108c0.01222,-0.84797 -0.4493,-1.28308 -1.38459,-1.3053c-9.60957,-0.24454 -23.49515,-0.35094 -41.65674,-0.31918c-0.9628,0.00476 -1.5588,0.26678 -2.34737,0.48592c-0.31176,-0.23185 -0.46765,-0.56214 -0.46765,-0.99089c0.15283,-12.45916 0.07641,-24.92626 -0.22924,-37.4013c-0.02751,-1.09093 0.51349,-2.21998 0.78857,-3.34425c0.04023,-0.16441 -0.09654,-0.32838 -0.3576,-0.42875c-0.72134,-0.26678 -1.30817,-0.70505 -1.76053,-1.31483c12.78219,-0.33665 25.52771,-0.45098 38.23655,-0.343c3.39268,0.02859 6.68452,0.49068 9.87547,1.38629c0.42521,0.11966 0.67891,0.35728 0.65102,0.60978c-1.31122,10.61395 -0.4493,21.31364 -0.53183,31.95141c-0.03668,5.00526 -0.3087,8.67663 -0.81607,11.01412z" fill="#f1d5aa" stroke="none" stroke-width="1"/><path d="M173.45008,137.31035l-119.1087,0.20008c-0.9475,0 -1.42739,-0.24614 -1.43961,-0.7384c-0.26896,-10.09945 -0.31482,-20.05915 -0.13753,-29.87912c0.05502,-3.01078 1.02699,-8.3511 0.34843,-12.55285c-0.03056,-0.16515 0.38818,-0.33823 1.25622,-0.51927c25.46657,-0.00635 50.98206,0.0397 76.54645,0.13815c12.16478,0.04764 28.10941,-0.06352 39.96244,-0.33347c0,0 2.64566,29.80608 2.5723,43.68488z" fill="#f9e5b5" stroke="none" stroke-width="1"/><path d="M23.16529,175.31667c-0.89248,-0.4478 -1.34485,-1.03694 -1.35707,-1.7674c-0.32398,-13.65013 -0.37594,-25.74089 -0.15587,-36.27226c0.01834,-0.92419 0.95362,-1.80551 1.45795,-2.6916c0.22007,-0.01271 0.35455,0.03493 0.40345,0.14292c0.02446,0.04446 0.03973,0.04446 0.04585,0l0.0917,-0.59549c0.00283,-0.00507 0.01129,-0.01025 0.01889,-0.01156c0.0076,-0.00132 0.01146,0.00173 0.00862,0.0068c0.36067,0.80351 0.82219,1.46252 1.38459,1.97702c0.42083,0.3927 1.21015,0.63948 2.07229,0.64789l24.01474,0.23819c0.62987,0.00522 1.15529,0.25375 1.22871,0.58119c0.68771,3.18228 0.21089,7.18394 0.29342,9.53731c0.26286,6.98704 0.39735,13.97407 0.40345,20.96112c0,1.47681 -0.16811,2.9155 -0.50433,4.31608c-0.02259,0.09484 -0.11832,0.18084 -0.26524,0.23832c-0.14694,0.05748 -0.33249,0.0815 -0.51414,0.06658c-7.46393,-0.60978 -15.01036,-0.80192 -22.63933,-0.57643c-2.03561,0.06034 -3.46604,0.30488 -4.29129,0.73364c-1.10033,0.57166 -1.66577,1.39423 -1.69635,2.4677z" fill="#e8c78f" stroke="none" stroke-width="1"/><path d="" fill="#ba7518" stroke="none" stroke-width="1"/><path d="M412.19692,136.28134c0,0.42875 0.15587,0.75905 0.46765,0.99089c0.00917,1.40534 -0.55934,2.92027 -0.51349,4.23034c0.29342,9.21019 0.23841,18.42038 -0.16505,27.63057c-0.04585,1.09093 0.22924,2.2295 0.3026,3.30138c0.01474,0.22587 0.2343,0.43482 0.59203,0.56341c0.35773,0.1286 0.81147,0.16169 1.22353,0.08923c1.43043,-0.24772 2.75388,-0.34935 3.97037,-0.30488c1.94393,0.07622 2.91894,0.11433 2.92504,0.11433c11.59628,-0.22549 20.50286,-0.35411 26.71974,-0.38588c1.87668,-0.00953 3.89395,0.14768 6.05183,0.47162c0.7091,0.10798 1.43043,0.13657 2.164,0.08575c0.758,-0.05081 1.52519,-0.09369 2.30153,-0.12863c0.26896,-0.01271 0.40957,-0.08893 0.42179,-0.22867l0.06419,-0.81462l0.88943,10.85691c-0.22007,-0.14927 -0.34233,-0.10798 -0.36677,0.12386c-0.01834,0.14927 -0.14977,0.18579 -0.39428,0.10957c-1.32039,-0.4224 -2.43296,-0.6336 -3.33768,-0.6336c-13.55854,0.01588 -27.11706,-0.02541 -40.67562,-0.12386c-2.08146,-0.01429 -3.23681,-0.38111 -3.02591,-1.53397c0.43401,-2.35654 0.25674,-4.67179 -0.53183,-6.94575c-0.12872,-0.36484 -0.73114,-0.63423 -1.44877,-0.64789c-7.83986,-0.16198 -16.51415,0.18579 -23.44625,0.12863c-10.64571,-0.08098 -20.66791,-0.11433 -31.9188,-0.30488c-12.73939,-0.21597 -23.98725,-0.25249 -33.74352,-0.10957c-20.61289,0.29854 -39.58751,0.31283 -56.92385,0.04288c-26.43548,-0.4097 -52.59588,1.00995 -81.18619,-0.36206c-3.59441,-0.1715 -7.21023,-0.32236 -10.84743,-0.45257c-0.29952,-0.00953 -0.4493,-0.09369 -0.4493,-0.25249l-0.0917,-7.99381l0.11919,-15.99238l0.0917,-9.86125c0.00612,-0.15245 0.15283,-0.24137 0.44013,-0.26678c4.03456,-0.31759 6.80678,-0.47004 8.31667,-0.45733c10.92997,0.08098 22.60267,-0.24772 32.70738,-0.16198c31.92797,0.26678 64.22272,0.12863 89.71375,0.20961c29.81899,0.09051 59.57382,-0.03335 89.40199,0.26678c6.61422,0.06669 13.17952,-0.20802 19.69595,-0.82415c0.18339,-0.01588 0.34538,-0.1588 0.48599,-0.42875z" fill="#f2dea1" stroke="none" stroke-width="1"/><path d="M458.05329,138.4108c-0.27508,11.15703 -0.05195,22.31883 0.66936,33.48538l-0.06419,0.81462c-0.01222,0.13974 -0.15283,0.21597 -0.42179,0.22867c-0.77634,0.03493 -1.54352,0.07781 -2.30153,0.12863c-0.73356,0.05081 -1.45487,0.02223 -2.164,-0.08575c-2.15788,-0.32394 -4.17514,-0.48115 -6.05183,-0.47162c-6.21687,0.03176 -15.12346,0.16038 -26.71974,0.38588c-0.00612,0 -0.98114,-0.03811 -2.92504,-0.11433c-1.21647,-0.04446 -2.53994,0.05717 -3.97037,0.30488c-0.41205,0.07246 -0.8658,0.03936 -1.22353,-0.08923c-0.35773,-0.1286 -0.57727,-0.33754 -0.59203,-0.56341c-0.07336,-1.07187 -0.34843,-2.21045 -0.3026,-3.30138c0.40345,-9.21019 0.45847,-18.42038 0.16505,-27.63057c-0.04585,-1.31007 0.52266,-2.82499 0.51349,-4.23034c0.78857,-0.21914 1.38459,-0.48115 2.34737,-0.48592c18.16159,-0.03176 32.04718,0.07463 41.65674,0.31918c0.93528,0.02223 1.39681,0.45733 1.38459,1.3053z" fill="#e8c78f" stroke="none" stroke-width="1"/><path d="" fill="#18181a" stroke="none" stroke-width="1"/><path d="" fill="#d9d6d9" stroke="none" stroke-width="1"/><path d="" fill="#d9d6d9" stroke="none" stroke-width="1"/><path d="" fill="#d9d6d9" stroke="none" stroke-width="1"/><path d="M171.22417,163.79759l0.0917,7.99381c0,0.1588 0.14977,0.24296 0.4493,0.25249c3.63721,0.13021 7.25302,0.28107 10.84743,0.45257c28.59031,1.372 54.7507,-0.04764 81.18619,0.36206c17.33634,0.26995 36.31096,0.25567 56.92385,-0.04288c9.75628,-0.14292 21.00412,-0.10639 33.74352,0.10957c11.25089,0.19055 21.27309,0.2239 31.9188,0.30488c6.9321,0.05717 15.60639,-0.2906 23.44625,-0.12863c0.71764,0.01366 1.32006,0.28306 1.44877,0.64789c0.78857,2.27396 0.96584,4.58921 0.53183,6.94575c-0.21089,1.15286 0.94446,1.51968 3.02591,1.53397c13.55854,0.09846 27.11706,0.13974 40.67562,0.12386c0.90472,0 2.01727,0.2112 3.33768,0.6336c0.24453,0.07622 0.37594,0.0397 0.39428,-0.10957c0.02446,-0.23185 0.14671,-0.27313 0.36677,-0.12386c-0.04585,2.2819 -0.66936,4.62574 -0.63268,6.78855c0.14061,7.79372 -0.0917,15.57316 -0.69688,23.3383c-1.51602,-0.6066 -2.59188,-0.91784 -3.22764,-0.93372c-8.67429,-0.20484 -19.40252,-0.04288 -25.97701,-0.07622c-48.8364,-0.22549 -89.76878,-0.25567 -122.79707,-0.09051c-19.51866,0.09528 -36.15203,0.04605 -49.90007,-0.14768c-7.25302,-0.10004 -14.24014,0.09051 -21.40146,0.20484c-17.13767,0.26678 -34.4129,-0.01429 -51.55057,-0.14768c-3.54858,-0.02382 -7.38139,0.24296 -11.0675,0.30013c-0.14511,0.00143 -0.28481,-0.02856 -0.38568,-0.08276c-0.10087,-0.05422 -0.1538,-0.12778 -0.14616,-0.20307c0.47681,-4.39866 0.38511,-8.62105 -0.27508,-12.66719c-0.11615,-0.7114 -0.17117,-1.85633 -0.16505,-3.43476c0.02446,-2.401 0.19561,-4.7893 0.51349,-7.1649c0.21395,-1.6229 0.08558,-4.55111 -0.38511,-8.78461c-0.61434,-5.47848 -0.39428,-10.55201 -0.29342,-15.85422z" fill="#fbedb4" stroke="none" stroke-width="1"/><path d="" fill="#1c9cc5" stroke="none" stroke-width="1"/><path d="" fill="#d9d6d9" stroke="none" stroke-width="1"/><path d="" fill="#d9d6d9" stroke="none" stroke-width="1"/><path d="" fill="#d9d6d9" stroke="none" stroke-width="1"/><path d="" fill="#bd0015" stroke="none" stroke-width="1"/><path d="" fill="#816a13" stroke="none" stroke-width="1"/><path d="" fill="#d9d6d9" stroke="none" stroke-width="1"/><path d="" fill="#d9d6d9" stroke="none" stroke-width="1"/><path d="" fill="#d9d6d9" stroke="none" stroke-width="1"/><path d="M174.70412,211.75567c-7.68399,0.00953 -25.12898,-0.21914 -32.08858,-0.20008c-31.36865,0.07145 -62.86565,-0.15721 -94.21596,0.2906c-8.68651,0.12386 -17.32718,0.16991 -25.92199,0.13815c0.71522,-6.38996 1.04531,-12.98478 0.9903,-19.78444c-0.00612,-0.92102 -0.16505,-2.55345 -0.47681,-4.89728c-0.21395,-1.6483 -0.26896,-3.28709 -0.16505,-4.91633c0.21395,-0.03811 0.34843,-0.00794 0.40345,0.09051c0.03056,0.05717 0.16505,0.08098 0.40345,0.07145c0.10392,-0.00635 0.17421,-0.05241 0.21089,-0.13815c0.06724,-0.14609 0.24146,-0.21914 0.52266,-0.21914l26.44466,-0.03811c1.00567,-0.00261 1.81969,-0.42553 1.82472,-0.94801c0.03056,-2.42324 0.51654,-4.80994 1.45795,-7.16013c0.13466,-0.33057 0.68363,-0.57054 1.32956,-0.58119c17.69702,-0.30965 35.46737,-0.12386 53.2469,-0.45733c17.42193,-0.33347 64.20492,-0.22734 64.23567,-0.3287c0,0 2.39855,39.07844 1.79819,39.07818z" fill="#fbedb4" stroke="none" stroke-width="1"/><path d="" fill="#d9d6d9" stroke="none" stroke-width="1"/><path d="" fill="#d2924a" stroke="none" stroke-width="1"/><path d="" fill="#d9d6d9" stroke="none" stroke-width="1"/><path d="" fill="#d9d6d9" stroke="none" stroke-width="1"/><path d="" fill="#8d5e12" stroke="none" stroke-width="1"/><path d="" fill="#8d5e12" stroke="none" stroke-width="1"/><path d="" fill="#dbae57" stroke="none" stroke-width="1"/><path d="" fill="#8d5e12" stroke="none" stroke-width="1"/><path d="" fill="#fffff9" stroke="none" stroke-width="1"/><path d="" fill="#d9d6d9" stroke="none" stroke-width="1"/><path d="" fill="#d9d6d9" stroke="none" stroke-width="1"/><path d="" fill="#8d5e12" stroke="none" stroke-width="1"/><path d="" fill="#fefbe0" stroke="none" stroke-width="1"/><path d="" fill="#8d5e12" stroke="none" stroke-width="1"/><path d="" fill="#8d5e12" stroke="none" stroke-width="1"/><path d="" fill="#8d5e12" stroke="none" stroke-width="1"/><path d="" fill="#fcfa94" stroke="none" stroke-width="1"/><path d="" fill="#d9d6d9" stroke="none" stroke-width="1"/><path d="" fill="#d9d6d9" stroke="none" stroke-width="1"/><path d="" fill="#d9d6d9" stroke="none" stroke-width="1"/><path d="" fill="#ef8372" stroke="none" stroke-width="1"/><path d="" fill="#d9d6d9" stroke="none" stroke-width="1"/><path d="" fill="#d9d6d9" stroke="none" stroke-width="1"/><path d="" fill="#aa524c" stroke="none" stroke-width="1"/><path d="" fill="#d9d6d9" stroke="none" stroke-width="1"/><path d="" fill="#aa524c" stroke="none" stroke-width="1"/><path d="M183.42869,211.68896c17.13767,0.13339 34.4129,0.41446 51.55057,0.14768c7.16133,-0.11433 14.14844,-0.30488 21.40146,-0.20484c13.74804,0.19373 30.38139,0.24296 49.90007,0.14768c33.02832,-0.16515 73.96067,-0.13497 122.79707,0.09051c6.57449,0.03335 17.30272,-0.12863 25.97701,0.07622c0.63576,0.01588 1.71163,0.32712 3.22764,0.93372c-0.43401,19.55418 -0.55322,39.1163 -0.3576,58.68637c0.01222,0.70505 0.07029,1.41964 0.17421,2.14375c0.04278,21.97107 0.02139,43.95959 -0.06419,65.96558c-0.00917,2.27714 0.13753,3.7873 -2.29236,5.77383c-1.45795,0.01906 -2.42991,-0.27154 -3.27349,-0.93372c-1.48546,-1.16239 -3.26127,-2.19616 -5.32744,-3.10129c-1.21954,-0.53356 -2.2465,-1.52921 -3.49356,-2.14851c-4.6642,-2.31207 -9.14194,-4.71625 -13.43322,-7.21253c-2.36571,-1.38153 -5.67589,-2.67254 -7.6198,-3.84922c-4.67642,-2.82023 -7.72984,-5.72619 -14.99202,-5.68809c-41.49475,0.19373 -82.98644,0.16515 -124.47508,-0.08575c-12.27788,-0.07622 -25.8028,0.10957 -38.7317,0.04764c-6.39416,-0.03176 -12.50711,-0.00476 -18.33887,0.08098c-15.49634,0.22232 -26.64025,0.23025 -33.43176,0.02382c-6.29024,-0.19373 -25.99679,0.17112 -26.44468,0.13339c-1.97142,-0.16198 -74.13183,-0.3017 -108.16267,-0.36206c-2.86697,-0.00635 -5.03708,0.55737 -6.5103,1.69118c-3.56692,2.75353 -6.84956,6.02156 -11.05834,8.94182c-1.65662,1.15604 -3.22459,2.34384 -4.70392,3.56339c-1.5863,1.31007 -3.6586,2.27714 -5.6117,3.41571c-1.64133,0.96231 -2.23734,3.08223 -4.59389,3.34901c-0.2873,0.03176 -0.43096,-0.03017 -0.43096,-0.18579c0,-2.26761 -0.24453,-4.52729 -0.73356,-6.77902c-0.08253,-0.37635 0.17421,-0.9099 -0.38511,-1.40058c-0.15283,-0.13339 -0.23536,-0.27789 -0.24758,-0.43351c-0.69688,-12.04629 -1.16452,-24.09734 -1.40293,-36.15316c-0.00612,-0.29219 -0.29952,-0.62248 -0.88026,-0.99089l0.04585,-17.84553c0.28118,-5.78336 0.40345,-9.74692 0.36677,-11.89067c-0.29952,-17.88365 -0.3087,-35.76729 -0.02751,-53.65094c0.00612,-0.4351 0.21701,-1.10204 0.63268,-2.00083c8.59481,0.03176 17.23547,-0.01429 25.92199,-0.13815c31.35031,-0.4478 62.84731,-0.21914 94.21596,-0.2906c6.9596,-0.01906 37.26462,0.10957 40.81317,0.13338z" fill="#ffffd2" stroke="none" stroke-width="1"/><path d="" fill="#f9fe77" stroke="none" stroke-width="1"/><path d="" fill="#cafd5b" stroke="none" stroke-width="1"/><path d="" fill="#816a13" stroke="none" stroke-width="1"/><path d="" fill="#17ae05" stroke="none" stroke-width="1"/><path d="" fill="#fffeb9" stroke="none" stroke-width="1"/><path d="" fill="#ef8372" stroke="none" stroke-width="1"/><path d="" fill="#aa524c" stroke="none" stroke-width="1"/><path d="" fill="#aa524c" stroke="none" stroke-width="1"/><path d="" fill="#aa524c" stroke="none" stroke-width="1"/><path d="" fill="#e30908" stroke="none" stroke-width="1"/><path d="" fill="#17ae05" stroke="none" stroke-width="1"/><path d="" fill="#cafd5b" stroke="none" stroke-width="1"/><path d="" fill="#ef8372" stroke="none" stroke-width="1"/><path d="" fill="#d9d6d9" stroke="none" stroke-width="1"/><path d="M21.50564,279.52678l-0.04585,17.84553l-0.14671,18.39338c-0.04278,-8.24788 -0.16505,-16.491 -0.36677,-24.72936c-0.02751,-1.16239 -0.63268,-2.3486 -0.91694,-3.53481c-0.03668,-0.16198 -0.12837,-0.2906 -0.27508,-0.38588c-0.17729,-0.11115 -0.38511,-0.2112 -0.62352,-0.30013c-0.09382,-0.03798 -0.22478,-0.03897 -0.32071,-0.00243c-0.09591,0.03654 -0.13346,0.10174 -0.09194,0.15964l0.11919,0.19532c0.14061,0.23501 -0.02446,0.343 -0.49515,0.32394l-3.27349,-0.1191c-1.15852,-0.04453 -2.20978,0.35451 -2.48491,0.94325c-1.72997,3.7063 -2.28319,7.46978 -1.65967,11.29042c0.36677,2.25808 0.81607,4.30179 0.43096,5.78336c-0.71522,2.72018 -0.08253,5.3165 -0.53183,8.01762c-0.41262,2.41053 0.28426,4.96874 -0.03668,7.4269c-0.37289,2.94091 -0.56544,4.80042 -0.57768,5.57852c-0.07336,3.22039 -0.14671,6.44078 -0.22007,9.66117c-0.01834,0.94325 0.03363,2.00242 0.15587,3.17752c0.11005,1.05758 0.18951,2.12152 0.23841,3.1918c0.07336,1.42917 -0.11615,2.4677 -0.56852,3.11558c-0.66632,-0.81622 -1.00252,-1.58161 -1.00864,-2.2962c-0.11615,-11.40158 -0.03668,-26.32685 0.23841,-44.7758c0.0489,-3.00125 0.01222,-6.18035 -0.11005,-9.53731c-0.51349,-13.94232 -0.59296,-27.87829 -0.23841,-41.8079l-0.03668,-2.85833c-0.00258,-0.06348 0.05878,-0.12291 0.16277,-0.15764c0.10399,-0.03473 0.2362,-0.03995 0.35073,-0.01386c0.07946,0.01906 0.15587,0.04605 0.22924,0.08098c0.22007,0.1048 0.29648,0.05558 0.22924,-0.14768c-0.0917,-0.2636 0.14365,-0.43034 0.70605,-0.50021c0.46459,-0.05399 0.758,0.01429 0.88026,0.20484c1.2715,0.12386 1.9592,-0.10162 2.06312,-0.67647c0.01834,-0.13657 0.14061,-0.24454 0.36677,-0.32394c1.03921,-0.36206 2.17622,-0.57802 3.41102,-0.64789c0.23229,-0.01271 0.42791,-0.06352 0.58684,-0.15245l2.36571,-1.33389c0.34233,-0.19373 0.53183,-0.16038 0.56852,0.10004c0.25674,1.95796 0.60518,3.8921 0.61434,5.88817c0.0489,10.976 0.15283,21.95041 0.31176,32.92325z" fill="#f6cf61" stroke="none" stroke-width="1"/><path d="" fill="#1c9cc5" stroke="none" stroke-width="1"/><path d="" fill="#d9d6d9" stroke="none" stroke-width="1"/><path d="" fill="#d9d6d9" stroke="none" stroke-width="1"/><path d="" fill="#811ed1" stroke="none" stroke-width="1"/><path d="" fill="#ab66fb" stroke="none" stroke-width="1"/><path d="" fill="#1c9cc5" stroke="none" stroke-width="1"/><path d="" fill="#d9d6d9" stroke="none" stroke-width="1"/><path d="" fill="#d9d6d9" stroke="none" stroke-width="1"/><path d="" fill="#d9d6d9" stroke="none" stroke-width="1"/><path d="" fill="#bd0015" stroke="none" stroke-width="1"/><path d="" fill="#d9d6d9" stroke="none" stroke-width="1"/><path d="" fill="#d9d6d9" stroke="none" stroke-width="1"/><path d="" fill="#811ed1" stroke="none" stroke-width="1"/><path d="M470.33116,297.88203l-0.53183,31.36069l-1.05447,-4.32561c-0.04278,-0.18738 -0.14977,-0.1985 -0.32094,-0.03335c-0.47069,0.45098 -1.21647,0.71458 -2.23734,0.7908c-0.30564,0.02223 -0.58378,0.08098 -0.83441,0.17627c-1.57714,0.6066 -2.81502,1.36248 -3.71362,2.26761c-0.12227,0.11751 -0.26592,0.12545 -0.43096,0.02382l-0.41262,-0.24772c-0.18951,-0.11433 -0.3576,-0.10798 -0.50433,0.01906l-0.26592,0.23819c-0.04953,0.04693 -0.15509,0.06973 -0.25405,0.05487c-0.09897,-0.01486 -0.16484,-0.06339 -0.15859,-0.11681l0.00917,-0.44304c0,-0.07622 -0.03973,-0.08098 -0.11919,-0.01429c-0.0489,0.04128 -0.07336,0.09051 -0.07336,0.14768c0.00917,1.8722 -0.71522,3.81587 -0.61434,5.55946c0.18339,3.34743 0.43096,6.69326 0.74273,10.03752c0.08558,0.92419 -0.07029,1.62608 -0.46765,2.10564c-0.8986,1.07029 -2.46047,1.29737 -4.68558,0.68123l1.33873,-0.71458c2.42991,-1.98655 2.28319,-3.4967 2.29236,-5.77383c0.08558,-22.006 0.10697,-43.99453 0.06419,-65.96558l1.05447,-3.57768c0.03668,-0.13657 0.18951,-0.20484 0.45847,-0.20484c1.00864,-0.00318 1.9103,0.11751 2.70497,0.36206c0.27508,0.08258 0.56239,0.09846 0.86192,0.04764l3.09928,-0.50497c0.31176,-0.04764 0.61434,-0.03811 0.90777,0.02859c0.69076,0.15562 1.38763,0.13657 2.09063,-0.05717c0.21395,-0.05717 0.32094,-0.02223 0.32094,0.1048z" fill="#f6cf61" stroke="none" stroke-width="1"/><path d="" fill="#d9d6d9" stroke="none" stroke-width="1"/><path d="" fill="#dbae57" stroke="none" stroke-width="1"/><path d="" fill="#fbd2be" stroke="none" stroke-width="1"/><path d="" fill="#1c9cc5" stroke="none" stroke-width="1"/><path d="" fill="#d9d6d9" stroke="none" stroke-width="1"/><path d="" fill="#d9d6d9" stroke="none" stroke-width="1"/><path d="" fill="#d9d6d9" stroke="none" stroke-width="1"/><path d="" fill="#d9d6d9" stroke="none" stroke-width="1"/><path d="" fill="#d9d6d9" stroke="none" stroke-width="1"/><path d="" fill="#82c5c2" stroke="none" stroke-width="1"/><path d="M21.31306,315.76569c0.15283,8.72109 0.21701,17.45331 0.19255,26.19663c-0.01222,3.27756 3.06565,4.91951 9.23362,4.92586c63.33022,0.06352 202.31136,0.06193 416.94338,-0.00476c2.74471,0 4.98511,-0.23978 6.72119,-0.71935c2.22512,0.61613 3.78698,0.38905 4.68558,-0.68123c0.39735,-0.47957 0.55322,-1.18144 0.46765,-2.10564c-0.31176,-3.34425 -0.55934,-6.69009 -0.74273,-10.03752c-0.10087,-1.74359 0.62352,-3.68725 0.61434,-5.55946c0,-0.05717 0.02446,-0.10639 0.07336,-0.14768c0.07946,-0.06669 0.11919,-0.06193 0.11919,0.01429l-0.00917,0.44304c-0.00627,0.05342 0.05961,0.10195 0.15859,0.11681c0.09897,0.01486 0.20452,-0.00794 0.25405,-0.05487l0.26592,-0.23819c0.14671,-0.12704 0.31482,-0.13339 0.50433,-0.01906l0.41262,0.24772c0.16505,0.10162 0.3087,0.09369 0.43096,-0.02382c0.8986,-0.90513 2.13648,-1.66101 3.71362,-2.26761c0.25063,-0.09528 0.52876,-0.15403 0.83441,-0.17627c1.02087,-0.07622 1.76665,-0.33983 2.23734,-0.7908c0.17117,-0.16515 0.27814,-0.15403 0.32094,0.03335l1.05447,4.32561c0.10392,2.85198 0.07641,7.52536 -0.08253,14.02013c-0.06112,2.59473 -1.60465,4.802 -4.63057,6.62181c-2.70193,1.44822 -5.79203,2.49946 -9.2703,3.1537c-2.32292,0.43827 -5.78591,0.65742 -10.38896,0.65742c-57.08279,0.01271 -114.16253,0.06987 -171.2392,0.1715c-1.21647,0.00318 -2.43906,0.00953 -3.66777,0.01906c-22.96638,0.1842 -45.9297,0.1445 -68.88997,-0.1191c-6.69981,-0.07622 -12.80971,-0.11115 -18.3297,-0.1048c-50.68863,0.06034 -101.38033,0.05241 -152.07509,-0.02382c-2.57966,-0.00635 -4.83534,-0.19055 -6.76705,-0.55261c-2.87921,-0.54308 -5.57502,-1.23226 -8.08744,-2.06753c-3.32545,-1.45457 -5.51083,-3.27438 -6.55615,-5.45942c0.45235,-0.64789 0.64186,-1.68642 0.56852,-3.11558c-0.0489,-1.07029 -0.12837,-2.13422 -0.23841,-3.1918c-0.12227,-1.17509 -0.17421,-2.23426 -0.15587,-3.17752c0.07336,-3.22039 0.14671,-6.44078 0.22007,-9.66117c0.01222,-0.7781 0.20477,-2.63761 0.57768,-5.57852c0.32094,-2.45817 -0.37594,-5.01637 0.03668,-7.4269c0.4493,-2.70113 -0.18339,-5.29745 0.53183,-8.01762c0.38511,-1.48157 -0.06419,-3.52528 -0.43096,-5.78336c-0.62352,-3.82064 -0.07029,-7.58411 1.65967,-11.29042c0.27514,-0.58874 1.3264,-0.98778 2.48491,-0.94325l3.27349,0.1191c0.47069,0.01906 0.63576,-0.08893 0.49515,-0.32394l-0.11919,-0.19532c-0.04152,-0.05791 -0.00399,-0.12309 0.09194,-0.15964c0.09591,-0.03654 0.22687,-0.03555 0.32071,0.00243c0.23841,0.08893 0.44625,0.18897 0.62352,0.30013c0.14671,0.09528 0.23841,0.2239 0.27508,0.38588c0.28426,1.18621 0.88943,2.37241 0.91694,3.53481c0.20173,8.23835 0.32398,16.48147 0.36677,24.72936z" fill="#f3bc3e" stroke="none" stroke-width="1"/><path d="" fill="#d9d6d9" stroke="none" stroke-width="1"/><path d="" fill="#d9d6d9" stroke="none" stroke-width="1"/><path d="" fill="#d9d6d9" stroke="none" stroke-width="1"/><path d="" fill="#d9d6d9" stroke="none" stroke-width="1"/><path d="" fill="#d9d6d9" stroke="none" stroke-width="1"/><path d="" fill="#d9d6d9" stroke="none" stroke-width="1"/><path d="" fill="#d9d6d9" stroke="none" stroke-width="1"/><path d="M21.45979,297.37231c0.58074,0.3684 0.87416,0.69871 0.88026,0.99089c0.23841,12.05582 0.70605,24.10687 1.40293,36.15316c0.01222,0.15562 0.09475,0.30013 0.24758,0.43351c0.55934,0.49068 0.3026,1.02423 0.38511,1.40058c0.48903,2.25173 0.73356,4.51141 0.73356,6.77902c0,0.15562 0.14365,0.21755 0.43096,0.18579c2.35655,-0.26678 2.95255,-2.38671 4.59389,-3.34901c1.9531,-1.13857 4.02539,-2.10564 5.6117,-3.41571c1.47934,-1.21956 3.04731,-2.40735 4.70392,-3.56339c4.20877,-2.92027 7.49144,-6.1883 11.05834,-8.94182c1.47321,-1.13381 3.64333,-1.69753 6.5103,-1.69118c34.03084,0.06034 68.06471,0.07622 102.10167,0.04764c2.07229,-0.00476 26.21544,-0.01271 32.50567,0.18102c6.79149,0.20644 17.93542,0.1985 33.43176,-0.02382c5.83177,-0.08575 11.94472,-0.11275 18.33887,-0.08098c12.9289,0.06193 26.45382,-0.12386 38.7317,-0.04764c41.48865,0.2509 82.98034,0.27948 124.47508,0.08575c7.2622,-0.03811 10.31562,2.86786 14.99202,5.68809c1.94393,1.17668 5.25408,2.4677 7.6198,3.84922c4.29129,2.49628 8.76904,4.90046 13.43322,7.21253c1.24706,0.61931 2.27402,1.61496 3.49356,2.14851c2.06617,0.90513 3.84198,1.9389 5.32744,3.10129c0.84358,0.66219 1.81554,0.95278 3.27349,0.93372l-1.33873,0.71458c-1.73609,0.47957 -3.97649,0.71935 -6.72119,0.71935c-214.63204,0.06669 -353.61316,0.06828 -416.94338,0.00476c-6.16797,-0.00635 -9.24584,-1.6483 -9.23362,-4.92586c0.02446,-8.74333 -0.03973,-17.47553 -0.19255,-26.19663z" fill="#fdf3b2" stroke="none" stroke-width="1"/><path d="" fill="#eb6909" stroke="none" stroke-width="1"/><path d="" fill="#f48c0c" stroke="none" stroke-width="1"/><path d="" fill="#e30908" stroke="none" stroke-width="1"/><path d="" fill="#d9d6d9" stroke="none" stroke-width="1"/><path d="" fill="#aa524c" stroke="none" stroke-width="1"/><path d="" fill="#aa524c" stroke="none" stroke-width="1"/><path d="" fill="#ef8372" stroke="none" stroke-width="1"/><path d="" fill="#fbe685" stroke="none" stroke-width="1"/><path d="" fill="#1c9cc5" stroke="none" stroke-width="1"/><path d="" fill="#d9d6d9" stroke="none" stroke-width="1"/><path d="" fill="#ef8372" stroke="none" stroke-width="1"/><path d="" fill="#aa524c" stroke="none" stroke-width="1"/><path d="" fill="#aa524c" stroke="none" stroke-width="1"/><path d="" fill="#8d5e12" stroke="none" stroke-width="1"/><path d="" fill="#cfa150" stroke="none" stroke-width="1"/><path d="" fill="#8d5e12" stroke="none" stroke-width="1"/><path d="" fill="#8d5e12" stroke="none" stroke-width="1"/><path d="" fill="#816a13" stroke="none" stroke-width="1"/><path d="" fill="#816a13" stroke="none" stroke-width="1"/><path d="" fill="#816a13" stroke="none" stroke-width="1"/><path d="" fill="#816a13" stroke="none" stroke-width="1"/><path d="" fill="#8d5e12" stroke="none" stroke-width="1"/><path d="" fill="#816a13" stroke="none" stroke-width="1"/><path d="" fill="#816a13" stroke="none" stroke-width="1"/><path d="" fill="#816a13" stroke="none" stroke-width="1"/><path d="" fill="#816a13" stroke="none" stroke-width="1"/><path d="" fill="#8d5e12" stroke="none" stroke-width="1"/><path d="" fill="#fbc488" stroke="none" stroke-width="1"/><path d="" fill="#8d5e12" stroke="none" stroke-width="1"/><path d="" fill="#fbc488" stroke="none" stroke-width="1"/><path d="M121.02257,67.50665v-6.2859h94.55769v6.2859z" fill="#fbe685" stroke="none" stroke-width="0"/></g><text transform="translate(17.2256,15.46013) scale(0.41367,0.39474)" font-size="40" xml:space="preserve" fill="#faeeb9" fill-rule="nonzero" stroke="#954f00" stroke-width="8" stroke-linecap="butt" stroke-linejoin="miter" stroke-miterlimit="10" stroke-dasharray="" stroke-dashoffset="0" font-family="Sans Serif" font-weight="normal" text-anchor="start" style="mix-blend-mode: normal"><tspan x="0" dy="0">Score:</tspan></text><text transform="translate(3.31335,33.9652) scale(0.41367,0.39474)" font-size="40" xml:space="preserve" fill="#faeeb9" fill-rule="nonzero" stroke="#954f00" stroke-width="8" stroke-linecap="butt" stroke-linejoin="miter" stroke-miterlimit="10" stroke-dasharray="" stroke-dashoffset="0" font-family="Sans Serif" font-weight="normal" text-anchor="start" style="mix-blend-mode: normal"><tspan x="0" dy="0">Players:</tspan></text><text transform="translate(17.2256,15.46013) scale(0.41367,0.39474)" font-size="40" xml:space="preserve" fill="#faeeb9" fill-rule="nonzero" stroke="#faeeb9" stroke-width="2" stroke-linecap="butt" stroke-linejoin="miter" stroke-miterlimit="10" stroke-dasharray="" stroke-dashoffset="0" font-family="Sans Serif" font-weight="normal" text-anchor="start" style="mix-blend-mode: normal"><tspan x="0" dy="0">Score:</tspan></text><text transform="translate(3.31335,33.9652) scale(0.41367,0.39474)" font-size="40" xml:space="preserve" fill="#faeeb9" fill-rule="nonzero" stroke="#faeeb9" stroke-width="2" stroke-linecap="butt" stroke-linejoin="miter" stroke-miterlimit="10" stroke-dasharray="" stroke-dashoffset="0" font-family="Sans Serif" font-weight="normal" text-anchor="start" style="mix-blend-mode: normal"><tspan x="0" dy="0">Players:</tspan></text></g></g></svg>