<svg version="1.1" xmlns="http://www.w3.org/2000/svg" xmlns:xlink="http://www.w3.org/1999/xlink" width="147.63912" height="135.1459" viewBox="0,0,147.63912,135.1459"><g transform="translate(-165.73937,-111.12449)"><g data-paper-data="{&quot;isPaintingLayer&quot;:true}" fill-rule="nonzero" stroke-linecap="butt" stroke-linejoin="miter" stroke-miterlimit="10" stroke-dasharray="" stroke-dashoffset="0" style="mix-blend-mode: normal"><path d="M214.68507,166.75932c-4.24042,-0.5984 -9.50001,-0.74429 -13.16196,0.36813c-2.0708,0.62906 -2.73894,1.58513 -3.16653,2.94456c2.41473,-0.06818 4.83015,-0.0754 7.13976,0.19016c3.21811,0.37002 6.38067,1.14917 9.59962,1.51189l0.06158,0.03069l0.00346,-0.02073l2.95946,0.49325c1.06995,0.15894 1.91875,0.99578 2.0956,2.05979c1.02337,-0.25855 2.0773,-0.56913 3.17405,-0.93452c1.57547,-0.63094 4.60272,-1.21694 5.9425,-2.28986c0.13486,-0.108 -0.31455,-0.14329 -0.46857,-0.2216c-0.9026,-0.45887 -1.78296,-0.96277 -2.70106,-1.38977c-2.5139,-1.1692 -5.03971,-1.38765 -7.76653,-1.77643l-1.64644,0.02513c0,0 -1.34877,0 -2.06493,-0.99068zM219.35234,162.81042c4.13173,0.58131 10.50011,1.27106 13.28363,4.79851c1.03612,1.31304 1.94664,3.15815 1.53143,4.7784c-0.84962,3.31542 -6.37889,4.63991 -9.0575,5.71014c-0.671,0.22377 -1.34438,0.45491 -2.02092,0.68341c0.6832,0.1027 2.16102,0.547 2.16102,2.46912c0,2.5 -2.5,2.5 -2.5,2.5c-6.88314,0 -13.76627,0 -20.64941,0c-5.16565,1.69161 -10.39113,3.30509 -15.42211,5.32119l-1.04172,0.75894c0,0 -1.24882,0.83254 -2.4563,0.23986c-0.65749,2.70153 -1.46026,5.41033 -1.96273,8.08047c-0.47267,2.51171 0.79063,5.48241 1.42864,7.88718c0.73386,2.76604 3.90243,4.47599 5.87141,6.4446c5.94005,5.93894 12.41841,11.1429 19.10506,16.17843c7.12585,4.08015 15.09069,6.43766 22.84662,9.04266c3.73456,1.25433 8.60558,3.81336 12.74025,3.54701c2.60325,-0.1677 5.46473,-1.35747 7.99313,-1.93971c9.10732,-2.09724 17.71069,-5.43116 26.59046,-8.37032c3.11581,-1.56562 9.68741,-3.61369 11.17444,-7.21072c2.04021,-4.93515 1.28226,-11.26706 1.28226,-16.47958c0,-1.99919 0.51074,-4.05172 0.05106,-5.99733c-0.46431,-1.96522 -1.62216,-3.69935 -2.37225,-5.57419l-0.97895,-2.44736c-0.12865,-0.30123 -0.19986,-0.63285 -0.19986,-0.98111c0,-1.38071 1.11929,-2.5 2.5,-2.5c0.57191,0 1.09897,0.19204 1.5202,0.51515l1.9798,1.48485l-0.24034,0.32046c2.2813,1.03653 4.42538,2.22602 6.85125,3.43993c1.51843,0.75983 2.61856,2.46089 4.29316,2.74145c1.06358,0.17819 1.4067,-1.66618 1.87003,-2.63997c1.27984,-2.68982 1.57153,-3.58475 2.29629,-6.4509c1.07214,-4.23996 -0.77194,-7.60353 -2.38008,-11.45426c-2.09526,-5.01714 -4.7951,-9.93786 -6.52711,-15.06826c-0.89222,-2.08183 -1.50133,-4.28 -2.43447,-6.34381c-4.51639,-9.98888 -14.49848,-17.92821 -23.15593,-23.99206c-3.83164,-2.68375 -6.8746,-6.53312 -10.88712,-8.92596c-4.20012,-2.5047 -8.7458,-4.11141 -13.09198,-6.29669c-5.28982,-1.53651 -11.23264,-0.97316 -16.82595,-0.85092c-0.16451,0.02098 -0.26774,0.02098 -0.26774,0.02098c-0.5,0 -1,0 -1.5,0l-1.39366,0.42535c0,0 -1.26926,0.31732 -2.20092,-0.42535c-6.96847,0 -13.93695,0 -20.90542,0c-4.14552,0 -7.56478,-0.45168 -11.2413,1.66002c-2.58037,1.4821 -3.94358,4.88442 -5.91265,7.02583c-4.38528,4.76908 -8.96827,9.33945 -13.2785,14.18835c-1.11323,1.3176 -4.85951,4.76036 -5.11267,7.09858c-0.43898,4.05453 0.04511,8.43625 0.04511,12.52723c0,3 0.00583,6 0,9c-0.00039,0.20403 -0.12519,3.31781 0.20418,3.82036c1.03066,1.57252 2.76688,2.5504 4.06358,3.91188c0.47563,0.49938 0.77113,1.21393 1.37619,1.54485c1.51707,0.82971 3.96845,-0.05213 5.77416,-0.20348l0.8216,-1.64319c0.40086,-0.84562 1.26228,-1.43041 2.26029,-1.43041c1.38071,0 2.5,1.11929 2.5,2.5c0,0.34826 -0.07121,0.67988 -0.19986,0.98111l-0.60755,1.51887c2.0725,0 4.19302,0 6.3441,0c0.13573,-0.8789 0.62788,-1.37157 1.13697,-1.64773c-0.472,-0.23436 -0.87464,-0.51185 -1.16953,-0.84678c-0.26074,-0.29613 -0.45988,-0.63705 -0.60506,-1.01246c-0.3014,0.00447 -0.60119,0.00697 -0.89906,0.00697c0,0 -2.5,0 -2.5,-2.5c0,-2.5 2.5,-2.5 2.5,-2.5c0.364,0 0.73044,-0.00331 1.09889,-0.00912c0.74523,-2.4759 2.155,-4.87238 3.2466,-5.86507c3.0464,-2.77039 7.39219,-2.62165 11.15451,-2.62581c3.73481,-0.00413 7.31804,-0.1693 10.99029,0.54855c0,0 0.57479,0.11496 1.11205,0.51187zM184.39638,184.69828l0.42516,-0.26947c0.58682,-0.23433 1.17612,-0.46344 1.76753,-0.68806c-0.32844,-0.03005 -1.09266,-0.15769 -1.65868,-0.69993c-0.20365,0.54331 -0.37869,1.09722 -0.53401,1.65746zM230.75001,111.25c6.82942,0 13.81289,-0.69107 20.40631,1.17006c4.62634,2.30097 9.45897,4.01973 13.90802,6.70331c4.10629,2.47683 7.19149,6.33083 11.11288,9.07404c8.2425,5.76606 15.78611,12.28541 21.62537,20.62538c2.63932,3.76963 3.99162,7.856 5.78423,12.03875c2.60019,7.91291 8.09715,15.11241 9.61808,23.41568c0.7952,4.34126 -1.29055,9.86656 -3.22898,13.6109c-0.56575,1.09282 -1.03176,2.31961 -1.95814,3.12964c-4.55722,3.98483 -6.61459,1.10211 -10.87867,-1.02815c-0.5254,-0.26248 -1.35746,-0.57054 -2.27901,-0.93076c0.13238,0.39001 0.2475,0.78547 0.33886,1.18848c0.06806,0.30024 0.05106,6.70016 0.05106,7.00267c0,5.8593 0.81122,13.0464 -1.71774,18.52042c-2.3668,5.12303 -9.15933,7.46654 -13.82556,9.78928c-9.13785,3.06509 -18.02525,6.468 -27.40954,8.62968c-3.52869,0.81284 -5.06086,1.83138 -9.00687,2.06029c-4.81381,0.27926 -10.01872,-2.33062 -14.41447,-3.80712c-8.19589,-2.75293 -16.46342,-5.30466 -23.99866,-9.60322c-6.97643,-5.21403 -13.71783,-10.64332 -19.89494,-16.82157c-1.8436,-1.84394 -4.16665,-3.23037 -5.75483,-5.29837c-1.37706,-1.7931 -1.39918,-3.83362 -1.90703,-5.88036c-1.64213,-6.61814 0.15772,-11.50763 1.47552,-18.06587c0.25526,-1.27033 0.50747,-3.00015 0.93372,-4.64802c-1.91998,0.26277 -3.8417,0.19877 -5.62357,-0.65223c-1.08085,-0.5162 -1.76126,-1.62407 -2.62381,-2.45515c-0.75109,-0.72369 -4.74521,-4.75292 -4.93642,-5.08812c-0.96942,-1.69943 -0.79244,-4.30766 -0.79582,-6.17964c-0.00722,-3.99998 0,-8.00002 0,-12c0,-0.65708 -0.01373,-10.08399 0.04511,-10.47277c0.54831,-3.62257 4.06823,-6.85071 6.2437,-9.42733c4.34016,-4.88279 8.92714,-9.50256 13.36514,-14.28574c2.60604,-2.80874 3.70538,-5.88609 7.08735,-7.97417c4.3526,-2.68735 8.8645,-2.33998 13.7587,-2.33998c8.16666,0 16.33334,0 24.5,0z" fill="#001dff" stroke="none" stroke-width="0.5"/><path d="M184.34668,184.70372c0.19,-0.68534 0.40935,-1.36297 0.67466,-2.02154c0.322,-0.79931 1.12942,-1.55894 0.95999,-2.40307l0.33959,-0.67985l0.20029,0.08019l0.97895,-2.4497c0.12866,-0.30123 0.1999,-0.63381 0.1999,-0.98207c0,-1.38071 -1.11914,-2.50219 -2.49985,-2.50219c-0.99801,0 -1.75973,0.59238 -2.16059,1.43799l-0.82153,1.64172c-1.80571,0.15135 -4.35705,1.0303 -5.87411,0.20059c-0.60506,-0.33092 -0.90052,-1.04663 -1.37615,-1.54602c-1.2967,-1.36148 -3.03271,-2.34205 -4.06337,-3.91457c-0.32937,-0.50254 -0.20423,-3.61903 -0.20383,-3.82305c0.00583,-3 0.00136,-6.00609 0.00136,-9.00609c0,-4.09098 -0.48128,-8.48012 -0.0423,-12.53466c0.25315,-2.33821 4.0022,-5.78604 5.11543,-7.10363c4.31023,-4.84889 8.90152,-9.42937 13.28679,-14.19845c1.96907,-2.14141 3.33696,-5.5476 5.91733,-7.0297c3.67651,-2.11169 7.10182,-1.6638 11.24735,-1.6638c6.96847,0 13.95079,-0.0049 20.91926,-0.0049c0.93167,0.74267 2.20256,0.42506 2.20256,0.42506l1.39479,-0.42552c0.5,0 1.00117,-0.00015 1.50117,-0.00015c0,0 0.10345,-0.00002 0.26796,-0.021c5.59331,-0.12225 11.54958,-0.68525 16.8394,0.85127c4.34618,2.18528 8.90312,3.79521 13.10324,6.29991c4.01252,2.39283 7.06577,6.24801 10.89741,8.93177c8.65745,6.06384 18.65652,14.02529 23.17292,24.01416c0.93314,2.06381 1.54398,4.26722 2.4362,6.34905c1.73201,5.1304 4.43355,10.06338 6.52881,15.08052c1.60814,3.85073 3.45165,7.2226 2.37951,11.46256c-0.72476,2.86615 -1.01743,3.76591 -2.29727,6.45573c-0.46333,0.97378 -0.80707,2.82033 -1.87064,2.64213c-1.67459,-0.28056 -2.87069,-2.00973 -4.38912,-2.76955c-2.42587,-1.21391 -4.57029,-2.40211 -6.85159,-3.43864l0.24026,-0.32013l-1.98001,-1.48395c-0.42124,-0.32311 -0.85072,-0.49328 -1.42263,-0.49328c-1.38071,0 -2.50075,1.12222 -2.50075,2.50293c0,0.34826 0.07096,0.68074 0.19961,0.98197l0.97832,2.44925c0.75009,1.87484 1.90645,3.6127 2.37077,5.57792c0.45968,1.94562 -0.05317,4.00237 -0.05317,6.00155c0,5.21251 0.75136,11.55356 -1.28885,16.4887c-1.48703,3.59704 -8.06603,5.65177 -11.18183,7.21739c-8.87977,2.93915 -17.50316,6.28187 -26.61048,8.37911c-2.5284,0.58224 -5.39639,1.77285 -7.99965,1.94055c-4.13467,0.26635 -9.0162,-2.29313 -12.75076,-3.54746c-7.75593,-2.605 -15.74013,-4.96972 -22.86598,-9.04988c-6.68666,-5.03553 -13.17986,-10.254 -19.11991,-16.19294c-1.96898,-1.96861 -5.14095,-3.68451 -5.87481,-6.45056c-0.638,-2.40477 -1.90369,-5.38132 -1.43102,-7.89303c0.50248,-2.67014 1.30366,-5.38489 1.96114,-8.08641c1.20748,0.59268 2.45634,-0.23963 2.45634,-0.23963l1.04163,-0.75942c5.89252,-2.36134 12.05123,-4.17401 18.06874,-6.20314c0.83152,-0.28039 8.99995,-2.98879 9.67297,-3.42539c0.05411,-0.0351 0.10794,-0.0708 0.16148,-0.10665l0.01072,0.01934l4.32728,-2.40953c0.7909,-0.41981 1.33039,-1.25771 1.33039,-2.21553c0,-1.25484 -0.9234,-2.29812 -2.12844,-2.47712l-2.86348,-0.4652l-0.00344,0.02069l-0.06159,-0.03067c-3.21894,-0.36272 -6.38108,-1.14349 -9.59919,-1.51351c-4.44328,-0.51089 -9.27742,-0.0155 -13.74564,-0.0155c0,0 -2.49958,-0.00284 -2.49958,2.49716c0,2.5 2.40047,2.49059 2.40047,2.49059c4.29497,0 8.98524,-0.51969 13.25377,-0.01355c1.44512,0.17136 2.9787,0.43296 4.412,0.69017c-2.02818,0.61893 -4.01742,1.48711 -6.16567,2.21144c-6.10609,2.0588 -12.34659,3.9002 -18.32898,6.28904z" data-paper-data="{&quot;noHover&quot;:false,&quot;origItem&quot;:[&quot;Path&quot;,{&quot;applyMatrix&quot;:true,&quot;segments&quot;:[[[184.82153,184.42881],[0,0],[5.98238,-2.38885]],[[203.15023,178.13379],[-6.10609,2.0588],[2.14826,-0.72433]],[[209.31611,175.91853],[-2.02818,0.61893],[-1.43329,-0.25721]],[[205.00366,175.23784],[1.44512,0.17136],[-4.26854,-0.50615]],[[191.75,175.25],[4.29497,0],[0,0]],[[189.25,172.75],[0,2.5],[0,-2.5]],[[191.75,170.25],[0,0],[4.46821,0]],[[205.49635,170.26217],[-4.44328,-0.51089],[3.21811,0.37002]],[[215.09596,171.77406],[-3.21894,-0.36272],[0,0]],[215.15754,171.80475],[215.161,171.78402],[[218.12046,172.27726],[0,0],[1.20504,0.179]],[[220.25,174.75],[0,-1.25484],[0,0.95782]],[[218.92046,176.95965],[0.7909,-0.41981],[0,0]],[214.59332,179.36361],[[214.5826,179.34431],[0,0],[-0.05355,0.03585]],[[214.42111,179.45076],[0.05411,-0.0351],[-0.67302,0.4366]],[[204.7478,182.8717],[0.83152,-0.28039],[-6.01751,2.02913]],[[186.67848,189.07119],[5.89252,-2.36134],[0,0]],[185.63675,189.83013],[[183.18046,190.06999],[1.20748,0.59268],[-0.65749,2.70153]],[[181.21772,198.15046],[0.50248,-2.67014],[-0.47267,2.51171]],[[182.64636,206.03764],[-0.638,-2.40477],[0.73386,2.76604]],[[188.51777,212.48224],[-1.96898,-1.96861],[5.94005,5.93894]],[[207.62283,228.66066],[-6.68666,-5.03553],[7.12585,4.08015]],[[230.46945,237.70332],[-7.75593,-2.605],[3.73456,1.25433]],[[243.2097,241.25033],[-4.13467,0.26635],[2.60325,-0.1677]],[[251.20283,239.31062],[-2.5284,0.58224],[9.10732,-2.09724]],[[277.79329,230.9403],[-8.87977,2.93915],[3.11581,-1.56562]],[[288.96774,223.72958],[-1.48703,3.59704],[2.04021,-4.93515]],[[290.25,207.25],[0,5.21251],[0,-1.99919]],[[290.30106,201.25267],[0.45968,1.94562],[-0.46431,-1.96522]],[[287.92881,195.67848],[0.75009,1.87484],[0,0]],[[286.94987,193.23112],[0,0],[-0.12865,-0.30123]],[[286.75,192.25],[0,0.34826],[0,-1.38071]],[[289.25,189.75],[-1.38071,0],[0.57191,0]],[[290.7702,190.26515],[-0.42124,-0.32311],[0,0]],[292.75,191.75],[[292.50966,192.07046],[0,0],[2.2813,1.03653]],[[299.36091,195.51039],[-2.42587,-1.21391],[1.51843,0.75983]],[[303.65406,198.25184],[-1.67459,-0.28056],[1.06358,0.17819]],[[305.5241,195.61187],[-0.46333,0.97378],[1.27984,-2.68982]],[[307.82038,189.16097],[-0.72476,2.86615],[1.07214,-4.23996]],[[305.4403,177.70671],[1.60814,3.85073],[-2.09526,-5.01714]],[[298.91319,162.63845],[1.73201,5.1304],[-0.89222,-2.08183]],[[296.47872,156.29464],[0.93314,2.06381],[-4.51639,-9.98888]],[[273.3228,132.30258],[8.65745,6.06384],[-3.83164,-2.68375]],[[262.43567,123.37663],[4.01252,2.39283],[-4.20012,-2.5047]],[[249.34369,117.07994],[4.34618,2.18528],[-5.28982,-1.53651]],[[232.51775,116.22902],[5.59331,-0.12225],[-0.16451,0.02098]],[[232.25,116.25],[0,0],[-0.5,0]],[[230.75,116.25],[0.5,0],[0,0]],[229.35634,116.67536],[[227.15542,116.25],[0.93167,0.74267],[-6.96847,0]],[[206.25,116.25],[6.96847,0],[-4.14552,0]],[[195.00871,117.91002],[3.67651,-2.11169],[-2.58037,1.4821]],[[189.09606,124.93585],[1.96907,-2.14141],[-4.38528,4.76908]],[[175.81756,139.12419],[4.31023,-4.84889],[-1.11323,1.3176]],[[170.70489,146.22277],[0.25315,-2.33821],[-0.43898,4.05453]],[[170.75,158.75],[0,-4.09098],[0,3]],[[170.75,167.75],[0.00583,-3],[-0.00039,0.20403]],[[170.95419,171.57036],[-0.32937,-0.50254],[1.03066,1.57252]],[[175.01777,175.48224],[-1.2967,-1.36148],[0.47563,0.49938]],[[176.39396,177.02708],[-0.60506,-0.33092],[1.51707,0.82971]],[[182.16811,176.82361],[-1.80571,0.15135],[0,0]],[[182.98971,175.18041],[0,0],[0.40086,-0.84562]],[[185.25,173.75],[-0.99801,0],[1.38071,0]],[[187.75,176.25],[0,-1.38071],[0,0.34826]],[[187.55014,177.23112],[0.12866,-0.30123],[0,0]],[186.57119,179.67848],[186.37091,179.59836],[[186.0313,180.27758],[0,0],[0.16942,0.84413]],[[185.07119,182.67848],[0.322,-0.79931],[-0.26531,0.65857]],[[184.39637,184.69825],[0.19,-0.68534],[0,0]]],&quot;closed&quot;:true}]}" fill="#00a0e5" stroke="none" stroke-width="0.5"/><path d="M184.25,183.5c0,12.28833 8.17081,22.25 18.25,22.25c10.07919,0 30.75,-17.96167 30.75,-30.25c0,-12.28833 -14.17081,-27.75 -24.25,-27.75c-10.07919,0 -24.75,23.46167 -24.75,35.75z" fill="#006b99" stroke="#002ea9" stroke-width="0"/><path d="M237.75,175.67633c0,4.70799 -10.0736,8.52456 -22.5,8.52456c-12.4264,0 -22.5,-3.81657 -22.5,-8.52456c0,-4.70799 10.0736,-8.52456 22.5,-8.52456c12.4264,0 22.5,3.81657 22.5,8.52456z" fill="#000000" stroke="#ffffff" stroke-width="3"/><path d="M282.75,175.67632c0,4.70799 -10.0736,8.52456 -22.5,8.52456c-12.4264,0 -22.5,-3.81657 -22.5,-8.52456c0,-4.70799 10.0736,-8.52455 22.5,-8.52455c12.4264,0 22.5,3.81657 22.5,8.52455z" fill="#000000" stroke="#ffffff" stroke-width="3"/><path d="M244.01777,240.51777c-1.76776,1.76776 -3.53553,0 -3.53553,0l0.33929,0.05343c-1.03074,-0.44564 -2.18436,-0.67601 -3.09225,-1.33689c-0.61549,-0.44804 -0.69805,-1.41942 -1.31221,-1.86928c-1.25541,-0.91956 -3.11092,-0.12083 -4.66707,-0.11501c0,0 -0.13196,0 -0.33524,-0.03032c-1.36331,2.10861 -3.1418,3.9806 -5.16476,5.53032l-2.20943,0.87171c0,0 -2.37171,0.79057 -3.16228,-1.58114c-0.79057,-2.37171 1.58114,-3.16228 1.58114,-3.16228l0.79057,-0.12829c2.49821,-1.82002 4.76319,-4.63377 5.62924,-7.7062c-1.29167,-0.09007 -2.56529,-0.19664 -3.80647,-0.30009c-5.08962,-0.42424 -8.85163,-1.05711 -13.1956,-3.90437c-1.31056,-0.85901 -2.94594,-1.30085 -4.01314,-2.44826c-2.6831,-2.88476 -2.33852,-9.31637 -2.10774,-12.8183c0.01934,-0.29358 0.02313,-0.59572 0.02498,-0.90043c-2.75784,1.05767 -5.97137,2.04159 -8.26301,0.75315c-3.2462,-1.82513 -2.20795,-3.82106 -3.13294,-6.36416c-1.57722,-4.33628 -4.9717,-10.24983 -0.90308,-14.5791c1.9272,-2.05067 7.53402,-3.0304 10.09054,-3.22594c7.90515,-0.60465 16.64012,-0.45869 24.48731,0.51301c0,0 0.17842,0.0223 0.43356,0.10279c2.71848,-1.05901 5.74885,-2.15112 8.28359,-2.57699c3.33693,-0.56064 7.59178,-0.04511 10.97277,-0.04511c7.4446,0.00614 15.95112,-0.30835 22.69076,3.3018c3.70884,1.98666 6.79536,4.05196 7.29708,8.45186c0.37498,3.28838 0.30791,9.21043 -3.3698,10.98242c-1.38903,0.66926 -3.07724,0.2068 -4.61804,0.26393c-1.83207,0.06793 -3.66667,0 -5.5,0c-1.22207,0 -2.46597,0.22006 -3.67168,0.05509c0.13946,1.00425 -0.18874,2.54796 -0.3807,3.45398c-1.05752,4.99135 -3.27857,8.1822 -6.4867,12.04166c-4.79914,6.28403 -12.29278,7.55504 -19.79981,7.46689c-0.06791,0.32255 -0.14554,0.6423 -0.23252,0.95906c1.8522,-0.01644 3.91881,0.06235 5.40434,0.9083c0.78735,0.44836 0.97233,1.57478 1.68779,2.13072c0.53161,0.41308 1.27183,0.44207 1.90775,0.66311l1.33929,1.05343c0,0 1.76776,1.76776 0,3.53553zM218.25,192.75c0,2.33334 0.1981,4.67509 0,7c-0.03227,0.37877 -0.76626,0.79769 -0.47189,1.03823c0.49936,0.40804 1.31705,-0.0525 1.9286,0.15207c4.71846,1.5784 9.30466,3.91689 14.57052,2.85481c2.38967,-0.48198 4.22323,-2.09967 6.24795,-3.22452c1.78552,-0.99195 4.34739,-1.65686 5.74052,-3.34131c1.21878,-1.47365 0.4843,-4.76195 0.4843,-6.47928c0,-0.17218 0,-0.34435 0,-0.51652c-2.87776,-0.08732 -6.32205,-0.4746 -9.02723,-0.02859c-3.11133,0.51298 -7.07433,2.16365 -10.0443,3.3663l-3.04651,-0.58512c0,0 -0.40007,-0.20004 -0.77715,-0.60011c-1.8878,-0.12975 -3.7819,-0.18606 -5.67849,-0.20419c0.07368,0.3297 0.07368,0.56823 0.07368,0.56823z" fill="#000000" stroke="none" stroke-width="0.5"/><path d="M218.12902,192.16558c1.89659,0.01813 3.79413,0.06663 5.68193,0.19639c0.37708,0.40007 0.77674,0.60088 0.77674,0.60088l3.05064,0.57856c2.96997,-1.20265 7.00409,-2.86279 10.11542,-3.37577c2.70518,-0.44601 6.16373,-0.04081 9.04148,0.04651c0,0.17218 0.00062,0.3457 0.00062,0.51788c0,1.71733 0.73864,5.02633 -0.48014,6.49998c-1.39313,1.68445 -3.9591,2.36848 -5.74462,3.36044c-2.02472,1.12484 -3.89041,2.77076 -6.28008,3.25273c-5.26586,1.06208 -9.9136,-1.30969 -14.63206,-2.88808c-0.61156,-0.20458 -1.42989,0.25367 -1.92925,-0.15437c-0.29437,-0.24053 0.43894,-0.66246 0.47122,-1.04124c0.1981,-2.32491 0.00125,-4.69068 0.00125,-7.02402c0,0 0.00054,-0.24019 -0.07314,-0.5699z" data-paper-data="{&quot;noHover&quot;:false,&quot;origItem&quot;:[&quot;Path&quot;,{&quot;applyMatrix&quot;:true,&quot;segments&quot;:[[[436.5,385.5],[0,0],[0,4.66667]],[[436.5,399.5],[0.3962,-4.64982],[-0.06455,0.75755]],[[435.55621,401.57645],[-0.58874,-0.48107],[0.99871,0.81607]],[[439.41342,401.8806],[-1.22311,-0.40915],[9.43691,3.1568]],[[468.55446,407.59022],[-10.53173,2.12416],[4.77933,-0.96395]],[[481.05037,401.14118],[-4.04945,2.24969],[3.57104,-1.98391]],[[492.53141,394.45856],[-2.78626,3.3689],[2.43757,-2.9473]],[[493.5,381.5],[0,3.43466],[0,-0.34435]],[[493.5,380.46696],[0,0.34435],[-5.75552,-0.17464]],[[475.44554,380.40978],[5.41036,-0.89202],[-6.22266,1.02595]],[[455.35695,387.14238],[5.93994,-2.4053],[0,0]],[449.26393,385.97214],[[447.70963,384.77192],[0.75416,0.80014],[-3.7756,-0.25951]],[[436.35264,384.36353],[3.79318,0.03626],[0.14736,0.65941]]],&quot;closed&quot;:true}]}" fill="#ffffff" stroke="none" stroke-width="0.5"/></g></g></svg>